<?xml version="1.0" encoding="UTF-8" standalone="no"?>
<!-- Created with Inkscape (http://www.inkscape.org/) -->

<svg
   xmlns:dc="http://purl.org/dc/elements/1.1/"
   xmlns:cc="http://creativecommons.org/ns#"
   xmlns:rdf="http://www.w3.org/1999/02/22-rdf-syntax-ns#"
   xmlns:svg="http://www.w3.org/2000/svg"
   xmlns="http://www.w3.org/2000/svg"
   xmlns:sodipodi="http://sodipodi.sourceforge.net/DTD/sodipodi-0.dtd"
   xmlns:inkscape="http://www.inkscape.org/namespaces/inkscape"
   width="25"
   height="100"
   id="svg3035"
   version="1.1"
   inkscape:version="0.48.4 r9939"
   sodipodi:docname="bow.svg"
   inkscape:export-filename="/home/john/Desktop/bow.png"
   inkscape:export-xdpi="90"
   inkscape:export-ydpi="90">
  <defs
     id="defs3037">
    <marker
       inkscape:stockid="Arrow1Send"
       orient="auto"
       refY="0"
       refX="0"
       id="Arrow1Send"
       style="overflow:visible">
      <path
         inkscape:connector-curvature="0"
         id="path4112"
         d="M 0,0 5,-5 -12.5,0 5,5 0,0 z"
         style="fill-rule:evenodd;stroke:#000000;stroke-width:1pt"
         transform="matrix(-0.2,0,0,-0.2,-1.2,0)" />
    </marker>
  </defs>
  <sodipodi:namedview
     id="base"
     pagecolor="#ffffff"
     bordercolor="#666666"
     borderopacity="1.0"
     inkscape:pageopacity="0.0"
     inkscape:pageshadow="2"
     inkscape:zoom="5.6568543"
     inkscape:cx="-4.1423632"
     inkscape:cy="49.913387"
     inkscape:document-units="px"
     inkscape:current-layer="g8002"
     showgrid="false"
     inkscape:window-width="1319"
     inkscape:window-height="744"
     inkscape:window-x="47"
     inkscape:window-y="24"
     inkscape:window-maximized="1" />
  <metadata
     id="metadata3040">
    <rdf:RDF>
      <cc:Work
         rdf:about="">
        <dc:format>image/svg+xml</dc:format>
        <dc:type
           rdf:resource="http://purl.org/dc/dcmitype/StillImage" />
        <dc:title></dc:title>
      </cc:Work>
    </rdf:RDF>
  </metadata>
  <g
     inkscape:label="Layer 1"
     inkscape:groupmode="layer"
     id="layer1"
     transform="translate(0,-952.3622)">
    <g
       id="g8002"
       transform="matrix(3.0281735,0.71661485,-0.71661485,3.0281735,334.55836,-2683.3876)">
      <path
         d="m 173.04086,1189.2216 0.49421,-0.1176 c 0.65895,-0.1568 1.03324,-0.4857 1.12288,-0.987 0.0968,-0.4919 -0.35162,-2.8266 -0.70279,-4.3027 l -0.61141,-2.5704 c -0.38307,-1.6104 -0.50102,-1.6408 -0.46352,-2.4241 0.0187,-0.3916 0.9,-0.4114 1.00967,-0.9996 0.10968,-0.5881 -0.55222,-1.7447 -0.32413,-1.9462 -0.29193,-0.067 -0.17371,-1.5172 -0.54785,-2.0439 -0.37414,-0.5267 -0.86701,-0.2331 -1.43371,-0.4712 -0.38615,-0.6825 -0.24542,-0.5434 -0.63094,-2.1641 l -0.61143,-2.5704 c -0.34869,-1.4657 -0.99829,-3.7471 -1.30628,-4.1429 -0.30573,-0.4071 -0.78807,-0.5323 -1.44704,-0.3756 l -0.4942,0.1175 -1.85803,-1.8121 1.53205,-0.3644 c 1.02608,-0.2441 1.88252,0.032 2.56928,0.8286 0.68431,0.786 1.26343,2.1753 1.73735,4.1675 l 0.75509,3.1742 c 0.36832,1.5484 0.75079,2.5918 1.14739,3.13 0.39656,0.5383 0.30361,0.8759 0.97198,0.7169 l 0.12337,0.4803 0.60624,2.5485 0.0918,0.4241 c -0.66837,0.1591 -0.43176,0.4253 -0.54105,1.0947 -0.11176,0.6592 0.0166,1.763 0.38488,3.3114 l 0.70721,2.9729 c 0.4739,1.9923 0.58356,3.4986 0.32896,4.5189 -0.25461,1.0204 -0.89495,1.6526 -1.92102,1.8967 l -1.53206,0.3645 0.84309,-2.4546"
         id="path7505"
         inkscape:connector-curvature="0"
         sodipodi:nodetypes="cscsssscscssccccccssccccccsscscc"
         style="font-size:31.70991134999999872px;font-style:normal;font-weight:bold;line-height:125%;letter-spacing:0px;word-spacing:0px;fill:#502d16;fill-opacity:1;stroke:none;font-family:Sans;-inkscape-font-specification:Sans Bold" />
      <path
         d="m 172.8728,1178.8222 c 0.0915,-0.4359 0.69163,-0.6581 0.77287,-1.0428 0.0812,-0.3847 -0.54006,-3.3062 -0.78257,-3.7277 -0.24251,-0.4215 -0.93244,-0.3477 -1.27879,-0.6929 -0.58379,-0.9179 0.61487,-1.3353 0.78179,-1.2625 0.66411,0.5071 1.3322,0.4408 1.66993,0.7991 0.33774,0.3583 1.40588,4.9142 1.26942,5.2628 -0.13646,0.3486 -0.90345,0.8023 -1.07469,1.6668 -0.0652,-0.1944 -0.39128,-1.0536 -1.35796,-1.0028 z"
         id="path7505-0"
         inkscape:connector-curvature="0"
         sodipodi:nodetypes="czzcczzcc"
         style="font-size:31.70991135px;font-style:normal;font-weight:bold;line-height:125%;letter-spacing:0px;word-spacing:0px;fill:#a0892c;fill-opacity:1;stroke:none;font-family:Sans;-inkscape-font-specification:Sans Bold" />
      <path
         style="fill:#d3bc5f;stroke:none"
         d="m 16.6875,43.4375 c 0,0 0.411164,-3.005444 3.4375,-3.6875 0.807586,0.380444 0.891675,0.845055 1.0625,1.28125 C 18.545825,41.57682 16.875,45.75 16.875,45.75 z"
         id="path3113"
         inkscape:connector-curvature="0"
         transform="matrix(0.31271892,-0.07400468,0.07400468,0.31271892,164.43978,1161.7266)"
         sodipodi:nodetypes="ccccc" />
      <path
         style="fill:#d3bc5f;stroke:none"
         d="m 16.866518,49.28062 c 0,0 1.098145,-2.952263 4.711607,-3.639995 0.05096,1.702893 0.04736,2.020412 0.04308,3.423715 -1.6433,-1.416406 -4.894092,3.595971 -4.894092,3.595971 z"
         id="path3115"
         inkscape:connector-curvature="0"
         transform="matrix(0.31271892,-0.07400468,0.07400468,0.31271892,164.43978,1161.7266)"
         sodipodi:nodetypes="ccccc" />
      <path
         style="fill:#d3bc5f;stroke:none"
         d="m 15.6875,55.875 c 0.948043,-0.648711 2.47598,-2.648342 5.851562,-1.78125 0.03339,1.826752 -0.205729,2.239583 -0.289062,3.34375 -0.391012,-1.382532 -3.590575,-1.433841 -7.947494,0.322494 C 13.558245,57.041768 15.6875,55.875 15.6875,55.875 z"
         id="path3117"
         inkscape:connector-curvature="0"
         transform="matrix(0.31271892,-0.07400468,0.07400468,0.31271892,164.43978,1161.7266)"
         sodipodi:nodetypes="ccccc" />
      <path
         style="fill:#28170b;stroke:none"
         d="m 171.50751,1173.2554 c -0.0514,-0.061 -0.17136,-0.4851 0.0272,-0.7736 0.12868,-0.1869 0.53967,-0.4315 0.84162,-0.3981 0.12116,0.073 0.19605,0.14 0.32918,0.2322 -0.78573,0.3661 -0.93643,0.7647 -0.69326,1.2845 -0.33961,-0.046 -0.50478,-0.345 -0.50478,-0.345 z"
         id="path3113-6"
         inkscape:connector-curvature="0"
         sodipodi:nodetypes="cscccc" />
      <path
         style="fill:#28170b;stroke:none"
         d="m 173.05295,1178.479 c 0.63587,-0.2065 1.34998,0.2938 1.31061,0.9813 -0.0711,0.1222 -0.0454,0.2457 -0.1356,0.3803 -0.37804,-0.7801 -0.81189,-0.9716 -1.35514,-1.0205 0.0412,-0.2349 0.0446,-0.1833 0.18013,-0.3411 z"
         id="path3113-6-9"
         inkscape:connector-curvature="0"
         sodipodi:nodetypes="ccccc" />
    </g>
  </g>
</svg>
