<?xml version="1.0" encoding="UTF-8" standalone="no"?>
<!-- Created with Inkscape (http://www.inkscape.org/) -->

<svg
   xmlns:dc="http://purl.org/dc/elements/1.1/"
   xmlns:cc="http://creativecommons.org/ns#"
   xmlns:rdf="http://www.w3.org/1999/02/22-rdf-syntax-ns#"
   xmlns:svg="http://www.w3.org/2000/svg"
   xmlns="http://www.w3.org/2000/svg"
   xmlns:xlink="http://www.w3.org/1999/xlink"
   xmlns:sodipodi="http://sodipodi.sourceforge.net/DTD/sodipodi-0.dtd"
   xmlns:inkscape="http://www.inkscape.org/namespaces/inkscape"
   width="600"
   height="130"
   id="svg2"
   version="1.1"
   inkscape:version="0.48.4 r9939"
   sodipodi:docname="anatomy_conditional_operator.svg"
   inkscape:export-filename="/home/john/Desktop/Link to java_tutorial_armenian/images/anatomy_conditional_operator.png"
   inkscape:export-xdpi="90"
   inkscape:export-ydpi="90">
  <defs
     id="defs4">
    <marker
       inkscape:stockid="Arrow1Mend"
       orient="auto"
       refY="0"
       refX="0"
       id="Arrow1Mend"
       style="overflow:visible">
      <path
         id="path4010"
         d="M 0,0 5,-5 -12.5,0 5,5 0,0 z"
         style="fill-rule:evenodd;stroke:#000000;stroke-width:1pt"
         transform="matrix(-0.4,0,0,-0.4,-4,0)"
         inkscape:connector-curvature="0" />
    </marker>
    <marker
       inkscape:stockid="Arrow1Mstart"
       orient="auto"
       refY="0"
       refX="0"
       id="Arrow1Mstart"
       style="overflow:visible">
      <path
         id="path4007"
         d="M 0,0 5,-5 -12.5,0 5,5 0,0 z"
         style="fill-rule:evenodd;stroke:#000000;stroke-width:1pt"
         transform="matrix(0.4,0,0,0.4,4,0)"
         inkscape:connector-curvature="0" />
    </marker>
    <linearGradient
       id="linearGradient3785">
      <stop
         style="stop-color:#ff0000;stop-opacity:1;"
         offset="0"
         id="stop3787" />
      <stop
         style="stop-color:#00ff00;stop-opacity:1;"
         offset="1"
         id="stop3789" />
    </linearGradient>
    <linearGradient
       inkscape:collect="always"
       xlink:href="#linearGradient3785"
       id="linearGradient3791"
       x1="197.26866"
       y1="947.10773"
       x2="193.33386"
       y2="940.56702"
       gradientUnits="userSpaceOnUse"
       gradientTransform="translate(0,68)" />
  </defs>
  <sodipodi:namedview
     id="base"
     pagecolor="#ffffff"
     bordercolor="#666666"
     borderopacity="1.0"
     inkscape:pageopacity="0.0"
     inkscape:pageshadow="2"
     inkscape:zoom="1"
     inkscape:cx="268.89391"
     inkscape:cy="158.3641"
     inkscape:document-units="px"
     inkscape:current-layer="layer1"
     showgrid="false"
     inkscape:window-width="1319"
     inkscape:window-height="744"
     inkscape:window-x="47"
     inkscape:window-y="24"
     inkscape:window-maximized="1"
     inkscape:object-paths="false"
     inkscape:snap-bbox="false" />
  <metadata
     id="metadata7">
    <rdf:RDF>
      <cc:Work
         rdf:about="">
        <dc:format>image/svg+xml</dc:format>
        <dc:type
           rdf:resource="http://purl.org/dc/dcmitype/StillImage" />
        <dc:title></dc:title>
      </cc:Work>
    </rdf:RDF>
  </metadata>
  <g
     inkscape:label="Layer 1"
     inkscape:groupmode="layer"
     id="layer1"
     transform="translate(0,-922.36218)">
    <rect
       style="fill:#80b3ff;fill-opacity:1;stroke:none"
       id="rect10455"
       width="64.110527"
       height="29.250816"
       x="10.747344"
       y="997.82922" />
    <rect
       y="997.82593"
       x="-95.234894"
       height="29.247458"
       width="20.564487"
       id="rect10457"
       style="fill:#cccccc;fill-opacity:1;stroke:none"
       inkscape:export-xdpi="90"
       inkscape:export-ydpi="90"
       transform="scale(-1,1)" />
    <rect
       style="fill:url(#linearGradient3791);fill-opacity:1;stroke:none"
       id="rect3013"
       width="122.63731"
       height="29.243423"
       x="126.02766"
       y="997.83441" />
    <rect
       style="fill:#d35f5f;fill-opacity:1;stroke:none"
       id="rect3795-2"
       width="150.875"
       height="29.125"
       x="433.50446"
       y="997.85773" />
    <rect
       style="fill:#bcd35f;fill-opacity:1;stroke:none"
       id="rect3795"
       width="143.875"
       height="29.125"
       x="271.125"
       y="997.86218" />
    <g
       style="font-size:25px;font-style:normal;font-weight:normal;line-height:125%;letter-spacing:0px;word-spacing:0px;fill:#000000;fill-opacity:1;stroke:none;font-family:Sans"
       id="text10447"
       transform="translate(0,68)">
      <path
         d="m 18.28836,934.40436 0,3.88183 4.626464,0 0,1.74561 -4.626464,0 0,7.42187 c -5e-6,1.11492 0.150548,1.83106 0.45166,2.14844 0.309239,0.31739 0.931797,0.47608 1.867676,0.47608 l 2.307128,0 0,1.87988 -2.307128,0 c -1.733404,0 -2.929692,-0.32145 -3.588868,-0.96436 -0.659182,-0.65104 -0.988771,-1.83105 -0.988769,-3.54004 l 0,-7.42187 -1.647949,0 0,-1.74561 1.647949,0 0,-3.88183 2.258301,0"
         id="path3835"
         inkscape:connector-curvature="0" />
      <path
         d="m 31.56961,953.2276 c -0.634773,1.6276 -1.253262,2.68961 -1.855469,3.18604 -0.602219,0.49641 -1.407882,0.74462 -2.416992,0.74462 l -1.794434,0 0,-1.87988 1.318359,0 c 0.618486,0 1.098629,-0.14649 1.44043,-0.43945 0.341792,-0.29297 0.72021,-0.9847 1.135254,-2.0752 l 0.402832,-1.02539 -5.529785,-13.45215 2.380371,0 4.272461,10.69336 4.272461,-10.69336 2.380371,0 -6.005859,14.94141"
         id="path3837"
         inkscape:connector-curvature="0" />
      <path
         d="m 42.848907,949.90729 0,7.25097 -2.258301,0 0,-18.87207 2.258301,0 0,2.0752 c 0.472,-0.81379 1.066075,-1.416 1.782226,-1.80664 0.724277,-0.39875 1.586906,-0.59813 2.587891,-0.59815 1.660145,2e-5 3.006986,0.6592 4.040527,1.97754 1.041653,1.31837 1.562486,3.05177 1.5625,5.2002 -1.4e-5,2.14844 -0.520847,3.88184 -1.5625,5.20019 -1.033541,1.31836 -2.380382,1.97754 -4.040527,1.97754 -1.000985,0 -1.863614,-0.19531 -2.587891,-0.58593 -0.716151,-0.39877 -1.310226,-1.00505 -1.782226,-1.81885 m 7.641601,-4.77295 c -1.2e-5,-1.65201 -0.341809,-2.94596 -1.025391,-3.88184 -0.675466,-0.944 -1.607268,-1.416 -2.79541,-1.41601 -1.188158,10e-6 -2.124029,0.47201 -2.807617,1.41601 -0.67546,0.93588 -1.013188,2.22983 -1.013183,3.88184 -5e-6,1.65202 0.337723,2.95003 1.013183,3.89404 0.683588,0.93588 1.619459,1.40381 2.807617,1.40381 1.188142,0 2.119944,-0.46793 2.79541,-1.40381 0.683582,-0.94401 1.025379,-2.24202 1.025391,-3.89404"
         id="path3839"
         inkscape:connector-curvature="0" />
      <path
         d="m 68.239532,944.56061 0,1.09863 -10.327149,0 c 0.09765,1.54623 0.561519,2.72624 1.391602,3.54004 0.83821,0.80567 2.001946,1.2085 3.491211,1.2085 0.86262,0 1.696767,-0.1058 2.502441,-0.31739 0.81379,-0.21158 1.619453,-0.52897 2.416992,-0.95215 l 0,2.12403 c -0.805677,0.3418 -1.631685,0.60221 -2.478027,0.78125 -0.846365,0.17903 -1.704925,0.26855 -2.575684,0.26855 -2.180996,0 -3.910323,-0.63476 -5.187988,-1.90429 -1.269533,-1.26953 -1.904298,-2.98665 -1.904297,-5.15137 -10e-7,-2.23795 0.602212,-4.01203 1.806641,-5.32227 1.21256,-1.31834 2.844232,-1.97752 4.895019,-1.97754 1.839183,2e-5 3.291818,0.59409 4.35791,1.78223 1.074206,1.18002 1.611314,2.78728 1.611329,4.82178 m -2.246094,-0.65918 c -0.01629,-1.22883 -0.362154,-2.20946 -1.037598,-2.9419 -0.667328,-0.73241 -1.554371,-1.09862 -2.661133,-1.09863 -1.253262,10e-6 -2.258306,0.35402 -3.015136,1.06201 -0.748703,0.70802 -1.180017,1.70493 -1.293946,2.99073 l 8.007813,-0.0122"
         id="path3841"
         inkscape:connector-curvature="0" />
      <path
         d="m 91.249785,938.28619 -4.943847,6.65284 5.200195,7.01904 -2.648926,0 -3.979492,-5.37109 -3.979492,5.37109 -2.648926,0 5.310059,-7.15332 -4.858399,-6.51856 2.648926,0 3.625488,4.87061 3.625489,-4.87061 2.648925,0"
         id="path3843"
         inkscape:connector-curvature="0" />
      <path
         d="m 102.93191,940.60553 15.64942,0 0,2.05078 -15.64942,0 0,-2.05078 m 0,4.98047 15.64942,0 0,2.07519 -15.64942,0 0,-2.07519"
         id="path3845"
         inkscape:connector-curvature="0" />
      <path
         d="m 141.38406,938.8111 0,2.09961 c -0.63477,-0.34993 -1.27361,-0.61034 -1.9165,-0.78125 -0.63478,-0.17903 -1.27768,-0.26855 -1.92871,-0.26856 -1.45671,10e-6 -2.5879,0.46388 -3.39356,1.3916 -0.80566,0.91961 -1.2085,2.21355 -1.20849,3.88184 -1e-5,1.6683 0.40283,2.96631 1.20849,3.89404 0.80566,0.9196 1.93685,1.3794 3.39356,1.3794 0.65103,0 1.29393,-0.0855 1.92871,-0.25635 0.64289,-0.17904 1.28173,-0.44352 1.9165,-0.79346 l 0,2.0752 c -0.62664,0.29297 -1.27768,0.51269 -1.95312,0.65918 -0.66733,0.14648 -1.37941,0.21972 -2.13623,0.21972 -2.05893,0 -3.69467,-0.64697 -4.90723,-1.94092 -1.21257,-1.29394 -1.81885,-3.03954 -1.81885,-5.23681 0,-2.22981 0.61035,-3.98355 1.83106,-5.26123 1.22883,-1.27766 2.90933,-1.91649 5.0415,-1.91651 0.69172,2e-5 1.36718,0.0733 2.02637,0.21973 0.65917,0.13836 1.298,0.34995 1.9165,0.63477"
         id="path3847"
         inkscape:connector-curvature="0" />
      <path
         d="m 150.61258,939.8609 c -1.20444,10e-6 -2.15658,0.47202 -2.85645,1.41602 -0.69987,0.93588 -1.04981,2.22168 -1.0498,3.85742 -1e-5,1.63575 0.34586,2.92562 1.0376,3.86963 0.69986,0.93587 1.65608,1.40381 2.86865,1.40381 1.19628,0 2.14436,-0.47201 2.84424,-1.41602 0.69986,-0.94401 1.04979,-2.22981 1.0498,-3.85742 -1e-5,-1.61946 -0.34994,-2.9012 -1.0498,-3.84522 -0.69988,-0.95213 -1.64796,-1.42821 -2.84424,-1.42822 m 0,-1.9043 c 1.95311,2e-5 3.48713,0.63478 4.60205,1.9043 1.11489,1.26954 1.67235,3.02735 1.67236,5.27344 -1e-5,2.23796 -0.55747,3.99577 -1.67236,5.27344 -1.11492,1.26953 -2.64894,1.90429 -4.60205,1.90429 -1.96127,0 -3.49935,-0.63476 -4.61426,-1.90429 -1.10677,-1.27767 -1.66016,-3.03548 -1.66016,-5.27344 0,-2.24609 0.55339,-4.0039 1.66016,-5.27344 1.11491,-1.26952 2.65299,-1.90428 4.61426,-1.9043"
         id="path3849"
         inkscape:connector-curvature="0" />
      <path
         d="m 171.96268,943.70612 0,8.25195 -2.2461,0 0,-8.17871 c -1e-5,-1.29394 -0.25229,-2.26236 -0.75683,-2.90528 -0.50457,-0.64289 -1.26141,-0.96434 -2.27051,-0.96435 -1.21257,1e-5 -2.16879,0.38657 -2.86865,1.15967 -0.69988,0.77312 -1.04981,1.82699 -1.04981,3.16162 l 0,7.72705 -2.2583,0 0,-13.67188 2.2583,0 0,2.12403 c 0.53711,-0.82193 1.1678,-1.43635 1.89209,-1.84326 0.73242,-0.40689 1.5747,-0.61034 2.52686,-0.61036 1.57062,2e-5 2.75877,0.4883 3.56445,1.46485 0.80565,0.96843 1.20848,2.39666 1.2085,4.28467"
         id="path3851"
         inkscape:connector-curvature="0" />
      <path
         d="m 185.46365,940.36139 0,-7.39746 2.2461,0 0,18.99414 -2.2461,0 0,-2.05078 c -0.47201,0.8138 -1.07016,1.42008 -1.79443,1.81885 -0.71616,0.39062 -1.57879,0.58593 -2.58789,0.58593 -1.65203,0 -2.99887,-0.65918 -4.04053,-1.97754 -1.03353,-1.31835 -1.55029,-3.05175 -1.55029,-5.20019 0,-2.14843 0.51676,-3.88183 1.55029,-5.2002 1.04166,-1.31834 2.3885,-1.97752 4.04053,-1.97754 1.0091,2e-5 1.87173,0.1994 2.58789,0.59815 0.72427,0.39064 1.32242,0.99285 1.79443,1.80664 m -7.65381,4.77295 c 0,1.65202 0.33773,2.95003 1.01319,3.89404 0.68359,0.93588 1.61946,1.40381 2.80761,1.40381 1.18815,0 2.12402,-0.46793 2.80762,-1.40381 0.68358,-0.94401 1.02538,-2.24202 1.02539,-3.89404 -1e-5,-1.65201 -0.34181,-2.94596 -1.02539,-3.88184 -0.6836,-0.944 -1.61947,-1.416 -2.80762,-1.41601 -1.18815,10e-6 -2.12402,0.47201 -2.80761,1.41601 -0.67546,0.93588 -1.01319,2.22983 -1.01319,3.88184"
         id="path3853"
         inkscape:connector-curvature="0" />
      <path
         d="m 192.33621,938.28619 2.24609,0 0,13.67188 -2.24609,0 0,-13.67188 m 0,-5.32226 2.24609,0 0,2.84424 -2.24609,0 0,-2.84424"
         id="path3855"
         inkscape:connector-curvature="0" />
      <path
         d="m 201.49148,934.40436 0,3.88183 4.62647,0 0,1.74561 -4.62647,0 0,7.42187 c 0,1.11492 0.15055,1.83106 0.45166,2.14844 0.30924,0.31739 0.9318,0.47608 1.86768,0.47608 l 2.30713,0 0,1.87988 -2.30713,0 c -1.7334,0 -2.92969,-0.32145 -3.58887,-0.96436 -0.65918,-0.65104 -0.98877,-1.83105 -0.98877,-3.54004 l 0,-7.42187 -1.64795,0 0,-1.74561 1.64795,0 0,-3.88183 2.2583,0"
         id="path3857"
         inkscape:connector-curvature="0" />
      <path
         d="m 209.08426,938.28619 2.24609,0 0,13.67188 -2.24609,0 0,-13.67188 m 0,-5.32226 2.24609,0 0,2.84424 -2.24609,0 0,-2.84424"
         id="path3859"
         inkscape:connector-curvature="0" />
      <path
         d="m 221.3157,939.8609 c -1.20443,10e-6 -2.15658,0.47202 -2.85644,1.41602 -0.69988,0.93588 -1.04981,2.22168 -1.04981,3.85742 0,1.63575 0.34587,2.92562 1.0376,3.86963 0.69987,0.93587 1.65608,1.40381 2.86865,1.40381 1.19628,0 2.14436,-0.47201 2.84424,-1.41602 0.69986,-0.94401 1.04979,-2.22981 1.04981,-3.85742 -2e-5,-1.61946 -0.34995,-2.9012 -1.04981,-3.84522 -0.69988,-0.95213 -1.64796,-1.42821 -2.84424,-1.42822 m 0,-1.9043 c 1.95312,2e-5 3.48713,0.63478 4.60205,1.9043 1.1149,1.26954 1.67235,3.02735 1.67237,5.27344 -2e-5,2.23796 -0.55747,3.99577 -1.67237,5.27344 -1.11492,1.26953 -2.64893,1.90429 -4.60205,1.90429 -1.96127,0 -3.49935,-0.63476 -4.61425,-1.90429 -1.10678,-1.27767 -1.66016,-3.03548 -1.66016,-5.27344 0,-2.24609 0.55338,-4.0039 1.66016,-5.27344 1.1149,-1.26952 2.65298,-1.90428 4.61425,-1.9043"
         id="path3861"
         inkscape:connector-curvature="0" />
      <path
         d="m 242.6658,943.70612 0,8.25195 -2.24609,0 0,-8.17871 c -1e-5,-1.29394 -0.25229,-2.26236 -0.75684,-2.90528 -0.50457,-0.64289 -1.2614,-0.96434 -2.27051,-0.96435 -1.21257,1e-5 -2.16879,0.38657 -2.86865,1.15967 -0.69987,0.77312 -1.04981,1.82699 -1.0498,3.16162 l 0,7.72705 -2.2583,0 0,-13.67188 2.2583,0 0,2.12403 c 0.5371,-0.82193 1.1678,-1.43635 1.89209,-1.84326 0.73241,-0.40689 1.5747,-0.61034 2.52685,-0.61036 1.57063,2e-5 2.75878,0.4883 3.56445,1.46485 0.80566,0.96843 1.20849,2.39666 1.2085,4.28467"
         id="path3863"
         inkscape:connector-curvature="0" />
      <path
         d="m 257.54617,948.85748 2.47803,0 0,3.10059 -2.47803,0 0,-3.10059 m 2.40479,-1.79443 -2.33155,0 0,-1.87988 c 0,-0.82194 0.11393,-1.49739 0.3418,-2.02637 0.22786,-0.52896 0.708,-1.14338 1.44043,-1.84326 l 1.09863,-1.08643 c 0.46386,-0.4313 0.79752,-0.8382 1.00098,-1.2207 0.21158,-0.38247 0.31737,-0.7731 0.31738,-1.17188 -10e-6,-0.72427 -0.26856,-1.3102 -0.80566,-1.75781 -0.52898,-0.44757 -1.23292,-0.67137 -2.11182,-0.67139 -0.64291,2e-5 -1.33057,0.14244 -2.06299,0.42725 -0.72428,0.28485 -1.48112,0.69989 -2.2705,1.24512 l 0,-2.29492 c 0.76497,-0.46385 1.53808,-0.80972 2.31933,-1.0376 0.78939,-0.22785 1.60319,-0.34178 2.44141,-0.3418 1.49739,2e-5 2.69774,0.39471 3.60107,1.18408 0.91145,0.78941 1.36718,1.83107 1.36719,3.125 -10e-6,0.61851 -0.1465,1.20851 -0.43945,1.77002 -0.29298,0.5534 -0.80568,1.18003 -1.53809,1.87989 l -1.07422,1.0498 c -0.38249,0.3825 -0.65512,0.6836 -0.81787,0.90332 -0.15463,0.2116 -0.26449,0.41912 -0.32959,0.62256 -0.0488,0.17091 -0.0854,0.37842 -0.10986,0.62256 -0.0244,0.24415 -0.0366,0.5778 -0.0366,1.00097 l 0,1.50147"
         id="path3865"
         inkscape:connector-curvature="0" />
      <path
         d="m 274.75809,938.28619 2.38037,0 4.27246,11.47461 4.27246,-11.47461 2.38037,0 -5.12695,13.67188 -3.05176,0 -5.12695,-13.67188"
         id="path3867"
         inkscape:connector-curvature="0" />
      <path
         d="m 297.37772,945.08551 c -1.81479,10e-6 -3.07211,0.20753 -3.77198,0.62256 -0.69987,0.41504 -1.04981,1.12305 -1.0498,2.12402 -1e-5,0.79753 0.26041,1.4323 0.78125,1.9043 0.52896,0.46387 1.24511,0.6958 2.14844,0.6958 1.2451,0 2.24201,-0.43945 2.99072,-1.31836 0.75682,-0.88704 1.13524,-2.06298 1.13525,-3.52783 l 0,-0.50049 -2.23388,0 m 4.47998,-0.92773 0,7.80029 -2.2461,0 0,-2.0752 c -0.5127,0.83008 -1.15154,1.4445 -1.9165,1.84327 -0.76498,0.39062 -1.70086,0.58593 -2.80762,0.58593 -1.39974,0 -2.51465,-0.39062 -3.34473,-1.17187 -0.82194,-0.78939 -1.23291,-1.84326 -1.23291,-3.16162 0,-1.53808 0.5127,-2.69775 1.53809,-3.47901 1.03352,-0.78124 2.57161,-1.17186 4.61426,-1.17187 l 3.14941,0 0,-0.21973 c -1e-5,-1.03352 -0.34181,-1.83104 -1.02539,-2.39258 -0.67546,-0.56965 -1.62761,-0.85448 -2.85644,-0.85449 -0.78126,10e-6 -1.54216,0.0936 -2.28272,0.28076 -0.74056,0.18719 -1.45264,0.46795 -2.13623,0.84229 l 0,-2.0752 c 0.82194,-0.31737 1.61946,-0.55337 2.39258,-0.70801 0.77311,-0.16274 1.52587,-0.24412 2.2583,-0.24414 1.97753,2e-5 3.45458,0.51271 4.43115,1.53809 0.97655,1.0254 1.46483,2.57976 1.46485,4.66309"
         id="path3869"
         inkscape:connector-curvature="0" />
      <path
         d="m 306.49637,932.96393 2.24609,0 0,18.99414 -2.24609,0 0,-18.99414"
         id="path3871"
         inkscape:connector-curvature="0" />
      <path
         d="m 313.19803,946.56256 0,-8.27637 2.24609,0 0,8.19092 c 0,1.29395 0.25228,2.26644 0.75684,2.91748 0.50455,0.64291 1.26138,0.96436 2.27051,0.96436 1.21255,0 2.16877,-0.38656 2.86865,-1.15967 0.70799,-0.77311 1.062,-1.82698 1.06201,-3.16162 l 0,-7.75147 2.24609,0 0,13.67188 -2.24609,0 0,-2.09961 c -0.54526,0.83008 -1.18002,1.44857 -1.9043,1.85547 -0.71615,0.39876 -1.5503,0.59814 -2.50244,0.59814 -1.57064,0 -2.76286,-0.48828 -3.57666,-1.46484 -0.8138,-0.97656 -1.2207,-2.40478 -1.2207,-4.28467 m 5.65185,-8.60596 0,0"
         id="path3873"
         inkscape:connector-curvature="0" />
      <path
         d="m 340.99344,944.56061 0,1.09863 -10.32715,0 c 0.0976,1.54623 0.56152,2.72624 1.3916,3.54004 0.83821,0.80567 2.00195,1.2085 3.49121,1.2085 0.86262,0 1.69677,-0.1058 2.50244,-0.31739 0.81379,-0.21158 1.61946,-0.52897 2.417,-0.95215 l 0,2.12403 c -0.80568,0.3418 -1.63169,0.60221 -2.47803,0.78125 -0.84637,0.17903 -1.70493,0.26855 -2.57569,0.26855 -2.18099,0 -3.91032,-0.63476 -5.18798,-1.90429 -1.26954,-1.26953 -1.9043,-2.98665 -1.9043,-5.15137 0,-2.23795 0.60221,-4.01203 1.80664,-5.32227 1.21256,-1.31834 2.84423,-1.97752 4.89502,-1.97754 1.83918,2e-5 3.29182,0.59409 4.35791,1.78223 1.0742,1.18002 1.61131,2.78728 1.61133,4.82178 m -2.2461,-0.65918 c -0.0163,-1.22883 -0.36215,-2.20946 -1.03759,-2.9419 -0.66733,-0.73241 -1.55437,-1.09862 -2.66114,-1.09863 -1.25326,10e-6 -2.2583,0.35402 -3.01513,1.06201 -0.74871,0.70802 -1.18002,1.70493 -1.29395,2.99073 l 8.00781,-0.0122"
         id="path3875"
         inkscape:connector-curvature="0" />
      <path
         d="m 344.77762,933.73297 2.46582,0 0,18.2251 -2.46582,0 0,-18.2251"
         id="path3877"
         inkscape:connector-curvature="0" />
      <path
         d="m 358.97439,932.96393 0,1.86767 -2.14843,0 c -0.80567,2e-5 -1.3672,0.16278 -1.68457,0.48829 -0.30925,0.32553 -0.46388,0.91147 -0.46387,1.75781 l 0,1.20849 3.69873,0 0,1.74561 -3.69873,0 0,11.92627 -2.2583,0 0,-11.92627 -2.14844,0 0,-1.74561 2.14844,0 0,-0.95214 c 0,-1.5218 0.354,-2.62857 1.06201,-3.32032 0.708,-0.69985 1.83105,-1.04978 3.36914,-1.0498 l 2.12402,0"
         id="path3879"
         inkscape:connector-curvature="0" />
      <path
         d="m 358.41287,933.73297 15.41748,0 0,2.0752 -6.46972,0 0,16.1499 -2.47803,0 0,-16.1499 -6.46973,0 0,-2.0752"
         id="path3881"
         inkscape:connector-curvature="0" />
      <path
         d="m 380.38553,940.3858 c -0.25229,-0.14647 -0.52898,-0.25226 -0.83008,-0.31738 -0.29298,-0.0732 -0.6185,-0.10985 -0.97656,-0.10986 -1.26954,10e-6 -2.2461,0.41505 -2.92969,1.24511 -0.67546,0.82195 -1.01319,2.00604 -1.01318,3.55225 l 0,7.20215 -2.2583,0 0,-13.67188 2.2583,0 0,2.12403 c 0.472,-0.83007 1.08642,-1.44449 1.84326,-1.84326 0.75683,-0.40689 1.67642,-0.61034 2.75879,-0.61036 0.15461,2e-5 0.32551,0.0122 0.51269,0.0366 0.18717,0.0163 0.39469,0.0448 0.62256,0.0854 l 0.0122,2.30713"
         id="path3883"
         inkscape:connector-curvature="0" />
      <path
         d="m 382.53397,946.56256 0,-8.27637 2.24609,0 0,8.19092 c -10e-6,1.29395 0.25227,2.26644 0.75683,2.91748 0.50456,0.64291 1.26139,0.96436 2.27051,0.96436 1.21256,0 2.16878,-0.38656 2.86865,-1.15967 0.708,-0.77311 1.06201,-1.82698 1.06202,-3.16162 l 0,-7.75147 2.24609,0 0,13.67188 -2.24609,0 0,-2.09961 c -0.54526,0.83008 -1.18003,1.44857 -1.9043,1.85547 -0.71615,0.39876 -1.5503,0.59814 -2.50244,0.59814 -1.57064,0 -2.76286,-0.48828 -3.57666,-1.46484 -0.81381,-0.97656 -1.22071,-2.40478 -1.2207,-4.28467 m 5.65185,-8.60596 0,0"
         id="path3885"
         inkscape:connector-curvature="0" />
      <path
         d="m 410.32938,944.56061 0,1.09863 -10.32715,0 c 0.0976,1.54623 0.56152,2.72624 1.3916,3.54004 0.83821,0.80567 2.00194,1.2085 3.49121,1.2085 0.86262,0 1.69677,-0.1058 2.50244,-0.31739 0.81379,-0.21158 1.61945,-0.52897 2.41699,-0.95215 l 0,2.12403 c -0.80567,0.3418 -1.63168,0.60221 -2.47802,0.78125 -0.84637,0.17903 -1.70493,0.26855 -2.57569,0.26855 -2.18099,0 -3.91032,-0.63476 -5.18799,-1.90429 -1.26953,-1.26953 -1.90429,-2.98665 -1.90429,-5.15137 0,-2.23795 0.60221,-4.01203 1.80664,-5.32227 1.21256,-1.31834 2.84423,-1.97752 4.89502,-1.97754 1.83918,2e-5 3.29182,0.59409 4.35791,1.78223 1.0742,1.18002 1.61131,2.78728 1.61133,4.82178 m -2.2461,-0.65918 c -0.0163,-1.22883 -0.36215,-2.20946 -1.0376,-2.9419 -0.66732,-0.73241 -1.55437,-1.09862 -2.66113,-1.09863 -1.25326,10e-6 -2.25831,0.35402 -3.01514,1.06201 -0.7487,0.70802 -1.18001,1.70493 -1.29394,2.99073 l 8.00781,-0.0122"
         id="path3887"
         inkscape:connector-curvature="0" />
      <path
         d="m 422.54861,948.85748 2.57569,0 0,3.10059 -2.57569,0 0,-3.10059 m 0,-9.82666 2.57569,0 0,3.10059 -2.57569,0 0,-3.10059"
         id="path3889"
         inkscape:connector-curvature="0" />
      <path
         d="m 436.7698,938.28619 2.38038,0 4.27246,11.47461 4.27246,-11.47461 2.38037,0 -5.12695,13.67188 -3.05176,0 -5.12696,-13.67188"
         id="path3891"
         inkscape:connector-curvature="0" />
      <path
         d="m 459.38943,945.08551 c -1.81478,10e-6 -3.0721,0.20753 -3.77197,0.62256 -0.69987,0.41504 -1.04981,1.12305 -1.0498,2.12402 -10e-6,0.79753 0.26041,1.4323 0.78125,1.9043 0.52896,0.46387 1.24511,0.6958 2.14843,0.6958 1.24511,0 2.24202,-0.43945 2.99073,-1.31836 0.75682,-0.88704 1.13524,-2.06298 1.13525,-3.52783 l 0,-0.50049 -2.23389,0 m 4.47998,-0.92773 0,7.80029 -2.24609,0 0,-2.0752 c -0.51271,0.83008 -1.15154,1.4445 -1.9165,1.84327 -0.76499,0.39062 -1.70086,0.58593 -2.80762,0.58593 -1.39974,0 -2.51465,-0.39062 -3.34473,-1.17187 -0.82194,-0.78939 -1.23291,-1.84326 -1.23291,-3.16162 0,-1.53808 0.5127,-2.69775 1.53809,-3.47901 1.03352,-0.78124 2.57161,-1.17186 4.61426,-1.17187 l 3.14941,0 0,-0.21973 c -10e-6,-1.03352 -0.34181,-1.83104 -1.02539,-2.39258 -0.67546,-0.56965 -1.62761,-0.85448 -2.85645,-0.85449 -0.78125,10e-6 -1.54216,0.0936 -2.28271,0.28076 -0.74056,0.18719 -1.45264,0.46795 -2.13623,0.84229 l 0,-2.0752 c 0.82194,-0.31737 1.61946,-0.55337 2.39258,-0.70801 0.7731,-0.16274 1.52587,-0.24412 2.2583,-0.24414 1.97753,2e-5 3.45458,0.51271 4.43115,1.53809 0.97655,1.0254 1.46483,2.57976 1.46484,4.66309"
         id="path3893"
         inkscape:connector-curvature="0" />
      <path
         d="m 468.50809,932.96393 2.24609,0 0,18.99414 -2.24609,0 0,-18.99414"
         id="path3895"
         inkscape:connector-curvature="0" />
      <path
         d="m 475.20975,946.56256 0,-8.27637 2.24609,0 0,8.19092 c 0,1.29395 0.25227,2.26644 0.75684,2.91748 0.50455,0.64291 1.26138,0.96436 2.2705,0.96436 1.21256,0 2.16878,-0.38656 2.86866,-1.15967 0.70799,-0.77311 1.062,-1.82698 1.06201,-3.16162 l 0,-7.75147 2.24609,0 0,13.67188 -2.24609,0 0,-2.09961 c -0.54526,0.83008 -1.18003,1.44857 -1.9043,1.85547 -0.71615,0.39876 -1.5503,0.59814 -2.50244,0.59814 -1.57064,0 -2.76286,-0.48828 -3.57666,-1.46484 -0.81381,-0.97656 -1.22071,-2.40478 -1.2207,-4.28467 m 5.65185,-8.60596 0,0"
         id="path3897"
         inkscape:connector-curvature="0" />
      <path
         d="m 503.00516,944.56061 0,1.09863 -10.32715,0 c 0.0977,1.54623 0.56152,2.72624 1.3916,3.54004 0.83821,0.80567 2.00195,1.2085 3.49121,1.2085 0.86262,0 1.69677,-0.1058 2.50244,-0.31739 0.81379,-0.21158 1.61946,-0.52897 2.41699,-0.95215 l 0,2.12403 c -0.80567,0.3418 -1.63168,0.60221 -2.47802,0.78125 -0.84637,0.17903 -1.70493,0.26855 -2.57569,0.26855 -2.18099,0 -3.91032,-0.63476 -5.18799,-1.90429 -1.26953,-1.26953 -1.90429,-2.98665 -1.90429,-5.15137 0,-2.23795 0.60221,-4.01203 1.80664,-5.32227 1.21256,-1.31834 2.84423,-1.97752 4.89502,-1.97754 1.83918,2e-5 3.29182,0.59409 4.35791,1.78223 1.0742,1.18002 1.61131,2.78728 1.61133,4.82178 m -2.2461,-0.65918 c -0.0163,-1.22883 -0.36215,-2.20946 -1.03759,-2.9419 -0.66733,-0.73241 -1.55438,-1.09862 -2.66114,-1.09863 -1.25326,10e-6 -2.2583,0.35402 -3.01513,1.06201 -0.74871,0.70802 -1.18002,1.70493 -1.29395,2.99073 l 8.00781,-0.0122"
         id="path3899"
         inkscape:connector-curvature="0" />
      <path
         d="m 506.78934,933.73297 2.46582,0 0,18.2251 -2.46582,0 0,-18.2251"
         id="path3901"
         inkscape:connector-curvature="0" />
      <path
         d="m 520.98611,932.96393 0,1.86767 -2.14843,0 c -0.80567,2e-5 -1.3672,0.16278 -1.68457,0.48829 -0.30925,0.32553 -0.46388,0.91147 -0.46387,1.75781 l 0,1.20849 3.69873,0 0,1.74561 -3.69873,0 0,11.92627 -2.2583,0 0,-11.92627 -2.14844,0 0,-1.74561 2.14844,0 0,-0.95214 c 0,-1.5218 0.354,-2.62857 1.06201,-3.32032 0.708,-0.69985 1.83105,-1.04978 3.36914,-1.0498 l 2.12402,0"
         id="path3903"
         inkscape:connector-curvature="0" />
      <path
         d="m 522.95145,933.73297 10.47363,0 0,2.0752 -8.00781,0 0,5.37109 7.22656,0 0,2.0752 -7.22656,0 0,8.70361 -2.46582,0 0,-18.2251"
         id="path3905"
         inkscape:connector-curvature="0" />
      <path
         d="m 541.17654,945.08551 c -1.81478,10e-6 -3.07211,0.20753 -3.77197,0.62256 -0.69987,0.41504 -1.04981,1.12305 -1.0498,2.12402 -10e-6,0.79753 0.26041,1.4323 0.78125,1.9043 0.52896,0.46387 1.24511,0.6958 2.14843,0.6958 1.24511,0 2.24202,-0.43945 2.99073,-1.31836 0.75682,-0.88704 1.13524,-2.06298 1.13525,-3.52783 l 0,-0.50049 -2.23389,0 m 4.47998,-0.92773 0,7.80029 -2.24609,0 0,-2.0752 c -0.51271,0.83008 -1.15154,1.4445 -1.9165,1.84327 -0.76499,0.39062 -1.70086,0.58593 -2.80762,0.58593 -1.39975,0 -2.51465,-0.39062 -3.34473,-1.17187 -0.82194,-0.78939 -1.23291,-1.84326 -1.23291,-3.16162 0,-1.53808 0.5127,-2.69775 1.53809,-3.47901 1.03352,-0.78124 2.57161,-1.17186 4.61426,-1.17187 l 3.14941,0 0,-0.21973 c -10e-6,-1.03352 -0.34181,-1.83104 -1.02539,-2.39258 -0.67547,-0.56965 -1.62761,-0.85448 -2.85645,-0.85449 -0.78125,10e-6 -1.54216,0.0936 -2.28271,0.28076 -0.74056,0.18719 -1.45264,0.46795 -2.13623,0.84229 l 0,-2.0752 c 0.82194,-0.31737 1.61946,-0.55337 2.39258,-0.70801 0.7731,-0.16274 1.52587,-0.24412 2.2583,-0.24414 1.97753,2e-5 3.45458,0.51271 4.43115,1.53809 0.97655,1.0254 1.46483,2.57976 1.46484,4.66309"
         id="path3907"
         inkscape:connector-curvature="0" />
      <path
         d="m 550.2952,932.96393 2.24609,0 0,18.99414 -2.24609,0 0,-18.99414"
         id="path3909"
         inkscape:connector-curvature="0" />
      <path
         d="m 565.94461,938.68903 0,2.12402 c -0.63478,-0.32551 -1.29396,-0.56965 -1.97754,-0.73242 -0.6836,-0.16275 -1.39161,-0.24413 -2.12402,-0.24414 -1.11492,10e-6 -1.95313,0.17091 -2.51465,0.51269 -0.55339,0.34181 -0.83008,0.85451 -0.83008,1.53809 0,0.52084 0.19938,0.93181 0.59815,1.23291 0.39875,0.29298 1.20035,0.57374 2.40478,0.84228 l 0.76904,0.1709 c 1.59505,0.34181 2.72623,0.82602 3.39356,1.45264 0.67544,0.61849 1.01317,1.48519 1.01318,2.6001 -10e-6,1.26953 -0.50457,2.27457 -1.51367,3.01513 -1.00099,0.74056 -2.38038,1.11084 -4.13818,1.11084 -0.73243,0 -1.4974,-0.0732 -2.29493,-0.21972 -0.78939,-0.13835 -1.62353,-0.34994 -2.50244,-0.63477 l 0,-2.31934 c 0.83008,0.43132 1.64795,0.75684 2.45362,0.97657 0.80566,0.21159 1.60318,0.31738 2.39257,0.31738 1.05794,0 1.87174,-0.17903 2.44141,-0.53711 0.56965,-0.36621 0.85448,-0.8789 0.85449,-1.53809 -10e-6,-0.61034 -0.20753,-1.07828 -0.62256,-1.4038 -0.40691,-0.32552 -1.30616,-0.63883 -2.69775,-0.93995 l -0.78125,-0.1831 c -1.39161,-0.29296 -2.39665,-0.74055 -3.01514,-1.34277 -0.61849,-0.61035 -0.92773,-1.44449 -0.92773,-2.50245 0,-1.28579 0.45573,-2.27863 1.36719,-2.97851 0.91145,-0.69986 2.2054,-1.04979 3.88183,-1.04981 0.83007,2e-5 1.61132,0.0611 2.34375,0.18311 0.73241,0.12208 1.40787,0.30519 2.02637,0.54932"
         id="path3911"
         inkscape:connector-curvature="0" />
      <path
         d="m 581.96023,944.56061 0,1.09863 -10.32714,0 c 0.0976,1.54623 0.56152,2.72624 1.3916,3.54004 0.83821,0.80567 2.00194,1.2085 3.49121,1.2085 0.86262,0 1.69677,-0.1058 2.50244,-0.31739 0.81379,-0.21158 1.61945,-0.52897 2.41699,-0.95215 l 0,2.12403 c -0.80567,0.3418 -1.63168,0.60221 -2.47803,0.78125 -0.84636,0.17903 -1.70492,0.26855 -2.57568,0.26855 -2.18099,0 -3.91032,-0.63476 -5.18799,-1.90429 -1.26953,-1.26953 -1.9043,-2.98665 -1.90429,-5.15137 -1e-5,-2.23795 0.60221,-4.01203 1.80664,-5.32227 1.21256,-1.31834 2.84423,-1.97752 4.89502,-1.97754 1.83918,2e-5 3.29181,0.59409 4.35791,1.78223 1.0742,1.18002 1.61131,2.78728 1.61132,4.82178 m -2.24609,-0.65918 c -0.0163,-1.22883 -0.36215,-2.20946 -1.0376,-2.9419 -0.66732,-0.73241 -1.55437,-1.09862 -2.66113,-1.09863 -1.25326,10e-6 -2.25831,0.35402 -3.01514,1.06201 -0.7487,0.70802 -1.18001,1.70493 -1.29394,2.99073 l 8.00781,-0.0122"
         id="path3913"
         inkscape:connector-curvature="0" />
      <path
         d="m 586.22049,939.03082 2.57568,0 0,3.10059 -2.57568,0 0,-3.10059 m 0,9.82666 2.57568,0 0,2.09961 -2.00195,3.90625 -1.57471,0 1.00098,-3.90625 0,-2.09961"
         id="path3915"
         inkscape:connector-curvature="0" />
    </g>
    <rect
       style="fill:#000000;fill-opacity:0;stroke-width:5;stroke-miterlimit:4;stroke-dasharray:none"
       id="rect10453"
       width="128.6783"
       height="59.102245"
       x="37.406483"
       y="977.19513" />
    <text
       xml:space="preserve"
       style="font-size:16px;font-style:normal;font-weight:normal;line-height:125%;letter-spacing:0px;word-spacing:0px;fill:#000000;fill-opacity:1;stroke:none;font-family:Sans"
       x="235.39339"
       y="961.03375"
       id="text3917"
       sodipodi:linespacing="125%"><tspan
         sodipodi:role="line"
         x="235.39339"
         y="961.03375"
         id="tspan3921">if true</tspan></text>
    <rect
       style="fill:none;stroke:#000000;stroke-width:0.54188859;stroke-opacity:1"
       id="rect3923"
       width="58.708118"
       height="23.208113"
       x="229.78934"
       y="944.30469" />
    <path
       style="fill:none;stroke:#000000;stroke-width:1px;stroke-linecap:butt;stroke-linejoin:miter;stroke-opacity:1;marker-end:url(#Arrow1Mend)"
       d="m 259.29694,967.5128 0.40182,30.36751"
       id="path3949"
       inkscape:connector-type="polyline"
       inkscape:connector-curvature="0"
       inkscape:connection-start="#rect3923"
       inkscape:connection-start-point="d4"
       inkscape:connection-end="#rect3925"
       inkscape:connection-end-point="d4" />
    <rect
       style="fill:none;stroke:#000000;stroke-width:0.09475046;stroke-miterlimit:4;stroke-opacity:1;stroke-dasharray:none"
       id="rect3925"
       width="22.388632"
       height="29.051832"
       x="248.69666"
       y="997.88031" />
    <text
       xml:space="preserve"
       style="font-size:16px;font-style:normal;font-weight:normal;line-height:125%;letter-spacing:0px;word-spacing:0px;fill:#000000;fill-opacity:1;stroke:none;font-family:Sans"
       x="397.375"
       y="960.73718"
       id="text3917-1"
       sodipodi:linespacing="125%"><tspan
         sodipodi:role="line"
         x="397.375"
         y="960.73718"
         id="tspan3921-0">or else</tspan></text>
    <rect
       style="fill:none;stroke:#000000;stroke-width:0.58664101;stroke-opacity:1"
       id="rect3923-6"
       width="66.913361"
       height="23.86437"
       x="391.79333"
       y="944.28046" />
    <path
       style="fill:none;stroke:#000000;stroke-width:1px;stroke-linecap:butt;stroke-linejoin:miter;stroke-opacity:1;marker-end:url(#Arrow1Mend)"
       d="m 425.03926,968.14483 -0.52556,29.75568"
       id="path3991"
       inkscape:connector-type="polyline"
       inkscape:connector-curvature="0"
       inkscape:connection-start="#rect3923-6"
       inkscape:connection-start-point="d4"
       inkscape:connection-end="#rect3925-2"
       inkscape:connection-end-point="d4" />
    <rect
       style="fill:none;stroke:#000000;stroke-width:0.08610594;stroke-miterlimit:4;stroke-opacity:1;stroke-dasharray:none"
       id="rect3925-2"
       width="18.491251"
       height="29.049477"
       x="415.01154"
       y="997.90051" />
  </g>
</svg>
