<?xml version="1.0" encoding="UTF-8" standalone="no"?>
<!-- Created with Inkscape (http://www.inkscape.org/) -->

<svg
   xmlns:dc="http://purl.org/dc/elements/1.1/"
   xmlns:cc="http://creativecommons.org/ns#"
   xmlns:rdf="http://www.w3.org/1999/02/22-rdf-syntax-ns#"
   xmlns:svg="http://www.w3.org/2000/svg"
   xmlns="http://www.w3.org/2000/svg"
   xmlns:sodipodi="http://sodipodi.sourceforge.net/DTD/sodipodi-0.dtd"
   xmlns:inkscape="http://www.inkscape.org/namespaces/inkscape"
   width="600"
   height="200"
   id="svg2"
   version="1.1"
   inkscape:version="0.48.4 r9939"
   sodipodi:docname="anatomy_constructor.svg"
   inkscape:export-filename="/home/john/Desktop/Link to java_tutorial_armenian/images/anatomy_constructor.png"
   inkscape:export-xdpi="90"
   inkscape:export-ydpi="90">
  <defs
     id="defs4">
    <marker
       inkscape:stockid="Arrow1Lend"
       orient="auto"
       refY="0.0"
       refX="0.0"
       id="Arrow1Lend"
       style="overflow:visible;">
      <path
         id="path5297"
         d="M 0.0,0.0 L 5.0,-5.0 L -12.5,0.0 L 5.0,5.0 L 0.0,0.0 z "
         style="fill-rule:evenodd;stroke:#000000;stroke-width:1.0pt;"
         transform="scale(0.8) rotate(180) translate(12.5,0)" />
    </marker>
    <marker
       inkscape:stockid="Arrow1Send"
       orient="auto"
       refY="0.0"
       refX="0.0"
       id="Arrow1Send"
       style="overflow:visible;">
      <path
         id="path5309"
         d="M 0.0,0.0 L 5.0,-5.0 L -12.5,0.0 L 5.0,5.0 L 0.0,0.0 z "
         style="fill-rule:evenodd;stroke:#000000;stroke-width:1.0pt;"
         transform="scale(0.2) rotate(180) translate(6,0)" />
    </marker>
  </defs>
  <sodipodi:namedview
     id="base"
     pagecolor="#ffffff"
     bordercolor="#666666"
     borderopacity="1.0"
     inkscape:pageopacity="0.0"
     inkscape:pageshadow="2"
     inkscape:zoom="1.3366667"
     inkscape:cx="247.93156"
     inkscape:cy="126.63856"
     inkscape:document-units="px"
     inkscape:current-layer="g3164"
     showgrid="false"
     inkscape:window-width="1319"
     inkscape:window-height="744"
     inkscape:window-x="47"
     inkscape:window-y="24"
     inkscape:window-maximized="1" />
  <metadata
     id="metadata7">
    <rdf:RDF>
      <cc:Work
         rdf:about="">
        <dc:format>image/svg+xml</dc:format>
        <dc:type
           rdf:resource="http://purl.org/dc/dcmitype/StillImage" />
        <dc:title></dc:title>
      </cc:Work>
    </rdf:RDF>
  </metadata>
  <g
     inkscape:label="Layer 1"
     inkscape:groupmode="layer"
     id="layer1"
     transform="translate(0,-852.36218)">
    <flowRoot
       xml:space="preserve"
       id="flowRoot10535"
       style="fill:black;stroke:none;stroke-opacity:1;stroke-width:1px;stroke-linejoin:miter;stroke-linecap:butt;fill-opacity:1;font-family:Sans;font-style:normal;font-weight:normal;font-size:16px;line-height:125%;letter-spacing:0px;word-spacing:0px"><flowRegion
         id="flowRegion10537"><rect
           id="rect10539"
           width="177.30673"
           height="17.955112"
           x="64.339149"
           y="90.773064" /></flowRegion><flowPara
         id="flowPara10541" /></flowRoot>    <g
       id="g3164">
      <rect
         y="929.18842"
         x="9.2080946"
         height="26.971731"
         width="81.745377"
         id="rect10455"
         style="fill:#800080;fill-opacity:1;stroke:none" />
      <rect
         style="fill:#5599ff;fill-opacity:1;stroke:none"
         id="rect10457"
         width="108.60886"
         height="27.28019"
         x="98.939056"
         y="928.87994" />
      <rect
         y="928.86414"
         x="207.13467"
         height="27.330458"
         width="118.31643"
         id="rect10533"
         style="fill:#cccccc;fill-opacity:1;stroke:none" />
      <rect
         y="929.03467"
         x="450.34836"
         height="26.816359"
         width="127.71613"
         id="rect10533-9"
         style="fill:#cccccc;fill-opacity:1;stroke:none" />
      <rect
         style="fill:#5599ff;fill-opacity:1;stroke:none"
         id="rect10457-5"
         width="119.17944"
         height="26.971731"
         x="332.62927"
         y="928.99072" />
      <g
         style="font-size:13.99415398px;font-style:normal;font-weight:normal;line-height:125%;letter-spacing:0px;word-spacing:0px;fill:#000000;fill-opacity:1;stroke:none;font-family:Sans"
         id="text10447">
        <path
           d="m 20.143911,938.51407 0,1.45544 c -0.464658,-0.43275 -0.961195,-0.75618 -1.489612,-0.9703 -0.523876,-0.21409 -1.081911,-0.32114 -1.674105,-0.32115 -1.166184,1e-5 -2.05904,0.35761 -2.678569,1.07279 -0.619535,0.71065 -0.929301,1.74017 -0.929299,3.08856 -2e-6,1.34384 0.309764,2.37336 0.929299,3.08855 0.619529,0.71064 1.512385,1.06596 2.678569,1.06596 0.592194,0 1.150229,-0.10705 1.674105,-0.32115 0.528417,-0.21411 1.024954,-0.53754 1.489612,-0.9703 l 0,1.44178 c -0.482879,0.32799 -0.99536,0.57398 -1.537443,0.73797 -0.537543,0.164 -1.106966,0.24599 -1.708271,0.24599 -1.544281,0 -2.760569,-0.47148 -3.648866,-1.41445 -0.888302,-0.94751 -1.332452,-2.23897 -1.332452,-3.87435 0,-1.63994 0.44415,-2.93139 1.332452,-3.87436 0.888297,-0.94751 2.104585,-1.42127 3.648866,-1.42128 0.610416,10e-6 1.184394,0.082 1.721937,0.24599 0.542083,0.15945 1.050008,0.40088 1.523777,0.72431"
           style="fill:#ff00ff"
           id="path3361" />
        <path
           d="m 22.234835,937.29778 1.257287,0 0,10.63227 -1.257287,0 0,-10.63227"
           style="fill:#ff00ff"
           id="path3363" />
        <path
           d="m 29.594065,944.08303 c -1.015855,0 -1.719662,0.11616 -2.111422,0.34849 -0.391766,0.23232 -0.587647,0.62864 -0.587645,1.18895 -2e-6,0.44643 0.14577,0.80175 0.437317,1.06596 0.296097,0.25966 0.696971,0.38949 1.202623,0.38949 0.69697,0 1.255004,-0.24599 1.674105,-0.73797 0.423645,-0.49654 0.635471,-1.15479 0.635477,-1.97477 l 0,-0.28015 -1.250455,0 m 2.507742,-0.51932 0,4.36634 -1.257287,0 0,-1.16162 c -0.286996,0.46465 -0.644593,0.80858 -1.072794,1.0318 -0.428211,0.21865 -0.952081,0.32798 -1.571609,0.32798 -0.78353,0 -1.407618,-0.21866 -1.872265,-0.65597 -0.460096,-0.44187 -0.690142,-1.0318 -0.690142,-1.76977 0,-0.86097 0.286989,-1.51011 0.860969,-1.94743 0.578532,-0.43731 1.4395,-0.65597 2.582905,-0.65598 l 1.762936,0 0,-0.12299 c -6e-6,-0.57853 -0.191333,-1.02496 -0.573979,-1.33929 -0.378103,-0.31887 -0.911083,-0.4783 -1.598942,-0.47831 -0.43732,1e-5 -0.863249,0.0524 -1.277786,0.15716 -0.414543,0.10478 -0.813139,0.26194 -1.19579,0.47148 l 0,-1.16162 c 0.460093,-0.17765 0.90652,-0.30976 1.339284,-0.39632 0.432759,-0.0911 0.854132,-0.13665 1.264121,-0.13666 1.106954,1e-5 1.933756,0.28699 2.480409,0.86097 0.54664,0.57398 0.819963,1.44406 0.81997,2.61023"
           style="fill:#ff00ff"
           id="path3365" />
        <path
           d="m 39.577201,940.50249 0,1.18896 c -0.355326,-0.18221 -0.724312,-0.31887 -1.106959,-0.40999 -0.382658,-0.0911 -0.778976,-0.13665 -1.188957,-0.13666 -0.624091,10e-6 -1.093296,0.0957 -1.407615,0.28699 -0.309769,0.19133 -0.464652,0.47832 -0.46465,0.86097 -2e-6,0.29155 0.111605,0.5216 0.334822,0.69014 0.223211,0.164 0.671916,0.32116 1.346117,0.47148 l 0.430484,0.0957 c 0.892851,0.19133 1.52605,0.46237 1.899597,0.81313 0.378091,0.34622 0.567139,0.83137 0.567146,1.45545 -7e-6,0.71064 -0.28244,1.27323 -0.847302,1.68777 -0.560318,0.41454 -1.332456,0.62181 -2.316415,0.62181 -0.409988,0 -0.838194,-0.041 -1.28462,-0.12299 -0.441874,-0.0774 -0.908801,-0.19588 -1.400782,-0.35532 l 0,-1.29829 c 0.464648,0.24144 0.922465,0.42365 1.37345,0.54665 0.450981,0.11844 0.897408,0.17766 1.339284,0.17766 0.592196,0 1.047735,-0.10022 1.366617,-0.30066 0.318872,-0.20499 0.47831,-0.49198 0.478315,-0.86097 -5e-6,-0.34165 -0.116167,-0.60358 -0.348487,-0.7858 -0.227774,-0.18221 -0.731144,-0.3576 -1.510111,-0.52615 l -0.437318,-0.10249 c -0.778973,-0.16399 -1.341563,-0.41454 -1.687771,-0.75164 -0.346211,-0.34165 -0.519315,-0.80858 -0.519314,-1.40079 -10e-7,-0.71974 0.2551,-1.2755 0.765305,-1.66727 0.510201,-0.39175 1.234507,-0.58763 2.17292,-0.58764 0.464646,1e-5 0.901963,0.0342 1.311952,0.10249 0.40998,0.0683 0.788077,0.17084 1.134292,0.30749"
           style="fill:#ff00ff"
           id="path3367" />
        <path
           d="m 46.874932,940.50249 0,1.18896 c -0.355326,-0.18221 -0.724312,-0.31887 -1.106959,-0.40999 -0.382657,-0.0911 -0.778976,-0.13665 -1.188956,-0.13666 -0.624092,10e-6 -1.093296,0.0957 -1.407616,0.28699 -0.309768,0.19133 -0.464651,0.47832 -0.464649,0.86097 -2e-6,0.29155 0.111605,0.5216 0.334821,0.69014 0.223211,0.164 0.671917,0.32116 1.346117,0.47148 l 0.430484,0.0957 c 0.892852,0.19133 1.52605,0.46237 1.899598,0.81313 0.37809,0.34622 0.567139,0.83137 0.567145,1.45545 -6e-6,0.71064 -0.28244,1.27323 -0.847302,1.68777 -0.560318,0.41454 -1.332455,0.62181 -2.316415,0.62181 -0.409988,0 -0.838194,-0.041 -1.28462,-0.12299 -0.441874,-0.0774 -0.908801,-0.19588 -1.400782,-0.35532 l 0,-1.29829 c 0.464649,0.24144 0.922465,0.42365 1.37345,0.54665 0.450981,0.11844 0.897409,0.17766 1.339284,0.17766 0.592197,0 1.047735,-0.10022 1.366617,-0.30066 0.318872,-0.20499 0.47831,-0.49198 0.478316,-0.86097 -6e-6,-0.34165 -0.116168,-0.60358 -0.348487,-0.7858 -0.227775,-0.18221 -0.731145,-0.3576 -1.510112,-0.52615 l -0.437317,-0.10249 c -0.778974,-0.16399 -1.341564,-0.41454 -1.687772,-0.75164 -0.34621,-0.34165 -0.519315,-0.80858 -0.519314,-1.40079 -10e-7,-0.71974 0.255101,-1.2755 0.765305,-1.66727 0.510202,-0.39175 1.234508,-0.58763 2.172921,-0.58764 0.464645,1e-5 0.901962,0.0342 1.311952,0.10249 0.409979,0.0683 0.788076,0.17084 1.134291,0.30749"
           style="fill:#ff00ff"
           id="path3369" />
        <path
           d="m 49.348511,937.72826 1.858599,0 4.523501,8.53452 0,-8.53452 1.339284,0 0,10.20179 -1.858599,0 -4.523501,-8.53452 0,8.53452 -1.339284,0 0,-10.20179"
           style="fill:#ff00ff"
           id="path3371" />
        <path
           d="m 63.240166,944.08303 c -1.015855,0 -1.719662,0.11616 -2.111422,0.34849 -0.391766,0.23232 -0.587647,0.62864 -0.587645,1.18895 -2e-6,0.44643 0.14577,0.80175 0.437317,1.06596 0.296097,0.25966 0.696971,0.38949 1.202623,0.38949 0.69697,0 1.255004,-0.24599 1.674105,-0.73797 0.423645,-0.49654 0.635471,-1.15479 0.635477,-1.97477 l 0,-0.28015 -1.250455,0 m 2.507742,-0.51932 0,4.36634 -1.257287,0 0,-1.16162 c -0.286996,0.46465 -0.644593,0.80858 -1.072794,1.0318 -0.428211,0.21865 -0.952081,0.32798 -1.571609,0.32798 -0.78353,0 -1.407618,-0.21866 -1.872265,-0.65597 -0.460096,-0.44187 -0.690142,-1.0318 -0.690142,-1.76977 0,-0.86097 0.286989,-1.51011 0.860969,-1.94743 0.578532,-0.43731 1.4395,-0.65597 2.582905,-0.65598 l 1.762936,0 0,-0.12299 c -6e-6,-0.57853 -0.191333,-1.02496 -0.573979,-1.33929 -0.378103,-0.31887 -0.911083,-0.4783 -1.598942,-0.47831 -0.43732,1e-5 -0.863249,0.0524 -1.277786,0.15716 -0.414543,0.10478 -0.813139,0.26194 -1.19579,0.47148 l 0,-1.16162 c 0.460093,-0.17765 0.90652,-0.30976 1.339284,-0.39632 0.432759,-0.0911 0.854132,-0.13665 1.264121,-0.13666 1.106954,1e-5 1.933756,0.28699 2.480409,0.86097 0.54664,0.57398 0.819963,1.44406 0.81997,2.61023"
           style="fill:#ff00ff"
           id="path3373" />
        <path
           d="m 74.302927,941.74611 c 0.314315,-0.56486 0.690134,-0.98168 1.127459,-1.25045 0.437308,-0.26876 0.952067,-0.40314 1.544277,-0.40315 0.797182,1e-5 1.412159,0.28016 1.844932,0.84047 0.43275,0.55576 0.649131,1.3484 0.649143,2.37791 l 0,4.61916 -1.26412,0 0,-4.57816 c -1.2e-5,-0.73341 -0.12984,-1.27778 -0.389486,-1.63311 -0.259668,-0.35531 -0.655986,-0.53297 -1.188956,-0.53298 -0.65143,10e-6 -1.166188,0.21639 -1.544277,0.64914 -0.378105,0.43277 -0.567154,1.02269 -0.567146,1.76977 l 0,4.32534 -1.26412,0 0,-4.57816 c -7e-6,-0.73797 -0.129835,-1.28234 -0.389486,-1.63311 -0.259663,-0.35531 -0.660537,-0.53297 -1.202623,-0.53298 -0.642314,10e-6 -1.152517,0.21867 -1.53061,0.65598 -0.3781,0.43276 -0.567149,1.02041 -0.567146,1.76293 l 0,4.32534 -1.264121,0 0,-7.65305 1.264121,0 0,1.18896 c 0.286986,-0.4692 0.630918,-0.81541 1.031795,-1.03863 0.40087,-0.22321 0.876908,-0.33481 1.428115,-0.33482 0.555751,1e-5 1.027234,0.14122 1.414448,0.42365 0.391756,0.28244 0.681023,0.69242 0.867801,1.22995"
           style="fill:#ff00ff"
           id="path3375" />
        <path
           d="m 88.529408,943.78921 0,0.61497 -5.780788,0 c 0.05466,0.86553 0.31432,1.52606 0.778972,1.9816 0.469201,0.45098 1.120621,0.67647 1.954261,0.67647 0.482866,0 0.949793,-0.0592 1.400782,-0.17766 0.455533,-0.11844 0.906516,-0.2961 1.352951,-0.53298 l 0,1.18896 c -0.450991,0.19132 -0.913362,0.3371 -1.387116,0.43732 -0.473766,0.10021 -0.954359,0.15032 -1.441781,0.15032 -1.220847,0 -2.188866,-0.35532 -2.90406,-1.06596 -0.710642,-0.71064 -1.065962,-1.67182 -1.065961,-2.88356 -10e-7,-1.25273 0.337098,-2.2458 1.011296,-2.97922 0.678751,-0.73797 1.592105,-1.10695 2.740067,-1.10696 1.029512,1e-5 1.842648,0.33255 2.43941,0.99763 0.601304,0.66054 0.901959,1.56022 0.901967,2.69907 m -1.257287,-0.36899 c -0.0091,-0.68786 -0.202721,-1.23678 -0.580812,-1.64677 -0.373548,-0.40998 -0.870084,-0.61497 -1.489612,-0.61498 -0.701534,1e-5 -1.264124,0.19816 -1.687772,0.59448 -0.419098,0.39632 -0.660533,0.95436 -0.724306,1.6741 l 4.482502,-0.007"
           style="fill:#ff00ff"
           id="path3377" />
        <path
           d="m 98.068395,937.31144 c -0.610426,1.04775 -1.063687,2.0841 -1.359784,3.10906 -0.296102,1.02496 -0.444152,2.06359 -0.44415,3.11588 -2e-6,1.0523 0.148048,2.09548 0.44415,3.12955 0.300653,1.02952 0.753914,2.06587 1.359784,3.10906 l -1.093293,0 c -0.683311,-1.07052 -1.195792,-2.12281 -1.537444,-3.15689 -0.3371,-1.03407 -0.505649,-2.06131 -0.505648,-3.08172 -1e-6,-1.01584 0.168548,-2.03853 0.505648,-3.06805 0.337097,-1.02951 0.849577,-2.08181 1.537444,-3.15689 l 1.093293,0"
           style="fill:#000000"
           id="path3379" />
        <path
           d="m 101.73092,946.7821 0,4.05885 -1.26412,0 0,-10.56395 1.26412,0 0,1.16162 c 0.26421,-0.45553 0.59676,-0.79263 0.99763,-1.01129 0.40543,-0.22321 0.8883,-0.33481 1.44862,-0.33482 0.92929,1e-5 1.68321,0.36899 2.26175,1.10696 0.58308,0.73798 0.87462,1.70827 0.87463,2.91089 -1e-5,1.20263 -0.29155,2.17292 -0.87463,2.91089 -0.57854,0.73798 -1.33246,1.10696 -2.26175,1.10696 -0.56032,0 -1.04319,-0.10933 -1.44862,-0.32798 -0.40087,-0.22322 -0.73342,-0.56259 -0.99763,-1.01813 m 4.27751,-2.67174 c 0,-0.92474 -0.19133,-1.64904 -0.57398,-2.17292 -0.3781,-0.52842 -0.89969,-0.79263 -1.56477,-0.79264 -0.66509,10e-6 -1.18896,0.26422 -1.57161,0.79264 -0.3781,0.52388 -0.56715,1.24818 -0.56715,2.17292 0,0.92475 0.18905,1.65133 0.56715,2.17975 0.38265,0.52387 0.90652,0.78581 1.57161,0.78581 0.66508,0 1.18667,-0.26194 1.56477,-0.78581 0.38265,-0.52842 0.57398,-1.255 0.57398,-2.17975"
           style="fill:#0000ff"
           id="path3381" />
        <path
           d="m 112.87568,944.08303 c -1.01585,0 -1.71966,0.11616 -2.11142,0.34849 -0.39176,0.23232 -0.58765,0.62864 -0.58764,1.18895 -1e-5,0.44643 0.14577,0.80175 0.43731,1.06596 0.2961,0.25966 0.69697,0.38949 1.20263,0.38949 0.69697,0 1.255,-0.24599 1.6741,-0.73797 0.42365,-0.49654 0.63547,-1.15479 0.63548,-1.97477 l 0,-0.28015 -1.25046,0 m 2.50775,-0.51932 0,4.36634 -1.25729,0 0,-1.16162 c -0.287,0.46465 -0.6446,0.80858 -1.0728,1.0318 -0.42821,0.21865 -0.95208,0.32798 -1.57161,0.32798 -0.78352,0 -1.40761,-0.21866 -1.87226,-0.65597 -0.4601,-0.44187 -0.69014,-1.0318 -0.69014,-1.76977 0,-0.86097 0.28699,-1.51011 0.86097,-1.94743 0.57853,-0.43731 1.4395,-0.65597 2.5829,-0.65598 l 1.76294,0 0,-0.12299 c -1e-5,-0.57853 -0.19133,-1.02496 -0.57398,-1.33929 -0.3781,-0.31887 -0.91108,-0.4783 -1.59894,-0.47831 -0.43732,1e-5 -0.86325,0.0524 -1.27779,0.15716 -0.41454,0.10478 -0.81314,0.26194 -1.19579,0.47148 l 0,-1.16162 c 0.46009,-0.17765 0.90652,-0.30976 1.33929,-0.39632 0.43275,-0.0911 0.85413,-0.13665 1.26412,-0.13666 1.10695,1e-5 1.93375,0.28699 2.48041,0.86097 0.54663,0.57398 0.81996,1.44406 0.81997,2.61023"
           style="fill:#0000ff"
           id="path3383" />
        <path
           d="m 122.41467,941.45229 c -0.14123,-0.082 -0.29611,-0.14121 -0.46465,-0.17766 -0.164,-0.041 -0.34622,-0.0615 -0.54665,-0.0615 -0.71064,10e-6 -1.25729,0.23233 -1.63994,0.69698 -0.3781,0.4601 -0.56715,1.12291 -0.56715,1.98842 l 0,4.03152 -1.26412,0 0,-7.65305 1.26412,0 0,1.18896 c 0.26421,-0.46465 0.60815,-0.80858 1.0318,-1.0318 0.42365,-0.22776 0.93841,-0.34164 1.54428,-0.34165 0.0865,1e-5 0.18221,0.007 0.28699,0.0205 0.10477,0.009 0.22093,0.0251 0.34848,0.0478 l 0.007,1.29145"
           style="fill:#0000ff"
           id="path3385" />
        <path
           d="m 127.22516,944.08303 c -1.01586,0 -1.71967,0.11616 -2.11143,0.34849 -0.39176,0.23232 -0.58764,0.62864 -0.58764,1.18895 0,0.44643 0.14577,0.80175 0.43732,1.06596 0.29609,0.25966 0.69697,0.38949 1.20262,0.38949 0.69697,0 1.255,-0.24599 1.6741,-0.73797 0.42365,-0.49654 0.63547,-1.15479 0.63548,-1.97477 l 0,-0.28015 -1.25045,0 m 2.50774,-0.51932 0,4.36634 -1.25729,0 0,-1.16162 c -0.287,0.46465 -0.64459,0.80858 -1.07279,1.0318 -0.42822,0.21865 -0.95208,0.32798 -1.57161,0.32798 -0.78353,0 -1.40762,-0.21866 -1.87227,-0.65597 -0.46009,-0.44187 -0.69014,-1.0318 -0.69014,-1.76977 0,-0.86097 0.28699,-1.51011 0.86097,-1.94743 0.57853,-0.43731 1.4395,-0.65597 2.5829,-0.65598 l 1.76294,0 0,-0.12299 c -1e-5,-0.57853 -0.19133,-1.02496 -0.57398,-1.33929 -0.3781,-0.31887 -0.91108,-0.4783 -1.59894,-0.47831 -0.43732,1e-5 -0.86325,0.0524 -1.27779,0.15716 -0.41454,0.10478 -0.81314,0.26194 -1.19579,0.47148 l 0,-1.16162 c 0.4601,-0.17765 0.90652,-0.30976 1.33929,-0.39632 0.43276,-0.0911 0.85413,-0.13665 1.26412,-0.13666 1.10695,1e-5 1.93375,0.28699 2.48041,0.86097 0.54664,0.57398 0.81996,1.44406 0.81997,2.61023"
           style="fill:#0000ff"
           id="path3387" />
        <path
           d="m 138.28792,941.74611 c 0.31431,-0.56486 0.69013,-0.98168 1.12746,-1.25045 0.4373,-0.26876 0.95206,-0.40314 1.54427,-0.40315 0.79718,1e-5 1.41216,0.28016 1.84493,0.84047 0.43275,0.55576 0.64913,1.3484 0.64915,2.37791 l 0,4.61916 -1.26412,0 0,-4.57816 c -10e-6,-0.73341 -0.12984,-1.27778 -0.38949,-1.63311 -0.25967,-0.35531 -0.65598,-0.53297 -1.18896,-0.53298 -0.65142,10e-6 -1.16618,0.21639 -1.54427,0.64914 -0.37811,0.43277 -0.56716,1.02269 -0.56715,1.76977 l 0,4.32534 -1.26412,0 0,-4.57816 c 0,-0.73797 -0.12983,-1.28234 -0.38948,-1.63311 -0.25967,-0.35531 -0.66054,-0.53297 -1.20263,-0.53298 -0.64231,10e-6 -1.15251,0.21867 -1.53061,0.65598 -0.3781,0.43276 -0.56715,1.02041 -0.56714,1.76293 l 0,4.32534 -1.26412,0 0,-7.65305 1.26412,0 0,1.18896 c 0.28698,-0.4692 0.63092,-0.81541 1.03179,-1.03863 0.40087,-0.22321 0.87691,-0.33481 1.42812,-0.33482 0.55575,1e-5 1.02723,0.14122 1.41444,0.42365 0.39176,0.28244 0.68103,0.69242 0.86781,1.22995"
           style="fill:#0000ff"
           id="path3389" />
        <path
           d="m 152.5144,943.78921 0,0.61497 -5.78079,0 c 0.0547,0.86553 0.31432,1.52606 0.77897,1.9816 0.46921,0.45098 1.12063,0.67647 1.95427,0.67647 0.48286,0 0.94979,-0.0592 1.40078,-0.17766 0.45553,-0.11844 0.90651,-0.2961 1.35295,-0.53298 l 0,1.18896 c -0.45099,0.19132 -0.91336,0.3371 -1.38712,0.43732 -0.47376,0.10021 -0.95436,0.15032 -1.44178,0.15032 -1.22085,0 -2.18886,-0.35532 -2.90406,-1.06596 -0.71064,-0.71064 -1.06596,-1.67182 -1.06596,-2.88356 0,-1.25273 0.3371,-2.2458 1.0113,-2.97922 0.67875,-0.73797 1.5921,-1.10695 2.74006,-1.10696 1.02952,1e-5 1.84265,0.33255 2.43941,0.99763 0.60131,0.66054 0.90196,1.56022 0.90197,2.69907 m -1.25729,-0.36899 c -0.009,-0.68786 -0.20272,-1.23678 -0.58081,-1.64677 -0.37355,-0.40998 -0.87008,-0.61497 -1.48961,-0.61498 -0.70153,1e-5 -1.26412,0.19816 -1.68777,0.59448 -0.4191,0.39632 -0.66054,0.95436 -0.72431,1.6741 l 4.4825,-0.007"
           style="fill:#0000ff"
           id="path3391" />
        <path
           d="m 155.82161,938.10408 0,2.17292 2.58974,0 0,0.97713 -2.58974,0 0,4.15452 c 0,0.62409 0.0843,1.02496 0.25282,1.20262 0.1731,0.17766 0.52159,0.26649 1.04546,0.26649 l 1.29146,0 0,1.05229 -1.29146,0 c -0.9703,0 -1.63994,-0.17993 -2.00892,-0.53981 -0.36899,-0.36443 -0.55348,-1.02496 -0.55348,-1.98159 l 0,-4.15452 -0.92247,0 0,-0.97713 0.92247,0 0,-2.17292 1.26412,0"
           style="fill:#0000ff"
           id="path3393" />
        <path
           d="m 166.61789,943.78921 0,0.61497 -5.78079,0 c 0.0547,0.86553 0.31432,1.52606 0.77897,1.9816 0.4692,0.45098 1.12062,0.67647 1.95426,0.67647 0.48287,0 0.94979,-0.0592 1.40078,-0.17766 0.45554,-0.11844 0.90652,-0.2961 1.35295,-0.53298 l 0,1.18896 c -0.45099,0.19132 -0.91336,0.3371 -1.38711,0.43732 -0.47377,0.10021 -0.95436,0.15032 -1.44178,0.15032 -1.22085,0 -2.18887,-0.35532 -2.90406,-1.06596 -0.71064,-0.71064 -1.06596,-1.67182 -1.06596,-2.88356 0,-1.25273 0.33709,-2.2458 1.01129,-2.97922 0.67875,-0.73797 1.59211,-1.10695 2.74007,-1.10696 1.02951,1e-5 1.84265,0.33255 2.43941,0.99763 0.6013,0.66054 0.90196,1.56022 0.90197,2.69907 m -1.25729,-0.36899 c -0.009,-0.68786 -0.20272,-1.23678 -0.58081,-1.64677 -0.37355,-0.40998 -0.87009,-0.61497 -1.48962,-0.61498 -0.70153,1e-5 -1.26412,0.19816 -1.68777,0.59448 -0.41909,0.39632 -0.66053,0.95436 -0.7243,1.6741 l 4.4825,-0.007"
           style="fill:#0000ff"
           id="path3395" />
        <path
           d="m 173.11614,941.45229 c -0.14122,-0.082 -0.2961,-0.14121 -0.46465,-0.17766 -0.16399,-0.041 -0.34621,-0.0615 -0.54664,-0.0615 -0.71065,10e-6 -1.25729,0.23233 -1.63994,0.69698 -0.3781,0.4601 -0.56715,1.12291 -0.56715,1.98842 l 0,4.03152 -1.26412,0 0,-7.65305 1.26412,0 0,1.18896 c 0.26421,-0.46465 0.60814,-0.80858 1.0318,-1.0318 0.42364,-0.22776 0.9384,-0.34164 1.54427,-0.34165 0.0866,1e-5 0.18221,0.007 0.28699,0.0205 0.10477,0.009 0.22093,0.0251 0.34849,0.0478 l 0.007,1.29145"
           style="fill:#0000ff"
           id="path3397" />
        <path
           d="m 173.08881,937.72826 8.63018,0 0,1.16162 -3.62153,0 0,9.04017 -1.38712,0 0,-9.04017 -3.62153,0 0,-1.16162"
           style="fill:#0000ff"
           id="path3399" />
        <path
           d="m 184.00125,948.64069 c -0.35533,0.91108 -0.70153,1.50556 -1.03863,1.78344 -0.3371,0.27787 -0.78808,0.41681 -1.35295,0.41682 l -1.00446,0 0,-1.0523 0.73797,0 c 0.34621,0 0.61497,-0.082 0.8063,-0.24599 0.19133,-0.16399 0.40315,-0.5512 0.63548,-1.16162 l 0.22549,-0.57398 -3.09538,-7.53006 1.33245,0 2.39158,5.98578 2.39157,-5.98578 1.33246,0 -3.36188,8.36369"
           style="fill:#0000ff"
           id="path3401" />
        <path
           d="m 190.31501,946.7821 0,4.05885 -1.26412,0 0,-10.56395 1.26412,0 0,1.16162 c 0.26421,-0.45553 0.59676,-0.79263 0.99763,-1.01129 0.40543,-0.22321 0.8883,-0.33481 1.44862,-0.33482 0.92929,1e-5 1.68321,0.36899 2.26175,1.10696 0.58308,0.73798 0.87462,1.70827 0.87463,2.91089 -1e-5,1.20263 -0.29155,2.17292 -0.87463,2.91089 -0.57854,0.73798 -1.33246,1.10696 -2.26175,1.10696 -0.56032,0 -1.04319,-0.10933 -1.44862,-0.32798 -0.40087,-0.22322 -0.73342,-0.56259 -0.99763,-1.01813 m 4.27751,-2.67174 c 0,-0.92474 -0.19133,-1.64904 -0.57398,-2.17292 -0.3781,-0.52842 -0.89969,-0.79263 -1.56477,-0.79264 -0.66509,10e-6 -1.18896,0.26422 -1.57161,0.79264 -0.3781,0.52388 -0.56715,1.24818 -0.56715,2.17292 0,0.92475 0.18905,1.65133 0.56715,2.17975 0.38265,0.52387 0.90652,0.78581 1.57161,0.78581 0.66508,0 1.18667,-0.26194 1.56477,-0.78581 0.38265,-0.52842 0.57398,-1.255 0.57398,-2.17975"
           style="fill:#0000ff"
           id="path3403" />
        <path
           d="m 204.52783,943.78921 0,0.61497 -5.78079,0 c 0.0547,0.86553 0.31432,1.52606 0.77897,1.9816 0.4692,0.45098 1.12062,0.67647 1.95426,0.67647 0.48287,0 0.9498,-0.0592 1.40079,-0.17766 0.45553,-0.11844 0.90651,-0.2961 1.35295,-0.53298 l 0,1.18896 c -0.45099,0.19132 -0.91337,0.3371 -1.38712,0.43732 -0.47377,0.10021 -0.95436,0.15032 -1.44178,0.15032 -1.22085,0 -2.18887,-0.35532 -2.90406,-1.06596 -0.71064,-0.71064 -1.06596,-1.67182 -1.06596,-2.88356 0,-1.25273 0.3371,-2.2458 1.0113,-2.97922 0.67875,-0.73797 1.5921,-1.10695 2.74006,-1.10696 1.02951,1e-5 1.84265,0.33255 2.43941,0.99763 0.60131,0.66054 0.90196,1.56022 0.90197,2.69907 m -1.25729,-0.36899 c -0.009,-0.68786 -0.20272,-1.23678 -0.58081,-1.64677 -0.37355,-0.40998 -0.87008,-0.61497 -1.48961,-0.61498 -0.70154,1e-5 -1.26413,0.19816 -1.68777,0.59448 -0.4191,0.39632 -0.66054,0.95436 -0.72431,1.6741 l 4.4825,-0.007"
           style="fill:#0000ff"
           id="path3405" />
        <path
           d="m 212.26287,946.7821 0,4.05885 -1.26412,0 0,-10.56395 1.26412,0 0,1.16162 c 0.26421,-0.45553 0.59676,-0.79263 0.99763,-1.01129 0.40543,-0.22321 0.8883,-0.33481 1.44862,-0.33482 0.92929,1e-5 1.68321,0.36899 2.26175,1.10696 0.58308,0.73798 0.87462,1.70827 0.87463,2.91089 -10e-6,1.20263 -0.29155,2.17292 -0.87463,2.91089 -0.57854,0.73798 -1.33246,1.10696 -2.26175,1.10696 -0.56032,0 -1.04319,-0.10933 -1.44862,-0.32798 -0.40087,-0.22322 -0.73342,-0.56259 -0.99763,-1.01813 m 4.27751,-2.67174 c 0,-0.92474 -0.19133,-1.64904 -0.57397,-2.17292 -0.37811,-0.52842 -0.8997,-0.79263 -1.56478,-0.79264 -0.66509,10e-6 -1.18896,0.26422 -1.57161,0.79264 -0.3781,0.52388 -0.56715,1.24818 -0.56715,2.17292 0,0.92475 0.18905,1.65133 0.56715,2.17975 0.38265,0.52387 0.90652,0.78581 1.57161,0.78581 0.66508,0 1.18667,-0.26194 1.56478,-0.78581 0.38264,-0.52842 0.57397,-1.255 0.57397,-2.17975"
           style="fill:#000000"
           id="path3407" />
        <path
           d="m 223.40764,944.08303 c -1.01586,0 -1.71967,0.11616 -2.11143,0.34849 -0.39176,0.23232 -0.58764,0.62864 -0.58764,1.18895 0,0.44643 0.14577,0.80175 0.43732,1.06596 0.29609,0.25966 0.69697,0.38949 1.20262,0.38949 0.69697,0 1.255,-0.24599 1.6741,-0.73797 0.42365,-0.49654 0.63547,-1.15479 0.63548,-1.97477 l 0,-0.28015 -1.25045,0 m 2.50774,-0.51932 0,4.36634 -1.25729,0 0,-1.16162 c -0.287,0.46465 -0.64459,0.80858 -1.07279,1.0318 -0.42822,0.21865 -0.95208,0.32798 -1.57161,0.32798 -0.78353,0 -1.40762,-0.21866 -1.87227,-0.65597 -0.46009,-0.44187 -0.69014,-1.0318 -0.69014,-1.76977 0,-0.86097 0.28699,-1.51011 0.86097,-1.94743 0.57853,-0.43731 1.4395,-0.65597 2.5829,-0.65598 l 1.76294,0 0,-0.12299 c -10e-6,-0.57853 -0.19133,-1.02496 -0.57398,-1.33929 -0.3781,-0.31887 -0.91108,-0.4783 -1.59894,-0.47831 -0.43732,1e-5 -0.86325,0.0524 -1.27779,0.15716 -0.41454,0.10478 -0.81314,0.26194 -1.19579,0.47148 l 0,-1.16162 c 0.4601,-0.17765 0.90652,-0.30976 1.33929,-0.39632 0.43276,-0.0911 0.85413,-0.13665 1.26412,-0.13666 1.10695,1e-5 1.93375,0.28699 2.48041,0.86097 0.54664,0.57398 0.81996,1.44406 0.81997,2.61023"
           style="fill:#000000"
           id="path3409" />
        <path
           d="m 232.94662,941.45229 c -0.14122,-0.082 -0.29611,-0.14121 -0.46465,-0.17766 -0.164,-0.041 -0.34622,-0.0615 -0.54665,-0.0615 -0.71064,10e-6 -1.25729,0.23233 -1.63994,0.69698 -0.3781,0.4601 -0.56715,1.12291 -0.56714,1.98842 l 0,4.03152 -1.26412,0 0,-7.65305 1.26412,0 0,1.18896 c 0.26421,-0.46465 0.60814,-0.80858 1.03179,-1.0318 0.42365,-0.22776 0.93841,-0.34164 1.54428,-0.34165 0.0866,1e-5 0.18221,0.007 0.28699,0.0205 0.10477,0.009 0.22093,0.0251 0.34849,0.0478 l 0.007,1.29145"
           style="fill:#000000"
           id="path3411" />
        <path
           d="m 237.75711,944.08303 c -1.01586,0 -1.71966,0.11616 -2.11143,0.34849 -0.39176,0.23232 -0.58764,0.62864 -0.58764,1.18895 0,0.44643 0.14577,0.80175 0.43732,1.06596 0.29609,0.25966 0.69697,0.38949 1.20262,0.38949 0.69697,0 1.255,-0.24599 1.67411,-0.73797 0.42364,-0.49654 0.63547,-1.15479 0.63547,-1.97477 l 0,-0.28015 -1.25045,0 m 2.50774,-0.51932 0,4.36634 -1.25729,0 0,-1.16162 c -0.28699,0.46465 -0.64459,0.80858 -1.07279,1.0318 -0.42821,0.21865 -0.95208,0.32798 -1.57161,0.32798 -0.78353,0 -1.40762,-0.21866 -1.87227,-0.65597 -0.46009,-0.44187 -0.69014,-1.0318 -0.69014,-1.76977 0,-0.86097 0.28699,-1.51011 0.86097,-1.94743 0.57853,-0.43731 1.4395,-0.65597 2.58291,-0.65598 l 1.76293,0 0,-0.12299 c 0,-0.57853 -0.19133,-1.02496 -0.57398,-1.33929 -0.3781,-0.31887 -0.91108,-0.4783 -1.59894,-0.47831 -0.43732,1e-5 -0.86325,0.0524 -1.27779,0.15716 -0.41454,0.10478 -0.81313,0.26194 -1.19578,0.47148 l 0,-1.16162 c 0.46009,-0.17765 0.90652,-0.30976 1.33928,-0.39632 0.43276,-0.0911 0.85413,-0.13665 1.26412,-0.13666 1.10695,1e-5 1.93376,0.28699 2.48041,0.86097 0.54664,0.57398 0.81996,1.44406 0.81997,2.61023"
           style="fill:#000000"
           id="path3413" />
        <path
           d="m 248.81987,941.74611 c 0.31431,-0.56486 0.69013,-0.98168 1.12746,-1.25045 0.43731,-0.26876 0.95206,-0.40314 1.54427,-0.40315 0.79719,1e-5 1.41216,0.28016 1.84494,0.84047 0.43275,0.55576 0.64913,1.3484 0.64914,2.37791 l 0,4.61916 -1.26412,0 0,-4.57816 c -1e-5,-0.73341 -0.12984,-1.27778 -0.38949,-1.63311 -0.25966,-0.35531 -0.65598,-0.53297 -1.18895,-0.53298 -0.65143,10e-6 -1.16619,0.21639 -1.54428,0.64914 -0.37811,0.43277 -0.56715,1.02269 -0.56715,1.76977 l 0,4.32534 -1.26412,0 0,-4.57816 c 0,-0.73797 -0.12983,-1.28234 -0.38948,-1.63311 -0.25966,-0.35531 -0.66054,-0.53297 -1.20262,-0.53298 -0.64232,10e-6 -1.15252,0.21867 -1.53062,0.65598 -0.3781,0.43276 -0.56714,1.02041 -0.56714,1.76293 l 0,4.32534 -1.26412,0 0,-7.65305 1.26412,0 0,1.18896 c 0.28699,-0.4692 0.63092,-0.81541 1.03179,-1.03863 0.40087,-0.22321 0.87691,-0.33481 1.42812,-0.33482 0.55575,1e-5 1.02723,0.14122 1.41445,0.42365 0.39175,0.28244 0.68102,0.69242 0.8678,1.22995"
           style="fill:#000000"
           id="path3415" />
        <path
           d="m 263.04635,943.78921 0,0.61497 -5.78079,0 c 0.0547,0.86553 0.31432,1.52606 0.77898,1.9816 0.4692,0.45098 1.12062,0.67647 1.95426,0.67647 0.48286,0 0.94979,-0.0592 1.40078,-0.17766 0.45553,-0.11844 0.90652,-0.2961 1.35295,-0.53298 l 0,1.18896 c -0.45099,0.19132 -0.91336,0.3371 -1.38712,0.43732 -0.47376,0.10021 -0.95435,0.15032 -1.44178,0.15032 -1.22084,0 -2.18886,-0.35532 -2.90406,-1.06596 -0.71064,-0.71064 -1.06596,-1.67182 -1.06596,-2.88356 0,-1.25273 0.3371,-2.2458 1.0113,-2.97922 0.67875,-0.73797 1.5921,-1.10695 2.74007,-1.10696 1.02951,1e-5 1.84264,0.33255 2.43941,0.99763 0.6013,0.66054 0.90196,1.56022 0.90196,2.69907 m -1.25728,-0.36899 c -0.009,-0.68786 -0.20273,-1.23678 -0.58082,-1.64677 -0.37354,-0.40998 -0.87008,-0.61497 -1.48961,-0.61498 -0.70153,1e-5 -1.26412,0.19816 -1.68777,0.59448 -0.4191,0.39632 -0.66053,0.95436 -0.72431,1.6741 l 4.48251,-0.007"
           style="fill:#000000"
           id="path3417" />
        <path
           d="m 266.35356,938.10408 0,2.17292 2.58974,0 0,0.97713 -2.58974,0 0,4.15452 c 0,0.62409 0.0843,1.02496 0.25283,1.20262 0.1731,0.17766 0.52158,0.26649 1.04546,0.26649 l 1.29145,0 0,1.05229 -1.29145,0 c -0.9703,0 -1.63995,-0.17993 -2.00893,-0.53981 -0.36899,-0.36443 -0.55348,-1.02496 -0.55348,-1.98159 l 0,-4.15452 -0.92247,0 0,-0.97713 0.92247,0 0,-2.17292 1.26412,0"
           style="fill:#000000"
           id="path3419" />
        <path
           d="m 277.14982,943.78921 0,0.61497 -5.78079,0 c 0.0547,0.86553 0.31432,1.52606 0.77898,1.9816 0.4692,0.45098 1.12062,0.67647 1.95426,0.67647 0.48286,0 0.94979,-0.0592 1.40078,-0.17766 0.45553,-0.11844 0.90652,-0.2961 1.35295,-0.53298 l 0,1.18896 c -0.45099,0.19132 -0.91336,0.3371 -1.38712,0.43732 -0.47376,0.10021 -0.95435,0.15032 -1.44178,0.15032 -1.22084,0 -2.18886,-0.35532 -2.90406,-1.06596 -0.71064,-0.71064 -1.06596,-1.67182 -1.06596,-2.88356 0,-1.25273 0.3371,-2.2458 1.0113,-2.97922 0.67875,-0.73797 1.5921,-1.10695 2.74007,-1.10696 1.02951,1e-5 1.84264,0.33255 2.43941,0.99763 0.6013,0.66054 0.90196,1.56022 0.90196,2.69907 m -1.25728,-0.36899 c -0.009,-0.68786 -0.20273,-1.23678 -0.58082,-1.64677 -0.37354,-0.40998 -0.87008,-0.61497 -1.48961,-0.61498 -0.70153,1e-5 -1.26412,0.19816 -1.68777,0.59448 -0.4191,0.39632 -0.66053,0.95436 -0.72431,1.6741 l 4.48251,-0.007"
           style="fill:#000000"
           id="path3421" />
        <path
           d="m 283.64811,941.45229 c -0.14122,-0.082 -0.2961,-0.14121 -0.46465,-0.17766 -0.164,-0.041 -0.34621,-0.0615 -0.54665,-0.0615 -0.71064,10e-6 -1.25729,0.23233 -1.63994,0.69698 -0.3781,0.4601 -0.56714,1.12291 -0.56714,1.98842 l 0,4.03152 -1.26412,0 0,-7.65305 1.26412,0 0,1.18896 c 0.26421,-0.46465 0.60814,-0.80858 1.03179,-1.0318 0.42365,-0.22776 0.93841,-0.34164 1.54428,-0.34165 0.0865,1e-5 0.18221,0.007 0.28699,0.0205 0.10477,0.009 0.22093,0.0251 0.34849,0.0478 l 0.007,1.29145"
           style="fill:#000000"
           id="path3423" />
        <path
           d="m 285.03523,937.72826 1.85859,0 4.5235,8.53452 0,-8.53452 1.33929,0 0,10.20179 -1.8586,0 -4.5235,-8.53452 0,8.53452 -1.33928,0 0,-10.20179"
           style="fill:#000000"
           id="path3425" />
        <path
           d="m 298.92686,944.08303 c -1.01585,0 -1.71966,0.11616 -2.11142,0.34849 -0.39177,0.23232 -0.58765,0.62864 -0.58765,1.18895 0,0.44643 0.14577,0.80175 0.43732,1.06596 0.2961,0.25966 0.69697,0.38949 1.20262,0.38949 0.69697,0 1.25501,-0.24599 1.67411,-0.73797 0.42364,-0.49654 0.63547,-1.15479 0.63548,-1.97477 l 0,-0.28015 -1.25046,0 m 2.50774,-0.51932 0,4.36634 -1.25728,0 0,-1.16162 c -0.287,0.46465 -0.6446,0.80858 -1.0728,1.0318 -0.42821,0.21865 -0.95208,0.32798 -1.57161,0.32798 -0.78353,0 -1.40761,-0.21866 -1.87226,-0.65597 -0.4601,-0.44187 -0.69014,-1.0318 -0.69014,-1.76977 0,-0.86097 0.28698,-1.51011 0.86096,-1.94743 0.57854,-0.43731 1.4395,-0.65597 2.58291,-0.65598 l 1.76294,0 0,-0.12299 c -1e-5,-0.57853 -0.19134,-1.02496 -0.57398,-1.33929 -0.37811,-0.31887 -0.91109,-0.4783 -1.59894,-0.47831 -0.43733,1e-5 -0.86325,0.0524 -1.27779,0.15716 -0.41454,0.10478 -0.81314,0.26194 -1.19579,0.47148 l 0,-1.16162 c 0.46009,-0.17765 0.90652,-0.30976 1.33928,-0.39632 0.43276,-0.0911 0.85414,-0.13665 1.26412,-0.13666 1.10696,1e-5 1.93376,0.28699 2.48041,0.86097 0.54664,0.57398 0.81997,1.44406 0.81997,2.61023"
           style="fill:#000000"
           id="path3427" />
        <path
           d="m 309.98964,941.74611 c 0.31431,-0.56486 0.69013,-0.98168 1.12746,-1.25045 0.4373,-0.26876 0.95206,-0.40314 1.54427,-0.40315 0.79719,1e-5 1.41216,0.28016 1.84494,0.84047 0.43275,0.55576 0.64913,1.3484 0.64914,2.37791 l 0,4.61916 -1.26412,0 0,-4.57816 c -10e-6,-0.73341 -0.12984,-1.27778 -0.38949,-1.63311 -0.25967,-0.35531 -0.65598,-0.53297 -1.18895,-0.53298 -0.65143,10e-6 -1.16619,0.21639 -1.54428,0.64914 -0.37811,0.43277 -0.56715,1.02269 -0.56715,1.76977 l 0,4.32534 -1.26412,0 0,-4.57816 c 0,-0.73797 -0.12983,-1.28234 -0.38948,-1.63311 -0.25967,-0.35531 -0.66054,-0.53297 -1.20263,-0.53298 -0.64231,10e-6 -1.15251,0.21867 -1.53061,0.65598 -0.3781,0.43276 -0.56714,1.02041 -0.56714,1.76293 l 0,4.32534 -1.26412,0 0,-7.65305 1.26412,0 0,1.18896 c 0.28698,-0.4692 0.63092,-0.81541 1.03179,-1.03863 0.40087,-0.22321 0.87691,-0.33481 1.42812,-0.33482 0.55575,1e-5 1.02723,0.14122 1.41445,0.42365 0.39175,0.28244 0.68102,0.69242 0.8678,1.22995"
           style="fill:#000000"
           id="path3429" />
        <path
           d="m 324.21611,943.78921 0,0.61497 -5.78079,0 c 0.0547,0.86553 0.31432,1.52606 0.77897,1.9816 0.4692,0.45098 1.12062,0.67647 1.95426,0.67647 0.48287,0 0.94979,-0.0592 1.40078,-0.17766 0.45554,-0.11844 0.90652,-0.2961 1.35295,-0.53298 l 0,1.18896 c -0.45099,0.19132 -0.91336,0.3371 -1.38711,0.43732 -0.47377,0.10021 -0.95436,0.15032 -1.44178,0.15032 -1.22085,0 -2.18887,-0.35532 -2.90406,-1.06596 -0.71064,-0.71064 -1.06596,-1.67182 -1.06596,-2.88356 0,-1.25273 0.33709,-2.2458 1.01129,-2.97922 0.67875,-0.73797 1.59211,-1.10695 2.74007,-1.10696 1.02951,1e-5 1.84265,0.33255 2.43941,0.99763 0.6013,0.66054 0.90196,1.56022 0.90197,2.69907 m -1.25729,-0.36899 c -0.009,-0.68786 -0.20272,-1.23678 -0.58081,-1.64677 -0.37355,-0.40998 -0.87009,-0.61497 -1.48961,-0.61498 -0.70154,1e-5 -1.26413,0.19816 -1.68778,0.59448 -0.41909,0.39632 -0.66053,0.95436 -0.7243,1.6741 l 4.4825,-0.007"
           style="fill:#000000"
           id="path3431" />
        <path
           d="m 326.60085,946.19445 1.44178,0 0,1.17529 -1.12063,2.18659 -0.88146,0 0.56031,-2.18659 0,-1.17529"
           style="fill:#000000"
           id="path3433" />
        <path
           d="m 336.40632,946.7821 0,4.05885 -1.26412,0 0,-10.56395 1.26412,0 0,1.16162 c 0.26421,-0.45553 0.59675,-0.79263 0.99763,-1.01129 0.40543,-0.22321 0.8883,-0.33481 1.44862,-0.33482 0.92929,1e-5 1.68321,0.36899 2.26175,1.10696 0.58308,0.73798 0.87462,1.70827 0.87463,2.91089 -10e-6,1.20263 -0.29155,2.17292 -0.87463,2.91089 -0.57854,0.73798 -1.33246,1.10696 -2.26175,1.10696 -0.56032,0 -1.04319,-0.10933 -1.44862,-0.32798 -0.40088,-0.22322 -0.73342,-0.56259 -0.99763,-1.01813 m 4.27751,-2.67174 c 0,-0.92474 -0.19133,-1.64904 -0.57398,-2.17292 -0.3781,-0.52842 -0.89969,-0.79263 -1.56477,-0.79264 -0.66509,10e-6 -1.18896,0.26422 -1.57161,0.79264 -0.3781,0.52388 -0.56715,1.24818 -0.56715,2.17292 0,0.92475 0.18905,1.65133 0.56715,2.17975 0.38265,0.52387 0.90652,0.78581 1.57161,0.78581 0.66508,0 1.18667,-0.26194 1.56477,-0.78581 0.38265,-0.52842 0.57398,-1.255 0.57398,-2.17975"
           style="fill:#000080"
           id="path3435" />
        <path
           d="m 347.5511,944.08303 c -1.01586,0 -1.71966,0.11616 -2.11142,0.34849 -0.39177,0.23232 -0.58765,0.62864 -0.58765,1.18895 0,0.44643 0.14577,0.80175 0.43732,1.06596 0.2961,0.25966 0.69697,0.38949 1.20262,0.38949 0.69697,0 1.25501,-0.24599 1.67411,-0.73797 0.42364,-0.49654 0.63547,-1.15479 0.63547,-1.97477 l 0,-0.28015 -1.25045,0 m 2.50774,-0.51932 0,4.36634 -1.25729,0 0,-1.16162 c -0.28699,0.46465 -0.64459,0.80858 -1.07279,1.0318 -0.42821,0.21865 -0.95208,0.32798 -1.57161,0.32798 -0.78353,0 -1.40762,-0.21866 -1.87227,-0.65597 -0.46009,-0.44187 -0.69014,-1.0318 -0.69014,-1.76977 0,-0.86097 0.28699,-1.51011 0.86097,-1.94743 0.57853,-0.43731 1.4395,-0.65597 2.58291,-0.65598 l 1.76293,0 0,-0.12299 c 0,-0.57853 -0.19133,-1.02496 -0.57398,-1.33929 -0.3781,-0.31887 -0.91108,-0.4783 -1.59894,-0.47831 -0.43732,1e-5 -0.86325,0.0524 -1.27778,0.15716 -0.41455,0.10478 -0.81314,0.26194 -1.19579,0.47148 l 0,-1.16162 c 0.46009,-0.17765 0.90652,-0.30976 1.33928,-0.39632 0.43276,-0.0911 0.85413,-0.13665 1.26412,-0.13666 1.10696,1e-5 1.93376,0.28699 2.48041,0.86097 0.54664,0.57398 0.81996,1.44406 0.81997,2.61023"
           style="fill:#000080"
           id="path3437" />
        <path
           d="m 357.09007,941.45229 c -0.14123,-0.082 -0.29611,-0.14121 -0.46465,-0.17766 -0.164,-0.041 -0.34622,-0.0615 -0.54665,-0.0615 -0.71064,10e-6 -1.25729,0.23233 -1.63994,0.69698 -0.3781,0.4601 -0.56715,1.12291 -0.56715,1.98842 l 0,4.03152 -1.26412,0 0,-7.65305 1.26412,0 0,1.18896 c 0.26421,-0.46465 0.60815,-0.80858 1.0318,-1.0318 0.42365,-0.22776 0.93841,-0.34164 1.54428,-0.34165 0.0865,1e-5 0.18221,0.007 0.28699,0.0205 0.10476,0.009 0.22093,0.0251 0.34848,0.0478 l 0.007,1.29145"
           style="fill:#000080"
           id="path3439" />
        <path
           d="m 361.90056,944.08303 c -1.01586,0 -1.71967,0.11616 -2.11143,0.34849 -0.39176,0.23232 -0.58764,0.62864 -0.58764,1.18895 0,0.44643 0.14577,0.80175 0.43731,1.06596 0.2961,0.25966 0.69698,0.38949 1.20263,0.38949 0.69697,0 1.255,-0.24599 1.6741,-0.73797 0.42365,-0.49654 0.63547,-1.15479 0.63548,-1.97477 l 0,-0.28015 -1.25045,0 m 2.50774,-0.51932 0,4.36634 -1.25729,0 0,-1.16162 c -0.287,0.46465 -0.64459,0.80858 -1.07279,1.0318 -0.42822,0.21865 -0.95208,0.32798 -1.57161,0.32798 -0.78353,0 -1.40762,-0.21866 -1.87227,-0.65597 -0.46009,-0.44187 -0.69014,-1.0318 -0.69014,-1.76977 0,-0.86097 0.28699,-1.51011 0.86097,-1.94743 0.57853,-0.43731 1.4395,-0.65597 2.5829,-0.65598 l 1.76294,0 0,-0.12299 c -10e-6,-0.57853 -0.19133,-1.02496 -0.57398,-1.33929 -0.3781,-0.31887 -0.91108,-0.4783 -1.59894,-0.47831 -0.43732,1e-5 -0.86325,0.0524 -1.27779,0.15716 -0.41454,0.10478 -0.81314,0.26194 -1.19579,0.47148 l 0,-1.16162 c 0.4601,-0.17765 0.90652,-0.30976 1.33929,-0.39632 0.43276,-0.0911 0.85413,-0.13665 1.26412,-0.13666 1.10695,1e-5 1.93375,0.28699 2.48041,0.86097 0.54664,0.57398 0.81996,1.44406 0.81997,2.61023"
           style="fill:#000080"
           id="path3441" />
        <path
           d="m 372.96333,941.74611 c 0.31432,-0.56486 0.69013,-0.98168 1.12746,-1.25045 0.43731,-0.26876 0.95207,-0.40314 1.54428,-0.40315 0.79718,1e-5 1.41216,0.28016 1.84493,0.84047 0.43275,0.55576 0.64913,1.3484 0.64914,2.37791 l 0,4.61916 -1.26412,0 0,-4.57816 c -1e-5,-0.73341 -0.12984,-1.27778 -0.38948,-1.63311 -0.25967,-0.35531 -0.65599,-0.53297 -1.18896,-0.53298 -0.65143,10e-6 -1.16619,0.21639 -1.54428,0.64914 -0.3781,0.43277 -0.56715,1.02269 -0.56714,1.76977 l 0,4.32534 -1.26412,0 0,-4.57816 c -1e-5,-0.73797 -0.12984,-1.28234 -0.38949,-1.63311 -0.25966,-0.35531 -0.66054,-0.53297 -1.20262,-0.53298 -0.64232,10e-6 -1.15252,0.21867 -1.53061,0.65598 -0.3781,0.43276 -0.56715,1.02041 -0.56715,1.76293 l 0,4.32534 -1.26412,0 0,-7.65305 1.26412,0 0,1.18896 c 0.28699,-0.4692 0.63092,-0.81541 1.0318,-1.03863 0.40087,-0.22321 0.87691,-0.33481 1.42811,-0.33482 0.55575,1e-5 1.02724,0.14122 1.41445,0.42365 0.39176,0.28244 0.68102,0.69242 0.8678,1.22995"
           style="fill:#000080"
           id="path3443" />
        <path
           d="m 387.1898,943.78921 0,0.61497 -5.78079,0 c 0.0547,0.86553 0.31432,1.52606 0.77897,1.9816 0.46921,0.45098 1.12063,0.67647 1.95427,0.67647 0.48286,0 0.94979,-0.0592 1.40078,-0.17766 0.45553,-0.11844 0.90651,-0.2961 1.35295,-0.53298 l 0,1.18896 c -0.45099,0.19132 -0.91336,0.3371 -1.38712,0.43732 -0.47376,0.10021 -0.95436,0.15032 -1.44178,0.15032 -1.22085,0 -2.18886,-0.35532 -2.90406,-1.06596 -0.71064,-0.71064 -1.06596,-1.67182 -1.06596,-2.88356 0,-1.25273 0.3371,-2.2458 1.0113,-2.97922 0.67875,-0.73797 1.5921,-1.10695 2.74006,-1.10696 1.02952,1e-5 1.84265,0.33255 2.43941,0.99763 0.60131,0.66054 0.90196,1.56022 0.90197,2.69907 m -1.25729,-0.36899 c -0.009,-0.68786 -0.20272,-1.23678 -0.58081,-1.64677 -0.37355,-0.40998 -0.87008,-0.61497 -1.48961,-0.61498 -0.70153,1e-5 -1.26412,0.19816 -1.68777,0.59448 -0.4191,0.39632 -0.66054,0.95436 -0.72431,1.6741 l 4.4825,-0.007"
           style="fill:#000080"
           id="path3445" />
        <path
           d="m 390.49701,938.10408 0,2.17292 2.58974,0 0,0.97713 -2.58974,0 0,4.15452 c 0,0.62409 0.0843,1.02496 0.25282,1.20262 0.1731,0.17766 0.52159,0.26649 1.04546,0.26649 l 1.29146,0 0,1.05229 -1.29146,0 c -0.9703,0 -1.63994,-0.17993 -2.00892,-0.53981 -0.36899,-0.36443 -0.55348,-1.02496 -0.55348,-1.98159 l 0,-4.15452 -0.92247,0 0,-0.97713 0.92247,0 0,-2.17292 1.26412,0"
           style="fill:#000080"
           id="path3447" />
        <path
           d="m 401.29329,943.78921 0,0.61497 -5.78079,0 c 0.0547,0.86553 0.31432,1.52606 0.77897,1.9816 0.4692,0.45098 1.12062,0.67647 1.95426,0.67647 0.48287,0 0.94979,-0.0592 1.40078,-0.17766 0.45554,-0.11844 0.90652,-0.2961 1.35295,-0.53298 l 0,1.18896 c -0.45099,0.19132 -0.91336,0.3371 -1.38711,0.43732 -0.47377,0.10021 -0.95436,0.15032 -1.44178,0.15032 -1.22085,0 -2.18887,-0.35532 -2.90406,-1.06596 -0.71064,-0.71064 -1.06596,-1.67182 -1.06596,-2.88356 0,-1.25273 0.33709,-2.2458 1.01129,-2.97922 0.67875,-0.73797 1.59211,-1.10695 2.74007,-1.10696 1.02951,1e-5 1.84265,0.33255 2.43941,0.99763 0.6013,0.66054 0.90196,1.56022 0.90197,2.69907 m -1.25729,-0.36899 c -0.009,-0.68786 -0.20272,-1.23678 -0.58081,-1.64677 -0.37355,-0.40998 -0.87009,-0.61497 -1.48962,-0.61498 -0.70153,1e-5 -1.26412,0.19816 -1.68777,0.59448 -0.41909,0.39632 -0.66053,0.95436 -0.7243,1.6741 l 4.4825,-0.007"
           style="fill:#000080"
           id="path3449" />
        <path
           d="m 407.79154,941.45229 c -0.14122,-0.082 -0.2961,-0.14121 -0.46465,-0.17766 -0.164,-0.041 -0.34621,-0.0615 -0.54664,-0.0615 -0.71065,10e-6 -1.25729,0.23233 -1.63994,0.69698 -0.3781,0.4601 -0.56715,1.12291 -0.56715,1.98842 l 0,4.03152 -1.26412,0 0,-7.65305 1.26412,0 0,1.18896 c 0.26421,-0.46465 0.60814,-0.80858 1.0318,-1.0318 0.42364,-0.22776 0.9384,-0.34164 1.54427,-0.34165 0.0865,1e-5 0.18221,0.007 0.28699,0.0205 0.10477,0.009 0.22093,0.0251 0.34849,0.0478 l 0.007,1.29145"
           style="fill:#000080"
           id="path3451" />
        <path
           d="m 407.76421,937.72826 8.63018,0 0,1.16162 -3.62153,0 0,9.04017 -1.38712,0 0,-9.04017 -3.62153,0 0,-1.16162"
           style="fill:#000080"
           id="path3453" />
        <path
           d="m 418.67665,948.64069 c -0.35533,0.91108 -0.70154,1.50556 -1.03863,1.78344 -0.3371,0.27787 -0.78808,0.41681 -1.35295,0.41682 l -1.00446,0 0,-1.0523 0.73797,0 c 0.34621,0 0.61497,-0.082 0.8063,-0.24599 0.19133,-0.16399 0.40315,-0.5512 0.63548,-1.16162 l 0.22549,-0.57398 -3.09539,-7.53006 1.33246,0 2.39158,5.98578 2.39157,-5.98578 1.33246,0 -3.36188,8.36369"
           style="fill:#000080"
           id="path3455" />
        <path
           d="m 424.99043,946.7821 0,4.05885 -1.26412,0 0,-10.56395 1.26412,0 0,1.16162 c 0.26421,-0.45553 0.59675,-0.79263 0.99763,-1.01129 0.40542,-0.22321 0.88829,-0.33481 1.44861,-0.33482 0.9293,1e-5 1.68321,0.36899 2.26175,1.10696 0.58308,0.73798 0.87463,1.70827 0.87464,2.91089 -10e-6,1.20263 -0.29156,2.17292 -0.87464,2.91089 -0.57854,0.73798 -1.33245,1.10696 -2.26175,1.10696 -0.56032,0 -1.04319,-0.10933 -1.44861,-0.32798 -0.40088,-0.22322 -0.73342,-0.56259 -0.99763,-1.01813 m 4.27751,-2.67174 c -1e-5,-0.92474 -0.19133,-1.64904 -0.57398,-2.17292 -0.3781,-0.52842 -0.8997,-0.79263 -1.56478,-0.79264 -0.66509,10e-6 -1.18896,0.26422 -1.57161,0.79264 -0.3781,0.52388 -0.56714,1.24818 -0.56714,2.17292 0,0.92475 0.18904,1.65133 0.56714,2.17975 0.38265,0.52387 0.90652,0.78581 1.57161,0.78581 0.66508,0 1.18668,-0.26194 1.56478,-0.78581 0.38265,-0.52842 0.57397,-1.255 0.57398,-2.17975"
           style="fill:#000080"
           id="path3457" />
        <path
           d="m 439.20323,943.78921 0,0.61497 -5.78079,0 c 0.0547,0.86553 0.31432,1.52606 0.77897,1.9816 0.4692,0.45098 1.12062,0.67647 1.95426,0.67647 0.48287,0 0.9498,-0.0592 1.40079,-0.17766 0.45553,-0.11844 0.90651,-0.2961 1.35295,-0.53298 l 0,1.18896 c -0.45099,0.19132 -0.91337,0.3371 -1.38712,0.43732 -0.47377,0.10021 -0.95436,0.15032 -1.44178,0.15032 -1.22085,0 -2.18887,-0.35532 -2.90406,-1.06596 -0.71064,-0.71064 -1.06596,-1.67182 -1.06596,-2.88356 0,-1.25273 0.3371,-2.2458 1.01129,-2.97922 0.67876,-0.73797 1.59211,-1.10695 2.74007,-1.10696 1.02951,1e-5 1.84265,0.33255 2.43941,0.99763 0.60131,0.66054 0.90196,1.56022 0.90197,2.69907 m -1.25729,-0.36899 c -0.009,-0.68786 -0.20272,-1.23678 -0.58081,-1.64677 -0.37355,-0.40998 -0.87008,-0.61497 -1.48961,-0.61498 -0.70154,1e-5 -1.26413,0.19816 -1.68777,0.59448 -0.4191,0.39632 -0.66054,0.95436 -0.72431,1.6741 l 4.4825,-0.007"
           style="fill:#000080"
           id="path3459" />
        <path
           d="m 442.63343,946.76843 4.81733,0 0,1.16162 -6.47777,0 0,-1.16162 c 0.52387,-0.54209 1.23679,-1.26867 2.13876,-2.17975 0.90652,-0.91563 1.47594,-1.50555 1.70827,-1.76977 0.44187,-0.49653 0.74935,-0.91563 0.92246,-1.25729 0.17766,-0.3462 0.26649,-0.68558 0.2665,-1.01813 -1e-5,-0.54208 -0.19134,-0.98395 -0.57398,-1.32562 -0.37811,-0.34164 -0.87237,-0.51247 -1.48278,-0.51248 -0.43277,1e-5 -0.89058,0.0752 -1.37345,0.22549 -0.47832,0.15034 -0.9908,0.37811 -1.53745,0.68331 l 0,-1.39395 c 0.55576,-0.2232 1.07507,-0.39175 1.55795,-0.50565 0.48286,-0.11387 0.92474,-0.17081 1.32561,-0.17082 1.05685,10e-6 1.8996,0.26422 2.52825,0.79264 0.62863,0.52843 0.94295,1.23451 0.94296,2.11825 -1e-5,0.4191 -0.0797,0.8177 -0.23916,1.19579 -0.15489,0.37355 -0.4396,0.81542 -0.85413,1.32562 -0.11389,0.13211 -0.47605,0.51476 -1.08646,1.14796 -0.61043,0.62864 -1.4714,1.51011 -2.58291,2.6444"
           style="fill:#000080"
           id="path3461" />
        <path
           d="m 455.84861,946.7821 0,4.05885 -1.26412,0 0,-10.56395 1.26412,0 0,1.16162 c 0.26421,-0.45553 0.59676,-0.79263 0.99763,-1.01129 0.40543,-0.22321 0.8883,-0.33481 1.44862,-0.33482 0.92929,1e-5 1.68321,0.36899 2.26175,1.10696 0.58308,0.73798 0.87462,1.70827 0.87463,2.91089 -10e-6,1.20263 -0.29155,2.17292 -0.87463,2.91089 -0.57854,0.73798 -1.33246,1.10696 -2.26175,1.10696 -0.56032,0 -1.04319,-0.10933 -1.44862,-0.32798 -0.40087,-0.22322 -0.73342,-0.56259 -0.99763,-1.01813 m 4.27751,-2.67174 c 0,-0.92474 -0.19133,-1.64904 -0.57398,-2.17292 -0.3781,-0.52842 -0.89969,-0.79263 -1.56477,-0.79264 -0.66509,10e-6 -1.18896,0.26422 -1.57161,0.79264 -0.3781,0.52388 -0.56715,1.24818 -0.56715,2.17292 0,0.92475 0.18905,1.65133 0.56715,2.17975 0.38265,0.52387 0.90652,0.78581 1.57161,0.78581 0.66508,0 1.18667,-0.26194 1.56477,-0.78581 0.38265,-0.52842 0.57398,-1.255 0.57398,-2.17975"
           style="fill:#000000"
           id="path3463" />
        <path
           d="m 466.99339,944.08303 c -1.01586,0 -1.71966,0.11616 -2.11142,0.34849 -0.39177,0.23232 -0.58765,0.62864 -0.58765,1.18895 0,0.44643 0.14577,0.80175 0.43732,1.06596 0.2961,0.25966 0.69697,0.38949 1.20262,0.38949 0.69697,0 1.25501,-0.24599 1.67411,-0.73797 0.42364,-0.49654 0.63547,-1.15479 0.63547,-1.97477 l 0,-0.28015 -1.25045,0 m 2.50774,-0.51932 0,4.36634 -1.25729,0 0,-1.16162 c -0.28699,0.46465 -0.64459,0.80858 -1.07279,1.0318 -0.42821,0.21865 -0.95208,0.32798 -1.57161,0.32798 -0.78353,0 -1.40762,-0.21866 -1.87226,-0.65597 -0.4601,-0.44187 -0.69015,-1.0318 -0.69015,-1.76977 0,-0.86097 0.28699,-1.51011 0.86097,-1.94743 0.57854,-0.43731 1.4395,-0.65597 2.58291,-0.65598 l 1.76293,0 0,-0.12299 c 0,-0.57853 -0.19133,-1.02496 -0.57397,-1.33929 -0.37811,-0.31887 -0.91109,-0.4783 -1.59895,-0.47831 -0.43732,1e-5 -0.86325,0.0524 -1.27778,0.15716 -0.41455,0.10478 -0.81314,0.26194 -1.19579,0.47148 l 0,-1.16162 c 0.46009,-0.17765 0.90652,-0.30976 1.33928,-0.39632 0.43276,-0.0911 0.85413,-0.13665 1.26412,-0.13666 1.10696,1e-5 1.93376,0.28699 2.48041,0.86097 0.54664,0.57398 0.81996,1.44406 0.81997,2.61023"
           style="fill:#000000"
           id="path3465" />
        <path
           d="m 476.53236,941.45229 c -0.14122,-0.082 -0.29611,-0.14121 -0.46465,-0.17766 -0.164,-0.041 -0.34622,-0.0615 -0.54665,-0.0615 -0.71064,10e-6 -1.25729,0.23233 -1.63994,0.69698 -0.3781,0.4601 -0.56715,1.12291 -0.56714,1.98842 l 0,4.03152 -1.26412,0 0,-7.65305 1.26412,0 0,1.18896 c 0.26421,-0.46465 0.60814,-0.80858 1.03179,-1.0318 0.42365,-0.22776 0.93841,-0.34164 1.54428,-0.34165 0.0866,1e-5 0.18221,0.007 0.28699,0.0205 0.10477,0.009 0.22093,0.0251 0.34848,0.0478 l 0.007,1.29145"
           style="fill:#000000"
           id="path3467" />
        <path
           d="m 481.34285,944.08303 c -1.01586,0 -1.71967,0.11616 -2.11143,0.34849 -0.39176,0.23232 -0.58764,0.62864 -0.58764,1.18895 0,0.44643 0.14577,0.80175 0.43732,1.06596 0.29609,0.25966 0.69697,0.38949 1.20262,0.38949 0.69697,0 1.255,-0.24599 1.6741,-0.73797 0.42365,-0.49654 0.63547,-1.15479 0.63548,-1.97477 l 0,-0.28015 -1.25045,0 m 2.50774,-0.51932 0,4.36634 -1.25729,0 0,-1.16162 c -0.28699,0.46465 -0.64459,0.80858 -1.07279,1.0318 -0.42821,0.21865 -0.95208,0.32798 -1.57161,0.32798 -0.78353,0 -1.40762,-0.21866 -1.87227,-0.65597 -0.46009,-0.44187 -0.69014,-1.0318 -0.69014,-1.76977 0,-0.86097 0.28699,-1.51011 0.86097,-1.94743 0.57853,-0.43731 1.4395,-0.65597 2.58291,-0.65598 l 1.76293,0 0,-0.12299 c -10e-6,-0.57853 -0.19133,-1.02496 -0.57398,-1.33929 -0.3781,-0.31887 -0.91108,-0.4783 -1.59894,-0.47831 -0.43732,1e-5 -0.86325,0.0524 -1.27779,0.15716 -0.41454,0.10478 -0.81313,0.26194 -1.19579,0.47148 l 0,-1.16162 c 0.4601,-0.17765 0.90652,-0.30976 1.33929,-0.39632 0.43276,-0.0911 0.85413,-0.13665 1.26412,-0.13666 1.10695,1e-5 1.93376,0.28699 2.48041,0.86097 0.54664,0.57398 0.81996,1.44406 0.81997,2.61023"
           style="fill:#000000"
           id="path3469" />
        <path
           d="m 492.40562,941.74611 c 0.31432,-0.56486 0.69014,-0.98168 1.12746,-1.25045 0.43731,-0.26876 0.95207,-0.40314 1.54428,-0.40315 0.79718,1e-5 1.41216,0.28016 1.84493,0.84047 0.43275,0.55576 0.64913,1.3484 0.64914,2.37791 l 0,4.61916 -1.26412,0 0,-4.57816 c -10e-6,-0.73341 -0.12984,-1.27778 -0.38948,-1.63311 -0.25967,-0.35531 -0.65599,-0.53297 -1.18896,-0.53298 -0.65143,10e-6 -1.16619,0.21639 -1.54428,0.64914 -0.3781,0.43277 -0.56715,1.02269 -0.56714,1.76977 l 0,4.32534 -1.26412,0 0,-4.57816 c -1e-5,-0.73797 -0.12984,-1.28234 -0.38949,-1.63311 -0.25966,-0.35531 -0.66053,-0.53297 -1.20262,-0.53298 -0.64231,10e-6 -1.15252,0.21867 -1.53061,0.65598 -0.3781,0.43276 -0.56715,1.02041 -0.56715,1.76293 l 0,4.32534 -1.26412,0 0,-7.65305 1.26412,0 0,1.18896 c 0.28699,-0.4692 0.63092,-0.81541 1.0318,-1.03863 0.40087,-0.22321 0.87691,-0.33481 1.42811,-0.33482 0.55575,1e-5 1.02724,0.14122 1.41445,0.42365 0.39176,0.28244 0.68102,0.69242 0.8678,1.22995"
           style="fill:#000000"
           id="path3471" />
        <path
           d="m 506.63209,943.78921 0,0.61497 -5.78079,0 c 0.0547,0.86553 0.31432,1.52606 0.77898,1.9816 0.4692,0.45098 1.12062,0.67647 1.95426,0.67647 0.48286,0 0.94979,-0.0592 1.40078,-0.17766 0.45553,-0.11844 0.90651,-0.2961 1.35295,-0.53298 l 0,1.18896 c -0.45099,0.19132 -0.91336,0.3371 -1.38712,0.43732 -0.47376,0.10021 -0.95436,0.15032 -1.44178,0.15032 -1.22084,0 -2.18886,-0.35532 -2.90406,-1.06596 -0.71064,-0.71064 -1.06596,-1.67182 -1.06596,-2.88356 0,-1.25273 0.3371,-2.2458 1.0113,-2.97922 0.67875,-0.73797 1.5921,-1.10695 2.74006,-1.10696 1.02952,1e-5 1.84265,0.33255 2.43942,0.99763 0.6013,0.66054 0.90195,1.56022 0.90196,2.69907 m -1.25728,-0.36899 c -0.009,-0.68786 -0.20273,-1.23678 -0.58082,-1.64677 -0.37354,-0.40998 -0.87008,-0.61497 -1.48961,-0.61498 -0.70153,1e-5 -1.26412,0.19816 -1.68777,0.59448 -0.4191,0.39632 -0.66053,0.95436 -0.72431,1.6741 l 4.48251,-0.007"
           style="fill:#000000"
           id="path3473" />
        <path
           d="m 509.9393,938.10408 0,2.17292 2.58974,0 0,0.97713 -2.58974,0 0,4.15452 c 0,0.62409 0.0843,1.02496 0.25282,1.20262 0.17311,0.17766 0.52159,0.26649 1.04547,0.26649 l 1.29145,0 0,1.05229 -1.29145,0 c -0.9703,0 -1.63995,-0.17993 -2.00893,-0.53981 -0.36899,-0.36443 -0.55348,-1.02496 -0.55348,-1.98159 l 0,-4.15452 -0.92247,0 0,-0.97713 0.92247,0 0,-2.17292 1.26412,0"
           style="fill:#000000"
           id="path3475" />
        <path
           d="m 520.73558,943.78921 0,0.61497 -5.78079,0 c 0.0547,0.86553 0.31432,1.52606 0.77897,1.9816 0.4692,0.45098 1.12062,0.67647 1.95426,0.67647 0.48287,0 0.9498,-0.0592 1.40078,-0.17766 0.45554,-0.11844 0.90652,-0.2961 1.35295,-0.53298 l 0,1.18896 c -0.45099,0.19132 -0.91336,0.3371 -1.38711,0.43732 -0.47377,0.10021 -0.95436,0.15032 -1.44178,0.15032 -1.22085,0 -2.18887,-0.35532 -2.90406,-1.06596 -0.71064,-0.71064 -1.06596,-1.67182 -1.06596,-2.88356 0,-1.25273 0.33709,-2.2458 1.01129,-2.97922 0.67875,-0.73797 1.59211,-1.10695 2.74007,-1.10696 1.02951,1e-5 1.84265,0.33255 2.43941,0.99763 0.6013,0.66054 0.90196,1.56022 0.90197,2.69907 m -1.25729,-0.36899 c -0.009,-0.68786 -0.20272,-1.23678 -0.58081,-1.64677 -0.37355,-0.40998 -0.87009,-0.61497 -1.48961,-0.61498 -0.70154,1e-5 -1.26413,0.19816 -1.68778,0.59448 -0.41909,0.39632 -0.66053,0.95436 -0.7243,1.6741 l 4.4825,-0.007"
           style="fill:#000000"
           id="path3477" />
        <path
           d="m 527.23383,941.45229 c -0.14122,-0.082 -0.2961,-0.14121 -0.46464,-0.17766 -0.164,-0.041 -0.34622,-0.0615 -0.54665,-0.0615 -0.71065,10e-6 -1.25729,0.23233 -1.63994,0.69698 -0.3781,0.4601 -0.56715,1.12291 -0.56715,1.98842 l 0,4.03152 -1.26412,0 0,-7.65305 1.26412,0 0,1.18896 c 0.26421,-0.46465 0.60814,-0.80858 1.0318,-1.0318 0.42365,-0.22776 0.9384,-0.34164 1.54428,-0.34165 0.0865,1e-5 0.18221,0.007 0.28698,0.0205 0.10477,0.009 0.22094,0.0251 0.34849,0.0478 l 0.007,1.29145"
           style="fill:#000000"
           id="path3479" />
        <path
           d="m 528.62098,937.72826 1.8586,0 4.5235,8.53452 0,-8.53452 1.33928,0 0,10.20179 -1.8586,0 -4.5235,-8.53452 0,8.53452 -1.33928,0 0,-10.20179"
           style="fill:#000000"
           id="path3481" />
        <path
           d="m 542.51262,944.08303 c -1.01586,0 -1.71967,0.11616 -2.11143,0.34849 -0.39176,0.23232 -0.58764,0.62864 -0.58764,1.18895 0,0.44643 0.14577,0.80175 0.43732,1.06596 0.29609,0.25966 0.69697,0.38949 1.20262,0.38949 0.69697,0 1.255,-0.24599 1.6741,-0.73797 0.42365,-0.49654 0.63547,-1.15479 0.63548,-1.97477 l 0,-0.28015 -1.25045,0 m 2.50774,-0.51932 0,4.36634 -1.25729,0 0,-1.16162 c -0.287,0.46465 -0.64459,0.80858 -1.07279,1.0318 -0.42821,0.21865 -0.95208,0.32798 -1.57161,0.32798 -0.78353,0 -1.40762,-0.21866 -1.87227,-0.65597 -0.46009,-0.44187 -0.69014,-1.0318 -0.69014,-1.76977 0,-0.86097 0.28699,-1.51011 0.86097,-1.94743 0.57853,-0.43731 1.4395,-0.65597 2.5829,-0.65598 l 1.76294,0 0,-0.12299 c -10e-6,-0.57853 -0.19133,-1.02496 -0.57398,-1.33929 -0.3781,-0.31887 -0.91108,-0.4783 -1.59894,-0.47831 -0.43732,1e-5 -0.86325,0.0524 -1.27779,0.15716 -0.41454,0.10478 -0.81314,0.26194 -1.19579,0.47148 l 0,-1.16162 c 0.4601,-0.17765 0.90652,-0.30976 1.33929,-0.39632 0.43276,-0.0911 0.85413,-0.13665 1.26412,-0.13666 1.10695,1e-5 1.93375,0.28699 2.48041,0.86097 0.54664,0.57398 0.81996,1.44406 0.81997,2.61023"
           style="fill:#000000"
           id="path3483" />
        <path
           d="m 553.57536,941.74611 c 0.31432,-0.56486 0.69013,-0.98168 1.12746,-1.25045 0.43731,-0.26876 0.95207,-0.40314 1.54428,-0.40315 0.79718,1e-5 1.41216,0.28016 1.84493,0.84047 0.43275,0.55576 0.64913,1.3484 0.64914,2.37791 l 0,4.61916 -1.26412,0 0,-4.57816 c -10e-6,-0.73341 -0.12984,-1.27778 -0.38948,-1.63311 -0.25967,-0.35531 -0.65599,-0.53297 -1.18896,-0.53298 -0.65143,10e-6 -1.16619,0.21639 -1.54428,0.64914 -0.3781,0.43277 -0.56715,1.02269 -0.56714,1.76977 l 0,4.32534 -1.26412,0 0,-4.57816 c -10e-6,-0.73797 -0.12984,-1.28234 -0.38949,-1.63311 -0.25966,-0.35531 -0.66054,-0.53297 -1.20262,-0.53298 -0.64232,10e-6 -1.15252,0.21867 -1.53061,0.65598 -0.3781,0.43276 -0.56715,1.02041 -0.56715,1.76293 l 0,4.32534 -1.26412,0 0,-7.65305 1.26412,0 0,1.18896 c 0.28699,-0.4692 0.63092,-0.81541 1.0318,-1.03863 0.40087,-0.22321 0.87691,-0.33481 1.42811,-0.33482 0.55575,1e-5 1.02724,0.14122 1.41445,0.42365 0.39176,0.28244 0.68102,0.69242 0.8678,1.22995"
           style="fill:#000000"
           id="path3485" />
        <path
           d="m 567.80186,943.78921 0,0.61497 -5.78079,0 c 0.0547,0.86553 0.31432,1.52606 0.77897,1.9816 0.46921,0.45098 1.12063,0.67647 1.95427,0.67647 0.48286,0 0.94979,-0.0592 1.40078,-0.17766 0.45553,-0.11844 0.90651,-0.2961 1.35295,-0.53298 l 0,1.18896 c -0.45099,0.19132 -0.91336,0.3371 -1.38712,0.43732 -0.47376,0.10021 -0.95436,0.15032 -1.44178,0.15032 -1.22084,0 -2.18886,-0.35532 -2.90406,-1.06596 -0.71064,-0.71064 -1.06596,-1.67182 -1.06596,-2.88356 0,-1.25273 0.3371,-2.2458 1.0113,-2.97922 0.67875,-0.73797 1.5921,-1.10695 2.74006,-1.10696 1.02952,1e-5 1.84265,0.33255 2.43941,0.99763 0.60131,0.66054 0.90196,1.56022 0.90197,2.69907 m -1.25729,-0.36899 c -0.009,-0.68786 -0.20272,-1.23678 -0.58081,-1.64677 -0.37355,-0.40998 -0.87008,-0.61497 -1.48961,-0.61498 -0.70153,1e-5 -1.26412,0.19816 -1.68777,0.59448 -0.4191,0.39632 -0.66053,0.95436 -0.72431,1.6741 l 4.4825,-0.007"
           style="fill:#000000"
           id="path3487" />
        <path
           d="m 571.23206,946.76843 4.81733,0 0,1.16162 -6.47776,0 0,-1.16162 c 0.52386,-0.54209 1.23678,-1.26867 2.13875,-2.17975 0.90652,-0.91563 1.47594,-1.50555 1.70827,-1.76977 0.44187,-0.49653 0.74936,-0.91563 0.92247,-1.25729 0.17765,-0.3462 0.26648,-0.68558 0.26649,-1.01813 -10e-6,-0.54208 -0.19133,-0.98395 -0.57398,-1.32562 -0.3781,-0.34164 -0.87236,-0.51247 -1.48278,-0.51248 -0.43277,1e-5 -0.89058,0.0752 -1.37345,0.22549 -0.47832,0.15034 -0.9908,0.37811 -1.53744,0.68331 l 0,-1.39395 c 0.55575,-0.2232 1.07507,-0.39175 1.55794,-0.50565 0.48287,-0.11387 0.92474,-0.17081 1.32562,-0.17082 1.05684,10e-6 1.89959,0.26422 2.52824,0.79264 0.62863,0.52843 0.94296,1.23451 0.94296,2.11825 0,0.4191 -0.0797,0.8177 -0.23915,1.19579 -0.15489,0.37355 -0.43961,0.81542 -0.85414,1.32562 -0.11389,0.13211 -0.47604,0.51476 -1.08646,1.14796 -0.61043,0.62864 -1.47139,1.51011 -2.58291,2.6444"
           style="fill:#000000"
           id="path3489" />
        <path
           d="m 578.57763,937.31144 1.09329,0 c 0.68331,1.07508 1.19351,2.12738 1.53061,3.15689 0.34165,1.02952 0.51248,2.05221 0.51248,3.06805 0,1.02041 -0.17083,2.04765 -0.51248,3.08172 -0.3371,1.03408 -0.8473,2.08637 -1.53061,3.15689 l -1.09329,0 c 0.60586,-1.04319 1.05685,-2.07954 1.35295,-3.10906 0.30065,-1.03407 0.45098,-2.07725 0.45098,-3.12955 0,-1.05229 -0.15033,-2.09092 -0.45098,-3.11588 -0.2961,-1.02496 -0.74709,-2.06131 -1.35295,-3.10906"
           style="fill:#000000"
           id="path3491" />
        <path
           d="m 590.07773,949.22834 0,0.98396 -0.42365,0 c -1.1343,0 -1.89505,-0.16855 -2.28225,-0.50564 -0.38266,-0.3371 -0.57398,-1.00902 -0.57398,-2.01576 l 0,-1.63311 c 0,-0.68786 -0.123,-1.1639 -0.36898,-1.42812 -0.246,-0.2642 -0.69243,-0.39631 -1.33929,-0.39631 l -0.41682,0 0,-0.97714 0.41682,0 c 0.65142,10e-6 1.09785,-0.12982 1.33929,-0.38948 0.24598,-0.26421 0.36898,-0.73569 0.36898,-1.41445 l 0,-1.63994 c 0,-1.00673 0.19132,-1.67637 0.57398,-2.00893 0.3872,-0.33708 1.14795,-0.50563 2.28225,-0.50564 l 0.42365,0 0,0.97713 -0.46465,0 c -0.64231,10e-6 -1.06141,0.10023 -1.25728,0.30065 -0.19589,0.20045 -0.29383,0.62182 -0.29383,1.26412 l 0,1.69461 c 0,0.7152 -0.10478,1.23451 -0.31432,1.55794 -0.205,0.32344 -0.55804,0.5421 -1.05913,0.65598 0.50565,0.123 0.86097,0.34621 1.06596,0.66964 0.20499,0.32343 0.30749,0.84047 0.30749,1.55111 l 0,1.6946 c 0,0.64231 0.0979,1.06369 0.29383,1.26412 0.19587,0.20044 0.61497,0.30066 1.25728,0.30066 l 0.46465,0"
           style="fill:#000000"
           id="path3493" />
        <path
           d="m 45.87047,972.71365 1.161624,0 -3.553203,11.50007 -1.161625,0 3.553204,-11.50007"
           style=""
           id="path3495" />
        <path
           d="m 50.598962,972.71365 1.161624,0 -3.553203,11.50007 -1.161624,0 3.553203,-11.50007"
           style=""
           id="path3497" />
        <path
           d="m 62.427028,975.48788 0,1.18895 c -0.355326,-0.18221 -0.724312,-0.31887 -1.10696,-0.40998 -0.382657,-0.0911 -0.778975,-0.13666 -1.188956,-0.13666 -0.624092,0 -1.093296,0.0957 -1.407615,0.28699 -0.309769,0.19133 -0.464652,0.47832 -0.46465,0.86097 -2e-6,0.29155 0.111605,0.52159 0.334821,0.69014 0.223212,0.164 0.671917,0.32116 1.346118,0.47148 l 0.430484,0.0957 c 0.892851,0.19133 1.526049,0.46238 1.899597,0.81314 0.378091,0.34621 0.567139,0.83136 0.567146,1.45545 -7e-6,0.71064 -0.282441,1.27323 -0.847302,1.68777 -0.560318,0.41454 -1.332456,0.62181 -2.316416,0.62181 -0.409988,0 -0.838194,-0.041 -1.284619,-0.123 -0.441875,-0.0774 -0.908801,-0.19588 -1.400782,-0.35532 l 0,-1.29828 c 0.464648,0.24143 0.922464,0.42365 1.37345,0.54664 0.45098,0.11844 0.897408,0.17766 1.339284,0.17766 0.592196,0 1.047735,-0.10021 1.366616,-0.30065 0.318872,-0.20499 0.478311,-0.49198 0.478316,-0.86097 -5e-6,-0.34165 -0.116167,-0.60359 -0.348487,-0.78581 -0.227774,-0.18221 -0.731144,-0.35759 -1.510111,-0.52614 l -0.437318,-0.1025 c -0.778973,-0.16399 -1.341563,-0.41454 -1.687771,-0.75164 -0.346211,-0.34165 -0.519315,-0.80857 -0.519315,-1.40078 0,-0.71975 0.255101,-1.2755 0.765306,-1.66727 0.510201,-0.39176 1.234507,-0.58764 2.17292,-0.58765 0.464646,10e-6 0.901962,0.0342 1.311952,0.1025 0.40998,0.0683 0.788077,0.17083 1.134292,0.30749"
           style=""
           id="path3499" />
        <path
           d="m 71.392033,978.77459 0,0.61498 -5.780788,0 c 0.05466,0.86552 0.31432,1.52606 0.778972,1.98159 0.469201,0.45099 1.120621,0.67648 1.954261,0.67648 0.482866,0 0.949793,-0.0592 1.400782,-0.17766 0.455533,-0.11844 0.906516,-0.2961 1.352951,-0.53298 l 0,1.18895 c -0.450991,0.19133 -0.913362,0.3371 -1.387116,0.43732 -0.473766,0.10022 -0.954359,0.15033 -1.44178,0.15033 -1.220848,0 -2.188867,-0.35532 -2.904061,-1.06596 -0.710642,-0.71064 -1.065961,-1.67183 -1.065961,-2.88356 0,-1.25273 0.337098,-2.2458 1.011297,-2.97923 0.67875,-0.73796 1.592105,-1.10695 2.740066,-1.10696 1.029512,10e-6 1.842648,0.33255 2.43941,0.99763 0.601304,0.66054 0.90196,1.56023 0.901967,2.69907 m -1.257287,-0.36899 c -0.0091,-0.68785 -0.202721,-1.23678 -0.580812,-1.64677 -0.373547,-0.40998 -0.870084,-0.61497 -1.489612,-0.61498 -0.701534,10e-6 -1.264124,0.19817 -1.687771,0.59448 -0.419099,0.39633 -0.660534,0.95436 -0.724307,1.67411 l 4.482502,-0.007"
           style=""
           id="path3501" />
        <path
           d="m 74.699245,973.08947 0,2.17292 2.589738,0 0,0.97713 -2.589738,0 0,4.15451 c -3e-6,0.62409 0.08427,1.02496 0.252824,1.20262 0.173102,0.17766 0.521589,0.26649 1.045462,0.26649 l 1.291452,0 0,1.0523 -1.291452,0 c -0.970301,0 -1.639942,-0.17994 -2.008927,-0.53981 -0.368988,-0.36444 -0.553481,-1.02497 -0.553479,-1.9816 l 0,-4.15451 -0.922467,0 0,-0.97713 0.922467,0 0,-2.17292 1.26412,0"
           style=""
           id="path3503" />
        <path
           d="m 83.274766,979.89522 0,-4.63283 1.257287,0 0,4.58499 c -2e-6,0.72431 0.141215,1.26868 0.423652,1.63311 0.282431,0.35988 0.706081,0.53982 1.270953,0.53981 0.678748,10e-6 1.214006,-0.21638 1.605775,-0.64914 0.396312,-0.43276 0.594471,-1.02268 0.594478,-1.76977 l 0,-4.339 1.257287,0 0,7.65305 -1.257287,0 0,-1.17529 c -0.305217,0.46465 -0.660537,0.81086 -1.065961,1.03863 -0.400879,0.22321 -0.867806,0.33482 -1.400782,0.33482 -0.879193,0 -1.546557,-0.27333 -2.002094,-0.81997 -0.45554,-0.54665 -0.683309,-1.34612 -0.683308,-2.39841 m 3.163718,-4.81733 0,0"
           style=""
           id="path3505" />
        <path
           d="m 93.503894,981.76748 0,4.05885 -1.26412,0 0,-10.56394 1.26412,0 0,1.16162 c 0.26421,-0.45553 0.596753,-0.79263 0.99763,-1.0113 0.405426,-0.2232 0.888297,-0.33481 1.448614,-0.33482 0.929293,10e-6 1.68321,0.369 2.261751,1.10696 0.583081,0.73798 0.874626,1.70828 0.874634,2.9109 -8e-6,1.20262 -0.291553,2.17292 -0.874634,2.91089 -0.578541,0.73797 -1.332458,1.10696 -2.261751,1.10696 -0.560317,0 -1.043188,-0.10933 -1.448614,-0.32799 -0.400877,-0.22321 -0.73342,-0.56259 -0.99763,-1.01813 m 4.27751,-2.67173 c -6e-6,-0.92474 -0.191333,-1.64905 -0.573979,-2.17293 -0.378103,-0.52841 -0.899694,-0.79263 -1.564776,-0.79263 -0.66509,0 -1.18896,0.26422 -1.571609,0.79263 -0.3781,0.52388 -0.567148,1.24819 -0.567146,2.17293 -2e-6,0.92474 0.189046,1.65133 0.567146,2.17975 0.382649,0.52387 0.906519,0.7858 1.571609,0.7858 0.665082,0 1.186673,-0.26193 1.564776,-0.7858 0.382646,-0.52842 0.573973,-1.25501 0.573979,-2.17975"
           style=""
           id="path3507" />
        <path
           d="m 108.59134,976.14385 c -0.6742,10e-6 -1.20718,0.26422 -1.59894,0.79264 -0.39177,0.52388 -0.58765,1.24363 -0.58765,2.15926 0,0.91563 0.1936,1.63766 0.58081,2.16608 0.39176,0.52387 0.92702,0.78581 1.60578,0.78581 0.66963,0 1.20034,-0.26421 1.5921,-0.79264 0.39176,-0.52842 0.58764,-1.24817 0.58765,-2.15925 -1e-5,-0.90652 -0.19589,-1.624 -0.58765,-2.15243 -0.39176,-0.53297 -0.92247,-0.79946 -1.5921,-0.79947 m 0,-1.06596 c 1.09328,10e-6 1.95197,0.35533 2.57607,1.06596 0.62408,0.71065 0.93612,1.69461 0.93613,2.9519 -10e-6,1.25273 -0.31205,2.23669 -0.93613,2.95189 -0.6241,0.71064 -1.48279,1.06596 -2.57607,1.06596 -1.09786,0 -1.95882,-0.35532 -2.58291,-1.06596 -0.61953,-0.7152 -0.9293,-1.69916 -0.9293,-2.95189 0,-1.25729 0.30977,-2.24125 0.9293,-2.9519 0.62409,-0.71063 1.48505,-1.06595 2.58291,-1.06596"
           style=""
           id="path3509" />
        <path
           d="m 119.6746,979.09575 c -1e-5,-0.92474 -0.19133,-1.64905 -0.57398,-2.17293 -0.3781,-0.52841 -0.89969,-0.79263 -1.56477,-0.79263 -0.6651,0 -1.18896,0.26422 -1.57161,0.79263 -0.3781,0.52388 -0.56715,1.24819 -0.56715,2.17293 0,0.92474 0.18905,1.65133 0.56715,2.17975 0.38265,0.52387 0.90651,0.7858 1.57161,0.7858 0.66508,0 1.18667,-0.26193 1.56477,-0.7858 0.38265,-0.52842 0.57397,-1.25501 0.57398,-2.17975 m -4.27751,-2.67174 c 0.26421,-0.45553 0.59675,-0.79263 0.99763,-1.0113 0.40543,-0.2232 0.8883,-0.33481 1.44861,-0.33482 0.9293,10e-6 1.68321,0.369 2.26175,1.10696 0.58309,0.73798 0.87463,1.70828 0.87464,2.9109 -1e-5,1.20262 -0.29155,2.17292 -0.87464,2.91089 -0.57854,0.73797 -1.33245,1.10696 -2.26175,1.10696 -0.56031,0 -1.04318,-0.10933 -1.44861,-0.32799 -0.40088,-0.22321 -0.73342,-0.56259 -0.99763,-1.01813 l 0,1.14796 -1.26412,0 0,-10.63228 1.26412,0 0,4.14085"
           style=""
           id="path3511" />
        <path
           d="m 123.06381,975.26239 1.25729,0 0,7.78971 c 0,0.97485 -0.18677,1.68094 -0.56031,2.11826 -0.36899,0.43731 -0.96575,0.65597 -1.79027,0.65597 l -0.47832,0 0,-1.06596 0.33482,0 c 0.47832,0 0.80403,-0.11161 0.97714,-0.33482 0.1731,-0.21866 0.25965,-0.67648 0.25965,-1.37345 l 0,-7.78971 m 0,-2.97923 1.25729,0 0,1.59211 -1.25729,0 0,-1.59211"
           style=""
           id="path3513" />
        <path
           d="m 133.49109,978.77459 0,0.61498 -5.78078,0 c 0.0547,0.86552 0.31431,1.52606 0.77897,1.98159 0.4692,0.45099 1.12062,0.67648 1.95426,0.67648 0.48286,0 0.94979,-0.0592 1.40078,-0.17766 0.45553,-0.11844 0.90652,-0.2961 1.35295,-0.53298 l 0,1.18895 c -0.45099,0.19133 -0.91336,0.3371 -1.38711,0.43732 -0.47377,0.10022 -0.95436,0.15033 -1.44179,0.15033 -1.22084,0 -2.18886,-0.35532 -2.90406,-1.06596 -0.71064,-0.71064 -1.06596,-1.67183 -1.06596,-2.88356 0,-1.25273 0.3371,-2.2458 1.0113,-2.97923 0.67875,-0.73796 1.5921,-1.10695 2.74007,-1.10696 1.02951,10e-6 1.84264,0.33255 2.43941,0.99763 0.6013,0.66054 0.90196,1.56023 0.90196,2.69907 m -1.25728,-0.36899 c -0.009,-0.68785 -0.20272,-1.23678 -0.58082,-1.64677 -0.37354,-0.40998 -0.87008,-0.61497 -1.48961,-0.61498 -0.70153,10e-6 -1.26412,0.19817 -1.68777,0.59448 -0.4191,0.39633 -0.66053,0.95436 -0.72431,1.67411 l 4.48251,-0.007"
           style=""
           id="path3515" />
        <path
           d="m 141.06215,975.55621 0,1.17529 c -0.35532,-0.19588 -0.71292,-0.34165 -1.07279,-0.43732 -0.35533,-0.10021 -0.7152,-0.15032 -1.07963,-0.15033 -0.81542,10e-6 -1.44862,0.25967 -1.8996,0.77897 -0.45098,0.51477 -0.67647,1.23908 -0.67647,2.17293 0,0.93385 0.22549,1.66044 0.67647,2.17975 0.45098,0.51476 1.08418,0.77214 1.8996,0.77214 0.36443,0 0.7243,-0.0478 1.07963,-0.1435 0.35987,-0.10022 0.71747,-0.24827 1.07279,-0.44415 l 0,1.16163 c -0.35077,0.16399 -0.7152,0.28699 -1.09329,0.36898 -0.37355,0.082 -0.77214,0.123 -1.19579,0.123 -1.15252,0 -2.06815,-0.36216 -2.7469,-1.08646 -0.67875,-0.72431 -1.01813,-1.70144 -1.01813,-2.93139 0,-1.24818 0.34165,-2.22986 1.02496,-2.94506 0.68786,-0.71519 1.62855,-1.07279 2.82207,-1.0728 0.3872,10e-6 0.7653,0.041 1.13429,0.123 0.36898,0.0774 0.72658,0.19589 1.07279,0.35532"
           style=""
           id="path3517" />
        <path
           d="m 144.50603,973.08947 0,2.17292 2.58974,0 0,0.97713 -2.58974,0 0,4.15451 c -1e-5,0.62409 0.0843,1.02496 0.25282,1.20262 0.1731,0.17766 0.52159,0.26649 1.04546,0.26649 l 1.29146,0 0,1.0523 -1.29146,0 c -0.9703,0 -1.63994,-0.17994 -2.00892,-0.53981 -0.36899,-0.36444 -0.55348,-1.02497 -0.55348,-1.9816 l 0,-4.15451 -0.92247,0 0,-0.97713 0.92247,0 0,-2.17292 1.26412,0"
           style=""
           id="path3519" />
        <path
           d="m 12.880344,1019.1991 0.478316,0 c 0.637752,0 1.052291,-0.098 1.243621,-0.2938 0.195878,-0.1959 0.293819,-0.6195 0.293823,-1.271 l 0,-1.6946 c -4e-6,-0.7106 0.102492,-1.2276 0.307488,-1.5511 0.204989,-0.3234 0.560309,-0.5466 1.065961,-0.6696 -0.505652,-0.1139 -0.860972,-0.3326 -1.065961,-0.656 -0.204996,-0.3234 -0.307492,-0.8427 -0.307488,-1.5579 l 0,-1.6946 c -4e-6,-0.6469 -0.09794,-1.0683 -0.293823,-1.2642 -0.19133,-0.2004 -0.605869,-0.3006 -1.243621,-0.3006 l -0.478316,0 0,-0.9772 0.430484,0 c 1.134289,10e-5 1.890483,0.1686 2.268584,0.5057 0.382648,0.3325 0.573974,1.0022 0.573979,2.0089 l 0,1.64 c -5e-6,0.6787 0.12299,1.1502 0.368986,1.4144 0.245986,0.2597 0.692413,0.3895 1.339285,0.3895 l 0.423651,0 0,0.9771 -0.423651,0 c -0.646872,0 -1.093299,0.1321 -1.339285,0.3963 -0.245996,0.2643 -0.368991,0.7403 -0.368986,1.4282 l 0,1.6331 c -5e-6,1.0067 -0.191331,1.6786 -0.573979,2.0157 -0.378101,0.3371 -1.134295,0.5057 -2.268584,0.5057 l -0.430484,0 0,-0.984"
           style="fill:#000000"
           id="path3521" />
      </g>
      <rect
         y="929.00897"
         x="3.4224827"
         height="55.361694"
         width="120.53431"
         id="rect10453"
         style="fill:#000000;fill-opacity:0;stroke-width:5;stroke-miterlimit:4;stroke-dasharray:none" />
      <rect
         y="887.48389"
         x="252.51337"
         height="22.158457"
         width="246.66983"
         id="rect10545"
         style="fill:none;stroke:#000000;stroke-width:0.72115105;stroke-opacity:1" />
      <text
         sodipodi:linespacing="125%"
         id="text10547"
         y="903.79779"
         x="257.77625"
         style="font-size:12.43924713px;font-style:normal;font-weight:normal;line-height:125%;letter-spacing:0px;word-spacing:0px;fill:#000000;fill-opacity:1;stroke:none;font-family:Sans"
         xml:space="preserve"><tspan
           id="tspan10555"
           y="903.79779"
           x="257.77625"
           sodipodi:role="line">could have none or many parameters</tspan></text>
      <text
         sodipodi:linespacing="125%"
         id="text10597"
         y="903.21619"
         x="13.833378"
         style="font-size:12.43924713px;font-style:normal;font-weight:normal;line-height:125%;letter-spacing:0px;word-spacing:0px;fill:#000000;fill-opacity:1;stroke:none;font-family:Sans"
         xml:space="preserve"><tspan
           y="903.21619"
           x="13.833378"
           id="tspan10599"
           sodipodi:role="line">must match class name</tspan></text>
      <rect
         y="887.41211"
         x="9.3711948"
         height="22.301971"
         width="157.24146"
         id="rect10545-6"
         style="fill:none;stroke:#000000;stroke-width:0.57763517;stroke-opacity:1" />
      <path
         inkscape:connection-end-point="d4"
         inkscape:connection-end="#rect10455"
         inkscape:connection-start-point="d4"
         inkscape:connection-start="#rect10545-6"
         inkscape:connector-curvature="0"
         inkscape:connector-type="polyline"
         id="path10619"
         d="m 78.408263,909.71408 -16.73712,19.47434"
         style="fill:none;stroke:#000000;stroke-width:0.77745295px;stroke-linecap:butt;stroke-linejoin:miter;stroke-opacity:1;marker-end:url(#Arrow1Lend)" />
      <path
         inkscape:connection-end-point="d4"
         inkscape:connection-end="#rect10533"
         inkscape:connection-start-point="d4"
         inkscape:connection-start="#rect10545"
         inkscape:connector-curvature="0"
         inkscape:connector-type="polyline"
         id="path10991"
         d="M 348.24099,909.64234 300.344,928.86414"
         style="fill:none;stroke:#000000;stroke-width:0.77745295px;stroke-linecap:butt;stroke-linejoin:miter;stroke-opacity:1;marker-end:url(#Arrow1Lend)" />
      <path
         inkscape:connection-end-point="d4"
         inkscape:connection-end="#rect10533-9"
         inkscape:connection-start-point="d4"
         inkscape:connection-start="#rect10545"
         inkscape:connector-curvature="0"
         inkscape:connector-type="polyline"
         id="path10993"
         d="m 410.78244,909.64234 61.14636,19.39233"
         style="fill:none;stroke:#000000;stroke-width:0.77745295px;stroke-linecap:butt;stroke-linejoin:miter;stroke-opacity:1;marker-end:url(#Arrow1Lend)" />
    </g>
  </g>
</svg>
