<?xml version="1.0" encoding="UTF-8" standalone="no"?>
<!-- Created with Inkscape (http://www.inkscape.org/) -->

<svg
   xmlns:dc="http://purl.org/dc/elements/1.1/"
   xmlns:cc="http://creativecommons.org/ns#"
   xmlns:rdf="http://www.w3.org/1999/02/22-rdf-syntax-ns#"
   xmlns:svg="http://www.w3.org/2000/svg"
   xmlns="http://www.w3.org/2000/svg"
   xmlns:xlink="http://www.w3.org/1999/xlink"
   xmlns:sodipodi="http://sodipodi.sourceforge.net/DTD/sodipodi-0.dtd"
   xmlns:inkscape="http://www.inkscape.org/namespaces/inkscape"
   width="500"
   height="150"
   id="svg2"
   version="1.1"
   inkscape:version="0.48.4 r9939"
   sodipodi:docname="if.svg"
   inkscape:export-filename="/home/john/Desktop/Link to java_tutorial_armenian/images/syntax_anatomy/if.png"
   inkscape:export-xdpi="90"
   inkscape:export-ydpi="90">
  <defs
     id="defs4">
    <linearGradient
       id="linearGradient4141">
      <stop
         style="stop-color:#00ff00;stop-opacity:1;"
         offset="0"
         id="stop4143" />
      <stop
         style="stop-color:#ff0000;stop-opacity:1;"
         offset="1"
         id="stop4145" />
    </linearGradient>
    <marker
       inkscape:stockid="Arrow1Mend"
       orient="auto"
       refY="0"
       refX="0"
       id="Arrow1Mend"
       style="overflow:visible">
      <path
         id="path4263"
         d="M 0,0 5,-5 -12.5,0 5,5 0,0 z"
         style="fill-rule:evenodd;stroke:#000000;stroke-width:1pt"
         transform="matrix(-0.4,0,0,-0.4,-4,0)"
         inkscape:connector-curvature="0" />
    </marker>
    <marker
       inkscape:stockid="Arrow1Lend"
       orient="auto"
       refY="0"
       refX="0"
       id="Arrow1Lend"
       style="overflow:visible">
      <path
         id="path5297"
         d="M 0,0 5,-5 -12.5,0 5,5 0,0 z"
         style="fill-rule:evenodd;stroke:#000000;stroke-width:1pt"
         transform="matrix(-0.8,0,0,-0.8,-10,0)"
         inkscape:connector-curvature="0" />
    </marker>
    <marker
       inkscape:stockid="Arrow1Send"
       orient="auto"
       refY="0"
       refX="0"
       id="Arrow1Send"
       style="overflow:visible">
      <path
         id="path5309"
         d="M 0,0 5,-5 -12.5,0 5,5 0,0 z"
         style="fill-rule:evenodd;stroke:#000000;stroke-width:1pt"
         transform="matrix(-0.2,0,0,-0.2,-1.2,0)"
         inkscape:connector-curvature="0" />
    </marker>
    <linearGradient
       inkscape:collect="always"
       xlink:href="#linearGradient4141"
       id="linearGradient4147"
       x1="200.49387"
       y1="889.16327"
       x2="207.37096"
       y2="903.44653"
       gradientUnits="userSpaceOnUse"
       gradientTransform="matrix(0.84688995,0,0,1.0397338,85.585864,9.66051)" />
    <linearGradient
       inkscape:collect="always"
       xlink:href="#linearGradient4141-1"
       id="linearGradient4147-4"
       x1="200.49387"
       y1="889.16327"
       x2="207.37096"
       y2="903.44653"
       gradientUnits="userSpaceOnUse" />
    <linearGradient
       id="linearGradient4141-1">
      <stop
         style="stop-color:#00ff00;stop-opacity:1;"
         offset="0"
         id="stop4143-1" />
      <stop
         style="stop-color:#ff0000;stop-opacity:1;"
         offset="1"
         id="stop4145-0" />
    </linearGradient>
  </defs>
  <sodipodi:namedview
     id="base"
     pagecolor="#ffffff"
     bordercolor="#666666"
     borderopacity="1.0"
     inkscape:pageopacity="0.0"
     inkscape:pageshadow="2"
     inkscape:zoom="1.3366667"
     inkscape:cx="202.03254"
     inkscape:cy="89.263552"
     inkscape:document-units="px"
     inkscape:current-layer="text3341"
     showgrid="false"
     inkscape:window-width="1319"
     inkscape:window-height="744"
     inkscape:window-x="47"
     inkscape:window-y="24"
     inkscape:window-maximized="1" />
  <metadata
     id="metadata7">
    <rdf:RDF>
      <cc:Work
         rdf:about="">
        <dc:format>image/svg+xml</dc:format>
        <dc:type
           rdf:resource="http://purl.org/dc/dcmitype/StillImage" />
        <dc:title></dc:title>
      </cc:Work>
    </rdf:RDF>
  </metadata>
  <g
     inkscape:label="Layer 1"
     inkscape:groupmode="layer"
     id="layer1"
     transform="translate(0,-902.36218)">
    <g
       style="font-size:17.53719902px;font-style:normal;font-weight:normal;line-height:125%;letter-spacing:0px;word-spacing:0px;fill:#000000;fill-opacity:1;stroke:none;font-family:Sans"
       id="text10447">
      <path
         d="m 892.14323,892.16989 0,1.23309 -0.53092,0 c -1.42148,0 -2.37483,-0.21123 -2.86007,-0.63367 -0.47953,-0.42245 -0.7193,-1.26448 -0.7193,-2.52611 l 0,-2.04658 c 0,-0.86201 -0.15414,-1.45857 -0.4624,-1.78968 -0.30828,-0.3311 -0.86773,-0.49666 -1.67837,-0.49666 l -0.52235,0 0,-1.22452 0.52235,0 c 0.81635,0 1.3758,-0.1627 1.67837,-0.4881 0.30826,-0.3311 0.4624,-0.92195 0.4624,-1.77256 l 0,-2.05514 c 0,-1.26161 0.23977,-2.1008 0.7193,-2.51754 0.48524,-0.42244 1.43859,-0.63366 2.86007,-0.63367 l 0.53092,0 0,1.22452 -0.58229,0 c -0.80494,10e-6 -1.33014,0.1256 -1.57561,0.37677 -0.24548,0.2512 -0.36822,0.77926 -0.36821,1.58417 l 0,2.12365 c -10e-6,0.89628 -0.13131,1.54707 -0.39391,1.95238 -0.2569,0.40533 -0.69932,0.67935 -1.32728,0.82206 0.63367,0.15414 1.07895,0.43387 1.33585,0.83918 0.25688,0.40533 0.38533,1.05326 0.38534,1.94382 l 0,2.12365 c -10e-6,0.80493 0.12273,1.33298 0.36821,1.58417 0.24547,0.25118 0.77067,0.37677 1.57561,0.37677 l 0.58229,0"
         style="fill:#000000"
         id="path3688"
         inkscape:connector-curvature="0" />
      <rect
         style="font-size:17.53719902px;font-style:normal;font-weight:normal;line-height:125%;letter-spacing:0px;word-spacing:0px;fill:#ff6600;fill-opacity:1;stroke:none;font-family:Sans"
         id="rect3353-4"
         width="46.155914"
         height="48.402378"
         x="90.760643"
         y="919.35034" />
      <rect
         style="fill:url(#linearGradient4147);fill-opacity:1;stroke:none"
         id="rect3353"
         width="187.26868"
         height="48.402378"
         x="152.78754"
         y="919.30292" />
      <g
         style="font-size:47.3360939px;line-height:125%;fill:#000000;font-family:Sans"
         id="text3341">
        <path
           d="m 104.37997,935.38708 3.59375,0 0,21.875 -3.59375,0 0,-21.875 m 0,-8.51562 3.59375,0 0,4.55078 -3.59375,0 0,-4.55078"
           style="font-size:40px"
           id="path5430"
           inkscape:connector-curvature="0" />
        <path
           d="m 126.54794,926.87146 0,2.98828 -3.4375,0 c -1.28907,3e-5 -2.18751,0.26045 -2.69531,0.78125 -0.4948,0.52086 -0.7422,1.45836 -0.74219,2.8125 l 0,1.93359 5.91797,0 0,2.79297 -5.91797,0 0,19.08203 -3.61328,0 0,-19.08203 -3.4375,0 0,-2.79297 3.4375,0 0,-1.52343 c 0,-2.43487 0.5664,-4.2057 1.69922,-5.3125 1.13281,-1.11976 2.92968,-1.67966 5.39063,-1.67969 l 3.39843,0"
           style="font-size:40px"
           id="path5432"
           inkscape:connector-curvature="0" />
        <path
           d="m 150.90341,926.91052 c -1.7448,2.99482 -3.04037,5.95706 -3.88672,8.88672 -0.84636,2.92971 -1.26954,5.89845 -1.26953,8.90625 -1e-5,3.00782 0.42317,5.98959 1.26953,8.94531 0.85937,2.94271 2.15494,5.90495 3.88672,8.88672 l -3.125,0 c -1.95313,-3.0599 -3.41797,-6.06771 -4.39453,-9.02344 -0.96355,-2.95572 -1.44532,-5.89191 -1.44531,-8.80859 -1e-5,-2.90363 0.48176,-5.8268 1.44531,-8.76953 0.96354,-2.94268 2.42838,-5.95049 4.39453,-9.02344 l 3.125,0"
           style="font-size:40px"
           id="path5434"
           inkscape:connector-curvature="0" />
        <path
           d="m 173.63779,936.22693 0,3.35937 c -1.01565,-0.55987 -2.03778,-0.97654 -3.06641,-1.25 -1.01564,-0.28644 -2.04428,-0.42966 -3.08594,-0.42968 -2.33074,2e-5 -4.14063,0.7422 -5.42968,2.22656 -1.28907,1.47137 -1.9336,3.54168 -1.9336,6.21094 0,2.66928 0.64453,4.7461 1.9336,6.23046 1.28905,1.47136 3.09894,2.20704 5.42968,2.20704 1.04166,0 2.0703,-0.13672 3.08594,-0.41016 1.02863,-0.28646 2.05076,-0.70963 3.06641,-1.26953 l 0,3.32031 c -1.00263,0.46875 -2.04429,0.82031 -3.125,1.05469 -1.06773,0.23437 -2.20705,0.35156 -3.41797,0.35156 -3.29428,0 -5.91147,-1.03515 -7.85156,-3.10547 -1.94011,-2.07031 -2.91016,-4.86327 -2.91016,-8.3789 0,-3.5677 0.97656,-6.37368 2.92969,-8.41797 1.96614,-2.04425 4.65493,-3.06639 8.0664,-3.06641 1.10676,2e-5 2.18749,0.11721 3.24219,0.35156 1.05467,0.22138 2.07681,0.55992 3.06641,1.01563"
           style="font-size:40px"
           id="path5436"
           inkscape:connector-curvature="0" />
        <path
           d="m 188.40341,937.90662 c -1.92709,2e-5 -3.45053,0.75522 -4.57031,2.26562 -1.1198,1.49741 -1.67969,3.5547 -1.67969,6.17188 0,2.61719 0.55338,4.68099 1.66016,6.1914 1.11978,1.4974 2.64973,2.2461 4.58984,2.2461 1.91405,0 3.43098,-0.75521 4.55078,-2.26563 1.11978,-1.51041 1.67967,-3.5677 1.67969,-6.17187 -2e-5,-2.59114 -0.55991,-4.64192 -1.67969,-6.15235 -1.1198,-1.52342 -2.63673,-2.28513 -4.55078,-2.28515 m 0,-3.04688 c 3.12499,2e-5 5.57941,1.01565 7.36328,3.04688 1.78384,2.03126 2.67576,4.84376 2.67578,8.4375 -2e-5,3.58073 -0.89194,6.39323 -2.67578,8.4375 -1.78387,2.03125 -4.23829,3.04687 -7.36328,3.04687 -3.13803,0 -5.59896,-1.01562 -7.38281,-3.04687 -1.77084,-2.04427 -2.65625,-4.85677 -2.65625,-8.4375 0,-3.59374 0.88541,-6.40624 2.65625,-8.4375 1.78385,-2.03123 4.24478,-3.04686 7.38281,-3.04688"
           style="font-size:40px"
           id="path5438"
           inkscape:connector-curvature="0" />
        <path
           d="m 222.56357,944.05896 0,13.20312 -3.59375,0 0,-13.08593 c -2e-5,-2.0703 -0.40367,-3.61978 -1.21094,-4.64844 -0.80731,-1.02863 -2.01824,-1.54295 -3.63281,-1.54297 -1.94012,2e-5 -3.47006,0.61851 -4.58985,1.85547 -1.1198,1.237 -1.67969,2.92319 -1.67968,5.05859 l 0,12.36328 -3.61328,0 0,-21.875 3.61328,0 0,3.39844 c 0.85936,-1.31508 1.86848,-2.29815 3.02734,-2.94922 1.17186,-0.65102 2.51952,-0.97654 4.04297,-0.97656 2.513,2e-5 4.41404,0.78127 5.70312,2.34375 1.28905,1.5495 1.93358,3.83465 1.9336,6.85547"
           style="font-size:40px"
           id="path5440"
           inkscape:connector-curvature="0" />
        <path
           d="m 244.16513,938.7074 0,-11.83594 3.59375,0 0,30.39062 -3.59375,0 0,-3.28125 c -0.75523,1.30209 -1.71226,2.27214 -2.87109,2.91016 -1.14585,0.625 -2.52606,0.9375 -4.14063,0.9375 -2.64324,0 -4.79818,-1.05469 -6.46484,-3.16406 -1.65365,-2.10937 -2.48047,-4.88281 -2.48047,-8.32031 0,-3.43749 0.82682,-6.21092 2.48047,-8.32032 1.66666,-2.10935 3.8216,-3.16404 6.46484,-3.16406 1.61457,2e-5 2.99478,0.31903 4.14063,0.95703 1.15883,0.62502 2.11586,1.58856 2.87109,2.89063 m -12.24609,7.63672 c -1e-5,2.64323 0.54035,4.72005 1.62109,6.23046 1.09374,1.4974 2.59114,2.2461 4.49219,2.2461 1.90103,0 3.39842,-0.7487 4.49219,-2.2461 1.09373,-1.51041 1.6406,-3.58723 1.64062,-6.23046 -2e-5,-2.64322 -0.54689,-4.71353 -1.64062,-6.21094 -1.09377,-1.5104 -2.59116,-2.26561 -4.49219,-2.26563 -1.90105,2e-5 -3.39845,0.75523 -4.49219,2.26563 -1.08074,1.49741 -1.6211,3.56772 -1.62109,6.21094"
           style="font-size:40px"
           id="path5442"
           inkscape:connector-curvature="0" />
        <path
           d="m 255.16122,935.38708 3.59375,0 0,21.875 -3.59375,0 0,-21.875 m 0,-8.51562 3.59375,0 0,4.55078 -3.59375,0 0,-4.55078"
           style="font-size:40px"
           id="path5444"
           inkscape:connector-curvature="0" />
        <path
           d="m 269.80966,929.17615 0,6.21093 7.40235,0 0,2.79297 -7.40235,0 0,11.875 c -1e-5,1.78386 0.24088,2.9297 0.72266,3.4375 0.49478,0.50782 1.49087,0.76173 2.98828,0.76172 l 3.69141,0 0,3.00781 -3.69141,0 c -2.77345,0 -4.68751,-0.51432 -5.74219,-1.54296 -1.05469,-1.04167 -1.58203,-2.92969 -1.58203,-5.66407 l 0,-11.875 -2.63672,0 0,-2.79297 2.63672,0 0,-6.21093 3.61328,0"
           style="font-size:40px"
           id="path5446"
           inkscape:connector-curvature="0" />
        <path
           d="m 281.9581,935.38708 3.59375,0 0,21.875 -3.59375,0 0,-21.875 m 0,-8.51562 3.59375,0 0,4.55078 -3.59375,0 0,-4.55078"
           style="font-size:40px"
           id="path5448"
           inkscape:connector-curvature="0" />
        <path
           d="m 301.52841,937.90662 c -1.92709,2e-5 -3.45053,0.75522 -4.57031,2.26562 -1.1198,1.49741 -1.67969,3.5547 -1.67969,6.17188 0,2.61719 0.55338,4.68099 1.66016,6.1914 1.11978,1.4974 2.64973,2.2461 4.58984,2.2461 1.91405,0 3.43098,-0.75521 4.55078,-2.26563 1.11978,-1.51041 1.67967,-3.5677 1.67969,-6.17187 -2e-5,-2.59114 -0.55991,-4.64192 -1.67969,-6.15235 -1.1198,-1.52342 -2.63673,-2.28513 -4.55078,-2.28515 m 0,-3.04688 c 3.12499,2e-5 5.57941,1.01565 7.36328,3.04688 1.78384,2.03126 2.67576,4.84376 2.67578,8.4375 -2e-5,3.58073 -0.89194,6.39323 -2.67578,8.4375 -1.78387,2.03125 -4.23829,3.04687 -7.36328,3.04687 -3.13803,0 -5.59896,-1.01562 -7.38281,-3.04687 -1.77084,-2.04427 -2.65625,-4.85677 -2.65625,-8.4375 0,-3.59374 0.88541,-6.40624 2.65625,-8.4375 1.78385,-2.03123 4.24478,-3.04686 7.38281,-3.04688"
           style="font-size:40px"
           id="path5450"
           inkscape:connector-curvature="0" />
        <path
           d="m 335.68857,944.05896 0,13.20312 -3.59375,0 0,-13.08593 c -2e-5,-2.0703 -0.40367,-3.61978 -1.21094,-4.64844 -0.80731,-1.02863 -2.01824,-1.54295 -3.63281,-1.54297 -1.94012,2e-5 -3.47006,0.61851 -4.58985,1.85547 -1.1198,1.237 -1.67969,2.92319 -1.67968,5.05859 l 0,12.36328 -3.61328,0 0,-21.875 3.61328,0 0,3.39844 c 0.85936,-1.31508 1.86848,-2.29815 3.02734,-2.94922 1.17186,-0.65102 2.51952,-0.97654 4.04297,-0.97656 2.513,2e-5 4.41404,0.78127 5.70312,2.34375 1.28905,1.5495 1.93358,3.83465 1.9336,6.85547"
           style="font-size:40px"
           id="path5452"
           inkscape:connector-curvature="0" />
        <path
           d="m 342.32919,926.91052 3.125,0 c 1.95312,3.07295 3.41145,6.08076 4.375,9.02344 0.97655,2.94273 1.46483,5.8659 1.46485,8.76953 -2e-5,2.91668 -0.4883,5.85287 -1.46485,8.80859 -0.96355,2.95573 -2.42188,5.96354 -4.375,9.02344 l -3.125,0 c 1.73177,-2.98177 3.02083,-5.94401 3.86719,-8.88672 0.85937,-2.95572 1.28905,-5.93749 1.28906,-8.94531 -10e-6,-3.0078 -0.42969,-5.97654 -1.28906,-8.90625 -0.84636,-2.92966 -2.13542,-5.8919 -3.86719,-8.88672"
           style="font-size:40px"
           id="path5454"
           inkscape:connector-curvature="0" />
        <path
           d="m 375.20029,960.97302 0,2.8125 -1.21094,0 c -3.2422,0 -5.41668,-0.48177 -6.52344,-1.44531 -1.09376,-0.96355 -1.64063,-2.88412 -1.64062,-5.76172 l 0,-4.66797 c -10e-6,-1.96614 -0.35158,-3.32681 -1.05469,-4.08203 -0.70313,-0.7552 -1.97918,-1.1328 -3.82813,-1.13281 l -1.1914,0 0,-2.79297 1.1914,0 c 1.86198,1e-5 3.13802,-0.37108 3.82813,-1.11328 0.70311,-0.75519 1.05468,-2.10285 1.05469,-4.04297 l 0,-4.6875 c -10e-6,-2.87758 0.54686,-4.79164 1.64062,-5.74219 1.10676,-0.96351 3.28124,-1.44528 6.52344,-1.44531 l 1.21094,0 0,2.79297 -1.32813,0 c -1.83595,3e-5 -3.03387,0.28648 -3.59375,0.85937 -0.55991,0.57295 -0.83986,1.77737 -0.83984,3.61328 l 0,4.84375 c -2e-5,2.04429 -0.2995,3.52867 -0.89844,4.45313 -0.58595,0.92449 -1.59506,1.54949 -3.02734,1.875 1.4453,0.35157 2.46092,0.98959 3.04687,1.91406 0.58592,0.92449 0.87889,2.40235 0.87891,4.4336 l 0,4.84375 c -2e-5,1.83593 0.27993,3.04036 0.83984,3.61328 0.55988,0.57291 1.7578,0.85937 3.59375,0.85937 l 1.32813,0"
           style="font-size:40px"
           id="path5456"
           inkscape:connector-curvature="0" />
        <path
           d="m 137.52451,972.74702 1.66015,0 -5.07812,16.43555 -1.66016,0 5.07813,-16.43555"
           style="font-size:20px;fill:#808080"
           id="path5458"
           inkscape:connector-curvature="0" />
        <path
           d="m 144.28232,972.74702 1.66015,0 -5.07812,16.43555 -1.66016,0 5.07813,-16.43555"
           style="font-size:20px;fill:#808080"
           id="path5460"
           inkscape:connector-curvature="0" />
        <path
           d="m 161.41122,978.04976 0,-5.91797 1.79688,0 0,15.19531 -1.79688,0 0,-1.64062 c -0.37761,0.65104 -0.85612,1.13606 -1.43554,1.45507 -0.57293,0.3125 -1.26303,0.46875 -2.07032,0.46875 -1.32161,0 -2.39909,-0.52734 -3.23242,-1.58203 -0.82682,-1.05468 -1.24023,-2.4414 -1.24023,-4.16015 0,-1.71875 0.41341,-3.10546 1.24023,-4.16016 0.83333,-1.05468 1.91081,-1.58202 3.23242,-1.58203 0.80729,10e-6 1.49739,0.15952 2.07032,0.47852 0.57942,0.31251 1.05793,0.79428 1.43554,1.44531 m -6.12304,3.81836 c -1e-5,1.32162 0.27018,2.36003 0.81054,3.11523 0.54688,0.7487 1.29557,1.12305 2.2461,1.12305 0.95051,0 1.69921,-0.37435 2.24609,-1.12305 0.54687,-0.7552 0.82031,-1.79361 0.82031,-3.11523 0,-1.32161 -0.27344,-2.35677 -0.82031,-3.10547 -0.54688,-0.7552 -1.29558,-1.1328 -2.24609,-1.13281 -0.95053,1e-5 -1.69922,0.37761 -2.2461,1.13281 -0.54036,0.7487 -0.81055,1.78386 -0.81054,3.10547"
           style="font-size:20px;fill:#808080"
           id="path5462"
           inkscape:connector-curvature="0" />
        <path
           d="m 171.14755,977.64937 c -0.96354,10e-6 -1.72526,0.37761 -2.28515,1.13281 -0.5599,0.74871 -0.83985,1.77735 -0.83985,3.08594 0,1.3086 0.27669,2.3405 0.83008,3.0957 0.55989,0.7487 1.32487,1.12305 2.29492,1.12305 0.95703,0 1.71549,-0.37761 2.27539,-1.13282 0.55989,-0.7552 0.83984,-1.78385 0.83985,-3.08593 -1e-5,-1.29557 -0.27996,-2.32096 -0.83985,-3.07617 -0.5599,-0.76171 -1.31836,-1.14257 -2.27539,-1.14258 m 0,-1.52344 c 1.56249,10e-6 2.78971,0.50782 3.68164,1.52344 0.89192,1.01563 1.33788,2.42188 1.33789,4.21875 -1e-5,1.79037 -0.44597,3.19661 -1.33789,4.21875 -0.89193,1.01562 -2.11915,1.52343 -3.68164,1.52343 -1.56901,0 -2.79948,-0.50781 -3.6914,-1.52343 -0.88542,-1.02214 -1.32813,-2.42838 -1.32813,-4.21875 0,-1.79687 0.44271,-3.20312 1.32813,-4.21875 0.89192,-1.01562 2.12239,-1.52343 3.6914,-1.52344"
           style="font-size:20px;fill:#808080"
           id="path5464"
           inkscape:connector-curvature="0" />
        <path
           d="m 192.47568,976.71187 0,1.69922 c -0.50782,-0.26041 -1.03517,-0.45572 -1.58203,-0.58594 -0.54689,-0.1302 -1.11329,-0.1953 -1.69922,-0.19531 -0.89193,1e-5 -1.56251,0.13672 -2.01172,0.41015 -0.44271,0.27345 -0.66407,0.6836 -0.66406,1.23047 -1e-5,0.41668 0.1595,0.74545 0.47851,0.98633 0.31901,0.23438 0.96028,0.45899 1.92383,0.67383 l 0.61523,0.13672 c 1.27604,0.27344 2.18099,0.66081 2.71485,1.16211 0.54035,0.49479 0.81054,1.18815 0.81054,2.08007 0,1.01563 -0.40365,1.81967 -1.21093,2.41211 -0.80079,0.59245 -1.90431,0.88867 -3.31055,0.88867 -0.58594,0 -1.19792,-0.0586 -1.83594,-0.17578 -0.63151,-0.11067 -1.29883,-0.27994 -2.00195,-0.50781 l 0,-1.85547 c 0.66406,0.34506 1.31836,0.60547 1.96289,0.78125 0.64453,0.16927 1.28255,0.25391 1.91406,0.25391 0.84635,0 1.49739,-0.14323 1.95313,-0.42969 0.45572,-0.29297 0.68358,-0.70312 0.68359,-1.23047 -1e-5,-0.48828 -0.16602,-0.86262 -0.49805,-1.12304 -0.32552,-0.26042 -1.04492,-0.51107 -2.1582,-0.75196 l -0.625,-0.14648 c -1.11328,-0.23437 -1.91732,-0.59244 -2.41211,-1.07422 -0.49479,-0.48828 -0.74219,-1.15559 -0.74219,-2.00195 0,-1.02864 0.36459,-1.82291 1.09375,-2.38282 0.72917,-0.55988 1.76432,-0.83983 3.10547,-0.83984 0.66406,10e-6 1.28906,0.0488 1.875,0.14648 0.58593,0.0977 1.1263,0.24416 1.6211,0.43946"
           style="font-size:20px;fill:#808080"
           id="path5466"
           inkscape:connector-curvature="0" />
        <path
           d="m 197.71005,973.28413 0,3.10547 3.70117,0 0,1.39649 -3.70117,0 0,5.9375 c 0,0.89193 0.12044,1.46484 0.36133,1.71875 0.24739,0.2539 0.74544,0.38086 1.49414,0.38086 l 1.8457,0 0,1.5039 -1.8457,0 c -1.38672,0 -2.34375,-0.25716 -2.87109,-0.77148 -0.52735,-0.52083 -0.79102,-1.46484 -0.79102,-2.83203 l 0,-5.9375 -1.31836,0 0,-1.39649 1.31836,0 0,-3.10547 1.80664,0"
           style="font-size:20px;fill:#808080"
           id="path5468"
           inkscape:connector-curvature="0" />
        <path
           d="m 203.59872,983.0107 0,-6.6211 1.79688,0 0,6.55274 c 0,1.03516 0.20182,1.81315 0.60547,2.33398 0.40364,0.51432 1.00911,0.77149 1.8164,0.77148 0.97005,10e-6 1.73502,-0.30924 2.29493,-0.92773 0.56639,-0.61849 0.8496,-1.46158 0.84961,-2.5293 l 0,-6.20117 1.79687,0 0,10.9375 -1.79687,0 0,-1.67969 c -0.43621,0.66407 -0.94402,1.15886 -1.52344,1.48438 -0.57293,0.31901 -1.24024,0.47851 -2.00196,0.47851 -1.25651,0 -2.21028,-0.39062 -2.86132,-1.17187 -0.65105,-0.78125 -0.97657,-1.92383 -0.97657,-3.42773 m 4.52149,-6.88477 0,0"
           style="font-size:20px;fill:#808080"
           id="path5470"
           inkscape:connector-curvature="0" />
        <path
           d="m 228.75497,972.13179 0,1.49414 -1.71875,0 c -0.64454,10e-6 -1.09376,0.13022 -1.34765,0.39062 -0.24741,0.26043 -0.37111,0.72918 -0.3711,1.40625 l 0,0.9668 2.95899,0 0,1.39649 -2.95899,0 0,9.54101 -1.80664,0 0,-9.54101 -4.93164,0 0,9.54101 -1.80664,0 0,-9.54101 -1.71875,0 0,-1.39649 1.71875,0 0,-0.76172 c 0,-1.21743 0.2832,-2.10285 0.84961,-2.65625 0.5664,-0.55988 1.46484,-0.83983 2.69531,-0.83984 l 1.69922,0 0,1.49414 -1.71875,0 c -0.64453,10e-6 -1.09375,0.13022 -1.34765,0.39062 -0.2474,0.26043 -0.3711,0.72918 -0.3711,1.40625 l 0,0.9668 4.93164,0 0,-0.76172 c -1e-5,-1.21743 0.2832,-2.10285 0.84961,-2.65625 0.5664,-0.55988 1.46484,-0.83983 2.69532,-0.83984 l 1.69921,0"
           style="font-size:20px;fill:#808080"
           id="path5472"
           inkscape:connector-curvature="0" />
        <path
           d="m 236.63583,976.3896 1.79688,0 0,10.9375 -1.79688,0 0,-10.9375 m 0,-4.25781 1.79688,0 0,2.27539 -1.79688,0 0,-2.27539"
           style="font-size:20px;fill:#808080"
           id="path5474"
           inkscape:connector-curvature="0" />
        <path
           d="m 247.71982,972.13179 0,1.49414 -1.71875,0 c -0.64454,10e-6 -1.09376,0.13022 -1.34766,0.39062 -0.2474,0.26043 -0.3711,0.72918 -0.37109,1.40625 l 0,0.9668 2.95898,0 0,1.39649 -2.95898,0 0,9.54101 -1.80664,0 0,-9.54101 -1.71875,0 0,-1.39649 1.71875,0 0,-0.76172 c 0,-1.21743 0.2832,-2.10285 0.84961,-2.65625 0.5664,-0.55988 1.46484,-0.83983 2.69531,-0.83984 l 1.69922,0"
           style="font-size:20px;fill:#808080"
           id="path5476"
           inkscape:connector-curvature="0" />
        <path
           d="m 263.45224,976.80952 0,1.67969 c -0.50782,-0.27994 -1.01889,-0.48827 -1.5332,-0.625 -0.50782,-0.14322 -1.02215,-0.21483 -1.54297,-0.21484 -1.16537,10e-6 -2.07032,0.3711 -2.71485,1.11328 -0.64453,0.73568 -0.9668,1.77084 -0.96679,3.10547 -1e-5,1.33464 0.32226,2.37305 0.96679,3.11523 0.64453,0.73568 1.54948,1.10352 2.71485,1.10352 0.52082,0 1.03515,-0.0684 1.54297,-0.20508 0.51431,-0.14323 1.02538,-0.35482 1.5332,-0.63477 l 0,1.66016 c -0.50131,0.23438 -1.02214,0.41016 -1.5625,0.52734 -0.53386,0.11719 -1.10352,0.17578 -1.70898,0.17578 -1.64714,0 -2.95574,-0.51757 -3.92579,-1.55273 -0.97005,-1.03515 -1.45507,-2.43164 -1.45507,-4.18945 0,-1.78385 0.48828,-3.18684 1.46484,-4.20899 0.98307,-1.02212 2.32747,-1.53319 4.0332,-1.5332 0.55338,10e-6 1.09375,0.0586 1.6211,0.17578 0.52733,0.11069 1.0384,0.27996 1.5332,0.50781"
           style="font-size:20px;fill:#808080"
           id="path5478"
           inkscape:connector-curvature="0" />
        <path
           d="m 270.83505,977.64937 c -0.96354,10e-6 -1.72526,0.37761 -2.28515,1.13281 -0.5599,0.74871 -0.83985,1.77735 -0.83985,3.08594 0,1.3086 0.27669,2.3405 0.83008,3.0957 0.55989,0.7487 1.32487,1.12305 2.29492,1.12305 0.95703,0 1.71549,-0.37761 2.27539,-1.13282 0.55989,-0.7552 0.83984,-1.78385 0.83985,-3.08593 -10e-6,-1.29557 -0.27996,-2.32096 -0.83985,-3.07617 -0.5599,-0.76171 -1.31836,-1.14257 -2.27539,-1.14258 m 0,-1.52344 c 1.56249,10e-6 2.78971,0.50782 3.68164,1.52344 0.89192,1.01563 1.33788,2.42188 1.33789,4.21875 -10e-6,1.79037 -0.44597,3.19661 -1.33789,4.21875 -0.89193,1.01562 -2.11915,1.52343 -3.68164,1.52343 -1.56901,0 -2.79948,-0.50781 -3.6914,-1.52343 -0.88542,-1.02214 -1.32813,-2.42838 -1.32813,-4.21875 0,-1.79687 0.44271,-3.20312 1.32813,-4.21875 0.89192,-1.01562 2.12239,-1.52343 3.6914,-1.52344"
           style="font-size:20px;fill:#808080"
           id="path5480"
           inkscape:connector-curvature="0" />
        <path
           d="m 287.91513,980.72554 0,6.60156 -1.79687,0 0,-6.54297 c -1e-5,-1.03515 -0.20184,-1.80988 -0.60547,-2.32422 -0.40366,-0.51431 -1.00913,-0.77147 -1.81641,-0.77148 -0.97006,10e-6 -1.73503,0.30925 -2.29492,0.92773 -0.5599,0.6185 -0.83985,1.4616 -0.83985,2.5293 l 0,6.18164 -1.80664,0 0,-10.9375 1.80664,0 0,1.69922 c 0.42969,-0.65754 0.93425,-1.14908 1.51368,-1.47461 0.58593,-0.32551 1.25976,-0.48827 2.02148,-0.48828 1.2565,10e-6 2.20702,0.39064 2.85156,1.17187 0.64452,0.77475 0.96679,1.91733 0.9668,3.42774"
           style="font-size:20px;fill:#808080"
           id="path5482"
           inkscape:connector-curvature="0" />
        <path
           d="m 298.71591,978.04976 0,-5.91797 1.79688,0 0,15.19531 -1.79688,0 0,-1.64062 c -0.37761,0.65104 -0.85613,1.13606 -1.43555,1.45507 -0.57292,0.3125 -1.26302,0.46875 -2.07031,0.46875 -1.32162,0 -2.39909,-0.52734 -3.23242,-1.58203 -0.82682,-1.05468 -1.24023,-2.4414 -1.24023,-4.16015 0,-1.71875 0.41341,-3.10546 1.24023,-4.16016 0.83333,-1.05468 1.9108,-1.58202 3.23242,-1.58203 0.80729,10e-6 1.49739,0.15952 2.07031,0.47852 0.57942,0.31251 1.05794,0.79428 1.43555,1.44531 m -6.12305,3.81836 c 0,1.32162 0.27018,2.36003 0.81055,3.11523 0.54687,0.7487 1.29557,1.12305 2.2461,1.12305 0.95051,0 1.69921,-0.37435 2.24609,-1.12305 0.54687,-0.7552 0.8203,-1.79361 0.82031,-3.11523 -1e-5,-1.32161 -0.27344,-2.35677 -0.82031,-3.10547 -0.54688,-0.7552 -1.29558,-1.1328 -2.24609,-1.13281 -0.95053,1e-5 -1.69923,0.37761 -2.2461,1.13281 -0.54037,0.7487 -0.81055,1.78386 -0.81055,3.10547"
           style="font-size:20px;fill:#808080"
           id="path5484"
           inkscape:connector-curvature="0" />
        <path
           d="m 304.21396,976.3896 1.79687,0 0,10.9375 -1.79687,0 0,-10.9375 m 0,-4.25781 1.79687,0 0,2.27539 -1.79687,0 0,-2.27539"
           style="font-size:20px;fill:#808080"
           id="path5486"
           inkscape:connector-curvature="0" />
        <path
           d="m 311.53818,973.28413 0,3.10547 3.70117,0 0,1.39649 -3.70117,0 0,5.9375 c -1e-5,0.89193 0.12044,1.46484 0.36133,1.71875 0.24739,0.2539 0.74543,0.38086 1.49414,0.38086 l 1.8457,0 0,1.5039 -1.8457,0 c -1.38673,0 -2.34376,-0.25716 -2.8711,-0.77148 -0.52734,-0.52083 -0.79101,-1.46484 -0.79101,-2.83203 l 0,-5.9375 -1.31836,0 0,-1.39649 1.31836,0 0,-3.10547 1.80664,0"
           style="font-size:20px;fill:#808080"
           id="path5488"
           inkscape:connector-curvature="0" />
        <path
           d="m 317.6124,976.3896 1.79687,0 0,10.9375 -1.79687,0 0,-10.9375 m 0,-4.25781 1.79687,0 0,2.27539 -1.79687,0 0,-2.27539"
           style="font-size:20px;fill:#808080"
           id="path5490"
           inkscape:connector-curvature="0" />
        <path
           d="m 327.39755,977.64937 c -0.96354,10e-6 -1.72526,0.37761 -2.28515,1.13281 -0.5599,0.74871 -0.83985,1.77735 -0.83985,3.08594 0,1.3086 0.27669,2.3405 0.83008,3.0957 0.55989,0.7487 1.32487,1.12305 2.29492,1.12305 0.95703,0 1.71549,-0.37761 2.27539,-1.13282 0.55989,-0.7552 0.83984,-1.78385 0.83985,-3.08593 -10e-6,-1.29557 -0.27996,-2.32096 -0.83985,-3.07617 -0.5599,-0.76171 -1.31836,-1.14257 -2.27539,-1.14258 m 0,-1.52344 c 1.56249,10e-6 2.78971,0.50782 3.68164,1.52344 0.89192,1.01563 1.33788,2.42188 1.33789,4.21875 -10e-6,1.79037 -0.44597,3.19661 -1.33789,4.21875 -0.89193,1.01562 -2.11915,1.52343 -3.68164,1.52343 -1.56901,0 -2.79948,-0.50781 -3.6914,-1.52343 -0.88542,-1.02214 -1.32813,-2.42838 -1.32813,-4.21875 0,-1.79687 0.44271,-3.20312 1.32813,-4.21875 0.89192,-1.01562 2.12239,-1.52343 3.6914,-1.52344"
           style="font-size:20px;fill:#808080"
           id="path5492"
           inkscape:connector-curvature="0" />
        <path
           d="m 344.47763,980.72554 0,6.60156 -1.79687,0 0,-6.54297 c -1e-5,-1.03515 -0.20184,-1.80988 -0.60547,-2.32422 -0.40366,-0.51431 -1.00913,-0.77147 -1.81641,-0.77148 -0.97006,10e-6 -1.73503,0.30925 -2.29492,0.92773 -0.5599,0.6185 -0.83985,1.4616 -0.83985,2.5293 l 0,6.18164 -1.80664,0 0,-10.9375 1.80664,0 0,1.69922 c 0.42969,-0.65754 0.93425,-1.14908 1.51368,-1.47461 0.58593,-0.32551 1.25976,-0.48827 2.02148,-0.48828 1.2565,10e-6 2.20702,0.39064 2.85156,1.17187 0.64452,0.77475 0.96679,1.91733 0.9668,3.42774"
           style="font-size:20px;fill:#808080"
           id="path5494"
           inkscape:connector-curvature="0" />
        <path
           d="m 354.44833,976.3896 1.79688,0 0,10.9375 -1.79688,0 0,-10.9375 m 0,-4.25781 1.79688,0 0,2.27539 -1.79688,0 0,-2.27539"
           style="font-size:20px;fill:#808080"
           id="path5496"
           inkscape:connector-curvature="0" />
        <path
           d="m 366.96786,976.71187 0,1.69922 c -0.50782,-0.26041 -1.03516,-0.45572 -1.58203,-0.58594 -0.54688,-0.1302 -1.11328,-0.1953 -1.69922,-0.19531 -0.89193,1e-5 -1.5625,0.13672 -2.01171,0.41015 -0.44272,0.27345 -0.66407,0.6836 -0.66407,1.23047 0,0.41668 0.15951,0.74545 0.47852,0.98633 0.31901,0.23438 0.96028,0.45899 1.92383,0.67383 l 0.61523,0.13672 c 1.27604,0.27344 2.18098,0.66081 2.71485,1.16211 0.54035,0.49479 0.81053,1.18815 0.81054,2.08007 -1e-5,1.01563 -0.40365,1.81967 -1.21094,2.41211 -0.80078,0.59245 -1.9043,0.88867 -3.31054,0.88867 -0.58594,0 -1.19792,-0.0586 -1.83594,-0.17578 -0.63151,-0.11067 -1.29883,-0.27994 -2.00195,-0.50781 l 0,-1.85547 c 0.66406,0.34506 1.31835,0.60547 1.96289,0.78125 0.64453,0.16927 1.28255,0.25391 1.91406,0.25391 0.84635,0 1.49739,-0.14323 1.95313,-0.42969 0.45572,-0.29297 0.68358,-0.70312 0.68359,-1.23047 -10e-6,-0.48828 -0.16602,-0.86262 -0.49805,-1.12304 -0.32553,-0.26042 -1.04493,-0.51107 -2.1582,-0.75196 l -0.625,-0.14648 c -1.11329,-0.23437 -1.91732,-0.59244 -2.41211,-1.07422 -0.49479,-0.48828 -0.74219,-1.15559 -0.74219,-2.00195 0,-1.02864 0.36458,-1.82291 1.09375,-2.38282 0.72917,-0.55988 1.76432,-0.83983 3.10547,-0.83984 0.66406,10e-6 1.28906,0.0488 1.875,0.14648 0.58593,0.0977 1.12629,0.24416 1.62109,0.43946"
           style="font-size:20px;fill:#808080"
           id="path5498"
           inkscape:connector-curvature="0" />
        <path
           d="m 380.40536,973.28413 0,3.10547 3.60352,0 0,2.5 -3.60352,0 0,4.63867 c 0,0.50782 0.10091,0.85287 0.30274,1.03516 0.20182,0.17578 0.60221,0.26367 1.20117,0.26367 l 1.79688,0 0,2.5 -2.99805,0 c -1.38021,0 -2.36003,-0.28646 -2.93945,-0.85937 -0.57292,-0.57943 -0.85938,-1.55925 -0.85938,-2.93946 l 0,-4.63867 -1.73828,0 0,-2.5 1.73828,0 0,-3.10547 3.49609,0"
           style="font-weight:bold;fill:#808080;-inkscape-font-specification:Sans Bold"
           id="path5500"
           inkscape:connector-curvature="0" />
        <path
           d="m 394.28232,979.36812 c -0.306,-0.14322 -0.61199,-0.24739 -0.91797,-0.3125 -0.29949,-0.0716 -0.60222,-0.10742 -0.9082,-0.10742 -0.89845,0 -1.59181,0.28972 -2.08008,0.86914 -0.48178,0.57292 -0.72266,1.39649 -0.72266,2.4707 l 0,5.03906 -3.49609,0 0,-10.9375 3.49609,0 0,1.79688 c 0.44921,-0.71614 0.96354,-1.23697 1.54297,-1.5625 0.58593,-0.33202 1.2858,-0.49804 2.09961,-0.49805 0.11718,10e-6 0.24413,0.007 0.38086,0.0195 0.13671,0.007 0.33528,0.0261 0.5957,0.0586 l 0.01,3.16407"
           style="font-weight:bold;fill:#808080;-inkscape-font-specification:Sans Bold"
           id="path5502"
           inkscape:connector-curvature="0" />
        <path
           d="m 395.92294,983.06929 0,-6.67969 3.51563,0 0,1.09375 c -1e-5,0.59246 -0.003,1.3379 -0.01,2.23633 -0.007,0.89193 -0.01,1.48764 -0.01,1.78711 -10e-6,0.87891 0.0228,1.51368 0.0684,1.9043 0.0456,0.38411 0.12369,0.66406 0.23437,0.83984 0.14322,0.22787 0.32877,0.40365 0.55664,0.52734 0.23437,0.1237 0.5013,0.18555 0.80078,0.18555 0.72916,0 1.30208,-0.27994 1.71875,-0.83984 0.41666,-0.5599 0.62499,-1.33789 0.625,-2.33399 l 0,-5.40039 3.4961,0 0,10.9375 -3.4961,0 0,-1.58203 c -0.52735,0.63802 -1.08724,1.11003 -1.67968,1.41602 -0.58595,0.29948 -1.23373,0.44921 -1.94336,0.44921 -1.26303,0 -2.22657,-0.38736 -2.89063,-1.1621 -0.65755,-0.77474 -0.98633,-1.90104 -0.98633,-3.37891"
           style="font-weight:bold;fill:#808080;-inkscape-font-specification:Sans Bold"
           id="path5504"
           inkscape:connector-curvature="0" />
        <path
           d="m 421.21591,981.82905 0,0.9961 -8.17383,0 c 0.0846,0.82031 0.38086,1.43555 0.88868,1.8457 0.5078,0.41016 1.21744,0.61524 2.1289,0.61524 0.73567,0 1.48762,-0.10742 2.25586,-0.32227 0.77473,-0.22135 1.569,-0.55338 2.38281,-0.99609 l 0,2.69531 c -0.82683,0.3125 -1.65365,0.54687 -2.48047,0.70312 -0.82683,0.16276 -1.65365,0.24414 -2.48046,0.24414 -1.97918,0 -3.51889,-0.5013 -4.61914,-1.5039 -1.09376,-1.00911 -1.64063,-2.42187 -1.64063,-4.23828 0,-1.78385 0.53711,-3.18684 1.61133,-4.20899 1.08072,-1.02212 2.5651,-1.53319 4.45312,-1.5332 1.71875,10e-6 3.09244,0.51759 4.1211,1.55273 1.03514,1.03517 1.55272,2.41863 1.55273,4.15039 m -3.59375,-1.1621 c -1e-5,-0.66406 -0.19532,-1.19791 -0.58594,-1.60157 -0.38412,-0.41014 -0.88868,-0.61522 -1.51367,-0.61523 -0.67709,10e-6 -1.22722,0.19206 -1.65039,0.57617 -0.42318,0.37761 -0.68685,0.92449 -0.79101,1.64063 l 4.54101,0"
           style="font-weight:bold;fill:#808080;-inkscape-font-specification:Sans Bold"
           id="path5506"
           inkscape:connector-curvature="0" />
        <path
           d="m 105.61044,1035.973 1.36719,0 c 1.82291,0 3.0078,-0.2799 3.55469,-0.8398 0.55988,-0.5599 0.83983,-1.7709 0.83984,-3.6328 l 0,-4.8438 c -10e-6,-2.0312 0.29296,-3.5091 0.87891,-4.4336 0.58592,-0.9244 1.60155,-1.5625 3.04687,-1.914 -1.44532,-0.3255 -2.46095,-0.9505 -3.04687,-1.875 -0.58595,-0.9245 -0.87892,-2.4089 -0.87891,-4.4532 l 0,-4.8437 c -10e-6,-1.8489 -0.27996,-3.0534 -0.83984,-3.6133 -0.54689,-0.5729 -1.73178,-0.8593 -3.55469,-0.8594 l -1.36719,0 0,-2.7929 1.23047,0 c 3.24218,0 5.40364,0.4818 6.48438,1.4453 1.09373,0.9505 1.64061,2.8646 1.64062,5.7422 l 0,4.6875 c -10e-6,1.9401 0.35155,3.2877 1.05469,4.0429 0.70311,0.7422 1.97915,1.1133 3.82812,1.1133 l 1.21094,0 0,2.793 -1.21094,0 c -1.84897,0 -3.12501,0.3776 -3.82812,1.1328 -0.70314,0.7552 -1.0547,2.1159 -1.05469,4.082 l 0,4.668 c -10e-6,2.8776 -0.54689,4.7982 -1.64062,5.7617 -1.08074,0.9635 -3.2422,1.4453 -6.48438,1.4453 l -1.23047,0 0,-2.8125"
           style="font-size:40px"
           id="path5508"
           inkscape:connector-curvature="0" />
      </g>
    </g>
    <flowRoot
       xml:space="preserve"
       id="flowRoot10535"
       style="font-size:16px;font-style:normal;font-weight:normal;line-height:125%;letter-spacing:0px;word-spacing:0px;fill:#000000;fill-opacity:1;stroke:none;font-family:Sans"><flowRegion
         id="flowRegion10537"><rect
           id="rect10539"
           width="177.30673"
           height="17.955112"
           x="64.339149"
           y="90.773064" /></flowRegion><flowPara
         id="flowPara10541" /></flowRoot>  </g>
</svg>
