<?xml version="1.0" encoding="UTF-8" standalone="no"?>
<!-- Created with Inkscape (http://www.inkscape.org/) -->

<svg
   xmlns:dc="http://purl.org/dc/elements/1.1/"
   xmlns:cc="http://creativecommons.org/ns#"
   xmlns:rdf="http://www.w3.org/1999/02/22-rdf-syntax-ns#"
   xmlns:svg="http://www.w3.org/2000/svg"
   xmlns="http://www.w3.org/2000/svg"
   xmlns:xlink="http://www.w3.org/1999/xlink"
   xmlns:sodipodi="http://sodipodi.sourceforge.net/DTD/sodipodi-0.dtd"
   xmlns:inkscape="http://www.inkscape.org/namespaces/inkscape"
   width="500"
   height="270"
   id="svg2"
   version="1.1"
   inkscape:version="0.48.4 r9939"
   sodipodi:docname="if_else.svg"
   inkscape:export-filename="/home/john/Desktop/Link to java_tutorial_armenian/images/syntax_anatomy/if_else.png"
   inkscape:export-xdpi="90"
   inkscape:export-ydpi="90">
  <defs
     id="defs4">
    <linearGradient
       id="linearGradient4141">
      <stop
         style="stop-color:#00ff00;stop-opacity:1;"
         offset="0"
         id="stop4143" />
      <stop
         style="stop-color:#ff0000;stop-opacity:1;"
         offset="1"
         id="stop4145" />
    </linearGradient>
    <marker
       inkscape:stockid="Arrow1Mend"
       orient="auto"
       refY="0"
       refX="0"
       id="Arrow1Mend"
       style="overflow:visible">
      <path
         id="path4263"
         d="M 0,0 5,-5 -12.5,0 5,5 0,0 z"
         style="fill-rule:evenodd;stroke:#000000;stroke-width:1pt"
         transform="matrix(-0.4,0,0,-0.4,-4,0)"
         inkscape:connector-curvature="0" />
    </marker>
    <marker
       inkscape:stockid="Arrow1Lend"
       orient="auto"
       refY="0"
       refX="0"
       id="Arrow1Lend"
       style="overflow:visible">
      <path
         id="path5297"
         d="M 0,0 5,-5 -12.5,0 5,5 0,0 z"
         style="fill-rule:evenodd;stroke:#000000;stroke-width:1pt"
         transform="matrix(-0.8,0,0,-0.8,-10,0)"
         inkscape:connector-curvature="0" />
    </marker>
    <marker
       inkscape:stockid="Arrow1Send"
       orient="auto"
       refY="0"
       refX="0"
       id="Arrow1Send"
       style="overflow:visible">
      <path
         id="path5309"
         d="M 0,0 5,-5 -12.5,0 5,5 0,0 z"
         style="fill-rule:evenodd;stroke:#000000;stroke-width:1pt"
         transform="matrix(-0.2,0,0,-0.2,-1.2,0)"
         inkscape:connector-curvature="0" />
    </marker>
    <linearGradient
       inkscape:collect="always"
       xlink:href="#linearGradient4141"
       id="linearGradient4147"
       x1="200.49387"
       y1="889.16327"
       x2="207.37096"
       y2="903.44653"
       gradientUnits="userSpaceOnUse"
       gradientTransform="matrix(0.84370585,0,0,1.0397338,77.579173,-113.80582)" />
    <linearGradient
       inkscape:collect="always"
       xlink:href="#linearGradient4141-1"
       id="linearGradient4147-4"
       x1="200.49387"
       y1="889.16327"
       x2="207.37096"
       y2="903.44653"
       gradientUnits="userSpaceOnUse" />
    <linearGradient
       id="linearGradient4141-1">
      <stop
         style="stop-color:#00ff00;stop-opacity:1;"
         offset="0"
         id="stop4143-1" />
      <stop
         style="stop-color:#ff0000;stop-opacity:1;"
         offset="1"
         id="stop4145-0" />
    </linearGradient>
    <linearGradient
       inkscape:collect="always"
       xlink:href="#linearGradient4141-2"
       id="linearGradient4147-0"
       x1="200.49387"
       y1="889.16327"
       x2="207.37096"
       y2="903.44653"
       gradientUnits="userSpaceOnUse"
       gradientTransform="matrix(0.84688995,0,0,1.0397338,31.585864,-140.33949)" />
    <linearGradient
       id="linearGradient4141-2">
      <stop
         style="stop-color:#00ff00;stop-opacity:1;"
         offset="0"
         id="stop4143-8" />
      <stop
         style="stop-color:#ff0000;stop-opacity:1;"
         offset="1"
         id="stop4145-1" />
    </linearGradient>
  </defs>
  <sodipodi:namedview
     id="base"
     pagecolor="#ffffff"
     bordercolor="#666666"
     borderopacity="1.0"
     inkscape:pageopacity="0.0"
     inkscape:pageshadow="2"
     inkscape:zoom="0.94516606"
     inkscape:cx="214.89011"
     inkscape:cy="172.32225"
     inkscape:document-units="px"
     inkscape:current-layer="text3341"
     showgrid="false"
     inkscape:window-width="1319"
     inkscape:window-height="744"
     inkscape:window-x="47"
     inkscape:window-y="24"
     inkscape:window-maximized="1" />
  <metadata
     id="metadata7">
    <rdf:RDF>
      <cc:Work
         rdf:about="">
        <dc:format>image/svg+xml</dc:format>
        <dc:type
           rdf:resource="http://purl.org/dc/dcmitype/StillImage" />
        <dc:title></dc:title>
      </cc:Work>
    </rdf:RDF>
  </metadata>
  <g
     inkscape:label="Layer 1"
     inkscape:groupmode="layer"
     id="layer1"
     transform="translate(0,-782.36218)">
    <g
       style="font-size:17.53719902px;font-style:normal;font-weight:normal;line-height:125%;letter-spacing:0px;word-spacing:0px;fill:#000000;fill-opacity:1;stroke:none;font-family:Sans"
       id="text10447">
      <rect
         style="font-size:17.53719902px;font-style:normal;font-weight:normal;line-height:125%;letter-spacing:0px;word-spacing:0px;fill:#ff6600;fill-opacity:1;stroke:none;font-family:Sans"
         id="rect3353-4"
         width="46.155914"
         height="48.402378"
         x="82.501297"
         y="795.88403" />
      <rect
         style="fill:url(#linearGradient4147);fill-opacity:1;stroke:none"
         id="rect3353"
         width="186.56459"
         height="48.402378"
         x="144.52818"
         y="795.83661" />
      <rect
         style="font-size:17.53719902px;font-style:normal;font-weight:normal;line-height:125%;letter-spacing:0px;word-spacing:0px;fill:#ff6600;fill-opacity:1;stroke:none;font-family:Sans"
         id="rect3353-4-3"
         width="83.715446"
         height="48.402378"
         x="116.66253"
         y="895.80878" />
      <g
         style="font-size:47.3360939px;line-height:125%;fill:#000000;font-family:Sans"
         id="text3341">
        <path
           d="m 96.120625,811.92078 3.593755,0 0,21.875 -3.593755,0 0,-21.875 m 0,-8.51563 3.593755,0 0,4.55078 -3.593755,0 0,-4.55078"
           style="font-size:40px"
           id="path4588"
           inkscape:connector-curvature="0" />
        <path
           d="m 118.28859,803.40515 0,2.98828 -3.4375,0 c -1.28907,3e-5 -2.18751,0.26045 -2.69531,0.78125 -0.4948,0.52086 -0.7422,1.45836 -0.74219,2.8125 l 0,1.9336 5.91797,0 0,2.79297 -5.91797,0 0,19.08203 -3.61328,0 0,-19.08203 -3.4375,0 0,-2.79297 3.4375,0 0,-1.52344 c 0,-2.43487 0.5664,-4.2057 1.69922,-5.3125 1.13281,-1.11976 2.92968,-1.67966 5.39063,-1.67969 l 3.39843,0"
           style="font-size:40px"
           id="path4590"
           inkscape:connector-curvature="0" />
        <path
           d="m 142.64406,803.44421 c -1.7448,2.99482 -3.04037,5.95706 -3.88672,8.88672 -0.84636,2.92971 -1.26954,5.89846 -1.26953,8.90625 0,3.00782 0.42317,5.98959 1.26953,8.94532 0.85937,2.9427 2.15494,5.90494 3.88672,8.88671 l -3.125,0 c -1.95313,-3.05989 -3.41797,-6.0677 -4.39453,-9.02343 -0.96355,-2.95573 -1.44532,-5.89192 -1.44531,-8.8086 -10e-6,-2.90363 0.48176,-5.8268 1.44531,-8.76953 0.96354,-2.94268 2.42838,-5.95049 4.39453,-9.02344 l 3.125,0"
           style="font-size:40px"
           id="path4592"
           inkscape:connector-curvature="0" />
        <path
           d="m 165.37844,812.76062 0,3.35938 c -1.01565,-0.55988 -2.03778,-0.97655 -3.06641,-1.25 -1.01564,-0.28644 -2.04428,-0.42967 -3.08594,-0.42969 -2.33074,2e-5 -4.14063,0.7422 -5.42968,2.22656 -1.28907,1.47137 -1.9336,3.54168 -1.9336,6.21094 0,2.66928 0.64453,4.7461 1.9336,6.23047 1.28905,1.47135 3.09894,2.20703 5.42968,2.20703 1.04166,0 2.0703,-0.13672 3.08594,-0.41016 1.02863,-0.28645 2.05076,-0.70963 3.06641,-1.26953 l 0,3.32031 c -1.00263,0.46875 -2.04429,0.82032 -3.125,1.05469 -1.06773,0.23437 -2.20705,0.35156 -3.41797,0.35156 -3.29428,0 -5.91147,-1.03515 -7.85156,-3.10547 -1.94011,-2.0703 -2.91016,-4.86327 -2.91016,-8.3789 0,-3.5677 0.97656,-6.37368 2.92969,-8.41797 1.96614,-2.04425 4.65494,-3.06638 8.0664,-3.06641 1.10676,3e-5 2.18749,0.11721 3.24219,0.35157 1.05467,0.22137 2.07681,0.55991 3.06641,1.01562"
           style="font-size:40px"
           id="path4594"
           inkscape:connector-curvature="0" />
        <path
           d="m 180.14406,814.44031 c -1.92709,2e-5 -3.45053,0.75522 -4.57031,2.26562 -1.1198,1.49741 -1.67969,3.5547 -1.67969,6.17188 0,2.61719 0.55338,4.68099 1.66016,6.1914 1.11978,1.4974 2.64973,2.2461 4.58984,2.2461 1.91405,0 3.43098,-0.75521 4.55078,-2.26563 1.11978,-1.51041 1.67967,-3.5677 1.67969,-6.17187 -2e-5,-2.59113 -0.55991,-4.64191 -1.67969,-6.15235 -1.1198,-1.52342 -2.63673,-2.28513 -4.55078,-2.28515 m 0,-3.04688 c 3.12499,3e-5 5.57941,1.01565 7.36328,3.04688 1.78384,2.03126 2.67576,4.84376 2.67578,8.4375 -2e-5,3.58073 -0.89194,6.39323 -2.67578,8.4375 -1.78387,2.03125 -4.23829,3.04687 -7.36328,3.04687 -3.13803,0 -5.59896,-1.01562 -7.38281,-3.04687 -1.77084,-2.04427 -2.65625,-4.85677 -2.65625,-8.4375 0,-3.59374 0.88541,-6.40624 2.65625,-8.4375 1.78385,-2.03123 4.24478,-3.04685 7.38281,-3.04688"
           style="font-size:40px"
           id="path4596"
           inkscape:connector-curvature="0" />
        <path
           d="m 214.30422,820.59265 0,13.20313 -3.59375,0 0,-13.08594 c -2e-5,-2.0703 -0.40367,-3.61978 -1.21094,-4.64844 -0.80731,-1.02863 -2.01824,-1.54295 -3.63281,-1.54297 -1.94012,2e-5 -3.47006,0.61851 -4.58985,1.85547 -1.11979,1.237 -1.67969,2.92319 -1.67968,5.0586 l 0,12.36328 -3.61328,0 0,-21.875 3.61328,0 0,3.39843 c 0.85936,-1.31508 1.86848,-2.29815 3.02734,-2.94921 1.17186,-0.65102 2.51952,-0.97654 4.04297,-0.97657 2.513,3e-5 4.41404,0.78127 5.70312,2.34375 1.28905,1.5495 1.93358,3.83465 1.9336,6.85547"
           style="font-size:40px"
           id="path4598"
           inkscape:connector-curvature="0" />
        <path
           d="m 235.90578,815.24109 0,-11.83594 3.59375,0 0,30.39063 -3.59375,0 0,-3.28125 c -0.75522,1.30208 -1.71226,2.27213 -2.87109,2.91015 -1.14585,0.625 -2.52606,0.9375 -4.14063,0.9375 -2.64324,0 -4.79818,-1.05468 -6.46484,-3.16406 -1.65365,-2.10937 -2.48047,-4.8828 -2.48047,-8.32031 0,-3.43749 0.82682,-6.21092 2.48047,-8.32031 1.66666,-2.10936 3.8216,-3.16404 6.46484,-3.16407 1.61457,3e-5 2.99478,0.31904 4.14063,0.95703 1.15883,0.62502 2.11587,1.58857 2.87109,2.89063 m -12.24609,7.63672 c -1e-5,2.64324 0.54036,4.72006 1.62109,6.23047 1.09374,1.4974 2.59114,2.24609 4.49219,2.24609 1.90103,0 3.39842,-0.74869 4.49219,-2.24609 1.09373,-1.51041 1.6406,-3.58723 1.64062,-6.23047 -2e-5,-2.64322 -0.54689,-4.71353 -1.64062,-6.21094 -1.09377,-1.5104 -2.59116,-2.26561 -4.49219,-2.26562 -1.90105,10e-6 -3.39845,0.75522 -4.49219,2.26562 -1.08073,1.49741 -1.6211,3.56772 -1.62109,6.21094"
           style="font-size:40px"
           id="path4600"
           inkscape:connector-curvature="0" />
        <path
           d="m 246.90187,811.92078 3.59375,0 0,21.875 -3.59375,0 0,-21.875 m 0,-8.51563 3.59375,0 0,4.55078 -3.59375,0 0,-4.55078"
           style="font-size:40px"
           id="path4602"
           inkscape:connector-curvature="0" />
        <path
           d="m 261.55031,805.70984 0,6.21094 7.40235,0 0,2.79297 -7.40235,0 0,11.875 c -1e-5,1.78385 0.24088,2.92969 0.72266,3.4375 0.49478,0.50781 1.49087,0.76172 2.98828,0.76171 l 3.69141,0 0,3.00782 -3.69141,0 c -2.77345,0 -4.68751,-0.51433 -5.74219,-1.54297 -1.05469,-1.04167 -1.58203,-2.92969 -1.58203,-5.66406 l 0,-11.875 -2.63672,0 0,-2.79297 2.63672,0 0,-6.21094 3.61328,0"
           style="font-size:40px"
           id="path4604"
           inkscape:connector-curvature="0" />
        <path
           d="m 273.69875,811.92078 3.59375,0 0,21.875 -3.59375,0 0,-21.875 m 0,-8.51563 3.59375,0 0,4.55078 -3.59375,0 0,-4.55078"
           style="font-size:40px"
           id="path4606"
           inkscape:connector-curvature="0" />
        <path
           d="m 293.26906,814.44031 c -1.92709,2e-5 -3.45053,0.75522 -4.57031,2.26562 -1.1198,1.49741 -1.67969,3.5547 -1.67969,6.17188 0,2.61719 0.55338,4.68099 1.66016,6.1914 1.11978,1.4974 2.64973,2.2461 4.58984,2.2461 1.91405,0 3.43098,-0.75521 4.55078,-2.26563 1.11978,-1.51041 1.67967,-3.5677 1.67969,-6.17187 -2e-5,-2.59113 -0.55991,-4.64191 -1.67969,-6.15235 -1.1198,-1.52342 -2.63673,-2.28513 -4.55078,-2.28515 m 0,-3.04688 c 3.12499,3e-5 5.57941,1.01565 7.36328,3.04688 1.78384,2.03126 2.67576,4.84376 2.67578,8.4375 -2e-5,3.58073 -0.89194,6.39323 -2.67578,8.4375 -1.78387,2.03125 -4.23829,3.04687 -7.36328,3.04687 -3.13803,0 -5.59896,-1.01562 -7.38281,-3.04687 -1.77084,-2.04427 -2.65625,-4.85677 -2.65625,-8.4375 0,-3.59374 0.88541,-6.40624 2.65625,-8.4375 1.78385,-2.03123 4.24478,-3.04685 7.38281,-3.04688"
           style="font-size:40px"
           id="path4608"
           inkscape:connector-curvature="0" />
        <path
           d="m 327.42922,820.59265 0,13.20313 -3.59375,0 0,-13.08594 c -2e-5,-2.0703 -0.40367,-3.61978 -1.21094,-4.64844 -0.80731,-1.02863 -2.01824,-1.54295 -3.63281,-1.54297 -1.94012,2e-5 -3.47006,0.61851 -4.58985,1.85547 -1.11979,1.237 -1.67969,2.92319 -1.67968,5.0586 l 0,12.36328 -3.61328,0 0,-21.875 3.61328,0 0,3.39843 c 0.85936,-1.31508 1.86848,-2.29815 3.02734,-2.94921 1.17186,-0.65102 2.51952,-0.97654 4.04297,-0.97657 2.513,3e-5 4.41404,0.78127 5.70312,2.34375 1.28905,1.5495 1.93358,3.83465 1.9336,6.85547"
           style="font-size:40px"
           id="path4610"
           inkscape:connector-curvature="0" />
        <path
           d="m 334.06984,803.44421 3.125,0 c 1.95312,3.07295 3.41145,6.08076 4.375,9.02344 0.97655,2.94273 1.46483,5.8659 1.46485,8.76953 -2e-5,2.91668 -0.4883,5.85287 -1.46485,8.8086 -0.96355,2.95573 -2.42188,5.96354 -4.375,9.02343 l -3.125,0 c 1.73177,-2.98177 3.02083,-5.94401 3.86719,-8.88671 0.85937,-2.95573 1.28905,-5.9375 1.28906,-8.94532 -10e-6,-3.00779 -0.42969,-5.97654 -1.28906,-8.90625 -0.84636,-2.92966 -2.13542,-5.8919 -3.86719,-8.88672"
           style="font-size:40px"
           id="path4612"
           inkscape:connector-curvature="0" />
        <path
           d="m 366.94094,837.50671 0,2.8125 -1.21094,0 c -3.2422,0 -5.41668,-0.48177 -6.52344,-1.44531 -1.09376,-0.96354 -1.64063,-2.88412 -1.64062,-5.76172 l 0,-4.66797 c -1e-5,-1.96613 -0.35158,-3.32681 -1.05469,-4.08203 -0.70313,-0.7552 -1.97918,-1.1328 -3.82813,-1.13281 l -1.1914,0 0,-2.79297 1.1914,0 c 1.86198,10e-6 3.13802,-0.37108 3.82813,-1.11328 0.70311,-0.75519 1.05468,-2.10285 1.05469,-4.04297 l 0,-4.6875 c -1e-5,-2.87758 0.54686,-4.79164 1.64062,-5.74219 1.10676,-0.96351 3.28124,-1.44528 6.52344,-1.44531 l 1.21094,0 0,2.79297 -1.32813,0 c -1.83595,3e-5 -3.03387,0.28649 -3.59375,0.85938 -0.55991,0.57294 -0.83986,1.77736 -0.83984,3.61328 l 0,4.84375 c -2e-5,2.04428 -0.2995,3.52866 -0.89844,4.45312 -0.58595,0.92449 -1.59506,1.54949 -3.02734,1.875 1.4453,0.35158 2.46092,0.9896 3.04687,1.91406 0.58593,0.92449 0.87889,2.40236 0.87891,4.4336 l 0,4.84375 c -2e-5,1.83593 0.27993,3.04036 0.83984,3.61328 0.55988,0.57291 1.7578,0.85937 3.59375,0.85937 l 1.32813,0"
           style="font-size:40px"
           id="path4614"
           inkscape:connector-curvature="0" />
        <path
           d="m 129.26516,861.78072 1.66015,0 -5.07812,16.43554 -1.66016,0 5.07813,-16.43554"
           style="font-size:20px;fill:#808080"
           id="path4616"
           inkscape:connector-curvature="0" />
        <path
           d="m 136.02297,861.78072 1.66016,0 -5.07813,16.43554 -1.66016,0 5.07813,-16.43554"
           style="font-size:20px;fill:#808080"
           id="path4618"
           inkscape:connector-curvature="0" />
        <path
           d="m 153.15187,867.08345 0,-5.91797 1.79688,0 0,15.19531 -1.79688,0 0,-1.64062 c -0.37761,0.65104 -0.85612,1.13607 -1.43554,1.45508 -0.57293,0.3125 -1.26303,0.46875 -2.07031,0.46875 -1.32162,0 -2.3991,-0.52735 -3.23243,-1.58203 -0.82682,-1.05469 -1.24023,-2.44141 -1.24023,-4.16016 0,-1.71874 0.41341,-3.10546 1.24023,-4.16016 0.83333,-1.05467 1.91081,-1.58202 3.23243,-1.58203 0.80728,10e-6 1.49738,0.15952 2.07031,0.47852 0.57942,0.31251 1.05793,0.79428 1.43554,1.44531 m -6.12304,3.81836 c -1e-5,1.32162 0.27018,2.36003 0.81054,3.11523 0.54688,0.7487 1.29557,1.12305 2.2461,1.12305 0.95051,0 1.69921,-0.37435 2.24609,-1.12305 0.54687,-0.7552 0.82031,-1.79361 0.82031,-3.11523 0,-1.32161 -0.27344,-2.35676 -0.82031,-3.10547 -0.54688,-0.7552 -1.29558,-1.1328 -2.24609,-1.13281 -0.95053,10e-6 -1.69922,0.37761 -2.2461,1.13281 -0.54036,0.74871 -0.81055,1.78386 -0.81054,3.10547"
           style="font-size:20px;fill:#808080"
           id="path4620"
           inkscape:connector-curvature="0" />
        <path
           d="m 162.8882,866.68306 c -0.96354,1e-5 -1.72526,0.37761 -2.28515,1.13281 -0.5599,0.74871 -0.83985,1.77735 -0.83985,3.08594 0,1.3086 0.27669,2.3405 0.83008,3.0957 0.55989,0.7487 1.32487,1.12305 2.29492,1.12305 0.95703,0 1.71549,-0.3776 2.27539,-1.13281 0.55989,-0.75521 0.83984,-1.78385 0.83985,-3.08594 -1e-5,-1.29557 -0.27996,-2.32096 -0.83985,-3.07617 -0.5599,-0.76171 -1.31836,-1.14257 -2.27539,-1.14258 m 0,-1.52344 c 1.56249,10e-6 2.78971,0.50782 3.68164,1.52344 0.89192,1.01563 1.33788,2.42188 1.33789,4.21875 -10e-6,1.79037 -0.44597,3.19662 -1.33789,4.21875 -0.89193,1.01562 -2.11915,1.52344 -3.68164,1.52344 -1.56901,0 -2.79948,-0.50782 -3.6914,-1.52344 -0.88542,-1.02213 -1.32813,-2.42838 -1.32813,-4.21875 0,-1.79687 0.44271,-3.20312 1.32813,-4.21875 0.89192,-1.01562 2.12239,-1.52343 3.6914,-1.52344"
           style="font-size:20px;fill:#808080"
           id="path4622"
           inkscape:connector-curvature="0" />
        <path
           d="m 184.21633,865.74556 0,1.69922 c -0.50782,-0.26041 -1.03517,-0.45572 -1.58203,-0.58594 -0.54689,-0.1302 -1.11329,-0.1953 -1.69922,-0.19531 -0.89193,10e-6 -1.56251,0.13673 -2.01172,0.41015 -0.44271,0.27345 -0.66407,0.68361 -0.66406,1.23047 -1e-5,0.41668 0.1595,0.74545 0.47851,0.98633 0.31901,0.23438 0.96028,0.45899 1.92383,0.67383 l 0.61523,0.13672 c 1.27604,0.27344 2.18099,0.66081 2.71485,1.16211 0.54035,0.49479 0.81054,1.18815 0.81055,2.08008 -1e-5,1.01562 -0.40366,1.81966 -1.21094,2.4121 -0.80079,0.59245 -1.90431,0.88868 -3.31055,0.88868 -0.58594,0 -1.19792,-0.0586 -1.83594,-0.17578 -0.63151,-0.11068 -1.29883,-0.27995 -2.00195,-0.50782 l 0,-1.85547 c 0.66406,0.34506 1.31836,0.60547 1.96289,0.78125 0.64453,0.16928 1.28255,0.25391 1.91406,0.25391 0.84635,0 1.49739,-0.14323 1.95313,-0.42969 0.45572,-0.29296 0.68358,-0.70312 0.68359,-1.23047 -1e-5,-0.48827 -0.16602,-0.86262 -0.49804,-1.12304 -0.32553,-0.26042 -1.04493,-0.51107 -2.15821,-0.75196 l -0.625,-0.14648 c -1.11328,-0.23437 -1.91732,-0.59244 -2.41211,-1.07422 -0.49479,-0.48827 -0.74219,-1.15559 -0.74218,-2.00195 -1e-5,-1.02864 0.36458,-1.82291 1.09375,-2.38281 0.72916,-0.55989 1.76431,-0.83984 3.10546,-0.83985 0.66406,10e-6 1.28906,0.0488 1.875,0.14649 0.58593,0.0977 1.1263,0.24415 1.6211,0.43945"
           style="font-size:20px;fill:#808080"
           id="path4624"
           inkscape:connector-curvature="0" />
        <path
           d="m 189.4507,862.31782 0,3.10547 3.70117,0 0,1.39649 -3.70117,0 0,5.9375 c 0,0.89193 0.12044,1.46484 0.36133,1.71875 0.24739,0.25391 0.74544,0.38086 1.49414,0.38086 l 1.8457,0 0,1.5039 -1.8457,0 c -1.38672,0 -2.34375,-0.25716 -2.87109,-0.77148 -0.52735,-0.52083 -0.79102,-1.46484 -0.79102,-2.83203 l 0,-5.9375 -1.31836,0 0,-1.39649 1.31836,0 0,-3.10547 1.80664,0"
           style="font-size:20px;fill:#808080"
           id="path4626"
           inkscape:connector-curvature="0" />
        <path
           d="m 195.33937,872.04439 0,-6.6211 1.79688,0 0,6.55274 c 0,1.03516 0.20182,1.81315 0.60547,2.33398 0.40364,0.51433 1.00911,0.77149 1.8164,0.77149 0.97005,0 1.73502,-0.30925 2.29493,-0.92774 0.56639,-0.61848 0.8496,-1.46158 0.84961,-2.52929 l 0,-6.20118 1.79687,0 0,10.9375 -1.79687,0 0,-1.67968 c -0.43621,0.66406 -0.94402,1.15885 -1.52344,1.48437 -0.57293,0.31901 -1.24024,0.47852 -2.00195,0.47852 -1.25652,0 -2.21029,-0.39063 -2.86133,-1.17188 -0.65105,-0.78125 -0.97657,-1.92382 -0.97657,-3.42773 m 4.52149,-6.88477 0,0"
           style="font-size:20px;fill:#808080"
           id="path4628"
           inkscape:connector-curvature="0" />
        <path
           d="m 220.49562,861.16548 0,1.49414 -1.71875,0 c -0.64454,10e-6 -1.09376,0.13022 -1.34765,0.39063 -0.24741,0.26043 -0.37111,0.72918 -0.3711,1.40625 l 0,0.96679 2.95899,0 0,1.39649 -2.95899,0 0,9.54101 -1.80664,0 0,-9.54101 -4.93164,0 0,9.54101 -1.80664,0 0,-9.54101 -1.71875,0 0,-1.39649 1.71875,0 0,-0.76172 c 0,-1.21743 0.2832,-2.10285 0.84961,-2.65625 0.5664,-0.55988 1.46484,-0.83982 2.69531,-0.83984 l 1.69922,0 0,1.49414 -1.71875,0 c -0.64453,10e-6 -1.09375,0.13022 -1.34765,0.39063 -0.2474,0.26043 -0.3711,0.72918 -0.3711,1.40625 l 0,0.96679 4.93164,0 0,-0.76172 c 0,-1.21743 0.2832,-2.10285 0.84961,-2.65625 0.5664,-0.55988 1.46484,-0.83982 2.69532,-0.83984 l 1.69921,0"
           style="font-size:20px;fill:#808080"
           id="path4630"
           inkscape:connector-curvature="0" />
        <path
           d="m 228.37648,865.42329 1.79688,0 0,10.9375 -1.79688,0 0,-10.9375 m 0,-4.25781 1.79688,0 0,2.27539 -1.79688,0 0,-2.27539"
           style="font-size:20px;fill:#808080"
           id="path4632"
           inkscape:connector-curvature="0" />
        <path
           d="m 239.46047,861.16548 0,1.49414 -1.71875,0 c -0.64454,10e-6 -1.09376,0.13022 -1.34766,0.39063 -0.2474,0.26043 -0.3711,0.72918 -0.37109,1.40625 l 0,0.96679 2.95898,0 0,1.39649 -2.95898,0 0,9.54101 -1.80664,0 0,-9.54101 -1.71875,0 0,-1.39649 1.71875,0 0,-0.76172 c 0,-1.21743 0.2832,-2.10285 0.84961,-2.65625 0.5664,-0.55988 1.46484,-0.83982 2.69531,-0.83984 l 1.69922,0"
           style="font-size:20px;fill:#808080"
           id="path4634"
           inkscape:connector-curvature="0" />
        <path
           d="m 255.19289,865.84322 0,1.67968 c -0.50782,-0.27994 -1.01889,-0.48827 -1.5332,-0.625 -0.50782,-0.14322 -1.02215,-0.21483 -1.54297,-0.21484 -1.16537,1e-5 -2.07032,0.3711 -2.71485,1.11328 -0.64453,0.73568 -0.9668,1.77084 -0.96679,3.10547 -1e-5,1.33464 0.32226,2.37305 0.96679,3.11523 0.64453,0.73568 1.54948,1.10352 2.71485,1.10352 0.52082,0 1.03515,-0.0684 1.54297,-0.20508 0.51431,-0.14323 1.02538,-0.35482 1.5332,-0.63476 l 0,1.66015 c -0.50131,0.23438 -1.02214,0.41016 -1.5625,0.52735 -0.53386,0.11718 -1.10352,0.17578 -1.70898,0.17578 -1.64714,0 -2.95574,-0.51758 -3.92579,-1.55274 -0.97005,-1.03515 -1.45507,-2.43164 -1.45507,-4.18945 0,-1.78385 0.48828,-3.18684 1.46484,-4.20899 0.98307,-1.02212 2.32747,-1.53319 4.0332,-1.5332 0.55338,10e-6 1.09375,0.0586 1.6211,0.17578 0.52733,0.11069 1.0384,0.27996 1.5332,0.50782"
           style="font-size:20px;fill:#808080"
           id="path4636"
           inkscape:connector-curvature="0" />
        <path
           d="m 262.5757,866.68306 c -0.96354,1e-5 -1.72526,0.37761 -2.28515,1.13281 -0.5599,0.74871 -0.83985,1.77735 -0.83985,3.08594 0,1.3086 0.27669,2.3405 0.83008,3.0957 0.55989,0.7487 1.32487,1.12305 2.29492,1.12305 0.95703,0 1.71549,-0.3776 2.27539,-1.13281 0.55989,-0.75521 0.83984,-1.78385 0.83985,-3.08594 -1e-5,-1.29557 -0.27996,-2.32096 -0.83985,-3.07617 -0.5599,-0.76171 -1.31836,-1.14257 -2.27539,-1.14258 m 0,-1.52344 c 1.56249,10e-6 2.78971,0.50782 3.68164,1.52344 0.89192,1.01563 1.33788,2.42188 1.33789,4.21875 -1e-5,1.79037 -0.44597,3.19662 -1.33789,4.21875 -0.89193,1.01562 -2.11915,1.52344 -3.68164,1.52344 -1.56901,0 -2.79948,-0.50782 -3.6914,-1.52344 -0.88542,-1.02213 -1.32813,-2.42838 -1.32813,-4.21875 0,-1.79687 0.44271,-3.20312 1.32813,-4.21875 0.89192,-1.01562 2.12239,-1.52343 3.6914,-1.52344"
           style="font-size:20px;fill:#808080"
           id="path4638"
           inkscape:connector-curvature="0" />
        <path
           d="m 279.65578,869.75923 0,6.60156 -1.79687,0 0,-6.54297 c -10e-6,-1.03514 -0.20184,-1.80988 -0.60547,-2.32421 -0.40366,-0.51432 -1.00913,-0.77148 -1.81641,-0.77149 -0.97006,10e-6 -1.73503,0.30926 -2.29492,0.92774 -0.5599,0.61849 -0.83985,1.46159 -0.83984,2.52929 l 0,6.18164 -1.80665,0 0,-10.9375 1.80665,0 0,1.69922 c 0.42968,-0.65754 0.93424,-1.14908 1.51367,-1.47461 0.58593,-0.32551 1.25976,-0.48827 2.02148,-0.48828 1.2565,10e-6 2.20702,0.39064 2.85156,1.17188 0.64452,0.77475 0.96679,1.91732 0.9668,3.42773"
           style="font-size:20px;fill:#808080"
           id="path4640"
           inkscape:connector-curvature="0" />
        <path
           d="m 290.45656,867.08345 0,-5.91797 1.79688,0 0,15.19531 -1.79688,0 0,-1.64062 c -0.37761,0.65104 -0.85613,1.13607 -1.43554,1.45508 -0.57293,0.3125 -1.26303,0.46875 -2.07032,0.46875 -1.32162,0 -2.39909,-0.52735 -3.23242,-1.58203 -0.82682,-1.05469 -1.24023,-2.44141 -1.24023,-4.16016 0,-1.71874 0.41341,-3.10546 1.24023,-4.16016 0.83333,-1.05467 1.9108,-1.58202 3.23242,-1.58203 0.80729,10e-6 1.49739,0.15952 2.07032,0.47852 0.57941,0.31251 1.05793,0.79428 1.43554,1.44531 m -6.12304,3.81836 c -1e-5,1.32162 0.27017,2.36003 0.81054,3.11523 0.54687,0.7487 1.29557,1.12305 2.2461,1.12305 0.95051,0 1.69921,-0.37435 2.24609,-1.12305 0.54687,-0.7552 0.8203,-1.79361 0.82031,-3.11523 -1e-5,-1.32161 -0.27344,-2.35676 -0.82031,-3.10547 -0.54688,-0.7552 -1.29558,-1.1328 -2.24609,-1.13281 -0.95053,10e-6 -1.69923,0.37761 -2.2461,1.13281 -0.54037,0.74871 -0.81055,1.78386 -0.81054,3.10547"
           style="font-size:20px;fill:#808080"
           id="path4642"
           inkscape:connector-curvature="0" />
        <path
           d="m 295.95461,865.42329 1.79687,0 0,10.9375 -1.79687,0 0,-10.9375 m 0,-4.25781 1.79687,0 0,2.27539 -1.79687,0 0,-2.27539"
           style="font-size:20px;fill:#808080"
           id="path4644"
           inkscape:connector-curvature="0" />
        <path
           d="m 303.27883,862.31782 0,3.10547 3.70117,0 0,1.39649 -3.70117,0 0,5.9375 c -1e-5,0.89193 0.12044,1.46484 0.36133,1.71875 0.24739,0.25391 0.74543,0.38086 1.49414,0.38086 l 1.8457,0 0,1.5039 -1.8457,0 c -1.38673,0 -2.34376,-0.25716 -2.8711,-0.77148 -0.52734,-0.52083 -0.79101,-1.46484 -0.79101,-2.83203 l 0,-5.9375 -1.31836,0 0,-1.39649 1.31836,0 0,-3.10547 1.80664,0"
           style="font-size:20px;fill:#808080"
           id="path4646"
           inkscape:connector-curvature="0" />
        <path
           d="m 309.35305,865.42329 1.79687,0 0,10.9375 -1.79687,0 0,-10.9375 m 0,-4.25781 1.79687,0 0,2.27539 -1.79687,0 0,-2.27539"
           style="font-size:20px;fill:#808080"
           id="path4648"
           inkscape:connector-curvature="0" />
        <path
           d="m 319.1382,866.68306 c -0.96354,1e-5 -1.72526,0.37761 -2.28515,1.13281 -0.5599,0.74871 -0.83985,1.77735 -0.83985,3.08594 0,1.3086 0.27669,2.3405 0.83008,3.0957 0.55989,0.7487 1.32487,1.12305 2.29492,1.12305 0.95703,0 1.71549,-0.3776 2.27539,-1.13281 0.55989,-0.75521 0.83984,-1.78385 0.83985,-3.08594 -1e-5,-1.29557 -0.27996,-2.32096 -0.83985,-3.07617 -0.5599,-0.76171 -1.31836,-1.14257 -2.27539,-1.14258 m 0,-1.52344 c 1.56249,10e-6 2.78971,0.50782 3.68164,1.52344 0.89192,1.01563 1.33788,2.42188 1.33789,4.21875 -1e-5,1.79037 -0.44597,3.19662 -1.33789,4.21875 -0.89193,1.01562 -2.11915,1.52344 -3.68164,1.52344 -1.56901,0 -2.79948,-0.50782 -3.6914,-1.52344 -0.88542,-1.02213 -1.32813,-2.42838 -1.32813,-4.21875 0,-1.79687 0.44271,-3.20312 1.32813,-4.21875 0.89192,-1.01562 2.12239,-1.52343 3.6914,-1.52344"
           style="font-size:20px;fill:#808080"
           id="path4650"
           inkscape:connector-curvature="0" />
        <path
           d="m 336.21828,869.75923 0,6.60156 -1.79687,0 0,-6.54297 c -10e-6,-1.03514 -0.20184,-1.80988 -0.60547,-2.32421 -0.40366,-0.51432 -1.00913,-0.77148 -1.81641,-0.77149 -0.97006,10e-6 -1.73503,0.30926 -2.29492,0.92774 -0.5599,0.61849 -0.83985,1.46159 -0.83984,2.52929 l 0,6.18164 -1.80665,0 0,-10.9375 1.80665,0 0,1.69922 c 0.42968,-0.65754 0.93424,-1.14908 1.51367,-1.47461 0.58593,-0.32551 1.25976,-0.48827 2.02148,-0.48828 1.2565,10e-6 2.20702,0.39064 2.85156,1.17188 0.64452,0.77475 0.96679,1.91732 0.9668,3.42773"
           style="font-size:20px;fill:#808080"
           id="path4652"
           inkscape:connector-curvature="0" />
        <path
           d="m 346.18898,865.42329 1.79688,0 0,10.9375 -1.79688,0 0,-10.9375 m 0,-4.25781 1.79688,0 0,2.27539 -1.79688,0 0,-2.27539"
           style="font-size:20px;fill:#808080"
           id="path4654"
           inkscape:connector-curvature="0" />
        <path
           d="m 358.70852,865.74556 0,1.69922 c -0.50783,-0.26041 -1.03517,-0.45572 -1.58204,-0.58594 -0.54688,-0.1302 -1.11328,-0.1953 -1.69921,-0.19531 -0.89194,10e-6 -1.56251,0.13673 -2.01172,0.41015 -0.44272,0.27345 -0.66407,0.68361 -0.66407,1.23047 0,0.41668 0.15951,0.74545 0.47852,0.98633 0.31901,0.23438 0.96028,0.45899 1.92383,0.67383 l 0.61523,0.13672 c 1.27604,0.27344 2.18098,0.66081 2.71485,1.16211 0.54035,0.49479 0.81053,1.18815 0.81054,2.08008 -10e-6,1.01562 -0.40365,1.81966 -1.21093,2.4121 -0.80079,0.59245 -1.90431,0.88868 -3.31055,0.88868 -0.58594,0 -1.19792,-0.0586 -1.83594,-0.17578 -0.63151,-0.11068 -1.29883,-0.27995 -2.00195,-0.50782 l 0,-1.85547 c 0.66406,0.34506 1.31835,0.60547 1.96289,0.78125 0.64453,0.16928 1.28255,0.25391 1.91406,0.25391 0.84635,0 1.49739,-0.14323 1.95313,-0.42969 0.45572,-0.29296 0.68358,-0.70312 0.68359,-1.23047 -1e-5,-0.48827 -0.16602,-0.86262 -0.49805,-1.12304 -0.32552,-0.26042 -1.04493,-0.51107 -2.1582,-0.75196 l -0.625,-0.14648 c -1.11328,-0.23437 -1.91732,-0.59244 -2.41211,-1.07422 -0.49479,-0.48827 -0.74219,-1.15559 -0.74219,-2.00195 0,-1.02864 0.36458,-1.82291 1.09375,-2.38281 0.72917,-0.55989 1.76432,-0.83984 3.10547,-0.83985 0.66406,10e-6 1.28906,0.0488 1.875,0.14649 0.58593,0.0977 1.1263,0.24415 1.6211,0.43945"
           style="font-size:20px;fill:#808080"
           id="path4656"
           inkscape:connector-curvature="0" />
        <path
           d="m 372.14602,862.31782 0,3.10547 3.60351,0 0,2.5 -3.60351,0 0,4.63868 c -1e-5,0.50781 0.1009,0.85286 0.30273,1.03515 0.20182,0.17579 0.60221,0.26368 1.20117,0.26367 l 1.79688,0 0,2.5 -2.99805,0 c -1.38021,0 -2.36003,-0.28645 -2.93945,-0.85937 -0.57292,-0.57943 -0.85938,-1.55924 -0.85938,-2.93945 l 0,-4.63868 -1.73828,0 0,-2.5 1.73828,0 0,-3.10547 3.4961,0"
           style="font-weight:bold;fill:#808080;-inkscape-font-specification:Sans Bold"
           id="path4658"
           inkscape:connector-curvature="0" />
        <path
           d="m 386.02297,868.40181 c -0.306,-0.14322 -0.61199,-0.24739 -0.91797,-0.3125 -0.29949,-0.0716 -0.60222,-0.10741 -0.9082,-0.10742 -0.89845,10e-6 -1.59181,0.28972 -2.08008,0.86914 -0.48178,0.57292 -0.72266,1.39649 -0.72266,2.4707 l 0,5.03906 -3.49609,0 0,-10.9375 3.49609,0 0,1.79688 c 0.44922,-0.71614 0.96354,-1.23697 1.54297,-1.5625 0.58593,-0.33202 1.2858,-0.49804 2.09961,-0.49805 0.11718,10e-6 0.24413,0.007 0.38086,0.0195 0.13671,0.007 0.33528,0.0261 0.5957,0.0586 l 0.01,3.16406"
           style="font-weight:bold;fill:#808080;-inkscape-font-specification:Sans Bold"
           id="path4660"
           inkscape:connector-curvature="0" />
        <path
           d="m 387.66359,872.10298 0,-6.67969 3.51563,0 0,1.09375 c -10e-6,0.59246 -0.003,1.3379 -0.01,2.23633 -0.007,0.89194 -0.01,1.48764 -0.01,1.78711 -1e-5,0.87891 0.0228,1.51368 0.0684,1.9043 0.0456,0.38412 0.12369,0.66406 0.23437,0.83984 0.14323,0.22787 0.32877,0.40365 0.55664,0.52735 0.23437,0.1237 0.5013,0.18554 0.80078,0.18554 0.72916,0 1.30208,-0.27994 1.71875,-0.83984 0.41666,-0.55989 0.62499,-1.33789 0.625,-2.33399 l 0,-5.40039 3.4961,0 0,10.9375 -3.4961,0 0,-1.58203 c -0.52735,0.63802 -1.08724,1.11003 -1.67968,1.41602 -0.58595,0.29948 -1.23373,0.44922 -1.94336,0.44922 -1.26303,0 -2.22657,-0.38737 -2.89063,-1.16211 -0.65755,-0.77474 -0.98633,-1.90104 -0.98633,-3.37891"
           style="font-weight:bold;fill:#808080;-inkscape-font-specification:Sans Bold"
           id="path4662"
           inkscape:connector-curvature="0" />
        <path
           d="m 412.95656,870.86275 0,0.99609 -8.17383,0 c 0.0846,0.82032 0.38086,1.43555 0.88868,1.8457 0.5078,0.41016 1.21744,0.61524 2.1289,0.61524 0.73567,0 1.48762,-0.10742 2.25586,-0.32227 0.77473,-0.22135 1.569,-0.55338 2.38281,-0.99609 l 0,2.69531 c -0.82683,0.3125 -1.65365,0.54688 -2.48046,0.70313 -0.82684,0.16276 -1.65366,0.24414 -2.48047,0.24414 -1.97918,0 -3.51889,-0.50131 -4.61914,-1.50391 -1.09376,-1.00911 -1.64063,-2.42187 -1.64063,-4.23828 0,-1.78385 0.53711,-3.18684 1.61133,-4.20899 1.08072,-1.02212 2.5651,-1.53319 4.45312,-1.5332 1.71875,10e-6 3.09244,0.51759 4.1211,1.55274 1.03514,1.03516 1.55272,2.41862 1.55273,4.15039 m -3.59375,-1.16211 c -1e-5,-0.66406 -0.19532,-1.19791 -0.58594,-1.60157 -0.38412,-0.41014 -0.88867,-0.61522 -1.51367,-0.61523 -0.67709,10e-6 -1.22722,0.19207 -1.65039,0.57617 -0.42318,0.37761 -0.68685,0.92449 -0.79101,1.64063 l 4.54101,0"
           style="font-weight:bold;fill:#808080;-inkscape-font-specification:Sans Bold"
           id="path4664"
           inkscape:connector-curvature="0" />
        <path
           d="m 97.351093,937.50671 1.367187,0 c 1.82291,0 3.0078,-0.27995 3.55469,-0.83984 0.55988,-0.5599 0.83983,-1.77083 0.83984,-3.63281 l 0,-4.84375 c -1e-5,-2.03124 0.29296,-3.50911 0.87891,-4.4336 0.58592,-0.92446 1.60155,-1.56248 3.04687,-1.91406 -1.44532,-0.32551 -2.46095,-0.95051 -3.04687,-1.875 -0.58595,-0.92446 -0.87892,-2.40884 -0.87891,-4.45312 l 0,-4.84375 c -1e-5,-1.84894 -0.27996,-3.05336 -0.83984,-3.61328 -0.54689,-0.57289 -1.73178,-0.85935 -3.55469,-0.85938 l -1.367187,0 0,-2.79297 1.230467,0 c 3.24218,3e-5 5.40364,0.4818 6.48438,1.44531 1.09373,0.95055 1.64061,2.86461 1.64062,5.74219 l 0,4.6875 c -1e-5,1.94012 0.35155,3.28778 1.05469,4.04297 0.70311,0.7422 1.97915,1.11329 3.82813,1.11328 l 1.21093,0 0,2.79297 -1.21093,0 c -1.84898,10e-6 -3.12502,0.37761 -3.82813,1.13281 -0.70314,0.75522 -1.0547,2.1159 -1.05469,4.08203 l 0,4.66797 c -1e-5,2.8776 -0.54689,4.79818 -1.64062,5.76172 -1.08074,0.96354 -3.2422,1.44531 -6.48438,1.44531 l -1.230467,0 0,-2.8125"
           style="font-size:40px"
           id="path4666"
           inkscape:connector-curvature="0" />
        <path
           d="m 140.30031,921.95984 0,1.75781 -16.52344,0 c 0.15625,2.47397 0.89843,4.36199 2.22657,5.66406 1.34113,1.28907 3.20311,1.9336 5.58593,1.9336 1.3802,0 2.71483,-0.16927 4.00391,-0.50781 1.30206,-0.33854 2.59113,-0.84636 3.86719,-1.52344 l 0,3.39844 c -1.28909,0.54687 -2.6107,0.96354 -3.96485,1.25 -1.35418,0.28645 -2.72788,0.42968 -4.12109,0.42968 -3.48959,0 -6.25652,-1.01562 -8.30078,-3.04687 -2.03125,-2.03125 -3.04688,-4.77864 -3.04688,-8.24219 0,-3.58071 0.96354,-6.41925 2.89063,-8.51562 1.9401,-2.10936 4.55077,-3.16404 7.83203,-3.16407 2.94269,3e-5 5.26691,0.95054 6.97266,2.85157 1.71872,1.88803 2.5781,4.45965 2.57812,7.71484 m -3.59375,-1.05469 c -0.0261,-1.96613 -0.57944,-3.53514 -1.66015,-4.70703 -1.06773,-1.17186 -2.487,-1.75779 -4.25782,-1.75781 -2.00522,2e-5 -3.61329,0.56642 -4.82421,1.69922 -1.19793,1.13283 -1.88803,2.72788 -2.07032,4.78515 l 12.8125,-0.0195"
           style="font-size:40px"
           id="path4668"
           inkscape:connector-curvature="0" />
        <path
           d="m 146.19875,903.40515 3.59375,0 0,30.39063 -3.59375,0 0,-30.39063"
           style="font-size:40px"
           id="path4670"
           inkscape:connector-curvature="0" />
        <path
           d="m 171.23781,912.56531 0,3.39844 c -1.01564,-0.52082 -2.07033,-0.91144 -3.16406,-1.17188 -1.09376,-0.2604 -2.22658,-0.39061 -3.39844,-0.39062 -1.78386,10e-6 -3.12501,0.27345 -4.02344,0.82031 -0.88542,0.54689 -1.32813,1.3672 -1.32812,2.46094 -1e-5,0.83334 0.319,1.4909 0.95703,1.97265 0.63801,0.46877 1.92057,0.91798 3.84766,1.34766 l 1.23047,0.27344 c 2.55206,0.54688 4.36196,1.32162 5.42968,2.32421 1.08071,0.9896 1.62108,2.37631 1.6211,4.16016 -2e-5,2.03125 -0.80731,3.63933 -2.42188,4.82422 -1.60158,1.18489 -3.8086,1.77734 -6.62109,1.77734 -1.17189,0 -2.39584,-0.11719 -3.67188,-0.35156 -1.26302,-0.22135 -2.59766,-0.5599 -4.0039,-1.01562 l 0,-3.71094 c 1.32812,0.69011 2.63671,1.21094 3.92578,1.5625 1.28905,0.33854 2.56509,0.50781 3.82812,0.50781 1.6927,0 2.99478,-0.28646 3.90625,-0.85937 0.91145,-0.58594 1.36718,-1.40625 1.36719,-2.46094 -1e-5,-0.97656 -0.33205,-1.72526 -0.99609,-2.2461 -0.65106,-0.52082 -2.08986,-1.02212 -4.31641,-1.5039 l -1.25,-0.29297 c -2.22657,-0.46874 -3.83464,-1.18489 -4.82422,-2.14844 -0.98958,-0.97655 -1.48438,-2.31118 -1.48437,-4.0039 -1e-5,-2.05728 0.72916,-3.64582 2.1875,-4.76563 1.45832,-1.11977 3.52863,-1.67966 6.21093,-1.67969 1.32812,3e-5 2.57812,0.0977 3.75,0.29297 1.17186,0.19534 2.25259,0.4883 3.24219,0.87891"
           style="font-size:40px"
           id="path4672"
           inkscape:connector-curvature="0" />
        <path
           d="m 196.86281,921.95984 0,1.75781 -16.52344,0 c 0.15625,2.47397 0.89844,4.36199 2.22657,5.66406 1.34113,1.28907 3.20311,1.9336 5.58593,1.9336 1.3802,0 2.71483,-0.16927 4.00391,-0.50781 1.30207,-0.33854 2.59113,-0.84636 3.86719,-1.52344 l 0,3.39844 c -1.28908,0.54687 -2.6107,0.96354 -3.96485,1.25 -1.35418,0.28645 -2.72787,0.42968 -4.12109,0.42968 -3.48959,0 -6.25652,-1.01562 -8.30078,-3.04687 -2.03125,-2.03125 -3.04688,-4.77864 -3.04688,-8.24219 0,-3.58071 0.96354,-6.41925 2.89063,-8.51562 1.9401,-2.10936 4.55077,-3.16404 7.83203,-3.16407 2.94269,3e-5 5.26691,0.95054 6.97266,2.85157 1.71873,1.88803 2.5781,4.45965 2.57812,7.71484 m -3.59375,-1.05469 c -0.0261,-1.96613 -0.57944,-3.53514 -1.66015,-4.70703 -1.06773,-1.17186 -2.487,-1.75779 -4.25782,-1.75781 -2.00522,2e-5 -3.61329,0.56642 -4.82422,1.69922 -1.19792,1.13283 -1.88802,2.72788 -2.07031,4.78515 l 12.8125,-0.0195"
           style="font-size:40px"
           id="path4674"
           inkscape:connector-curvature="0" />
        <path
           d="m 219.44094,937.50671 0,2.8125 -1.21094,0 c -3.2422,0 -5.41668,-0.48177 -6.52344,-1.44531 -1.09376,-0.96354 -1.64063,-2.88412 -1.64062,-5.76172 l 0,-4.66797 c -1e-5,-1.96613 -0.35158,-3.32681 -1.05469,-4.08203 -0.70313,-0.7552 -1.97918,-1.1328 -3.82813,-1.13281 l -1.1914,0 0,-2.79297 1.1914,0 c 1.86198,10e-6 3.13802,-0.37108 3.82813,-1.11328 0.70311,-0.75519 1.05468,-2.10285 1.05469,-4.04297 l 0,-4.6875 c -1e-5,-2.87758 0.54686,-4.79164 1.64062,-5.74219 1.10676,-0.96351 3.28124,-1.44528 6.52344,-1.44531 l 1.21094,0 0,2.79297 -1.32813,0 c -1.83595,3e-5 -3.03387,0.28649 -3.59375,0.85938 -0.55991,0.57294 -0.83986,1.77736 -0.83984,3.61328 l 0,4.84375 c -2e-5,2.04428 -0.2995,3.52866 -0.89844,4.45312 -0.58595,0.92449 -1.59506,1.54949 -3.02734,1.875 1.4453,0.35158 2.46092,0.9896 3.04687,1.91406 0.58593,0.92449 0.87889,2.40236 0.87891,4.4336 l 0,4.84375 c -2e-5,1.83593 0.27993,3.04036 0.83984,3.61328 0.55988,0.57291 1.7578,0.85937 3.59375,0.85937 l 1.32813,0"
           style="font-size:40px"
           id="path4676"
           inkscape:connector-curvature="0" />
        <path
           d="m 129.26516,961.78072 1.66015,0 -5.07812,16.43554 -1.66016,0 5.07813,-16.43554"
           style="font-size:20px;fill:#808080"
           id="path4678"
           inkscape:connector-curvature="0" />
        <path
           d="m 136.02297,961.78072 1.66016,0 -5.07813,16.43554 -1.66016,0 5.07813,-16.43554"
           style="font-size:20px;fill:#808080"
           id="path4680"
           inkscape:connector-curvature="0" />
        <path
           d="m 153.15187,967.08345 0,-5.91797 1.79688,0 0,15.19531 -1.79688,0 0,-1.64062 c -0.37761,0.65104 -0.85612,1.13607 -1.43554,1.45508 -0.57293,0.3125 -1.26303,0.46875 -2.07031,0.46875 -1.32162,0 -2.3991,-0.52735 -3.23243,-1.58203 -0.82682,-1.05469 -1.24023,-2.44141 -1.24023,-4.16016 0,-1.71874 0.41341,-3.10546 1.24023,-4.16016 0.83333,-1.05467 1.91081,-1.58202 3.23243,-1.58203 0.80728,10e-6 1.49738,0.15952 2.07031,0.47852 0.57942,0.31251 1.05793,0.79428 1.43554,1.44531 m -6.12304,3.81836 c -1e-5,1.32162 0.27018,2.36003 0.81054,3.11523 0.54688,0.7487 1.29557,1.12305 2.2461,1.12305 0.95051,0 1.69921,-0.37435 2.24609,-1.12305 0.54687,-0.7552 0.82031,-1.79361 0.82031,-3.11523 0,-1.32161 -0.27344,-2.35676 -0.82031,-3.10547 -0.54688,-0.7552 -1.29558,-1.1328 -2.24609,-1.13281 -0.95053,10e-6 -1.69922,0.37761 -2.2461,1.13281 -0.54036,0.74871 -0.81055,1.78386 -0.81054,3.10547"
           style="font-size:20px;fill:#808080"
           id="path4682"
           inkscape:connector-curvature="0" />
        <path
           d="m 162.8882,966.68306 c -0.96354,1e-5 -1.72526,0.37761 -2.28515,1.13281 -0.5599,0.74871 -0.83985,1.77735 -0.83985,3.08594 0,1.3086 0.27669,2.3405 0.83008,3.0957 0.55989,0.7487 1.32487,1.12305 2.29492,1.12305 0.95703,0 1.71549,-0.3776 2.27539,-1.13281 0.55989,-0.75521 0.83984,-1.78385 0.83985,-3.08594 -1e-5,-1.29557 -0.27996,-2.32096 -0.83985,-3.07617 -0.5599,-0.76171 -1.31836,-1.14257 -2.27539,-1.14258 m 0,-1.52344 c 1.56249,10e-6 2.78971,0.50782 3.68164,1.52344 0.89192,1.01563 1.33788,2.42188 1.33789,4.21875 -10e-6,1.79037 -0.44597,3.19662 -1.33789,4.21875 -0.89193,1.01562 -2.11915,1.52344 -3.68164,1.52344 -1.56901,0 -2.79948,-0.50782 -3.6914,-1.52344 -0.88542,-1.02213 -1.32813,-2.42838 -1.32813,-4.21875 0,-1.79687 0.44271,-3.20312 1.32813,-4.21875 0.89192,-1.01562 2.12239,-1.52343 3.6914,-1.52344"
           style="font-size:20px;fill:#808080"
           id="path4684"
           inkscape:connector-curvature="0" />
        <path
           d="m 184.21633,965.74556 0,1.69922 c -0.50782,-0.26041 -1.03517,-0.45572 -1.58203,-0.58594 -0.54689,-0.1302 -1.11329,-0.1953 -1.69922,-0.19531 -0.89193,10e-6 -1.56251,0.13673 -2.01172,0.41015 -0.44271,0.27345 -0.66407,0.68361 -0.66406,1.23047 -1e-5,0.41668 0.1595,0.74545 0.47851,0.98633 0.31901,0.23438 0.96028,0.45899 1.92383,0.67383 l 0.61523,0.13672 c 1.27604,0.27344 2.18099,0.66081 2.71485,1.16211 0.54035,0.49479 0.81054,1.18815 0.81055,2.08008 -1e-5,1.01562 -0.40366,1.81966 -1.21094,2.4121 -0.80079,0.59245 -1.90431,0.88868 -3.31055,0.88868 -0.58594,0 -1.19792,-0.0586 -1.83594,-0.17578 -0.63151,-0.11068 -1.29883,-0.27995 -2.00195,-0.50782 l 0,-1.85547 c 0.66406,0.34506 1.31836,0.60547 1.96289,0.78125 0.64453,0.16928 1.28255,0.25391 1.91406,0.25391 0.84635,0 1.49739,-0.14323 1.95313,-0.42969 0.45572,-0.29296 0.68358,-0.70312 0.68359,-1.23047 -1e-5,-0.48827 -0.16602,-0.86262 -0.49804,-1.12304 -0.32553,-0.26042 -1.04493,-0.51107 -2.15821,-0.75196 l -0.625,-0.14648 c -1.11328,-0.23437 -1.91732,-0.59244 -2.41211,-1.07422 -0.49479,-0.48827 -0.74219,-1.15559 -0.74218,-2.00195 -1e-5,-1.02864 0.36458,-1.82291 1.09375,-2.38281 0.72916,-0.55989 1.76431,-0.83984 3.10546,-0.83985 0.66406,10e-6 1.28906,0.0488 1.875,0.14649 0.58593,0.0977 1.1263,0.24415 1.6211,0.43945"
           style="font-size:20px;fill:#808080"
           id="path4686"
           inkscape:connector-curvature="0" />
        <path
           d="m 189.4507,962.31782 0,3.10547 3.70117,0 0,1.39649 -3.70117,0 0,5.9375 c 0,0.89193 0.12044,1.46484 0.36133,1.71875 0.24739,0.25391 0.74544,0.38086 1.49414,0.38086 l 1.8457,0 0,1.5039 -1.8457,0 c -1.38672,0 -2.34375,-0.25716 -2.87109,-0.77148 -0.52735,-0.52083 -0.79102,-1.46484 -0.79102,-2.83203 l 0,-5.9375 -1.31836,0 0,-1.39649 1.31836,0 0,-3.10547 1.80664,0"
           style="font-size:20px;fill:#808080"
           id="path4688"
           inkscape:connector-curvature="0" />
        <path
           d="m 195.33937,972.04439 0,-6.6211 1.79688,0 0,6.55274 c 0,1.03516 0.20182,1.81315 0.60547,2.33398 0.40364,0.51433 1.00911,0.77149 1.8164,0.77149 0.97005,0 1.73502,-0.30925 2.29493,-0.92774 0.56639,-0.61848 0.8496,-1.46158 0.84961,-2.52929 l 0,-6.20118 1.79687,0 0,10.9375 -1.79687,0 0,-1.67968 c -0.43621,0.66406 -0.94402,1.15885 -1.52344,1.48437 -0.57293,0.31901 -1.24024,0.47852 -2.00195,0.47852 -1.25652,0 -2.21029,-0.39063 -2.86133,-1.17188 -0.65105,-0.78125 -0.97657,-1.92382 -0.97657,-3.42773 m 4.52149,-6.88477 0,0"
           style="font-size:20px;fill:#808080"
           id="path4690"
           inkscape:connector-curvature="0" />
        <path
           d="m 220.49562,961.16548 0,1.49414 -1.71875,0 c -0.64454,10e-6 -1.09376,0.13022 -1.34765,0.39063 -0.24741,0.26043 -0.37111,0.72918 -0.3711,1.40625 l 0,0.96679 2.95899,0 0,1.39649 -2.95899,0 0,9.54101 -1.80664,0 0,-9.54101 -4.93164,0 0,9.54101 -1.80664,0 0,-9.54101 -1.71875,0 0,-1.39649 1.71875,0 0,-0.76172 c 0,-1.21743 0.2832,-2.10285 0.84961,-2.65625 0.5664,-0.55988 1.46484,-0.83982 2.69531,-0.83984 l 1.69922,0 0,1.49414 -1.71875,0 c -0.64453,10e-6 -1.09375,0.13022 -1.34765,0.39063 -0.2474,0.26043 -0.3711,0.72918 -0.3711,1.40625 l 0,0.96679 4.93164,0 0,-0.76172 c 0,-1.21743 0.2832,-2.10285 0.84961,-2.65625 0.5664,-0.55988 1.46484,-0.83982 2.69532,-0.83984 l 1.69921,0"
           style="font-size:20px;fill:#808080"
           id="path4692"
           inkscape:connector-curvature="0" />
        <path
           d="m 228.37648,965.42329 1.79688,0 0,10.9375 -1.79688,0 0,-10.9375 m 0,-4.25781 1.79688,0 0,2.27539 -1.79688,0 0,-2.27539"
           style="font-size:20px;fill:#808080"
           id="path4694"
           inkscape:connector-curvature="0" />
        <path
           d="m 239.46047,961.16548 0,1.49414 -1.71875,0 c -0.64454,10e-6 -1.09376,0.13022 -1.34766,0.39063 -0.2474,0.26043 -0.3711,0.72918 -0.37109,1.40625 l 0,0.96679 2.95898,0 0,1.39649 -2.95898,0 0,9.54101 -1.80664,0 0,-9.54101 -1.71875,0 0,-1.39649 1.71875,0 0,-0.76172 c 0,-1.21743 0.2832,-2.10285 0.84961,-2.65625 0.5664,-0.55988 1.46484,-0.83982 2.69531,-0.83984 l 1.69922,0"
           style="font-size:20px;fill:#808080"
           id="path4696"
           inkscape:connector-curvature="0" />
        <path
           d="m 255.19289,965.84322 0,1.67968 c -0.50782,-0.27994 -1.01889,-0.48827 -1.5332,-0.625 -0.50782,-0.14322 -1.02215,-0.21483 -1.54297,-0.21484 -1.16537,1e-5 -2.07032,0.3711 -2.71485,1.11328 -0.64453,0.73568 -0.9668,1.77084 -0.96679,3.10547 -1e-5,1.33464 0.32226,2.37305 0.96679,3.11523 0.64453,0.73568 1.54948,1.10352 2.71485,1.10352 0.52082,0 1.03515,-0.0684 1.54297,-0.20508 0.51431,-0.14323 1.02538,-0.35482 1.5332,-0.63476 l 0,1.66015 c -0.50131,0.23438 -1.02214,0.41016 -1.5625,0.52735 -0.53386,0.11718 -1.10352,0.17578 -1.70898,0.17578 -1.64714,0 -2.95574,-0.51758 -3.92579,-1.55274 -0.97005,-1.03515 -1.45507,-2.43164 -1.45507,-4.18945 0,-1.78385 0.48828,-3.18684 1.46484,-4.20899 0.98307,-1.02212 2.32747,-1.53319 4.0332,-1.5332 0.55338,10e-6 1.09375,0.0586 1.6211,0.17578 0.52733,0.11069 1.0384,0.27996 1.5332,0.50782"
           style="font-size:20px;fill:#808080"
           id="path4698"
           inkscape:connector-curvature="0" />
        <path
           d="m 262.5757,966.68306 c -0.96354,1e-5 -1.72526,0.37761 -2.28515,1.13281 -0.5599,0.74871 -0.83985,1.77735 -0.83985,3.08594 0,1.3086 0.27669,2.3405 0.83008,3.0957 0.55989,0.7487 1.32487,1.12305 2.29492,1.12305 0.95703,0 1.71549,-0.3776 2.27539,-1.13281 0.55989,-0.75521 0.83984,-1.78385 0.83985,-3.08594 -1e-5,-1.29557 -0.27996,-2.32096 -0.83985,-3.07617 -0.5599,-0.76171 -1.31836,-1.14257 -2.27539,-1.14258 m 0,-1.52344 c 1.56249,10e-6 2.78971,0.50782 3.68164,1.52344 0.89192,1.01563 1.33788,2.42188 1.33789,4.21875 -1e-5,1.79037 -0.44597,3.19662 -1.33789,4.21875 -0.89193,1.01562 -2.11915,1.52344 -3.68164,1.52344 -1.56901,0 -2.79948,-0.50782 -3.6914,-1.52344 -0.88542,-1.02213 -1.32813,-2.42838 -1.32813,-4.21875 0,-1.79687 0.44271,-3.20312 1.32813,-4.21875 0.89192,-1.01562 2.12239,-1.52343 3.6914,-1.52344"
           style="font-size:20px;fill:#808080"
           id="path4700"
           inkscape:connector-curvature="0" />
        <path
           d="m 279.65578,969.75923 0,6.60156 -1.79687,0 0,-6.54297 c -10e-6,-1.03514 -0.20184,-1.80988 -0.60547,-2.32421 -0.40366,-0.51432 -1.00913,-0.77148 -1.81641,-0.77149 -0.97006,10e-6 -1.73503,0.30926 -2.29492,0.92774 -0.5599,0.61849 -0.83985,1.46159 -0.83984,2.52929 l 0,6.18164 -1.80665,0 0,-10.9375 1.80665,0 0,1.69922 c 0.42968,-0.65754 0.93424,-1.14908 1.51367,-1.47461 0.58593,-0.32551 1.25976,-0.48827 2.02148,-0.48828 1.2565,10e-6 2.20702,0.39064 2.85156,1.17188 0.64452,0.77475 0.96679,1.91732 0.9668,3.42773"
           style="font-size:20px;fill:#808080"
           id="path4702"
           inkscape:connector-curvature="0" />
        <path
           d="m 290.45656,967.08345 0,-5.91797 1.79688,0 0,15.19531 -1.79688,0 0,-1.64062 c -0.37761,0.65104 -0.85613,1.13607 -1.43554,1.45508 -0.57293,0.3125 -1.26303,0.46875 -2.07032,0.46875 -1.32162,0 -2.39909,-0.52735 -3.23242,-1.58203 -0.82682,-1.05469 -1.24023,-2.44141 -1.24023,-4.16016 0,-1.71874 0.41341,-3.10546 1.24023,-4.16016 0.83333,-1.05467 1.9108,-1.58202 3.23242,-1.58203 0.80729,10e-6 1.49739,0.15952 2.07032,0.47852 0.57941,0.31251 1.05793,0.79428 1.43554,1.44531 m -6.12304,3.81836 c -1e-5,1.32162 0.27017,2.36003 0.81054,3.11523 0.54687,0.7487 1.29557,1.12305 2.2461,1.12305 0.95051,0 1.69921,-0.37435 2.24609,-1.12305 0.54687,-0.7552 0.8203,-1.79361 0.82031,-3.11523 -1e-5,-1.32161 -0.27344,-2.35676 -0.82031,-3.10547 -0.54688,-0.7552 -1.29558,-1.1328 -2.24609,-1.13281 -0.95053,10e-6 -1.69923,0.37761 -2.2461,1.13281 -0.54037,0.74871 -0.81055,1.78386 -0.81054,3.10547"
           style="font-size:20px;fill:#808080"
           id="path4704"
           inkscape:connector-curvature="0" />
        <path
           d="m 295.95461,965.42329 1.79687,0 0,10.9375 -1.79687,0 0,-10.9375 m 0,-4.25781 1.79687,0 0,2.27539 -1.79687,0 0,-2.27539"
           style="font-size:20px;fill:#808080"
           id="path4706"
           inkscape:connector-curvature="0" />
        <path
           d="m 303.27883,962.31782 0,3.10547 3.70117,0 0,1.39649 -3.70117,0 0,5.9375 c -1e-5,0.89193 0.12044,1.46484 0.36133,1.71875 0.24739,0.25391 0.74543,0.38086 1.49414,0.38086 l 1.8457,0 0,1.5039 -1.8457,0 c -1.38673,0 -2.34376,-0.25716 -2.8711,-0.77148 -0.52734,-0.52083 -0.79101,-1.46484 -0.79101,-2.83203 l 0,-5.9375 -1.31836,0 0,-1.39649 1.31836,0 0,-3.10547 1.80664,0"
           style="font-size:20px;fill:#808080"
           id="path4708"
           inkscape:connector-curvature="0" />
        <path
           d="m 309.35305,965.42329 1.79687,0 0,10.9375 -1.79687,0 0,-10.9375 m 0,-4.25781 1.79687,0 0,2.27539 -1.79687,0 0,-2.27539"
           style="font-size:20px;fill:#808080"
           id="path4710"
           inkscape:connector-curvature="0" />
        <path
           d="m 319.1382,966.68306 c -0.96354,1e-5 -1.72526,0.37761 -2.28515,1.13281 -0.5599,0.74871 -0.83985,1.77735 -0.83985,3.08594 0,1.3086 0.27669,2.3405 0.83008,3.0957 0.55989,0.7487 1.32487,1.12305 2.29492,1.12305 0.95703,0 1.71549,-0.3776 2.27539,-1.13281 0.55989,-0.75521 0.83984,-1.78385 0.83985,-3.08594 -1e-5,-1.29557 -0.27996,-2.32096 -0.83985,-3.07617 -0.5599,-0.76171 -1.31836,-1.14257 -2.27539,-1.14258 m 0,-1.52344 c 1.56249,10e-6 2.78971,0.50782 3.68164,1.52344 0.89192,1.01563 1.33788,2.42188 1.33789,4.21875 -1e-5,1.79037 -0.44597,3.19662 -1.33789,4.21875 -0.89193,1.01562 -2.11915,1.52344 -3.68164,1.52344 -1.56901,0 -2.79948,-0.50782 -3.6914,-1.52344 -0.88542,-1.02213 -1.32813,-2.42838 -1.32813,-4.21875 0,-1.79687 0.44271,-3.20312 1.32813,-4.21875 0.89192,-1.01562 2.12239,-1.52343 3.6914,-1.52344"
           style="font-size:20px;fill:#808080"
           id="path4712"
           inkscape:connector-curvature="0" />
        <path
           d="m 336.21828,969.75923 0,6.60156 -1.79687,0 0,-6.54297 c -10e-6,-1.03514 -0.20184,-1.80988 -0.60547,-2.32421 -0.40366,-0.51432 -1.00913,-0.77148 -1.81641,-0.77149 -0.97006,10e-6 -1.73503,0.30926 -2.29492,0.92774 -0.5599,0.61849 -0.83985,1.46159 -0.83984,2.52929 l 0,6.18164 -1.80665,0 0,-10.9375 1.80665,0 0,1.69922 c 0.42968,-0.65754 0.93424,-1.14908 1.51367,-1.47461 0.58593,-0.32551 1.25976,-0.48827 2.02148,-0.48828 1.2565,10e-6 2.20702,0.39064 2.85156,1.17188 0.64452,0.77475 0.96679,1.91732 0.9668,3.42773"
           style="font-size:20px;fill:#808080"
           id="path4714"
           inkscape:connector-curvature="0" />
        <path
           d="m 346.18898,965.42329 1.79688,0 0,10.9375 -1.79688,0 0,-10.9375 m 0,-4.25781 1.79688,0 0,2.27539 -1.79688,0 0,-2.27539"
           style="font-size:20px;fill:#808080"
           id="path4716"
           inkscape:connector-curvature="0" />
        <path
           d="m 358.70852,965.74556 0,1.69922 c -0.50783,-0.26041 -1.03517,-0.45572 -1.58204,-0.58594 -0.54688,-0.1302 -1.11328,-0.1953 -1.69921,-0.19531 -0.89194,10e-6 -1.56251,0.13673 -2.01172,0.41015 -0.44272,0.27345 -0.66407,0.68361 -0.66407,1.23047 0,0.41668 0.15951,0.74545 0.47852,0.98633 0.31901,0.23438 0.96028,0.45899 1.92383,0.67383 l 0.61523,0.13672 c 1.27604,0.27344 2.18098,0.66081 2.71485,1.16211 0.54035,0.49479 0.81053,1.18815 0.81054,2.08008 -10e-6,1.01562 -0.40365,1.81966 -1.21093,2.4121 -0.80079,0.59245 -1.90431,0.88868 -3.31055,0.88868 -0.58594,0 -1.19792,-0.0586 -1.83594,-0.17578 -0.63151,-0.11068 -1.29883,-0.27995 -2.00195,-0.50782 l 0,-1.85547 c 0.66406,0.34506 1.31835,0.60547 1.96289,0.78125 0.64453,0.16928 1.28255,0.25391 1.91406,0.25391 0.84635,0 1.49739,-0.14323 1.95313,-0.42969 0.45572,-0.29296 0.68358,-0.70312 0.68359,-1.23047 -1e-5,-0.48827 -0.16602,-0.86262 -0.49805,-1.12304 -0.32552,-0.26042 -1.04493,-0.51107 -2.1582,-0.75196 l -0.625,-0.14648 c -1.11328,-0.23437 -1.91732,-0.59244 -2.41211,-1.07422 -0.49479,-0.48827 -0.74219,-1.15559 -0.74219,-2.00195 0,-1.02864 0.36458,-1.82291 1.09375,-2.38281 0.72917,-0.55989 1.76432,-0.83984 3.10547,-0.83985 0.66406,10e-6 1.28906,0.0488 1.875,0.14649 0.58593,0.0977 1.1263,0.24415 1.6211,0.43945"
           style="font-size:20px;fill:#808080"
           id="path4718"
           inkscape:connector-curvature="0" />
        <path
           d="m 375.52492,961.16548 0,2.29492 -1.93359,0 c -0.4948,2e-5 -0.83985,0.0912 -1.03516,0.27344 -0.19532,0.17579 -0.29297,0.48504 -0.29297,0.92773 l 0,0.76172 2.98828,0 0,2.5 -2.98828,0 0,8.4375 -3.49609,0 0,-8.4375 -1.73828,0 0,-2.5 1.73828,0 0,-0.76172 c 0,-1.19139 0.33203,-2.07029 0.99609,-2.63671 0.66406,-0.57291 1.69271,-0.85936 3.08594,-0.85938 l 2.67578,0"
           style="font-weight:bold;fill:#808080;-inkscape-font-specification:Sans Bold"
           id="path4720"
           inkscape:connector-curvature="0" />
        <path
           d="m 381.94094,971.43892 c -0.72918,0 -1.27931,0.1237 -1.65039,0.37109 -0.36459,0.2474 -0.54688,0.61199 -0.54688,1.09375 0,0.44271 0.14648,0.79102 0.43945,1.04492 0.29948,0.2474 0.71289,0.3711 1.24024,0.3711 0.65754,0 1.21093,-0.23438 1.66016,-0.70313 0.44921,-0.47525 0.67381,-1.0677 0.67382,-1.77734 l 0,-0.40039 -1.8164,0 m 5.34179,-1.31836 0,6.24023 -3.52539,0 0,-1.62109 c -0.46875,0.66406 -0.9961,1.14909 -1.58203,1.45508 -0.58594,0.29948 -1.29883,0.44922 -2.13867,0.44922 -1.13282,0 -2.05404,-0.32878 -2.76367,-0.98633 -0.70313,-0.66406 -1.05469,-1.52344 -1.05469,-2.57813 0,-1.28254 0.43945,-2.2233 1.31836,-2.82226 0.88541,-0.59895 2.27213,-0.89843 4.16016,-0.89844 l 2.06054,0 0,-0.27344 c -10e-6,-0.55338 -0.2181,-0.95702 -0.65429,-1.21093 -0.43621,-0.26041 -1.11655,-0.39062 -2.04102,-0.39063 -0.7487,10e-6 -1.44532,0.0749 -2.08984,0.22461 -0.64454,0.14975 -1.24349,0.37436 -1.79688,0.67383 l 0,-2.66602 c 0.7487,-0.18228 1.50065,-0.319 2.25586,-0.41015 0.7552,-0.0977 1.51041,-0.14648 2.26563,-0.14649 1.97264,10e-6 3.39517,0.39064 4.26757,1.17188 0.8789,0.77475 1.31835,2.03776 1.31836,3.78906"
           style="font-weight:bold;fill:#808080;-inkscape-font-specification:Sans Bold"
           id="path4722"
           inkscape:connector-curvature="0" />
        <path
           d="m 390.55422,961.16548 3.49609,0 0,15.19531 -3.49609,0 0,-15.19531"
           style="font-weight:bold;fill:#808080;-inkscape-font-specification:Sans Bold"
           id="path4724"
           inkscape:connector-curvature="0" />
        <path
           d="m 405.97414,965.76509 0,2.65625 c -0.74871,-0.31249 -1.47136,-0.54687 -2.16797,-0.70312 -0.69662,-0.15625 -1.35417,-0.23437 -1.97265,-0.23438 -0.66407,10e-6 -1.15886,0.0846 -1.48438,0.25391 -0.31901,0.16277 -0.47852,0.41667 -0.47852,0.76172 0,0.27995 0.12044,0.49479 0.36133,0.64453 0.24739,0.14974 0.68685,0.26042 1.31836,0.33203 l 0.61524,0.0879 c 1.79035,0.22787 2.99478,0.60222 3.61328,1.12305 0.61848,0.52083 0.92772,1.33789 0.92773,2.45117 -1e-5,1.16536 -0.4297,2.04101 -1.28906,2.62695 -0.85938,0.58594 -2.14194,0.87891 -3.84766,0.87891 -0.72266,0 -1.47136,-0.0586 -2.24609,-0.17578 -0.76823,-0.11068 -1.55925,-0.27995 -2.37305,-0.50782 l 0,-2.65625 c 0.69662,0.33855 1.40951,0.59245 2.13867,0.76172 0.73568,0.16927 1.48112,0.25391 2.23633,0.25391 0.68359,0 1.19791,-0.0944 1.54297,-0.28321 0.34505,-0.1888 0.51757,-0.46874 0.51758,-0.83984 -1e-5,-0.3125 -0.12045,-0.54362 -0.36133,-0.69336 -0.23438,-0.15624 -0.70639,-0.27669 -1.41601,-0.36133 l -0.61524,-0.0781 c -1.55599,-0.19531 -2.64649,-0.55664 -3.27148,-1.08399 -0.625,-0.52733 -0.9375,-1.32811 -0.9375,-2.40234 0,-1.15885 0.39713,-2.01822 1.1914,-2.57812 0.79427,-0.55989 2.01172,-0.83984 3.65235,-0.83985 0.64452,10e-6 1.3216,0.0488 2.03125,0.14649 0.70962,0.0977 1.48111,0.25066 2.31445,0.45898"
           style="font-weight:bold;fill:#808080;-inkscape-font-specification:Sans Bold"
           id="path4726"
           inkscape:connector-curvature="0" />
        <path
           d="m 420.26125,970.86275 0,0.99609 -8.17383,0 c 0.0846,0.82032 0.38086,1.43555 0.88867,1.8457 0.50781,0.41016 1.21744,0.61524 2.12891,0.61524 0.73567,0 1.48762,-0.10742 2.25586,-0.32227 0.77473,-0.22135 1.569,-0.55338 2.38281,-0.99609 l 0,2.69531 c -0.82683,0.3125 -1.65365,0.54688 -2.48047,0.70313 -0.82683,0.16276 -1.65365,0.24414 -2.48047,0.24414 -1.97917,0 -3.51888,-0.50131 -4.61914,-1.50391 -1.09375,-1.00911 -1.64062,-2.42187 -1.64062,-4.23828 0,-1.78385 0.53711,-3.18684 1.61133,-4.20899 1.08072,-1.02212 2.5651,-1.53319 4.45312,-1.5332 1.71874,10e-6 3.09244,0.51759 4.1211,1.55274 1.03514,1.03516 1.55272,2.41862 1.55273,4.15039 m -3.59375,-1.16211 c -1e-5,-0.66406 -0.19532,-1.19791 -0.58594,-1.60157 -0.38412,-0.41014 -0.88868,-0.61522 -1.51367,-0.61523 -0.67709,10e-6 -1.22722,0.19207 -1.65039,0.57617 -0.42318,0.37761 -0.68685,0.92449 -0.79102,1.64063 l 4.54102,0"
           style="font-weight:bold;fill:#808080;-inkscape-font-specification:Sans Bold"
           id="path4728"
           inkscape:connector-curvature="0" />
        <path
           d="m 97.351093,1037.5067 1.367187,0 c 1.82291,0 3.0078,-0.2799 3.55469,-0.8398 0.55988,-0.5599 0.83983,-1.7709 0.83984,-3.6328 l 0,-4.8438 c -1e-5,-2.0312 0.29296,-3.5091 0.87891,-4.4336 0.58592,-0.9245 1.60155,-1.5625 3.04687,-1.914 -1.44532,-0.3256 -2.46095,-0.9506 -3.04687,-1.875 -0.58595,-0.9245 -0.87892,-2.4089 -0.87891,-4.4532 l 0,-4.8437 c -1e-5,-1.849 -0.27996,-3.0534 -0.83984,-3.6133 -0.54689,-0.5729 -1.73178,-0.8594 -3.55469,-0.8594 l -1.367187,0 0,-2.7929 1.230467,0 c 3.24218,0 5.40364,0.4818 6.48438,1.4453 1.09373,0.9505 1.64061,2.8646 1.64062,5.7422 l 0,4.6875 c -1e-5,1.9401 0.35155,3.2877 1.05469,4.0429 0.70311,0.7422 1.97915,1.1133 3.82813,1.1133 l 1.21093,0 0,2.793 -1.21093,0 c -1.84898,0 -3.12502,0.3776 -3.82813,1.1328 -0.70314,0.7552 -1.0547,2.1159 -1.05469,4.082 l 0,4.668 c -1e-5,2.8776 -0.54689,4.7982 -1.64062,5.7617 -1.08074,0.9635 -3.2422,1.4453 -6.48438,1.4453 l -1.230467,0 0,-2.8125"
           style="font-size:40px"
           id="path4730"
           inkscape:connector-curvature="0" />
      </g>
    </g>
    <flowRoot
       xml:space="preserve"
       id="flowRoot10535"
       style="font-size:16px;font-style:normal;font-weight:normal;line-height:125%;letter-spacing:0px;word-spacing:0px;fill:#000000;fill-opacity:1;stroke:none;font-family:Sans"><flowRegion
         id="flowRegion10537"><rect
           id="rect10539"
           width="177.30673"
           height="17.955112"
           x="64.339149"
           y="90.773064" /></flowRegion><flowPara
         id="flowPara10541" /></flowRoot>  </g>
</svg>
