<?xml version="1.0" encoding="UTF-8" standalone="no"?>
<!-- Created with Inkscape (http://www.inkscape.org/) -->

<svg
   xmlns:dc="http://purl.org/dc/elements/1.1/"
   xmlns:cc="http://creativecommons.org/ns#"
   xmlns:rdf="http://www.w3.org/1999/02/22-rdf-syntax-ns#"
   xmlns:svg="http://www.w3.org/2000/svg"
   xmlns="http://www.w3.org/2000/svg"
   xmlns:sodipodi="http://sodipodi.sourceforge.net/DTD/sodipodi-0.dtd"
   xmlns:inkscape="http://www.inkscape.org/namespaces/inkscape"
   width="900"
   height="300"
   id="svg2"
   version="1.1"
   inkscape:version="0.48.4 r9939"
   sodipodi:docname="anatomy_method.svg"
   inkscape:export-filename="/home/john/Desktop/Link to java_tutorial_armenian/images/anatomy_method.png"
   inkscape:export-xdpi="90"
   inkscape:export-ydpi="90">
  <defs
     id="defs4">
    <marker
       inkscape:stockid="Arrow1Mend"
       orient="auto"
       refY="0"
       refX="0"
       id="Arrow1Mend"
       style="overflow:visible">
      <path
         id="path4263"
         d="M 0,0 5,-5 -12.5,0 5,5 0,0 z"
         style="fill-rule:evenodd;stroke:#000000;stroke-width:1pt"
         transform="matrix(-0.4,0,0,-0.4,-4,0)"
         inkscape:connector-curvature="0" />
    </marker>
    <marker
       inkscape:stockid="Arrow1Lend"
       orient="auto"
       refY="0"
       refX="0"
       id="Arrow1Lend"
       style="overflow:visible">
      <path
         id="path5297"
         d="M 0,0 5,-5 -12.5,0 5,5 0,0 z"
         style="fill-rule:evenodd;stroke:#000000;stroke-width:1pt"
         transform="matrix(-0.8,0,0,-0.8,-10,0)"
         inkscape:connector-curvature="0" />
    </marker>
    <marker
       inkscape:stockid="Arrow1Send"
       orient="auto"
       refY="0"
       refX="0"
       id="Arrow1Send"
       style="overflow:visible">
      <path
         id="path5309"
         d="M 0,0 5,-5 -12.5,0 5,5 0,0 z"
         style="fill-rule:evenodd;stroke:#000000;stroke-width:1pt"
         transform="matrix(-0.2,0,0,-0.2,-1.2,0)"
         inkscape:connector-curvature="0" />
    </marker>
  </defs>
  <sodipodi:namedview
     id="base"
     pagecolor="#ffffff"
     bordercolor="#666666"
     borderopacity="1.0"
     inkscape:pageopacity="0.0"
     inkscape:pageshadow="2"
     inkscape:zoom="0.94516606"
     inkscape:cx="375.41212"
     inkscape:cy="108.10541"
     inkscape:document-units="px"
     inkscape:current-layer="layer1"
     showgrid="false"
     inkscape:window-width="1319"
     inkscape:window-height="744"
     inkscape:window-x="47"
     inkscape:window-y="24"
     inkscape:window-maximized="1" />
  <metadata
     id="metadata7">
    <rdf:RDF>
      <cc:Work
         rdf:about="">
        <dc:format>image/svg+xml</dc:format>
        <dc:type
           rdf:resource="http://purl.org/dc/dcmitype/StillImage" />
        <dc:title />
      </cc:Work>
    </rdf:RDF>
  </metadata>
  <g
     inkscape:label="Layer 1"
     inkscape:groupmode="layer"
     id="layer1"
     transform="translate(0,-752.36218)">
    <rect
       style="fill:#000080;fill-opacity:1;stroke:none"
       id="rect10455"
       width="102.8955"
       height="33.800446"
       x="3.7640185"
       y="867.05646" />
    <rect
       y="866.66986"
       x="276.79568"
       height="34.187"
       width="136.34555"
       id="rect10457"
       style="fill:#5599ff;fill-opacity:1;stroke:none" />
    <rect
       style="fill:#cccccc;fill-opacity:1;stroke:none"
       id="rect10533"
       width="147.59401"
       height="34.249996"
       x="412.42963"
       y="866.65009" />
    <rect
       style="fill:#cccccc;fill-opacity:1;stroke:none"
       id="rect10533-9"
       width="159.61052"
       height="33.60574"
       x="716.6936"
       y="866.86365" />
    <rect
       y="866.80872"
       x="569.01917"
       height="33.800446"
       width="148.20291"
       id="rect10457-5"
       style="fill:#5599ff;fill-opacity:1;stroke:none" />
    <rect
       style="fill:#808080;fill-opacity:1;stroke:none"
       id="rect10533-2"
       width="161.1165"
       height="34.249996"
       x="105.93945"
       y="867.05194" />
    <rect
       style="fill:#00ffff;fill-opacity:1;stroke:none"
       id="rect3258"
       width="107.44039"
       height="27.260994"
       x="112.81393"
       y="958.30524" />
    <g
       style="font-size:17.53719902px;font-style:normal;font-weight:normal;line-height:125%;letter-spacing:0px;word-spacing:0px;fill:#000000;fill-opacity:1;stroke:none;font-family:Sans"
       id="text10447">
      <path
         d="m 12.08066,884.54875 c 0.371059,0.1256 0.730708,0.39391 1.078949,0.80493 0.353931,0.41103 0.707872,0.97619 1.061822,1.69549 l 1.755433,3.49374 -1.85819,0 -1.635549,-3.27966 c -0.422453,-0.85631 -0.833481,-1.42433 -1.233084,-1.70406 -0.393909,-0.27972 -0.933383,-0.41958 -1.6184234,-0.41959 l -1.8838788,0 0,5.40331 -1.7297432,0 0,-12.78469 3.9047669,0 c 1.4614265,10e-6 2.5517915,0.30543 3.2710985,0.91625 0.71929,0.61085 1.078939,1.5328 1.078949,2.76588 -10e-6,0.80494 -0.188398,1.47286 -0.565164,2.00376 -0.371076,0.53092 -0.913404,0.89913 -1.626986,1.10464 m -4.3329212,-5.36906 0,4.53844 2.1750237,0 c 0.8334675,10e-6 1.4614265,-0.19124 1.8838785,-0.57373 0.428147,-0.38818 0.642224,-0.9562 0.642232,-1.70405 -8e-6,-0.74784 -0.214085,-1.31014 -0.642232,-1.68693 -0.422452,-0.38247 -1.050411,-0.57372 -1.8838785,-0.57373 l -2.1750237,0"
         style="fill:#ff00ff"
         id="path3524" />
      <path
         d="m 25.558956,885.35368 0,0.77068 -7.24437,0 c 0.0685,1.08466 0.393899,1.91242 0.976192,2.48329 0.587994,0.56517 1.404341,0.84775 2.449042,0.84775 0.605118,0 1.190262,-0.0742 1.755433,-0.22264 0.570864,-0.14843 1.136027,-0.37107 1.695491,-0.66793 l 0,1.48998 c -0.565173,0.23977 -1.144608,0.42245 -1.738307,0.54804 -0.593714,0.12559 -1.195984,0.18839 -1.806811,0.18839 -1.529942,0 -2.743045,-0.44528 -3.639311,-1.33584 -0.890562,-0.89056 -1.335842,-2.0951 -1.335841,-3.61363 -10e-7,-1.56989 0.422444,-2.81439 1.267336,-3.7335 0.850597,-0.92481 1.995195,-1.38721 3.433798,-1.38722 1.290164,10e-6 2.30917,0.41674 3.057021,1.25021 0.753542,0.82777 1.130318,1.95524 1.130327,3.38242 m -1.575607,-0.46241 c -0.01143,-0.86201 -0.254046,-1.54991 -0.727863,-2.0637 -0.468122,-0.51378 -1.090372,-0.77067 -1.866752,-0.77068 -0.879148,1e-5 -1.584175,0.24834 -2.115082,0.74499 -0.525206,0.49666 -0.827768,1.19598 -0.907687,2.09795 l 5.617384,-0.009"
         style="fill:#ff00ff"
         id="path3526" />
      <path
         d="m 29.703491,878.22919 0,2.72306 3.245409,0 0,1.22452 -3.245409,0 0,5.20636 c -3e-6,0.7821 0.105608,1.28446 0.316834,1.5071 0.216928,0.22264 0.653645,0.33396 1.310152,0.33396 l 1.618423,0 0,1.31872 -1.618423,0 c -1.215962,0 -2.055143,-0.2255 -2.517547,-0.67649 -0.462408,-0.45669 -0.693612,-1.28446 -0.69361,-2.48329 l 0,-5.20636 -1.156016,0 0,-1.22452 1.156016,0 0,-2.72306 1.584171,0"
         style="fill:#ff00ff"
         id="path3528" />
      <path
         d="m 34.867031,886.75802 0,-5.80577 1.575607,0 0,5.74583 c -3e-6,0.90769 0.176968,1.58988 0.530912,2.04658 0.353937,0.45099 0.884847,0.67648 1.592734,0.67648 0.850593,0 1.521368,-0.27116 2.012325,-0.81349 0.496651,-0.54233 0.74498,-1.2816 0.744988,-2.21784 l 0,-5.43756 1.575608,0 0,9.59066 -1.575608,0 0,-1.47285 c -0.382492,0.58229 -0.827772,1.01615 -1.335841,1.30159 -0.502374,0.27972 -1.087518,0.41959 -1.755433,0.41959 -1.101787,0 -1.938114,-0.34253 -2.508984,-1.02757 -0.570874,-0.68505 -0.85631,-1.68693 -0.856308,-3.00565 m 3.964708,-6.03697 0,0"
         style="fill:#ff00ff"
         id="path3530" />
      <path
         d="m 51.719183,882.4251 c -0.176977,-0.10275 -0.371074,-0.17696 -0.58229,-0.22264 -0.20552,-0.0514 -0.433869,-0.0771 -0.685047,-0.0771 -0.890565,10e-6 -1.575612,0.29116 -2.05514,0.87344 -0.473828,0.57659 -0.710739,1.40721 -0.710736,2.49186 l 0,5.05222 -1.584171,0 0,-9.59066 1.584171,0 0,1.48998 c 0.331102,-0.58228 0.762111,-1.01329 1.293026,-1.29303 0.530906,-0.28542 1.175991,-0.42814 1.935257,-0.42815 0.108459,10e-6 0.228342,0.009 0.35965,0.0257 0.131293,0.0114 0.276866,0.0314 0.436717,0.0599 l 0.0086,1.61842"
         style="fill:#ff00ff"
         id="path3532" />
      <path
         d="m 61.052945,884.75426 0,5.78865 -1.575608,0 0,-5.73727 c -8e-6,-0.90768 -0.176978,-1.58702 -0.530911,-2.03801 -0.353948,-0.45098 -0.884859,-0.67648 -1.592734,-0.67649 -0.850605,10e-6 -1.521379,0.27117 -2.012325,0.8135 -0.490953,0.54233 -0.736428,1.28161 -0.736425,2.21783 l 0,5.42044 -1.584171,0 0,-9.59066 1.584171,0 0,1.48998 c 0.376772,-0.57657 0.819198,-1.00758 1.327278,-1.29303 0.51378,-0.28542 1.104633,-0.42814 1.772559,-0.42815 1.101776,10e-6 1.935249,0.34253 2.500421,1.02757 0.565154,0.67935 0.847736,1.68123 0.847745,3.00564"
         style="fill:#ff00ff"
         id="path3534" />
      <path
         d="m 62.50867,877.75822 10.815177,0 0,1.45573 -4.538435,0 0,11.32896 -1.738307,0 0,-11.32896 -4.538435,0 0,-1.45573"
         style="fill:#ff00ff"
         id="path3536" />
      <path
         d="m 76.183923,891.43347 c -0.445286,1.14174 -0.879149,1.88673 -1.301589,2.23496 -0.42245,0.34823 -0.987613,0.52235 -1.695491,0.52235 l -1.258774,0 0,-1.31871 0.924813,0 c 0.433861,-10e-6 0.770675,-0.10276 1.010444,-0.30827 0.239763,-0.20552 0.505219,-0.69076 0.796367,-1.45573 l 0.282582,-0.7193 -3.879078,-9.43652 1.669802,0 2.99708,7.50126 2.99708,-7.50126 1.669802,0 -4.213038,10.48122"
         style="fill:#ff00ff"
         id="path3538" />
      <path
         d="m 84.09621,889.10431 0,5.08647 -1.584171,0 0,-13.23853 1.584171,0 0,1.45573 c 0.331102,-0.57087 0.747839,-0.99331 1.250211,-1.26734 0.508071,-0.27972 1.113195,-0.41958 1.815374,-0.41959 1.164572,10e-6 2.109365,0.46241 2.834381,1.38722 0.730707,0.92482 1.096065,2.14078 1.096075,3.64787 -1e-5,1.50711 -0.365368,2.72307 -1.096075,3.64788 -0.725016,0.92481 -1.669809,1.38722 -2.834381,1.38722 -0.702179,0 -1.307303,-0.13701 -1.815374,-0.41103 -0.502372,-0.27973 -0.919109,-0.70503 -1.250211,-1.2759 m 5.360492,-3.34817 c -9e-6,-1.15886 -0.239775,-2.06655 -0.7193,-2.72306 -0.473831,-0.6622 -1.127479,-0.99331 -1.960946,-0.99332 -0.833479,10e-6 -1.489981,0.33112 -1.96951,0.99332 -0.473827,0.65651 -0.710739,1.5642 -0.710736,2.72306 -3e-6,1.15888 0.236909,2.06942 0.710736,2.73163 0.479529,0.6565 1.136031,0.98475 1.96951,0.98475 0.833467,0 1.487115,-0.32825 1.960946,-0.98475 0.479525,-0.66221 0.719291,-1.57275 0.7193,-2.73163"
         style="fill:#ff00ff"
         id="path3540" />
      <path
         d="m 101.90743,885.35368 0,0.77068 -7.244372,0 c 0.0685,1.08466 0.393899,1.91242 0.976192,2.48329 0.587994,0.56517 1.404341,0.84775 2.449042,0.84775 0.605118,0 1.190262,-0.0742 1.755433,-0.22264 0.570865,-0.14843 1.136025,-0.37107 1.695495,-0.66793 l 0,1.48998 c -0.56518,0.23977 -1.14461,0.42245 -1.738311,0.54804 -0.593714,0.12559 -1.195984,0.18839 -1.806811,0.18839 -1.529942,0 -2.743045,-0.44528 -3.639311,-1.33584 -0.890563,-0.89056 -1.335843,-2.0951 -1.335842,-3.61363 -10e-7,-1.56989 0.422445,-2.81439 1.267337,-3.7335 0.850597,-0.92481 1.995195,-1.38721 3.433797,-1.38722 1.290165,10e-6 2.309171,0.41674 3.057021,1.25021 0.75354,0.82777 1.13032,1.95524 1.13033,3.38242 m -1.57561,-0.46241 c -0.0114,-0.86201 -0.25405,-1.54991 -0.727862,-2.0637 -0.468122,-0.51378 -1.090373,-0.77067 -1.866753,-0.77068 -0.879148,1e-5 -1.584174,0.24834 -2.115082,0.74499 -0.525205,0.49666 -0.827767,1.19598 -0.907687,2.09795 l 5.617384,-0.009"
         style="fill:#ff00ff"
         id="path3542" />
      <path
         d="m 117.54362,882.79332 c 0.39389,-0.70788 0.86486,-1.23023 1.41291,-1.56705 0.54803,-0.3368 1.19311,-0.50521 1.93526,-0.50522 0.99901,10e-6 1.76969,0.35109 2.31203,1.05326 0.54232,0.69647 0.81348,1.68979 0.81349,2.97995 l 0,5.78865 -1.58417,0 0,-5.73727 c -10e-6,-0.9191 -0.16271,-1.60129 -0.48809,-2.04658 -0.32541,-0.44527 -0.82207,-0.66791 -1.48998,-0.66792 -0.81636,10e-6 -1.46144,0.27117 -1.93526,0.8135 -0.47383,0.54233 -0.71074,1.28161 -0.71073,2.21783 l 0,5.42044 -1.58417,0 0,-5.73727 c -10e-6,-0.92481 -0.16271,-1.607 -0.4881,-2.04658 -0.3254,-0.44527 -0.82777,-0.66791 -1.5071,-0.66792 -0.80494,10e-6 -1.44431,0.27403 -1.91813,0.82206 -0.47383,0.54233 -0.71074,1.27876 -0.71074,2.20927 l 0,5.42044 -1.58417,0 0,-9.59066 1.58417,0 0,1.48998 c 0.35965,-0.58799 0.79066,-1.02185 1.29303,-1.30159 0.50236,-0.27972 1.09892,-0.41958 1.78968,-0.41959 0.69646,10e-6 1.28731,0.17698 1.77256,0.53091 0.49094,0.35395 0.85345,0.86773 1.08751,1.54136"
         style="fill:#000000"
         id="path3544" />
      <path
         d="m 135.37197,885.35368 0,0.77068 -7.24437,0 c 0.0685,1.08466 0.3939,1.91242 0.97619,2.48329 0.58799,0.56517 1.40434,0.84775 2.44904,0.84775 0.60512,0 1.19026,-0.0742 1.75543,-0.22264 0.57087,-0.14843 1.13603,-0.37107 1.69549,-0.66793 l 0,1.48998 c -0.56517,0.23977 -1.1446,0.42245 -1.7383,0.54804 -0.59372,0.12559 -1.19599,0.18839 -1.80681,0.18839 -1.52995,0 -2.74305,-0.44528 -3.63931,-1.33584 -0.89057,-0.89056 -1.33585,-2.0951 -1.33585,-3.61363 0,-1.56989 0.42245,-2.81439 1.26734,-3.7335 0.8506,-0.92481 1.9952,-1.38721 3.4338,-1.38722 1.29016,10e-6 2.30917,0.41674 3.05702,1.25021 0.75354,0.82777 1.13032,1.95524 1.13033,3.38242 m -1.57561,-0.46241 c -0.0114,-0.86201 -0.25405,-1.54991 -0.72786,-2.0637 -0.46813,-0.51378 -1.09038,-0.77067 -1.86676,-0.77068 -0.87914,1e-5 -1.58417,0.24834 -2.11508,0.74499 -0.5252,0.49666 -0.82777,1.19598 -0.90769,2.09795 l 5.61739,-0.009"
         style="fill:#000000"
         id="path3546" />
      <path
         d="m 139.5165,878.22919 0,2.72306 3.24541,0 0,1.22452 -3.24541,0 0,5.20636 c 0,0.7821 0.10561,1.28446 0.31684,1.5071 0.21692,0.22264 0.65364,0.33396 1.31015,0.33396 l 1.61842,0 0,1.31872 -1.61842,0 c -1.21596,0 -2.05514,-0.2255 -2.51755,-0.67649 -0.46241,-0.45669 -0.69361,-1.28446 -0.69361,-2.48329 l 0,-5.20636 -1.15602,0 0,-1.22452 1.15602,0 0,-2.72306 1.58417,0"
         style="fill:#000000"
         id="path3548" />
      <path
         d="m 152.81497,884.75426 0,5.78865 -1.5756,0 0,-5.73727 c -1e-5,-0.90768 -0.17698,-1.58702 -0.53092,-2.03801 -0.35394,-0.45098 -0.88485,-0.67648 -1.59273,-0.67649 -0.8506,10e-6 -1.52138,0.27117 -2.01233,0.8135 -0.49095,0.54233 -0.73642,1.28161 -0.73642,2.21783 l 0,5.42044 -1.58417,0 0,-13.32416 1.58417,0 0,5.22348 c 0.37677,-0.57657 0.8192,-1.00758 1.32728,-1.29303 0.51378,-0.28542 1.10463,-0.42814 1.77256,-0.42815 1.10177,10e-6 1.93525,0.34253 2.50042,1.02757 0.56515,0.67935 0.84773,1.68123 0.84774,3.00564"
         style="fill:#000000"
         id="path3550" />
      <path
         d="m 159.69112,882.05689 c -0.84489,1e-5 -1.51281,0.33111 -2.00376,0.99332 -0.49095,0.65651 -0.73643,1.55849 -0.73642,2.70593 -1e-5,1.14746 0.24261,2.05229 0.72786,2.7145 0.49094,0.65651 1.16172,0.98476 2.01232,0.98476 0.83918,0 1.50425,-0.33111 1.9952,-0.99332 0.49094,-0.66221 0.73642,-1.56419 0.73643,-2.70594 -1e-5,-1.13603 -0.24549,-2.03515 -0.73643,-2.69737 -0.49095,-0.66791 -1.15602,-1.00187 -1.9952,-1.00188 m 0,-1.33584 c 1.37009,10e-6 2.44618,0.44529 3.22829,1.33584 0.78208,0.89057 1.17313,2.12365 1.17314,3.69925 -10e-6,1.56991 -0.39106,2.80299 -1.17314,3.69926 -0.78211,0.89056 -1.8582,1.33584 -3.22829,1.33584 -1.3758,0 -2.45475,-0.44528 -3.23684,-1.33584 -0.77639,-0.89627 -1.16458,-2.12935 -1.16458,-3.69926 0,-1.5756 0.38819,-2.80868 1.16458,-3.69925 0.78209,-0.89055 1.86104,-1.33583 3.23684,-1.33584"
         style="fill:#000000"
         id="path3552" />
      <path
         d="m 173.00673,882.40798 0,-5.18923 1.57561,0 0,13.32416 -1.57561,0 0,-1.4386 c -0.33111,0.57087 -0.7507,0.99617 -1.25877,1.2759 -0.50238,0.27402 -1.1075,0.41103 -1.81538,0.41103 -1.15887,0 -2.10366,-0.46241 -2.83438,-1.38722 -0.72501,-0.92481 -1.08751,-2.14077 -1.08751,-3.64788 0,-1.50709 0.3625,-2.72305 1.08751,-3.64787 0.73072,-0.92481 1.67551,-1.38721 2.83438,-1.38722 0.70788,10e-6 1.313,0.13987 1.81538,0.41959 0.50807,0.27403 0.92766,0.69647 1.25877,1.26734 m -5.36905,3.34816 c -10e-6,1.15888 0.23691,2.06942 0.71073,2.73163 0.47953,0.6565 1.13603,0.98475 1.96951,0.98475 0.83347,0 1.48997,-0.32825 1.96951,-0.98475 0.47953,-0.66221 0.71929,-1.57275 0.7193,-2.73163 -1e-5,-1.15886 -0.23977,-2.06655 -0.7193,-2.72306 -0.47954,-0.6622 -1.13604,-0.99331 -1.96951,-0.99332 -0.83348,10e-6 -1.48998,0.33112 -1.96951,0.99332 -0.47382,0.65651 -0.71074,1.5642 -0.71073,2.72306"
         style="fill:#000000"
         id="path3554" />
      <path
         d="m 183.95891,884.54875 c 0.37106,0.1256 0.73071,0.39391 1.07895,0.80493 0.35393,0.41103 0.70787,0.97619 1.06182,1.69549 l 1.75543,3.49374 -1.85819,0 -1.63554,-3.27966 c -0.42246,-0.85631 -0.83349,-1.42433 -1.23309,-1.70406 -0.39391,-0.27972 -0.93338,-0.41958 -1.61842,-0.41959 l -1.88388,0 0,5.40331 -1.72974,0 0,-12.78469 3.90476,0 c 1.46143,10e-6 2.55179,0.30543 3.2711,0.91625 0.71929,0.61085 1.07894,1.5328 1.07895,2.76588 -1e-5,0.80494 -0.1884,1.47286 -0.56516,2.00376 -0.37108,0.53092 -0.91341,0.89913 -1.62699,1.10464 m -4.33292,-5.36906 0,4.53844 2.17502,0 c 0.83347,10e-6 1.46143,-0.19124 1.88388,-0.57373 0.42815,-0.38818 0.64222,-0.9562 0.64223,-1.70405 -1e-5,-0.74784 -0.21408,-1.31014 -0.64223,-1.68693 -0.42245,-0.38247 -1.05041,-0.57372 -1.88388,-0.57373 l -2.17502,0"
         style="fill:#000000"
         id="path3556" />
      <path
         d="m 197.43721,885.35368 0,0.77068 -7.24437,0 c 0.0685,1.08466 0.3939,1.91242 0.97619,2.48329 0.588,0.56517 1.40435,0.84775 2.44905,0.84775 0.60512,0 1.19026,-0.0742 1.75543,-0.22264 0.57086,-0.14843 1.13603,-0.37107 1.69549,-0.66793 l 0,1.48998 c -0.56517,0.23977 -1.14461,0.42245 -1.73831,0.54804 -0.59371,0.12559 -1.19598,0.18839 -1.80681,0.18839 -1.52994,0 -2.74304,-0.44528 -3.63931,-1.33584 -0.89056,-0.89056 -1.33584,-2.0951 -1.33584,-3.61363 0,-1.56989 0.42244,-2.81439 1.26734,-3.7335 0.85059,-0.92481 1.99519,-1.38721 3.43379,-1.38722 1.29017,10e-6 2.30918,0.41674 3.05703,1.25021 0.75354,0.82777 1.13031,1.95524 1.13032,3.38242 m -1.5756,-0.46241 c -0.0114,-0.86201 -0.25405,-1.54991 -0.72787,-2.0637 -0.46812,-0.51378 -1.09037,-0.77067 -1.86675,-0.77068 -0.87915,1e-5 -1.58417,0.24834 -2.11508,0.74499 -0.52521,0.49666 -0.82777,1.19598 -0.90769,2.09795 l 5.61739,-0.009"
         style="fill:#000000"
         id="path3558" />
      <path
         d="m 204.87854,877.21875 0,1.31015 -1.50711,0 c -0.56516,10e-6 -0.95907,0.11419 -1.1817,0.34252 -0.21694,0.22836 -0.3254,0.63939 -0.3254,1.23309 l 0,0.84774 2.59462,0 0,1.22452 -2.59462,0 0,8.36614 -1.58417,0 0,-8.36614 -1.5071,0 0,-1.22452 1.5071,0 0,-0.66792 c 0,-1.06752 0.24833,-1.8439 0.74499,-2.32916 0.49665,-0.49094 1.28446,-0.73641 2.36341,-0.73642 l 1.48998,0"
         style="fill:#000000"
         id="path3560" />
      <path
         d="m 214.39212,885.35368 0,0.77068 -7.24437,0 c 0.0685,1.08466 0.3939,1.91242 0.97619,2.48329 0.588,0.56517 1.40435,0.84775 2.44905,0.84775 0.60512,0 1.19026,-0.0742 1.75543,-0.22264 0.57086,-0.14843 1.13603,-0.37107 1.69549,-0.66793 l 0,1.48998 c -0.56517,0.23977 -1.14461,0.42245 -1.73831,0.54804 -0.59371,0.12559 -1.19598,0.18839 -1.80681,0.18839 -1.52994,0 -2.74304,-0.44528 -3.63931,-1.33584 -0.89056,-0.89056 -1.33584,-2.0951 -1.33584,-3.61363 0,-1.56989 0.42244,-2.81439 1.26734,-3.7335 0.85059,-0.92481 1.99519,-1.38721 3.43379,-1.38722 1.29017,10e-6 2.30918,0.41674 3.05703,1.25021 0.75354,0.82777 1.13031,1.95524 1.13032,3.38242 m -1.5756,-0.46241 c -0.0114,-0.86201 -0.25405,-1.54991 -0.72787,-2.0637 -0.46812,-0.51378 -1.09037,-0.77067 -1.86675,-0.77068 -0.87915,1e-5 -1.58417,0.24834 -2.11508,0.74499 -0.52521,0.49666 -0.82777,1.19598 -0.90769,2.09795 l 5.61739,-0.009"
         style="fill:#000000"
         id="path3562" />
      <path
         d="m 222.53562,882.4251 c -0.17698,-0.10275 -0.37107,-0.17696 -0.58229,-0.22264 -0.20552,-0.0514 -0.43387,-0.0771 -0.68505,-0.0771 -0.89056,10e-6 -1.57561,0.29116 -2.05514,0.87344 -0.47382,0.57659 -0.71074,1.40721 -0.71073,2.49186 l 0,5.05222 -1.58417,0 0,-9.59066 1.58417,0 0,1.48998 c 0.3311,-0.58228 0.76211,-1.01329 1.29302,-1.29303 0.53091,-0.28542 1.17599,-0.42814 1.93526,-0.42815 0.10846,10e-6 0.22834,0.009 0.35965,0.0257 0.13129,0.0114 0.27687,0.0314 0.43672,0.0599 l 0.009,1.61842"
         style="fill:#000000"
         id="path3564" />
      <path
         d="m 232.03208,885.35368 0,0.77068 -7.24437,0 c 0.0685,1.08466 0.3939,1.91242 0.97619,2.48329 0.58799,0.56517 1.40434,0.84775 2.44904,0.84775 0.60512,0 1.19026,-0.0742 1.75543,-0.22264 0.57087,-0.14843 1.13603,-0.37107 1.69549,-0.66793 l 0,1.48998 c -0.56517,0.23977 -1.1446,0.42245 -1.7383,0.54804 -0.59372,0.12559 -1.19599,0.18839 -1.80681,0.18839 -1.52995,0 -2.74305,-0.44528 -3.63931,-1.33584 -0.89057,-0.89056 -1.33585,-2.0951 -1.33585,-3.61363 0,-1.56989 0.42245,-2.81439 1.26734,-3.7335 0.8506,-0.92481 1.9952,-1.38721 3.4338,-1.38722 1.29016,10e-6 2.30917,0.41674 3.05702,1.25021 0.75354,0.82777 1.13032,1.95524 1.13033,3.38242 m -1.57561,-0.46241 c -0.0114,-0.86201 -0.25405,-1.54991 -0.72786,-2.0637 -0.46813,-0.51378 -1.09038,-0.77067 -1.86676,-0.77068 -0.87914,1e-5 -1.58417,0.24834 -2.11508,0.74499 -0.5252,0.49666 -0.82777,1.19598 -0.90768,2.09795 l 5.61738,-0.009"
         style="fill:#000000"
         id="path3566" />
      <path
         d="m 242.59036,884.75426 0,5.78865 -1.5756,0 0,-5.73727 c -1e-5,-0.90768 -0.17698,-1.58702 -0.53092,-2.03801 -0.35394,-0.45098 -0.88485,-0.67648 -1.59273,-0.67649 -0.8506,10e-6 -1.52138,0.27117 -2.01232,0.8135 -0.49096,0.54233 -0.73643,1.28161 -0.73643,2.21783 l 0,5.42044 -1.58417,0 0,-9.59066 1.58417,0 0,1.48998 c 0.37677,-0.57657 0.8192,-1.00758 1.32728,-1.29303 0.51378,-0.28542 1.10463,-0.42814 1.77256,-0.42815 1.10177,10e-6 1.93525,0.34253 2.50042,1.02757 0.56515,0.67935 0.84773,1.68123 0.84774,3.00564"
         style="fill:#000000"
         id="path3568" />
      <path
         d="m 252.65198,881.32046 0,1.47286 c -0.44529,-0.24547 -0.89342,-0.42815 -1.3444,-0.54804 -0.44529,-0.12559 -0.89628,-0.18838 -1.35297,-0.18839 -1.02187,1e-5 -1.81538,0.32541 -2.38054,0.97619 -0.56516,0.64509 -0.84775,1.55278 -0.84774,2.72306 -1e-5,1.17029 0.28258,2.08084 0.84774,2.73163 0.56516,0.64508 1.35867,0.96763 2.38054,0.96763 0.45669,0 0.90768,-0.0599 1.35297,-0.17983 0.45098,-0.12559 0.89911,-0.31112 1.3444,-0.5566 l 0,1.45573 c -0.43958,0.20551 -0.89628,0.35964 -1.37009,0.4624 -0.46812,0.10276 -0.96764,0.15414 -1.49854,0.15414 -1.44431,0 -2.59177,-0.45385 -3.44236,-1.36153 -0.8506,-0.90769 -1.2759,-2.13221 -1.2759,-3.67357 0,-1.56418 0.42815,-2.79441 1.28446,-3.69069 0.86201,-0.89626 2.04087,-1.34439 3.53656,-1.3444 0.48523,10e-6 0.95905,0.0514 1.42147,0.15413 0.4624,0.0971 0.91053,0.24549 1.3444,0.44528"
         style="fill:#000000"
         id="path3570" />
      <path
         d="m 263.61274,885.35368 0,0.77068 -7.24438,0 c 0.0685,1.08466 0.3939,1.91242 0.9762,2.48329 0.58799,0.56517 1.40434,0.84775 2.44904,0.84775 0.60512,0 1.19026,-0.0742 1.75543,-0.22264 0.57087,-0.14843 1.13603,-0.37107 1.69549,-0.66793 l 0,1.48998 c -0.56517,0.23977 -1.1446,0.42245 -1.7383,0.54804 -0.59372,0.12559 -1.19599,0.18839 -1.80681,0.18839 -1.52995,0 -2.74305,-0.44528 -3.63932,-1.33584 -0.89056,-0.89056 -1.33584,-2.0951 -1.33584,-3.61363 0,-1.56989 0.42245,-2.81439 1.26734,-3.7335 0.8506,-0.92481 1.99519,-1.38721 3.4338,-1.38722 1.29016,10e-6 2.30917,0.41674 3.05702,1.25021 0.75354,0.82777 1.13032,1.95524 1.13033,3.38242 m -1.57561,-0.46241 c -0.0114,-0.86201 -0.25405,-1.54991 -0.72786,-2.0637 -0.46813,-0.51378 -1.09038,-0.77067 -1.86676,-0.77068 -0.87915,1e-5 -1.58417,0.24834 -2.11508,0.74499 -0.52521,0.49666 -0.82777,1.19598 -0.90769,2.09795 l 5.61739,-0.009"
         style="fill:#000000"
         id="path3572" />
      <path
         d="m 275.5668,877.23587 c -0.76497,1.31302 -1.33299,2.61175 -1.70405,3.89621 -0.37107,1.28447 -0.55661,2.58606 -0.5566,3.90476 -10e-6,1.31872 0.18553,2.62602 0.5566,3.9219 0.37677,1.29017 0.94479,2.5889 1.70405,3.8962 l -1.37009,0 c -0.85631,-1.34155 -1.49854,-2.66026 -1.9267,-3.95614 -0.42244,-1.29588 -0.63367,-2.5832 -0.63366,-3.86196 -10e-6,-1.27303 0.21122,-2.55464 0.63366,-3.84482 0.42245,-1.29016 1.06468,-2.60888 1.9267,-3.95615 l 1.37009,0"
         style="fill:#000000"
         id="path3574" />
      <path
         d="m 280.15661,889.10431 0,5.08647 -1.58417,0 0,-13.23853 1.58417,0 0,1.45573 c 0.3311,-0.57087 0.74784,-0.99331 1.25021,-1.26734 0.50807,-0.27972 1.1132,-0.41958 1.81538,-0.41959 1.16457,10e-6 2.10936,0.46241 2.83438,1.38722 0.7307,0.92482 1.09606,2.14078 1.09607,3.64787 -10e-6,1.50711 -0.36537,2.72307 -1.09607,3.64788 -0.72502,0.92481 -1.66981,1.38722 -2.83438,1.38722 -0.70218,0 -1.30731,-0.13701 -1.81538,-0.41103 -0.50237,-0.27973 -0.91911,-0.70503 -1.25021,-1.2759 m 5.36049,-3.34817 c -1e-5,-1.15886 -0.23977,-2.06655 -0.7193,-2.72306 -0.47383,-0.6622 -1.12748,-0.99331 -1.96094,-0.99332 -0.83348,10e-6 -1.48998,0.33112 -1.96951,0.99332 -0.47383,0.65651 -0.71074,1.5642 -0.71074,2.72306 0,1.15888 0.23691,2.06942 0.71074,2.73163 0.47953,0.6565 1.13603,0.98475 1.96951,0.98475 0.83346,0 1.48711,-0.32825 1.96094,-0.98475 0.47953,-0.66221 0.71929,-1.57275 0.7193,-2.73163"
         style="fill:#0000ff"
         id="path3576" />
      <path
         d="m 294.12301,885.72189 c -1.27305,10e-6 -2.15504,0.14558 -2.64599,0.43672 -0.49095,0.29115 -0.73643,0.78781 -0.73643,1.48997 0,0.55946 0.18268,1.00474 0.54804,1.33585 0.37106,0.32539 0.87343,0.48809 1.5071,0.48809 0.87343,0 1.57275,-0.30827 2.09796,-0.92481 0.5309,-0.62225 0.79636,-1.44716 0.79637,-2.47473 l 0,-0.35109 -1.56705,0 m 3.14265,-0.65079 0,5.47181 -1.5756,0 0,-1.45573 c -0.35966,0.58229 -0.80779,1.0133 -1.34441,1.29303 -0.53662,0.27402 -1.19313,0.41103 -1.96951,0.41103 -0.9819,0 -1.764,-0.27402 -2.34628,-0.82206 -0.57659,-0.55374 -0.86488,-1.29302 -0.86487,-2.21784 -10e-6,-1.07894 0.35964,-1.89244 1.07894,-2.44048 0.72501,-0.54803 1.80396,-0.82205 3.23685,-0.82205 l 2.20928,0 0,-0.15414 c -1e-5,-0.725 -0.23978,-1.28445 -0.7193,-1.67836 -0.47383,-0.39961 -1.14175,-0.59941 -2.00376,-0.59942 -0.54805,1e-5 -1.08181,0.0657 -1.6013,0.19695 -0.5195,0.13131 -1.01901,0.32826 -1.49854,0.59085 l 0,-1.45572 c 0.57658,-0.22263 1.13603,-0.38818 1.67836,-0.49666 0.54233,-0.11416 1.07038,-0.17125 1.58417,-0.17126 1.38722,10e-6 2.42335,0.35966 3.1084,1.07895 0.68504,0.7193 1.02757,1.80967 1.02757,3.2711"
         style="fill:#0000ff"
         id="path3578" />
      <path
         d="m 306.07706,882.4251 c -0.17697,-0.10275 -0.37107,-0.17696 -0.58229,-0.22264 -0.20552,-0.0514 -0.43387,-0.0771 -0.68504,-0.0771 -0.89057,10e-6 -1.57562,0.29116 -2.05514,0.87344 -0.47383,0.57659 -0.71074,1.40721 -0.71074,2.49186 l 0,5.05222 -1.58417,0 0,-9.59066 1.58417,0 0,1.48998 c 0.3311,-0.58228 0.76211,-1.01329 1.29303,-1.29303 0.5309,-0.28542 1.17599,-0.42814 1.93525,-0.42815 0.10846,10e-6 0.22835,0.009 0.35965,0.0257 0.1313,0.0114 0.27687,0.0314 0.43672,0.0599 l 0.009,1.61842"
         style="fill:#0000ff"
         id="path3580" />
      <path
         d="m 312.1055,885.72189 c -1.27305,10e-6 -2.15505,0.14558 -2.646,0.43672 -0.49095,0.29115 -0.73643,0.78781 -0.73642,1.48997 -10e-6,0.55946 0.18267,1.00474 0.54803,1.33585 0.37107,0.32539 0.87343,0.48809 1.50711,0.48809 0.87343,0 1.57274,-0.30827 2.09795,-0.92481 0.53091,-0.62225 0.79636,-1.44716 0.79637,-2.47473 l 0,-0.35109 -1.56704,0 m 3.14265,-0.65079 0,5.47181 -1.57561,0 0,-1.45573 c -0.35966,0.58229 -0.80779,1.0133 -1.3444,1.29303 -0.53663,0.27402 -1.19313,0.41103 -1.96951,0.41103 -0.98191,0 -1.764,-0.27402 -2.34629,-0.82206 -0.57658,-0.55374 -0.86487,-1.29302 -0.86487,-2.21784 0,-1.07894 0.35965,-1.89244 1.07895,-2.44048 0.725,-0.54803 1.80395,-0.82205 3.23684,-0.82205 l 2.20928,0 0,-0.15414 c -1e-5,-0.725 -0.23977,-1.28445 -0.7193,-1.67836 -0.47383,-0.39961 -1.14175,-0.59941 -2.00376,-0.59942 -0.54804,1e-5 -1.08181,0.0657 -1.6013,0.19695 -0.51949,0.13131 -1.01901,0.32826 -1.49854,0.59085 l 0,-1.45572 c 0.57658,-0.22263 1.13603,-0.38818 1.67837,-0.49666 0.54232,-0.11416 1.07038,-0.17125 1.58417,-0.17126 1.38721,10e-6 2.42334,0.35966 3.1084,1.07895 0.68504,0.7193 1.02756,1.80967 1.02757,3.2711"
         style="fill:#0000ff"
         id="path3582" />
      <path
         d="m 325.96911,882.79332 c 0.3939,-0.70788 0.86487,-1.23023 1.41291,-1.56705 0.54803,-0.3368 1.19311,-0.50521 1.93526,-0.50522 0.99901,10e-6 1.76969,0.35109 2.31203,1.05326 0.54232,0.69647 0.81348,1.68979 0.8135,2.97995 l 0,5.78865 -1.58417,0 0,-5.73727 c -2e-5,-0.9191 -0.16272,-1.60129 -0.4881,-2.04658 -0.32541,-0.44527 -0.82207,-0.66791 -1.48998,-0.66792 -0.81636,10e-6 -1.46144,0.27117 -1.93525,0.8135 -0.47384,0.54233 -0.71075,1.28161 -0.71074,2.21783 l 0,5.42044 -1.58417,0 0,-5.73727 c -10e-6,-0.92481 -0.16271,-1.607 -0.4881,-2.04658 -0.3254,-0.44527 -0.82777,-0.66791 -1.5071,-0.66792 -0.80494,10e-6 -1.44431,0.27403 -1.91813,0.82206 -0.47383,0.54233 -0.71074,1.27876 -0.71074,2.20927 l 0,5.42044 -1.58417,0 0,-9.59066 1.58417,0 0,1.48998 c 0.35965,-0.58799 0.79066,-1.02185 1.29303,-1.30159 0.50236,-0.27972 1.09892,-0.41958 1.78968,-0.41959 0.69646,10e-6 1.28731,0.17698 1.77256,0.53091 0.49094,0.35395 0.85345,0.86773 1.08751,1.54136"
         style="fill:#0000ff"
         id="path3584" />
      <path
         d="m 343.79746,885.35368 0,0.77068 -7.24437,0 c 0.0685,1.08466 0.3939,1.91242 0.97619,2.48329 0.58799,0.56517 1.40434,0.84775 2.44904,0.84775 0.60512,0 1.19026,-0.0742 1.75543,-0.22264 0.57087,-0.14843 1.13603,-0.37107 1.6955,-0.66793 l 0,1.48998 c -0.56518,0.23977 -1.14461,0.42245 -1.73831,0.54804 -0.59372,0.12559 -1.19599,0.18839 -1.80681,0.18839 -1.52994,0 -2.74305,-0.44528 -3.63931,-1.33584 -0.89057,-0.89056 -1.33585,-2.0951 -1.33584,-3.61363 -10e-6,-1.56989 0.42244,-2.81439 1.26733,-3.7335 0.8506,-0.92481 1.9952,-1.38721 3.4338,-1.38722 1.29016,10e-6 2.30917,0.41674 3.05702,1.25021 0.75354,0.82777 1.13032,1.95524 1.13033,3.38242 m -1.57561,-0.46241 c -0.0114,-0.86201 -0.25405,-1.54991 -0.72786,-2.0637 -0.46812,-0.51378 -1.09037,-0.77067 -1.86675,-0.77068 -0.87915,1e-5 -1.58418,0.24834 -2.11509,0.74499 -0.5252,0.49666 -0.82776,1.19598 -0.90768,2.09795 l 5.61738,-0.009"
         style="fill:#0000ff"
         id="path3586" />
      <path
         d="m 347.94199,878.22919 0,2.72306 3.24541,0 0,1.22452 -3.24541,0 0,5.20636 c 0,0.7821 0.10561,1.28446 0.31684,1.5071 0.21693,0.22264 0.65364,0.33396 1.31015,0.33396 l 1.61842,0 0,1.31872 -1.61842,0 c -1.21596,0 -2.05514,-0.2255 -2.51755,-0.67649 -0.46241,-0.45669 -0.69361,-1.28446 -0.69361,-2.48329 l 0,-5.20636 -1.15601,0 0,-1.22452 1.15601,0 0,-2.72306 1.58417,0"
         style="fill:#0000ff"
         id="path3588" />
      <path
         d="m 361.47168,885.35368 0,0.77068 -7.24437,0 c 0.0685,1.08466 0.3939,1.91242 0.97619,2.48329 0.588,0.56517 1.40435,0.84775 2.44905,0.84775 0.60511,0 1.19026,-0.0742 1.75543,-0.22264 0.57086,-0.14843 1.13603,-0.37107 1.69549,-0.66793 l 0,1.48998 c -0.56517,0.23977 -1.14461,0.42245 -1.73831,0.54804 -0.59371,0.12559 -1.19598,0.18839 -1.80681,0.18839 -1.52994,0 -2.74304,-0.44528 -3.63931,-1.33584 -0.89056,-0.89056 -1.33584,-2.0951 -1.33584,-3.61363 0,-1.56989 0.42244,-2.81439 1.26734,-3.7335 0.85059,-0.92481 1.99519,-1.38721 3.43379,-1.38722 1.29017,10e-6 2.30917,0.41674 3.05703,1.25021 0.75354,0.82777 1.13031,1.95524 1.13032,3.38242 m -1.5756,-0.46241 c -0.0114,-0.86201 -0.25405,-1.54991 -0.72787,-2.0637 -0.46812,-0.51378 -1.09037,-0.77067 -1.86675,-0.77068 -0.87915,1e-5 -1.58417,0.24834 -2.11508,0.74499 -0.52521,0.49666 -0.82777,1.19598 -0.90769,2.09795 l 5.61739,-0.009"
         style="fill:#0000ff"
         id="path3590" />
      <path
         d="m 369.61518,882.4251 c -0.17698,-0.10275 -0.37107,-0.17696 -0.58229,-0.22264 -0.20552,-0.0514 -0.43387,-0.0771 -0.68505,-0.0771 -0.89056,10e-6 -1.57561,0.29116 -2.05514,0.87344 -0.47383,0.57659 -0.71074,1.40721 -0.71073,2.49186 l 0,5.05222 -1.58417,0 0,-9.59066 1.58417,0 0,1.48998 c 0.3311,-0.58228 0.76211,-1.01329 1.29302,-1.29303 0.53091,-0.28542 1.17599,-0.42814 1.93526,-0.42815 0.10846,10e-6 0.22834,0.009 0.35965,0.0257 0.13129,0.0114 0.27686,0.0314 0.43672,0.0599 l 0.009,1.61842"
         style="fill:#0000ff"
         id="path3592" />
      <path
         d="m 369.58092,877.75822 10.81517,0 0,1.45573 -4.53843,0 0,11.32896 -1.73831,0 0,-11.32896 -4.53843,0 0,-1.45573"
         style="fill:#0000ff"
         id="path3594" />
      <path
         d="m 383.25617,891.43347 c -0.44528,1.14174 -0.87915,1.88673 -1.30159,2.23496 -0.42245,0.34823 -0.98761,0.52235 -1.69549,0.52235 l -1.25877,0 0,-1.31871 0.92481,0 c 0.43386,-10e-6 0.77068,-0.10276 1.01045,-0.30827 0.23976,-0.20552 0.50521,-0.69076 0.79636,-1.45573 l 0.28259,-0.7193 -3.87908,-9.43652 1.6698,0 2.99708,7.50126 2.99708,-7.50126 1.6698,0 -4.21304,10.48122"
         style="fill:#0000ff"
         id="path3596" />
      <path
         d="m 391.16845,889.10431 0,5.08647 -1.58417,0 0,-13.23853 1.58417,0 0,1.45573 c 0.33111,-0.57087 0.74784,-0.99331 1.25021,-1.26734 0.50807,-0.27972 1.1132,-0.41958 1.81538,-0.41959 1.16457,10e-6 2.10936,0.46241 2.83438,1.38722 0.73071,0.92482 1.09606,2.14078 1.09607,3.64787 -10e-6,1.50711 -0.36536,2.72307 -1.09607,3.64788 -0.72502,0.92481 -1.66981,1.38722 -2.83438,1.38722 -0.70218,0 -1.30731,-0.13701 -1.81538,-0.41103 -0.50237,-0.27973 -0.9191,-0.70503 -1.25021,-1.2759 m 5.36049,-3.34817 c 0,-1.15886 -0.23977,-2.06655 -0.71929,-2.72306 -0.47384,-0.6622 -1.12748,-0.99331 -1.96095,-0.99332 -0.83348,10e-6 -1.48998,0.33112 -1.96951,0.99332 -0.47383,0.65651 -0.71074,1.5642 -0.71074,2.72306 0,1.15888 0.23691,2.06942 0.71074,2.73163 0.47953,0.6565 1.13603,0.98475 1.96951,0.98475 0.83347,0 1.48711,-0.32825 1.96095,-0.98475 0.47952,-0.66221 0.71929,-1.57275 0.71929,-2.73163"
         style="fill:#0000ff"
         id="path3598" />
      <path
         d="m 408.97968,885.35368 0,0.77068 -7.24437,0 c 0.0685,1.08466 0.3939,1.91242 0.97619,2.48329 0.58799,0.56517 1.40434,0.84775 2.44904,0.84775 0.60512,0 1.19026,-0.0742 1.75543,-0.22264 0.57087,-0.14843 1.13603,-0.37107 1.6955,-0.66793 l 0,1.48998 c -0.56518,0.23977 -1.14461,0.42245 -1.73831,0.54804 -0.59371,0.12559 -1.19598,0.18839 -1.80681,0.18839 -1.52994,0 -2.74305,-0.44528 -3.63931,-1.33584 -0.89057,-0.89056 -1.33585,-2.0951 -1.33584,-3.61363 -1e-5,-1.56989 0.42244,-2.81439 1.26733,-3.7335 0.8506,-0.92481 1.9952,-1.38721 3.4338,-1.38722 1.29016,10e-6 2.30917,0.41674 3.05702,1.25021 0.75354,0.82777 1.13032,1.95524 1.13033,3.38242 m -1.57561,-0.46241 c -0.0114,-0.86201 -0.25405,-1.54991 -0.72786,-2.0637 -0.46812,-0.51378 -1.09037,-0.77067 -1.86675,-0.77068 -0.87915,1e-5 -1.58418,0.24834 -2.11509,0.74499 -0.5252,0.49666 -0.82776,1.19598 -0.90768,2.09795 l 5.61738,-0.009"
         style="fill:#0000ff"
         id="path3600" />
      <path
         d="m 418.67309,889.10431 0,5.08647 -1.58417,0 0,-13.23853 1.58417,0 0,1.45573 c 0.3311,-0.57087 0.74784,-0.99331 1.25021,-1.26734 0.50807,-0.27972 1.1132,-0.41958 1.81538,-0.41959 1.16457,10e-6 2.10936,0.46241 2.83438,1.38722 0.7307,0.92482 1.09606,2.14078 1.09607,3.64787 -10e-6,1.50711 -0.36537,2.72307 -1.09607,3.64788 -0.72502,0.92481 -1.66981,1.38722 -2.83438,1.38722 -0.70218,0 -1.30731,-0.13701 -1.81538,-0.41103 -0.50237,-0.27973 -0.91911,-0.70503 -1.25021,-1.2759 m 5.36049,-3.34817 c -10e-6,-1.15886 -0.23977,-2.06655 -0.7193,-2.72306 -0.47383,-0.6622 -1.12748,-0.99331 -1.96094,-0.99332 -0.83348,10e-6 -1.48998,0.33112 -1.96951,0.99332 -0.47383,0.65651 -0.71074,1.5642 -0.71074,2.72306 0,1.15888 0.23691,2.06942 0.71074,2.73163 0.47953,0.6565 1.13603,0.98475 1.96951,0.98475 0.83346,0 1.48711,-0.32825 1.96094,-0.98475 0.47953,-0.66221 0.71929,-1.57275 0.7193,-2.73163"
         style="fill:#000000"
         id="path3602" />
      <path
         d="m 432.63949,885.72189 c -1.27305,10e-6 -2.15505,0.14558 -2.64599,0.43672 -0.49095,0.29115 -0.73643,0.78781 -0.73643,1.48997 0,0.55946 0.18268,1.00474 0.54804,1.33585 0.37106,0.32539 0.87343,0.48809 1.5071,0.48809 0.87343,0 1.57275,-0.30827 2.09796,-0.92481 0.5309,-0.62225 0.79636,-1.44716 0.79637,-2.47473 l 0,-0.35109 -1.56705,0 m 3.14265,-0.65079 0,5.47181 -1.5756,0 0,-1.45573 c -0.35966,0.58229 -0.80779,1.0133 -1.34441,1.29303 -0.53662,0.27402 -1.19313,0.41103 -1.96951,0.41103 -0.9819,0 -1.764,-0.27402 -2.34628,-0.82206 -0.57659,-0.55374 -0.86488,-1.29302 -0.86487,-2.21784 -10e-6,-1.07894 0.35964,-1.89244 1.07894,-2.44048 0.72501,-0.54803 1.80396,-0.82205 3.23685,-0.82205 l 2.20928,0 0,-0.15414 c -1e-5,-0.725 -0.23978,-1.28445 -0.7193,-1.67836 -0.47383,-0.39961 -1.14175,-0.59941 -2.00376,-0.59942 -0.54805,1e-5 -1.08181,0.0657 -1.6013,0.19695 -0.5195,0.13131 -1.01901,0.32826 -1.49854,0.59085 l 0,-1.45572 c 0.57658,-0.22263 1.13603,-0.38818 1.67836,-0.49666 0.54233,-0.11416 1.07038,-0.17125 1.58417,-0.17126 1.38722,10e-6 2.42335,0.35966 3.1084,1.07895 0.68504,0.7193 1.02756,1.80967 1.02757,3.2711"
         style="fill:#000000"
         id="path3604" />
      <path
         d="m 444.59354,882.4251 c -0.17698,-0.10275 -0.37107,-0.17696 -0.58229,-0.22264 -0.20552,-0.0514 -0.43387,-0.0771 -0.68504,-0.0771 -0.89057,10e-6 -1.57562,0.29116 -2.05514,0.87344 -0.47383,0.57659 -0.71074,1.40721 -0.71074,2.49186 l 0,5.05222 -1.58417,0 0,-9.59066 1.58417,0 0,1.48998 c 0.3311,-0.58228 0.76211,-1.01329 1.29302,-1.29303 0.53091,-0.28542 1.176,-0.42814 1.93526,-0.42815 0.10846,10e-6 0.22834,0.009 0.35965,0.0257 0.1313,0.0114 0.27687,0.0314 0.43672,0.0599 l 0.009,1.61842"
         style="fill:#000000"
         id="path3606" />
      <path
         d="m 450.62197,885.72189 c -1.27305,10e-6 -2.15504,0.14558 -2.64599,0.43672 -0.49095,0.29115 -0.73643,0.78781 -0.73642,1.48997 -10e-6,0.55946 0.18267,1.00474 0.54803,1.33585 0.37107,0.32539 0.87343,0.48809 1.50711,0.48809 0.87343,0 1.57274,-0.30827 2.09795,-0.92481 0.53091,-0.62225 0.79636,-1.44716 0.79637,-2.47473 l 0,-0.35109 -1.56705,0 m 3.14266,-0.65079 0,5.47181 -1.57561,0 0,-1.45573 c -0.35966,0.58229 -0.80779,1.0133 -1.34441,1.29303 -0.53662,0.27402 -1.19312,0.41103 -1.9695,0.41103 -0.98191,0 -1.764,-0.27402 -2.34629,-0.82206 -0.57658,-0.55374 -0.86487,-1.29302 -0.86487,-2.21784 0,-1.07894 0.35965,-1.89244 1.07895,-2.44048 0.725,-0.54803 1.80395,-0.82205 3.23684,-0.82205 l 2.20928,0 0,-0.15414 c -1e-5,-0.725 -0.23977,-1.28445 -0.7193,-1.67836 -0.47383,-0.39961 -1.14175,-0.59941 -2.00376,-0.59942 -0.54804,1e-5 -1.08181,0.0657 -1.6013,0.19695 -0.5195,0.13131 -1.01901,0.32826 -1.49854,0.59085 l 0,-1.45572 c 0.57658,-0.22263 1.13603,-0.38818 1.67837,-0.49666 0.54232,-0.11416 1.07038,-0.17125 1.58417,-0.17126 1.38721,10e-6 2.42334,0.35966 3.1084,1.07895 0.68503,0.7193 1.02756,1.80967 1.02757,3.2711"
         style="fill:#000000"
         id="path3608" />
      <path
         d="m 464.48559,882.79332 c 0.3939,-0.70788 0.86486,-1.23023 1.41291,-1.56705 0.54803,-0.3368 1.19311,-0.50521 1.93526,-0.50522 0.99901,10e-6 1.76969,0.35109 2.31203,1.05326 0.54232,0.69647 0.81348,1.68979 0.8135,2.97995 l 0,5.78865 -1.58417,0 0,-5.73727 c -2e-5,-0.9191 -0.16272,-1.60129 -0.4881,-2.04658 -0.32541,-0.44527 -0.82207,-0.66791 -1.48998,-0.66792 -0.81636,10e-6 -1.46144,0.27117 -1.93526,0.8135 -0.47383,0.54233 -0.71074,1.28161 -0.71073,2.21783 l 0,5.42044 -1.58417,0 0,-5.73727 c -10e-6,-0.92481 -0.16271,-1.607 -0.4881,-2.04658 -0.3254,-0.44527 -0.82777,-0.66791 -1.5071,-0.66792 -0.80494,10e-6 -1.44431,0.27403 -1.91813,0.82206 -0.47383,0.54233 -0.71074,1.27876 -0.71074,2.20927 l 0,5.42044 -1.58417,0 0,-9.59066 1.58417,0 0,1.48998 c 0.35965,-0.58799 0.79066,-1.02185 1.29303,-1.30159 0.50236,-0.27972 1.09892,-0.41958 1.78968,-0.41959 0.69646,10e-6 1.28731,0.17698 1.77256,0.53091 0.49094,0.35395 0.85345,0.86773 1.08751,1.54136"
         style="fill:#000000"
         id="path3610" />
      <path
         d="m 482.31394,885.35368 0,0.77068 -7.24437,0 c 0.0685,1.08466 0.3939,1.91242 0.97619,2.48329 0.58799,0.56517 1.40434,0.84775 2.44904,0.84775 0.60512,0 1.19026,-0.0742 1.75543,-0.22264 0.57087,-0.14843 1.13603,-0.37107 1.69549,-0.66793 l 0,1.48998 c -0.56517,0.23977 -1.1446,0.42245 -1.7383,0.54804 -0.59372,0.12559 -1.19599,0.18839 -1.80681,0.18839 -1.52994,0 -2.74305,-0.44528 -3.63931,-1.33584 -0.89057,-0.89056 -1.33585,-2.0951 -1.33585,-3.61363 0,-1.56989 0.42245,-2.81439 1.26734,-3.7335 0.8506,-0.92481 1.9952,-1.38721 3.4338,-1.38722 1.29016,10e-6 2.30917,0.41674 3.05702,1.25021 0.75354,0.82777 1.13032,1.95524 1.13033,3.38242 m -1.57561,-0.46241 c -0.0114,-0.86201 -0.25405,-1.54991 -0.72786,-2.0637 -0.46812,-0.51378 -1.09038,-0.77067 -1.86676,-0.77068 -0.87914,1e-5 -1.58417,0.24834 -2.11508,0.74499 -0.5252,0.49666 -0.82776,1.19598 -0.90768,2.09795 l 5.61738,-0.009"
         style="fill:#000000"
         id="path3612" />
      <path
         d="m 486.45847,878.22919 0,2.72306 3.24541,0 0,1.22452 -3.24541,0 0,5.20636 c 0,0.7821 0.10561,1.28446 0.31684,1.5071 0.21692,0.22264 0.65364,0.33396 1.31015,0.33396 l 1.61842,0 0,1.31872 -1.61842,0 c -1.21596,0 -2.05514,-0.2255 -2.51755,-0.67649 -0.46241,-0.45669 -0.69361,-1.28446 -0.69361,-2.48329 l 0,-5.20636 -1.15601,0 0,-1.22452 1.15601,0 0,-2.72306 1.58417,0"
         style="fill:#000000"
         id="path3614" />
      <path
         d="m 499.98816,885.35368 0,0.77068 -7.24437,0 c 0.0685,1.08466 0.3939,1.91242 0.97619,2.48329 0.588,0.56517 1.40434,0.84775 2.44905,0.84775 0.60511,0 1.19026,-0.0742 1.75543,-0.22264 0.57086,-0.14843 1.13603,-0.37107 1.69549,-0.66793 l 0,1.48998 c -0.56517,0.23977 -1.14461,0.42245 -1.73831,0.54804 -0.59371,0.12559 -1.19598,0.18839 -1.80681,0.18839 -1.52994,0 -2.74304,-0.44528 -3.63931,-1.33584 -0.89056,-0.89056 -1.33584,-2.0951 -1.33584,-3.61363 0,-1.56989 0.42244,-2.81439 1.26734,-3.7335 0.85059,-0.92481 1.99519,-1.38721 3.43379,-1.38722 1.29017,10e-6 2.30917,0.41674 3.05703,1.25021 0.75354,0.82777 1.13031,1.95524 1.13032,3.38242 m -1.57561,-0.46241 c -0.0114,-0.86201 -0.25404,-1.54991 -0.72786,-2.0637 -0.46812,-0.51378 -1.09037,-0.77067 -1.86675,-0.77068 -0.87915,1e-5 -1.58418,0.24834 -2.11508,0.74499 -0.52521,0.49666 -0.82777,1.19598 -0.90769,2.09795 l 5.61738,-0.009"
         style="fill:#000000"
         id="path3616" />
      <path
         d="m 508.13166,882.4251 c -0.17698,-0.10275 -0.37108,-0.17696 -0.58229,-0.22264 -0.20552,-0.0514 -0.43387,-0.0771 -0.68505,-0.0771 -0.89056,10e-6 -1.57561,0.29116 -2.05514,0.87344 -0.47383,0.57659 -0.71074,1.40721 -0.71073,2.49186 l 0,5.05222 -1.58418,0 0,-9.59066 1.58418,0 0,1.48998 c 0.3311,-0.58228 0.76211,-1.01329 1.29302,-1.29303 0.53091,-0.28542 1.17599,-0.42814 1.93526,-0.42815 0.10846,10e-6 0.22834,0.009 0.35965,0.0257 0.13129,0.0114 0.27686,0.0314 0.43672,0.0599 l 0.009,1.61842"
         style="fill:#000000"
         id="path3618" />
      <path
         d="m 509.86995,877.75822 2.32916,0 5.66877,10.69529 0,-10.69529 1.67836,0 0,12.78469 -2.32916,0 -5.66876,-10.6953 0,10.6953 -1.67837,0 0,-12.78469"
         style="fill:#000000"
         id="path3620" />
      <path
         d="m 527.27868,885.72189 c -1.27305,10e-6 -2.15504,0.14558 -2.64599,0.43672 -0.49095,0.29115 -0.73643,0.78781 -0.73643,1.48997 0,0.55946 0.18268,1.00474 0.54804,1.33585 0.37106,0.32539 0.87343,0.48809 1.5071,0.48809 0.87343,0 1.57275,-0.30827 2.09796,-0.92481 0.5309,-0.62225 0.79636,-1.44716 0.79637,-2.47473 l 0,-0.35109 -1.56705,0 m 3.14265,-0.65079 0,5.47181 -1.5756,0 0,-1.45573 c -0.35966,0.58229 -0.80779,1.0133 -1.34441,1.29303 -0.53662,0.27402 -1.19313,0.41103 -1.96951,0.41103 -0.9819,0 -1.764,-0.27402 -2.34628,-0.82206 -0.57658,-0.55374 -0.86488,-1.29302 -0.86487,-2.21784 -10e-6,-1.07894 0.35964,-1.89244 1.07894,-2.44048 0.72501,-0.54803 1.80396,-0.82205 3.23685,-0.82205 l 2.20928,0 0,-0.15414 c -10e-6,-0.725 -0.23978,-1.28445 -0.7193,-1.67836 -0.47383,-0.39961 -1.14175,-0.59941 -2.00376,-0.59942 -0.54805,1e-5 -1.08181,0.0657 -1.6013,0.19695 -0.5195,0.13131 -1.01901,0.32826 -1.49854,0.59085 l 0,-1.45572 c 0.57658,-0.22263 1.13603,-0.38818 1.67836,-0.49666 0.54233,-0.11416 1.07038,-0.17125 1.58417,-0.17126 1.38722,10e-6 2.42335,0.35966 3.1084,1.07895 0.68504,0.7193 1.02757,1.80967 1.02757,3.2711"
         style="fill:#000000"
         id="path3622" />
      <path
         d="m 541.14233,882.79332 c 0.39389,-0.70788 0.86486,-1.23023 1.41291,-1.56705 0.54803,-0.3368 1.19311,-0.50521 1.93526,-0.50522 0.99901,10e-6 1.76969,0.35109 2.31203,1.05326 0.54231,0.69647 0.81348,1.68979 0.81349,2.97995 l 0,5.78865 -1.58417,0 0,-5.73727 c -10e-6,-0.9191 -0.16271,-1.60129 -0.48809,-2.04658 -0.32541,-0.44527 -0.82207,-0.66791 -1.48998,-0.66792 -0.81636,10e-6 -1.46144,0.27117 -1.93526,0.8135 -0.47383,0.54233 -0.71074,1.28161 -0.71073,2.21783 l 0,5.42044 -1.58417,0 0,-5.73727 c -10e-6,-0.92481 -0.16271,-1.607 -0.4881,-2.04658 -0.3254,-0.44527 -0.82777,-0.66791 -1.5071,-0.66792 -0.80494,10e-6 -1.44431,0.27403 -1.91813,0.82206 -0.47383,0.54233 -0.71074,1.27876 -0.71074,2.20927 l 0,5.42044 -1.58417,0 0,-9.59066 1.58417,0 0,1.48998 c 0.35965,-0.58799 0.79065,-1.02185 1.29303,-1.30159 0.50236,-0.27972 1.09892,-0.41958 1.78968,-0.41959 0.69646,10e-6 1.28731,0.17698 1.77256,0.53091 0.49094,0.35395 0.85344,0.86773 1.08751,1.54136"
         style="fill:#000000"
         id="path3624" />
      <path
         d="m 558.97068,885.35368 0,0.77068 -7.24437,0 c 0.0685,1.08466 0.39389,1.91242 0.97619,2.48329 0.58799,0.56517 1.40434,0.84775 2.44904,0.84775 0.60512,0 1.19026,-0.0742 1.75543,-0.22264 0.57087,-0.14843 1.13603,-0.37107 1.69549,-0.66793 l 0,1.48998 c -0.56517,0.23977 -1.1446,0.42245 -1.7383,0.54804 -0.59372,0.12559 -1.19599,0.18839 -1.80681,0.18839 -1.52995,0 -2.74305,-0.44528 -3.63932,-1.33584 -0.89056,-0.89056 -1.33584,-2.0951 -1.33584,-3.61363 0,-1.56989 0.42245,-2.81439 1.26734,-3.7335 0.8506,-0.92481 1.99519,-1.38721 3.4338,-1.38722 1.29016,10e-6 2.30917,0.41674 3.05702,1.25021 0.75354,0.82777 1.13032,1.95524 1.13033,3.38242 m -1.57561,-0.46241 c -0.0114,-0.86201 -0.25405,-1.54991 -0.72786,-2.0637 -0.46813,-0.51378 -1.09038,-0.77067 -1.86676,-0.77068 -0.87915,1e-5 -1.58417,0.24834 -2.11508,0.74499 -0.5252,0.49666 -0.82777,1.19598 -0.90769,2.09795 l 5.61739,-0.009"
         style="fill:#000000"
         id="path3626" />
      <path
         d="m 561.95919,888.36788 1.80682,0 0,1.47285 -1.40435,2.74019 -1.10464,0 0.70217,-2.74019 0,-1.47285"
         style="fill:#000000"
         id="path3628" />
      <path
         d="m 574.24722,889.10431 0,5.08647 -1.58417,0 0,-13.23853 1.58417,0 0,1.45573 c 0.3311,-0.57087 0.74784,-0.99331 1.25021,-1.26734 0.50807,-0.27972 1.11319,-0.41958 1.81537,-0.41959 1.16458,10e-6 2.10937,0.46241 2.83438,1.38722 0.73071,0.92482 1.09607,2.14078 1.09608,3.64787 -10e-6,1.50711 -0.36537,2.72307 -1.09608,3.64788 -0.72501,0.92481 -1.6698,1.38722 -2.83438,1.38722 -0.70218,0 -1.3073,-0.13701 -1.81537,-0.41103 -0.50237,-0.27973 -0.91911,-0.70503 -1.25021,-1.2759 m 5.36049,-3.34817 c -10e-6,-1.15886 -0.23977,-2.06655 -0.7193,-2.72306 -0.47383,-0.6622 -1.12748,-0.99331 -1.96095,-0.99332 -0.83347,10e-6 -1.48998,0.33112 -1.96951,0.99332 -0.47382,0.65651 -0.71073,1.5642 -0.71073,2.72306 0,1.15888 0.23691,2.06942 0.71073,2.73163 0.47953,0.6565 1.13604,0.98475 1.96951,0.98475 0.83347,0 1.48712,-0.32825 1.96095,-0.98475 0.47953,-0.66221 0.71929,-1.57275 0.7193,-2.73163"
         style="fill:#0000ff"
         id="path3630" />
      <path
         d="m 588.21362,885.72189 c -1.27305,10e-6 -2.15505,0.14558 -2.64599,0.43672 -0.49096,0.29115 -0.73643,0.78781 -0.73643,1.48997 0,0.55946 0.18268,1.00474 0.54804,1.33585 0.37106,0.32539 0.87343,0.48809 1.5071,0.48809 0.87343,0 1.57275,-0.30827 2.09796,-0.92481 0.5309,-0.62225 0.79636,-1.44716 0.79636,-2.47473 l 0,-0.35109 -1.56704,0 m 3.14265,-0.65079 0,5.47181 -1.57561,0 0,-1.45573 c -0.35965,0.58229 -0.80779,1.0133 -1.3444,1.29303 -0.53663,0.27402 -1.19313,0.41103 -1.96951,0.41103 -0.9819,0 -1.764,-0.27402 -2.34629,-0.82206 -0.57658,-0.55374 -0.86487,-1.29302 -0.86487,-2.21784 0,-1.07894 0.35965,-1.89244 1.07895,-2.44048 0.72501,-0.54803 1.80395,-0.82205 3.23685,-0.82205 l 2.20927,0 0,-0.15414 c 0,-0.725 -0.23977,-1.28445 -0.7193,-1.67836 -0.47383,-0.39961 -1.14175,-0.59941 -2.00376,-0.59942 -0.54804,1e-5 -1.0818,0.0657 -1.60129,0.19695 -0.5195,0.13131 -1.01901,0.32826 -1.49854,0.59085 l 0,-1.45572 c 0.57657,-0.22263 1.13603,-0.38818 1.67836,-0.49666 0.54233,-0.11416 1.07038,-0.17125 1.58417,-0.17126 1.38721,10e-6 2.42335,0.35966 3.1084,1.07895 0.68504,0.7193 1.02756,1.80967 1.02757,3.2711"
         style="fill:#0000ff"
         id="path3632" />
      <path
         d="m 600.1677,882.4251 c -0.17698,-0.10275 -0.37107,-0.17696 -0.58229,-0.22264 -0.20552,-0.0514 -0.43387,-0.0771 -0.68505,-0.0771 -0.89056,10e-6 -1.57561,0.29116 -2.05514,0.87344 -0.47382,0.57659 -0.71074,1.40721 -0.71073,2.49186 l 0,5.05222 -1.58417,0 0,-9.59066 1.58417,0 0,1.48998 c 0.3311,-0.58228 0.76211,-1.01329 1.29302,-1.29303 0.53091,-0.28542 1.17599,-0.42814 1.93526,-0.42815 0.10846,10e-6 0.22834,0.009 0.35965,0.0257 0.13129,0.0114 0.27687,0.0314 0.43672,0.0599 l 0.009,1.61842"
         style="fill:#0000ff"
         id="path3634" />
      <path
         d="m 606.1961,885.72189 c -1.27305,10e-6 -2.15505,0.14558 -2.64599,0.43672 -0.49095,0.29115 -0.73643,0.78781 -0.73643,1.48997 0,0.55946 0.18268,1.00474 0.54804,1.33585 0.37106,0.32539 0.87343,0.48809 1.5071,0.48809 0.87343,0 1.57275,-0.30827 2.09796,-0.92481 0.5309,-0.62225 0.79636,-1.44716 0.79637,-2.47473 l 0,-0.35109 -1.56705,0 m 3.14265,-0.65079 0,5.47181 -1.5756,0 0,-1.45573 c -0.35966,0.58229 -0.80779,1.0133 -1.34441,1.29303 -0.53662,0.27402 -1.19313,0.41103 -1.96951,0.41103 -0.9819,0 -1.764,-0.27402 -2.34628,-0.82206 -0.57659,-0.55374 -0.86488,-1.29302 -0.86487,-2.21784 -10e-6,-1.07894 0.35964,-1.89244 1.07894,-2.44048 0.72501,-0.54803 1.80396,-0.82205 3.23685,-0.82205 l 2.20928,0 0,-0.15414 c -10e-6,-0.725 -0.23978,-1.28445 -0.7193,-1.67836 -0.47383,-0.39961 -1.14175,-0.59941 -2.00376,-0.59942 -0.54805,1e-5 -1.08181,0.0657 -1.6013,0.19695 -0.5195,0.13131 -1.01901,0.32826 -1.49854,0.59085 l 0,-1.45572 c 0.57658,-0.22263 1.13603,-0.38818 1.67836,-0.49666 0.54233,-0.11416 1.07038,-0.17125 1.58417,-0.17126 1.38722,10e-6 2.42335,0.35966 3.1084,1.07895 0.68504,0.7193 1.02757,1.80967 1.02757,3.2711"
         style="fill:#0000ff"
         id="path3636" />
      <path
         d="m 620.05975,882.79332 c 0.39389,-0.70788 0.86486,-1.23023 1.41291,-1.56705 0.54803,-0.3368 1.19311,-0.50521 1.93526,-0.50522 0.99901,10e-6 1.76969,0.35109 2.31203,1.05326 0.54231,0.69647 0.81348,1.68979 0.81349,2.97995 l 0,5.78865 -1.58417,0 0,-5.73727 c -10e-6,-0.9191 -0.16271,-1.60129 -0.48809,-2.04658 -0.32541,-0.44527 -0.82207,-0.66791 -1.48998,-0.66792 -0.81636,10e-6 -1.46144,0.27117 -1.93526,0.8135 -0.47383,0.54233 -0.71074,1.28161 -0.71073,2.21783 l 0,5.42044 -1.58417,0 0,-5.73727 c -10e-6,-0.92481 -0.16271,-1.607 -0.4881,-2.04658 -0.3254,-0.44527 -0.82777,-0.66791 -1.5071,-0.66792 -0.80494,10e-6 -1.44431,0.27403 -1.91813,0.82206 -0.47383,0.54233 -0.71074,1.27876 -0.71074,2.20927 l 0,5.42044 -1.58417,0 0,-9.59066 1.58417,0 0,1.48998 c 0.35965,-0.58799 0.79065,-1.02185 1.29303,-1.30159 0.50236,-0.27972 1.09892,-0.41958 1.78968,-0.41959 0.69646,10e-6 1.28731,0.17698 1.77256,0.53091 0.49094,0.35395 0.85344,0.86773 1.08751,1.54136"
         style="fill:#0000ff"
         id="path3638" />
      <path
         d="m 637.8881,885.35368 0,0.77068 -7.24438,0 c 0.0685,1.08466 0.3939,1.91242 0.9762,2.48329 0.58799,0.56517 1.40434,0.84775 2.44904,0.84775 0.60512,0 1.19026,-0.0742 1.75543,-0.22264 0.57087,-0.14843 1.13603,-0.37107 1.69549,-0.66793 l 0,1.48998 c -0.56517,0.23977 -1.1446,0.42245 -1.7383,0.54804 -0.59372,0.12559 -1.19599,0.18839 -1.80681,0.18839 -1.52995,0 -2.74305,-0.44528 -3.63932,-1.33584 -0.89056,-0.89056 -1.33584,-2.0951 -1.33584,-3.61363 0,-1.56989 0.42245,-2.81439 1.26734,-3.7335 0.8506,-0.92481 1.99519,-1.38721 3.4338,-1.38722 1.29016,10e-6 2.30917,0.41674 3.05702,1.25021 0.75354,0.82777 1.13032,1.95524 1.13033,3.38242 m -1.57561,-0.46241 c -0.0114,-0.86201 -0.25405,-1.54991 -0.72786,-2.0637 -0.46813,-0.51378 -1.09038,-0.77067 -1.86676,-0.77068 -0.87915,1e-5 -1.58417,0.24834 -2.11508,0.74499 -0.52521,0.49666 -0.82777,1.19598 -0.90769,2.09795 l 5.61739,-0.009"
         style="fill:#0000ff"
         id="path3640" />
      <path
         d="m 642.03263,878.22919 0,2.72306 3.24541,0 0,1.22452 -3.24541,0 0,5.20636 c 0,0.7821 0.10561,1.28446 0.31683,1.5071 0.21693,0.22264 0.65365,0.33396 1.31016,0.33396 l 1.61842,0 0,1.31872 -1.61842,0 c -1.21596,0 -2.05515,-0.2255 -2.51755,-0.67649 -0.46241,-0.45669 -0.69361,-1.28446 -0.69361,-2.48329 l 0,-5.20636 -1.15602,0 0,-1.22452 1.15602,0 0,-2.72306 1.58417,0"
         style="fill:#0000ff"
         id="path3642" />
      <path
         d="m 655.56229,885.35368 0,0.77068 -7.24437,0 c 0.0685,1.08466 0.3939,1.91242 0.97619,2.48329 0.588,0.56517 1.40434,0.84775 2.44904,0.84775 0.60512,0 1.19027,-0.0742 1.75544,-0.22264 0.57086,-0.14843 1.13602,-0.37107 1.69549,-0.66793 l 0,1.48998 c -0.56518,0.23977 -1.14461,0.42245 -1.73831,0.54804 -0.59371,0.12559 -1.19598,0.18839 -1.80681,0.18839 -1.52994,0 -2.74305,-0.44528 -3.63931,-1.33584 -0.89056,-0.89056 -1.33584,-2.0951 -1.33584,-3.61363 0,-1.56989 0.42244,-2.81439 1.26733,-3.7335 0.8506,-0.92481 1.9952,-1.38721 3.4338,-1.38722 1.29017,10e-6 2.30917,0.41674 3.05702,1.25021 0.75354,0.82777 1.13032,1.95524 1.13033,3.38242 m -1.57561,-0.46241 c -0.0114,-0.86201 -0.25404,-1.54991 -0.72786,-2.0637 -0.46812,-0.51378 -1.09037,-0.77067 -1.86675,-0.77068 -0.87915,1e-5 -1.58418,0.24834 -2.11509,0.74499 -0.5252,0.49666 -0.82776,1.19598 -0.90768,2.09795 l 5.61738,-0.009"
         style="fill:#0000ff"
         id="path3644" />
      <path
         d="m 663.70579,882.4251 c -0.17698,-0.10275 -0.37108,-0.17696 -0.58229,-0.22264 -0.20552,-0.0514 -0.43387,-0.0771 -0.68505,-0.0771 -0.89057,10e-6 -1.57561,0.29116 -2.05514,0.87344 -0.47383,0.57659 -0.71074,1.40721 -0.71074,2.49186 l 0,5.05222 -1.58417,0 0,-9.59066 1.58417,0 0,1.48998 c 0.33111,-0.58228 0.76211,-1.01329 1.29303,-1.29303 0.5309,-0.28542 1.17599,-0.42814 1.93526,-0.42815 0.10846,10e-6 0.22834,0.009 0.35965,0.0257 0.13129,0.0114 0.27686,0.0314 0.43671,0.0599 l 0.009,1.61842"
         style="fill:#0000ff"
         id="path3646" />
      <path
         d="m 663.67152,877.75822 10.81518,0 0,1.45573 -4.53844,0 0,11.32896 -1.7383,0 0,-11.32896 -4.53844,0 0,-1.45573"
         style="fill:#0000ff"
         id="path3648" />
      <path
         d="m 677.34675,891.43347 c -0.44529,1.14174 -0.87915,1.88673 -1.30159,2.23496 -0.42245,0.34823 -0.98761,0.52235 -1.69549,0.52235 l -1.25877,0 0,-1.31871 0.92481,0 c 0.43386,-10e-6 0.77067,-0.10276 1.01044,-0.30827 0.23977,-0.20552 0.50522,-0.69076 0.79637,-1.45573 l 0.28258,-0.7193 -3.87908,-9.43652 1.66981,0 2.99708,7.50126 2.99708,-7.50126 1.6698,0 -4.21304,10.48122"
         style="fill:#0000ff"
         id="path3650" />
      <path
         d="m 685.25906,889.10431 0,5.08647 -1.58417,0 0,-13.23853 1.58417,0 0,1.45573 c 0.3311,-0.57087 0.74784,-0.99331 1.25021,-1.26734 0.50807,-0.27972 1.1132,-0.41958 1.81537,-0.41959 1.16458,10e-6 2.10937,0.46241 2.83439,1.38722 0.7307,0.92482 1.09606,2.14078 1.09607,3.64787 -10e-6,1.50711 -0.36537,2.72307 -1.09607,3.64788 -0.72502,0.92481 -1.66981,1.38722 -2.83439,1.38722 -0.70217,0 -1.3073,-0.13701 -1.81537,-0.41103 -0.50237,-0.27973 -0.91911,-0.70503 -1.25021,-1.2759 m 5.36049,-3.34817 c -10e-6,-1.15886 -0.23977,-2.06655 -0.7193,-2.72306 -0.47383,-0.6622 -1.12748,-0.99331 -1.96094,-0.99332 -0.83348,10e-6 -1.48999,0.33112 -1.96951,0.99332 -0.47383,0.65651 -0.71074,1.5642 -0.71074,2.72306 0,1.15888 0.23691,2.06942 0.71074,2.73163 0.47952,0.6565 1.13603,0.98475 1.96951,0.98475 0.83346,0 1.48711,-0.32825 1.96094,-0.98475 0.47953,-0.66221 0.71929,-1.57275 0.7193,-2.73163"
         style="fill:#0000ff"
         id="path3652" />
      <path
         d="m 703.07029,885.35368 0,0.77068 -7.24438,0 c 0.0685,1.08466 0.3939,1.91242 0.9762,2.48329 0.58799,0.56517 1.40434,0.84775 2.44904,0.84775 0.60512,0 1.19026,-0.0742 1.75543,-0.22264 0.57087,-0.14843 1.13603,-0.37107 1.69549,-0.66793 l 0,1.48998 c -0.56517,0.23977 -1.1446,0.42245 -1.7383,0.54804 -0.59372,0.12559 -1.19599,0.18839 -1.80681,0.18839 -1.52995,0 -2.74305,-0.44528 -3.63932,-1.33584 -0.89056,-0.89056 -1.33584,-2.0951 -1.33584,-3.61363 0,-1.56989 0.42245,-2.81439 1.26734,-3.7335 0.8506,-0.92481 1.99519,-1.38721 3.4338,-1.38722 1.29016,10e-6 2.30917,0.41674 3.05702,1.25021 0.75354,0.82777 1.13032,1.95524 1.13033,3.38242 m -1.57561,-0.46241 c -0.0114,-0.86201 -0.25405,-1.54991 -0.72786,-2.0637 -0.46813,-0.51378 -1.09038,-0.77067 -1.86676,-0.77068 -0.87915,1e-5 -1.58417,0.24834 -2.11508,0.74499 -0.52521,0.49666 -0.82777,1.19598 -0.90769,2.09795 l 5.61739,-0.009"
         style="fill:#0000ff"
         id="path3654" />
      <path
         d="m 707.36896,889.08718 6.03697,0 0,1.45573 -8.1178,0 0,-1.45573 c 0.6565,-0.67933 1.54991,-1.58987 2.68024,-2.73162 1.13603,-1.14745 1.84962,-1.88673 2.14077,-2.21784 0.55374,-0.62224 0.93908,-1.14745 1.15602,-1.57561 0.22263,-0.43385 0.33395,-0.85915 0.33396,-1.2759 -10e-6,-0.67933 -0.23977,-1.23307 -0.7193,-1.66124 -0.47383,-0.42814 -1.09323,-0.64222 -1.85819,-0.64223 -0.54233,10e-6 -1.11606,0.0942 -1.72118,0.28258 -0.59942,0.1884 -1.24165,0.47384 -1.92669,0.85631 l 0,-1.74687 c 0.69646,-0.27971 1.34725,-0.49093 1.95238,-0.63367 0.60512,-0.1427 1.15887,-0.21406 1.66124,-0.21407 1.32442,10e-6 2.38053,0.33112 3.16834,0.99332 0.7878,0.66222 1.1817,1.54707 1.18171,2.65455 -1e-5,0.52521 -0.0999,1.02473 -0.29971,1.49854 -0.19411,0.46812 -0.5509,1.02187 -1.07039,1.66124 -0.14272,0.16556 -0.59657,0.64509 -1.36153,1.4386 -0.76497,0.78781 -1.84392,1.89244 -3.23684,3.31391"
         style="fill:#0000ff"
         id="path3656" />
      <path
         d="m 723.92996,889.10431 0,5.08647 -1.58417,0 0,-13.23853 1.58417,0 0,1.45573 c 0.3311,-0.57087 0.74784,-0.99331 1.25021,-1.26734 0.50807,-0.27972 1.11319,-0.41958 1.81537,-0.41959 1.16457,10e-6 2.10937,0.46241 2.83438,1.38722 0.73071,0.92482 1.09607,2.14078 1.09608,3.64787 -1e-5,1.50711 -0.36537,2.72307 -1.09608,3.64788 -0.72501,0.92481 -1.66981,1.38722 -2.83438,1.38722 -0.70218,0 -1.3073,-0.13701 -1.81537,-0.41103 -0.50237,-0.27973 -0.91911,-0.70503 -1.25021,-1.2759 m 5.36049,-3.34817 c -10e-6,-1.15886 -0.23978,-2.06655 -0.7193,-2.72306 -0.47383,-0.6622 -1.12748,-0.99331 -1.96095,-0.99332 -0.83348,10e-6 -1.48998,0.33112 -1.96951,0.99332 -0.47382,0.65651 -0.71074,1.5642 -0.71073,2.72306 -1e-5,1.15888 0.23691,2.06942 0.71073,2.73163 0.47953,0.6565 1.13603,0.98475 1.96951,0.98475 0.83347,0 1.48712,-0.32825 1.96095,-0.98475 0.47952,-0.66221 0.71929,-1.57275 0.7193,-2.73163"
         style="fill:#000000"
         id="path3658" />
      <path
         d="m 737.89636,885.72189 c -1.27305,10e-6 -2.15505,0.14558 -2.646,0.43672 -0.49095,0.29115 -0.73642,0.78781 -0.73642,1.48997 0,0.55946 0.18268,1.00474 0.54804,1.33585 0.37106,0.32539 0.87343,0.48809 1.5071,0.48809 0.87343,0 1.57275,-0.30827 2.09796,-0.92481 0.5309,-0.62225 0.79636,-1.44716 0.79636,-2.47473 l 0,-0.35109 -1.56704,0 m 3.14265,-0.65079 0,5.47181 -1.57561,0 0,-1.45573 c -0.35965,0.58229 -0.80779,1.0133 -1.3444,1.29303 -0.53663,0.27402 -1.19313,0.41103 -1.96951,0.41103 -0.9819,0 -1.764,-0.27402 -2.34629,-0.82206 -0.57658,-0.55374 -0.86487,-1.29302 -0.86487,-2.21784 0,-1.07894 0.35965,-1.89244 1.07895,-2.44048 0.72501,-0.54803 1.80395,-0.82205 3.23685,-0.82205 l 2.20927,0 0,-0.15414 c 0,-0.725 -0.23977,-1.28445 -0.7193,-1.67836 -0.47383,-0.39961 -1.14175,-0.59941 -2.00376,-0.59942 -0.54804,1e-5 -1.08181,0.0657 -1.6013,0.19695 -0.51949,0.13131 -1.019,0.32826 -1.49854,0.59085 l 0,-1.45572 c 0.57658,-0.22263 1.13604,-0.38818 1.67837,-0.49666 0.54232,-0.11416 1.07038,-0.17125 1.58417,-0.17126 1.38721,10e-6 2.42335,0.35966 3.1084,1.07895 0.68504,0.7193 1.02756,1.80967 1.02757,3.2711"
         style="fill:#000000"
         id="path3660" />
      <path
         d="m 749.85044,882.4251 c -0.17698,-0.10275 -0.37107,-0.17696 -0.58229,-0.22264 -0.20552,-0.0514 -0.43387,-0.0771 -0.68505,-0.0771 -0.89056,10e-6 -1.57561,0.29116 -2.05514,0.87344 -0.47383,0.57659 -0.71074,1.40721 -0.71073,2.49186 l 0,5.05222 -1.58417,0 0,-9.59066 1.58417,0 0,1.48998 c 0.3311,-0.58228 0.76211,-1.01329 1.29302,-1.29303 0.53091,-0.28542 1.17599,-0.42814 1.93526,-0.42815 0.10846,10e-6 0.22834,0.009 0.35965,0.0257 0.13129,0.0114 0.27686,0.0314 0.43672,0.0599 l 0.009,1.61842"
         style="fill:#000000"
         id="path3662" />
      <path
         d="m 755.87884,885.72189 c -1.27305,10e-6 -2.15505,0.14558 -2.64599,0.43672 -0.49096,0.29115 -0.73643,0.78781 -0.73643,1.48997 0,0.55946 0.18268,1.00474 0.54804,1.33585 0.37106,0.32539 0.87343,0.48809 1.5071,0.48809 0.87343,0 1.57275,-0.30827 2.09796,-0.92481 0.5309,-0.62225 0.79636,-1.44716 0.79637,-2.47473 l 0,-0.35109 -1.56705,0 m 3.14265,-0.65079 0,5.47181 -1.5756,0 0,-1.45573 c -0.35966,0.58229 -0.8078,1.0133 -1.34441,1.29303 -0.53662,0.27402 -1.19313,0.41103 -1.96951,0.41103 -0.9819,0 -1.764,-0.27402 -2.34628,-0.82206 -0.57659,-0.55374 -0.86488,-1.29302 -0.86488,-2.21784 0,-1.07894 0.35965,-1.89244 1.07895,-2.44048 0.72501,-0.54803 1.80396,-0.82205 3.23685,-0.82205 l 2.20928,0 0,-0.15414 c -10e-6,-0.725 -0.23978,-1.28445 -0.7193,-1.67836 -0.47383,-0.39961 -1.14175,-0.59941 -2.00377,-0.59942 -0.54804,1e-5 -1.0818,0.0657 -1.60129,0.19695 -0.5195,0.13131 -1.01901,0.32826 -1.49854,0.59085 l 0,-1.45572 c 0.57658,-0.22263 1.13603,-0.38818 1.67836,-0.49666 0.54233,-0.11416 1.07038,-0.17125 1.58417,-0.17126 1.38722,10e-6 2.42335,0.35966 3.1084,1.07895 0.68504,0.7193 1.02756,1.80967 1.02757,3.2711"
         style="fill:#000000"
         id="path3664" />
      <path
         d="m 769.74249,882.79332 c 0.39389,-0.70788 0.86486,-1.23023 1.41291,-1.56705 0.54803,-0.3368 1.19311,-0.50521 1.93526,-0.50522 0.99901,10e-6 1.76969,0.35109 2.31203,1.05326 0.54231,0.69647 0.81348,1.68979 0.81349,2.97995 l 0,5.78865 -1.58417,0 0,-5.73727 c -1e-5,-0.9191 -0.16271,-1.60129 -0.48809,-2.04658 -0.32541,-0.44527 -0.82207,-0.66791 -1.48998,-0.66792 -0.81636,10e-6 -1.46144,0.27117 -1.93526,0.8135 -0.47383,0.54233 -0.71074,1.28161 -0.71073,2.21783 l 0,5.42044 -1.58417,0 0,-5.73727 c -10e-6,-0.92481 -0.16271,-1.607 -0.4881,-2.04658 -0.32541,-0.44527 -0.82777,-0.66791 -1.5071,-0.66792 -0.80494,10e-6 -1.44432,0.27403 -1.91814,0.82206 -0.47382,0.54233 -0.71073,1.27876 -0.71073,2.20927 l 0,5.42044 -1.58417,0 0,-9.59066 1.58417,0 0,1.48998 c 0.35964,-0.58799 0.79065,-1.02185 1.29302,-1.30159 0.50237,-0.27972 1.09893,-0.41958 1.78969,-0.41959 0.69646,10e-6 1.28731,0.17698 1.77256,0.53091 0.49094,0.35395 0.85344,0.86773 1.08751,1.54136"
         style="fill:#000000"
         id="path3666" />
      <path
         d="m 787.57083,885.35368 0,0.77068 -7.24437,0 c 0.0685,1.08466 0.3939,1.91242 0.9762,2.48329 0.58799,0.56517 1.40434,0.84775 2.44904,0.84775 0.60512,0 1.19026,-0.0742 1.75543,-0.22264 0.57086,-0.14843 1.13603,-0.37107 1.69549,-0.66793 l 0,1.48998 c -0.56517,0.23977 -1.14461,0.42245 -1.7383,0.54804 -0.59372,0.12559 -1.19599,0.18839 -1.80682,0.18839 -1.52994,0 -2.74304,-0.44528 -3.63931,-1.33584 -0.89056,-0.89056 -1.33584,-2.0951 -1.33584,-3.61363 0,-1.56989 0.42245,-2.81439 1.26734,-3.7335 0.8506,-0.92481 1.99519,-1.38721 3.4338,-1.38722 1.29016,10e-6 2.30917,0.41674 3.05702,1.25021 0.75354,0.82777 1.13031,1.95524 1.13032,3.38242 m -1.5756,-0.46241 c -0.0114,-0.86201 -0.25405,-1.54991 -0.72787,-2.0637 -0.46812,-0.51378 -1.09037,-0.77067 -1.86675,-0.77068 -0.87915,1e-5 -1.58417,0.24834 -2.11508,0.74499 -0.52521,0.49666 -0.82777,1.19598 -0.90769,2.09795 l 5.61739,-0.009"
         style="fill:#000000"
         id="path3668" />
      <path
         d="m 791.71537,878.22919 0,2.72306 3.24541,0 0,1.22452 -3.24541,0 0,5.20636 c 0,0.7821 0.10561,1.28446 0.31683,1.5071 0.21693,0.22264 0.65365,0.33396 1.31016,0.33396 l 1.61842,0 0,1.31872 -1.61842,0 c -1.21597,0 -2.05515,-0.2255 -2.51755,-0.67649 -0.46241,-0.45669 -0.69361,-1.28446 -0.69361,-2.48329 l 0,-5.20636 -1.15602,0 0,-1.22452 1.15602,0 0,-2.72306 1.58417,0"
         style="fill:#000000"
         id="path3670" />
      <path
         d="m 805.24503,885.35368 0,0.77068 -7.24437,0 c 0.0685,1.08466 0.3939,1.91242 0.97619,2.48329 0.58799,0.56517 1.40434,0.84775 2.44904,0.84775 0.60512,0 1.19026,-0.0742 1.75544,-0.22264 0.57086,-0.14843 1.13602,-0.37107 1.69549,-0.66793 l 0,1.48998 c -0.56518,0.23977 -1.14461,0.42245 -1.73831,0.54804 -0.59371,0.12559 -1.19598,0.18839 -1.80681,0.18839 -1.52994,0 -2.74305,-0.44528 -3.63931,-1.33584 -0.89056,-0.89056 -1.33584,-2.0951 -1.33584,-3.61363 0,-1.56989 0.42244,-2.81439 1.26733,-3.7335 0.8506,-0.92481 1.9952,-1.38721 3.4338,-1.38722 1.29016,10e-6 2.30917,0.41674 3.05702,1.25021 0.75354,0.82777 1.13032,1.95524 1.13033,3.38242 m -1.57561,-0.46241 c -0.0114,-0.86201 -0.25405,-1.54991 -0.72786,-2.0637 -0.46812,-0.51378 -1.09037,-0.77067 -1.86675,-0.77068 -0.87915,1e-5 -1.58418,0.24834 -2.11509,0.74499 -0.5252,0.49666 -0.82776,1.19598 -0.90768,2.09795 l 5.61738,-0.009"
         style="fill:#000000"
         id="path3672" />
      <path
         d="m 813.38853,882.4251 c -0.17698,-0.10275 -0.37108,-0.17696 -0.58229,-0.22264 -0.20553,-0.0514 -0.43387,-0.0771 -0.68505,-0.0771 -0.89057,10e-6 -1.57561,0.29116 -2.05514,0.87344 -0.47383,0.57659 -0.71074,1.40721 -0.71074,2.49186 l 0,5.05222 -1.58417,0 0,-9.59066 1.58417,0 0,1.48998 c 0.3311,-0.58228 0.76211,-1.01329 1.29303,-1.29303 0.5309,-0.28542 1.17599,-0.42814 1.93526,-0.42815 0.10845,10e-6 0.22834,0.009 0.35964,0.0257 0.1313,0.0114 0.27687,0.0314 0.43672,0.0599 l 0.009,1.61842"
         style="fill:#000000"
         id="path3674" />
      <path
         d="m 815.12682,877.75822 2.32916,0 5.66876,10.69529 0,-10.69529 1.67837,0 0,12.78469 -2.32916,0 -5.66876,-10.6953 0,10.6953 -1.67837,0 0,-12.78469"
         style="fill:#000000"
         id="path3676" />
      <path
         d="m 832.53558,885.72189 c -1.27305,10e-6 -2.15505,0.14558 -2.64599,0.43672 -0.49096,0.29115 -0.73643,0.78781 -0.73643,1.48997 0,0.55946 0.18268,1.00474 0.54804,1.33585 0.37106,0.32539 0.87343,0.48809 1.5071,0.48809 0.87343,0 1.57275,-0.30827 2.09796,-0.92481 0.5309,-0.62225 0.79636,-1.44716 0.79636,-2.47473 l 0,-0.35109 -1.56704,0 m 3.14265,-0.65079 0,5.47181 -1.57561,0 0,-1.45573 c -0.35965,0.58229 -0.80779,1.0133 -1.3444,1.29303 -0.53663,0.27402 -1.19313,0.41103 -1.96951,0.41103 -0.9819,0 -1.764,-0.27402 -2.34629,-0.82206 -0.57658,-0.55374 -0.86487,-1.29302 -0.86487,-2.21784 0,-1.07894 0.35965,-1.89244 1.07895,-2.44048 0.72501,-0.54803 1.80395,-0.82205 3.23685,-0.82205 l 2.20927,0 0,-0.15414 c 0,-0.725 -0.23977,-1.28445 -0.7193,-1.67836 -0.47383,-0.39961 -1.14175,-0.59941 -2.00376,-0.59942 -0.54804,1e-5 -1.0818,0.0657 -1.60129,0.19695 -0.5195,0.13131 -1.01901,0.32826 -1.49854,0.59085 l 0,-1.45572 c 0.57657,-0.22263 1.13603,-0.38818 1.67836,-0.49666 0.54233,-0.11416 1.07038,-0.17125 1.58417,-0.17126 1.38721,10e-6 2.42335,0.35966 3.1084,1.07895 0.68504,0.7193 1.02756,1.80967 1.02757,3.2711"
         style="fill:#000000"
         id="path3678" />
      <path
         d="m 846.39923,882.79332 c 0.39389,-0.70788 0.86486,-1.23023 1.41291,-1.56705 0.54802,-0.3368 1.19311,-0.50521 1.93525,-0.50522 0.99902,10e-6 1.76969,0.35109 2.31204,1.05326 0.54231,0.69647 0.81348,1.68979 0.81349,2.97995 l 0,5.78865 -1.58417,0 0,-5.73727 c -1e-5,-0.9191 -0.16271,-1.60129 -0.4881,-2.04658 -0.32541,-0.44527 -0.82206,-0.66791 -1.48997,-0.66792 -0.81636,10e-6 -1.46145,0.27117 -1.93526,0.8135 -0.47383,0.54233 -0.71075,1.28161 -0.71074,2.21783 l 0,5.42044 -1.58417,0 0,-5.73727 c 0,-0.92481 -0.1627,-1.607 -0.48809,-2.04658 -0.32541,-0.44527 -0.82777,-0.66791 -1.50711,-0.66792 -0.80493,10e-6 -1.44431,0.27403 -1.91813,0.82206 -0.47382,0.54233 -0.71074,1.27876 -0.71073,2.20927 l 0,5.42044 -1.58417,0 0,-9.59066 1.58417,0 0,1.48998 c 0.35964,-0.58799 0.79065,-1.02185 1.29302,-1.30159 0.50237,-0.27972 1.09893,-0.41958 1.78969,-0.41959 0.69646,10e-6 1.28731,0.17698 1.77256,0.53091 0.49094,0.35395 0.85344,0.86773 1.08751,1.54136"
         style="fill:#000000"
         id="path3680" />
      <path
         d="m 864.22757,885.35368 0,0.77068 -7.24437,0 c 0.0685,1.08466 0.3939,1.91242 0.97619,2.48329 0.588,0.56517 1.40435,0.84775 2.44905,0.84775 0.60511,0 1.19026,-0.0742 1.75543,-0.22264 0.57086,-0.14843 1.13603,-0.37107 1.69549,-0.66793 l 0,1.48998 c -0.56517,0.23977 -1.14461,0.42245 -1.73831,0.54804 -0.59371,0.12559 -1.19598,0.18839 -1.80681,0.18839 -1.52994,0 -2.74304,-0.44528 -3.63931,-1.33584 -0.89056,-0.89056 -1.33584,-2.0951 -1.33584,-3.61363 0,-1.56989 0.42244,-2.81439 1.26734,-3.7335 0.85059,-0.92481 1.99519,-1.38721 3.43379,-1.38722 1.29017,10e-6 2.30917,0.41674 3.05703,1.25021 0.75354,0.82777 1.13031,1.95524 1.13032,3.38242 m -1.5756,-0.46241 c -0.0114,-0.86201 -0.25405,-1.54991 -0.72787,-2.0637 -0.46812,-0.51378 -1.09037,-0.77067 -1.86675,-0.77068 -0.87915,1e-5 -1.58417,0.24834 -2.11508,0.74499 -0.52521,0.49666 -0.82777,1.19598 -0.90769,2.09795 l 5.61739,-0.009"
         style="fill:#000000"
         id="path3682" />
      <path
         d="m 868.52624,889.08718 6.03698,0 0,1.45573 -8.11781,0 0,-1.45573 c 0.65651,-0.67933 1.54992,-1.58987 2.68025,-2.73162 1.13603,-1.14745 1.84962,-1.88673 2.14077,-2.21784 0.55374,-0.62224 0.93908,-1.14745 1.15602,-1.57561 0.22263,-0.43385 0.33395,-0.85915 0.33396,-1.2759 -10e-6,-0.67933 -0.23978,-1.23307 -0.7193,-1.66124 -0.47383,-0.42814 -1.09323,-0.64222 -1.85819,-0.64223 -0.54233,10e-6 -1.11606,0.0942 -1.72118,0.28258 -0.59942,0.1884 -1.24165,0.47384 -1.9267,0.85631 l 0,-1.74687 c 0.69647,-0.27971 1.34726,-0.49093 1.95239,-0.63367 0.60512,-0.1427 1.15886,-0.21406 1.66124,-0.21407 1.32441,10e-6 2.38053,0.33112 3.16834,0.99332 0.78779,0.66222 1.18169,1.54707 1.1817,2.65455 -1e-5,0.52521 -0.0999,1.02473 -0.2997,1.49854 -0.19411,0.46812 -0.5509,1.02187 -1.07039,1.66124 -0.14273,0.16556 -0.59657,0.64509 -1.36153,1.4386 -0.76497,0.78781 -1.84392,1.89244 -3.23685,3.31391"
         style="fill:#000000"
         id="path3684" />
      <path
         d="m 877.73156,877.23587 1.37009,0 c 0.85631,1.34727 1.49568,2.66599 1.91813,3.95615 0.42815,1.29018 0.64223,2.57179 0.64223,3.84482 0,1.27876 -0.21408,2.56608 -0.64223,3.86196 -0.42245,1.29588 -1.06182,2.61459 -1.91813,3.95614 l -1.37009,0 c 0.75925,-1.3073 1.32442,-2.60603 1.69549,-3.8962 0.37677,-1.29588 0.56516,-2.60318 0.56516,-3.9219 0,-1.3187 -0.18839,-2.62029 -0.56516,-3.90476 -0.37107,-1.28446 -0.93624,-2.58319 -1.69549,-3.89621"
         style="fill:#000000"
         id="path3686" />
      <path
         d="m 892.14323,892.16989 0,1.23309 -0.53092,0 c -1.42148,0 -2.37483,-0.21123 -2.86007,-0.63367 -0.47953,-0.42245 -0.7193,-1.26448 -0.7193,-2.52611 l 0,-2.04658 c 0,-0.86201 -0.15414,-1.45857 -0.4624,-1.78968 -0.30828,-0.3311 -0.86773,-0.49666 -1.67837,-0.49666 l -0.52235,0 0,-1.22452 0.52235,0 c 0.81635,0 1.3758,-0.1627 1.67837,-0.4881 0.30826,-0.3311 0.4624,-0.92195 0.4624,-1.77256 l 0,-2.05514 c 0,-1.26161 0.23977,-2.1008 0.7193,-2.51754 0.48524,-0.42244 1.43859,-0.63366 2.86007,-0.63367 l 0.53092,0 0,1.22452 -0.58229,0 c -0.80494,10e-6 -1.33014,0.1256 -1.57561,0.37677 -0.24548,0.2512 -0.36822,0.77926 -0.36821,1.58417 l 0,2.12365 c -10e-6,0.89628 -0.13131,1.54707 -0.39391,1.95238 -0.2569,0.40533 -0.69932,0.67935 -1.32728,0.82206 0.63367,0.15414 1.07895,0.43387 1.33585,0.83918 0.25688,0.40533 0.38533,1.05326 0.38534,1.94382 l 0,2.12365 c -10e-6,0.80493 0.12273,1.33298 0.36821,1.58417 0.24547,0.25118 0.77067,0.37677 1.57561,0.37677 l 0.58229,0"
         style="fill:#000000"
         id="path3688" />
      <path
         d="m 53.414674,921.60122 1.455725,0 -4.452805,14.41167 -1.455724,0 4.452804,-14.41167"
         style=""
         id="path3690" />
      <path
         d="m 59.34033,921.60122 1.455724,0 -4.452804,14.41167 -1.455725,0 4.452805,-14.41167"
         style=""
         id="path3692" />
      <path
         d="m 74.35998,926.25097 0,-5.18923 1.575608,0 0,13.32417 -1.575608,0 0,-1.4386 c -0.331114,0.57087 -0.750705,0.99617 -1.258774,1.2759 -0.502374,0.27402 -1.107498,0.41102 -1.815374,0.41102 -1.158875,0 -2.103667,-0.4624 -2.834381,-1.38722 -0.725009,-0.92481 -1.087513,-2.14076 -1.087512,-3.64787 -10e-7,-1.5071 0.362503,-2.72305 1.087512,-3.64787 0.730714,-0.92481 1.675506,-1.38721 2.834381,-1.38722 0.707876,1e-5 1.313,0.13987 1.815374,0.41959 0.508069,0.27403 0.92766,0.69647 1.258774,1.26733 m -5.369055,3.34817 c -2e-6,1.15888 0.236909,2.06942 0.710736,2.73162 0.479529,0.65651 1.136032,0.98476 1.96951,0.98476 0.833468,0 1.48997,-0.32825 1.96951,-0.98476 0.479525,-0.6622 0.719291,-1.57274 0.719299,-2.73162 -8e-6,-1.15886 -0.239774,-2.06655 -0.719299,-2.72306 -0.47954,-0.6622 -1.136042,-0.99331 -1.96951,-0.99332 -0.833478,1e-5 -1.489981,0.33112 -1.96951,0.99332 -0.473827,0.65651 -0.710738,1.5642 -0.710736,2.72306"
         style=""
         id="path3694" />
      <path
         d="m 82.897376,925.89989 c -0.844895,10e-6 -1.512815,0.33111 -2.003762,0.99332 -0.490953,0.65651 -0.736428,1.55848 -0.736425,2.70593 -3e-6,1.14746 0.242618,2.05229 0.727862,2.7145 0.490947,0.6565 1.161721,0.98475 2.012325,0.98475 0.839176,0 1.504242,-0.3311 1.995199,-0.99331 0.490943,-0.66221 0.736417,-1.56419 0.736426,-2.70594 -9e-6,-1.13603 -0.245483,-2.03515 -0.736426,-2.69737 -0.490957,-0.66791 -1.156023,-1.00187 -1.995199,-1.00188 m 0,-1.33584 c 1.370087,1e-5 2.446181,0.44529 3.228284,1.33584 0.782085,0.89057 1.173132,2.12365 1.173142,3.69925 -10e-6,1.5699 -0.391057,2.80299 -1.173142,3.69925 -0.782103,0.89056 -1.858197,1.33584 -3.228284,1.33584 -1.375806,0 -2.454754,-0.44528 -3.236846,-1.33584 -0.776388,-0.89626 -1.164581,-2.12935 -1.16458,-3.69925 -10e-7,-1.5756 0.388192,-2.80868 1.16458,-3.69925 0.782092,-0.89055 1.86104,-1.33583 3.236846,-1.33584"
         style=""
         id="path3696" />
      <path
         d="m 101.59916,925.07783 0,1.48998 c -0.44529,-0.22834 -0.9077,-0.3996 -1.38722,-0.51379 -0.479543,-0.11416 -0.976201,-0.17125 -1.489981,-0.17126 -0.782099,1e-5 -1.370097,0.11989 -1.763996,0.35965 -0.388196,0.23978 -0.582292,0.59942 -0.58229,1.07895 -2e-6,0.36536 0.139861,0.65366 0.419592,0.86487 0.279724,0.20552 0.842033,0.40247 1.686927,0.59085 l 0.539475,0.11989 c 1.118903,0.23977 1.912413,0.57944 2.380533,1.019 0.47382,0.43387 0.71073,1.04185 0.71074,1.82394 -10e-6,0.89056 -0.35395,1.59559 -1.06182,2.11508 -0.70218,0.5195 -1.669809,0.77924 -2.902888,0.77924 -0.513789,0 -1.050408,-0.0514 -1.60986,-0.15413 -0.553748,-0.097 -1.138892,-0.24548 -1.755432,-0.44528 l 0,-1.62699 c 0.582288,0.30257 1.156014,0.53092 1.72118,0.68505 0.56516,0.14843 1.124614,0.22264 1.678364,0.22264 0.742129,0 1.313001,-0.12559 1.712618,-0.37678 0.399608,-0.25689 0.599408,-0.61654 0.599418,-1.07894 -10e-6,-0.42816 -0.14558,-0.75641 -0.43672,-0.98476 -0.285442,-0.22834 -0.916255,-0.44813 -1.892442,-0.65936 l -0.548037,-0.12844 c -0.976195,-0.20551 -1.681221,-0.51949 -2.115082,-0.94194 -0.433865,-0.42815 -0.650796,-1.0133 -0.650795,-1.75544 -10e-7,-0.90197 0.319687,-1.59843 0.959066,-2.08939 0.639374,-0.49094 1.54706,-0.73641 2.723061,-0.73642 0.582284,1e-5 1.130321,0.0428 1.644109,0.12844 0.51378,0.0856 0.98761,0.21409 1.42148,0.38534"
         style=""
         id="path3698" />
      <path
         d="m 106.18897,922.07219 0,2.72306 3.24541,0 0,1.22452 -3.24541,0 0,5.20636 c 0,0.78209 0.10561,1.28446 0.31684,1.5071 0.21692,0.22264 0.65364,0.33396 1.31015,0.33396 l 1.61842,0 0,1.31872 -1.61842,0 c -1.21596,0 -2.05514,-0.2255 -2.51755,-0.67649 -0.46241,-0.4567 -0.69361,-1.28446 -0.69361,-2.48329 l 0,-5.20636 -1.15602,0 0,-1.22452 1.15602,0 0,-2.72306 1.58417,0"
         style=""
         id="path3700" />
      <path
         d="m 111.35251,930.60102 0,-5.80577 1.57561,0 0,5.74583 c 0,0.90769 0.17697,1.58988 0.53091,2.04658 0.35394,0.45099 0.88485,0.67648 1.59273,0.67648 0.8506,0 1.52137,-0.27116 2.01233,-0.81349 0.49665,-0.54233 0.74498,-1.28161 0.74499,-2.21784 l 0,-5.43756 1.57561,0 0,9.59066 -1.57561,0 0,-1.47286 c -0.38249,0.5823 -0.82777,1.01616 -1.33584,1.30159 -0.50238,0.27973 -1.08752,0.41959 -1.75544,0.41959 -1.10178,0 -1.93811,-0.34252 -2.50898,-1.02757 -0.57087,-0.68504 -0.85631,-1.68692 -0.85631,-3.00564 m 3.96471,-6.03697 0,0"
         style=""
         id="path3702" />
      <path
         d="m 133.41102,921.06174 0,1.31016 -1.5071,0 c -0.56518,10e-6 -0.95908,0.11418 -1.18171,0.34252 -0.21694,0.22836 -0.32541,0.63939 -0.3254,1.23308 l 0,0.84775 2.59462,0 0,1.22452 -2.59462,0 0,8.36614 -1.58417,0 0,-8.36614 -4.32435,0 0,8.36614 -1.58418,0 0,-8.36614 -1.5071,0 0,-1.22452 1.5071,0 0,-0.66792 c 0,-1.06752 0.24833,-1.84391 0.74499,-2.32916 0.49666,-0.49094 1.28446,-0.73641 2.36341,-0.73643 l 1.48998,0 0,1.31016 -1.5071,0 c -0.56517,10e-6 -0.95907,0.11418 -1.18171,0.34252 -0.21693,0.22836 -0.3254,0.63939 -0.32539,1.23308 l 0,0.84775 4.32435,0 0,-0.66792 c 0,-1.06752 0.24832,-1.84391 0.74499,-2.32916 0.49665,-0.49094 1.28445,-0.73641 2.36341,-0.73643 l 1.48998,0"
         style=""
         id="path3704" />
      <path
         d="m 56.386066,970.61632 c -0.336824,-0.26259 -0.679347,-0.45384 -1.02757,-0.57373 -0.348241,-0.11987 -0.730725,-0.17981 -1.147454,-0.17982 -0.981907,1e-5 -1.732603,0.30828 -2.252091,0.92481 -0.519499,0.61655 -0.779246,1.50711 -0.779241,2.67168 l 0,4.76964 -1.584171,0 0,-9.59065 1.584171,0 0,1.87531 c 0.262596,-0.67933 0.665061,-1.19882 1.207395,-1.55848 0.548031,-0.36535 1.195971,-0.54803 1.94382,-0.54804 0.388185,10e-6 0.750689,0.0485 1.087512,0.14558 0.336806,0.097 0.659348,0.24834 0.967629,0.45384 l 0,1.60986"
         style="font-style:normal;font-variant:normal;font-weight:normal;font-stretch:normal;fill:#000080;font-family:Monospace;-inkscape-font-specification:Monospace"
         id="path3706" />
      <path
         d="m 66.567574,973.03967 0,0.77068 -6.824779,0 0,0.0514 c -3e-6,1.0447 0.271161,1.85248 0.813493,2.42335 0.548033,0.57088 1.31871,0.85631 2.312033,0.85631 0.502361,0 1.027564,-0.0799 1.575608,-0.23977 0.548029,-0.15984 1.133173,-0.40246 1.755432,-0.72786 l 0,1.56705 c -0.599424,0.24547 -1.178859,0.42815 -1.738306,0.54803 -0.553753,0.1256 -1.090373,0.18839 -1.60986,0.18839 -1.489981,0 -2.65456,-0.44528 -3.493739,-1.33584 -0.839184,-0.89627 -1.258775,-2.12935 -1.258773,-3.69925 -2e-6,-1.52993 0.411026,-2.7516 1.233084,-3.665 0.822053,-0.91339 1.918127,-1.37009 3.288225,-1.3701 1.22166,10e-6 2.183579,0.4139 2.885759,1.24165 0.707873,0.82777 1.061814,1.9581 1.061823,3.39098 m -1.575608,-0.4624 c -0.02284,-0.92481 -0.242628,-1.62698 -0.659357,-2.10652 -0.411035,-0.48524 -1.004742,-0.72786 -1.781122,-0.72786 -0.759265,0 -1.38437,0.25119 -1.875316,0.75355 -0.490953,0.50237 -0.782098,1.19884 -0.873434,2.08939 l 5.189229,-0.009"
         style="font-style:normal;font-variant:normal;font-weight:normal;font-stretch:normal;fill:#000080;font-family:Monospace;-inkscape-font-specification:Monospace"
         id="path3708" />
      <path
         d="m 72.852882,965.91519 0,2.72306 3.57937,0 0,1.22452 -3.57937,0 0,5.20635 c -5e-6,0.70789 0.13415,1.20169 0.402465,1.48142 0.268304,0.27973 0.736419,0.41959 1.404346,0.41959 l 1.772559,0 0,1.25877 -1.926694,0 c -1.181712,0 -2.015185,-0.23691 -2.500421,-0.71073 -0.485246,-0.47383 -0.727866,-1.29017 -0.727863,-2.44905 l 0,-5.20635 -2.560362,0 0,-1.22452 2.560362,0 0,-2.72306 1.575608,0"
         style="font-style:normal;font-variant:normal;font-weight:normal;font-stretch:normal;fill:#000080;font-family:Monospace;-inkscape-font-specification:Monospace"
         id="path3710" />
      <path
         d="m 79.81467,974.59815 0,-5.94278 1.575608,0 0,5.94278 c -3e-6,0.86202 0.151278,1.49569 0.453843,1.90101 0.308267,0.40532 0.782091,0.60798 1.421472,0.60798 0.742129,0 1.310146,-0.25975 1.704054,-0.77924 0.393895,-0.5252 0.590846,-1.2759 0.590853,-2.25209 l 0,-5.42044 1.584171,0 0,9.57353 -1.584171,0 0,-1.4386 c -0.279734,0.55375 -0.662218,0.97334 -1.147453,1.25878 -0.479539,0.28543 -1.041847,0.42815 -1.686928,0.42815 -0.981904,0 -1.71262,-0.31969 -2.19215,-0.95906 -0.479534,-0.64509 -0.719301,-1.61842 -0.719299,-2.92002"
         style="font-style:normal;font-variant:normal;font-weight:normal;font-stretch:normal;fill:#000080;font-family:Monospace;-inkscape-font-specification:Monospace"
         id="path3712" />
      <path
         d="m 98.584953,970.61632 c -0.336824,-0.26259 -0.679347,-0.45384 -1.02757,-0.57373 -0.348241,-0.11987 -0.730725,-0.17981 -1.147454,-0.17982 -0.981907,1e-5 -1.732603,0.30828 -2.252091,0.92481 -0.519499,0.61655 -0.779246,1.50711 -0.779241,2.67168 l 0,4.76964 -1.584171,0 0,-9.59065 1.584171,0 0,1.87531 c 0.262596,-0.67933 0.665061,-1.19882 1.207395,-1.55848 0.548031,-0.36535 1.19597,-0.54803 1.94382,-0.54804 0.388185,10e-6 0.750689,0.0485 1.087512,0.14558 0.336806,0.097 0.659348,0.24834 0.967629,0.45384 l 0,1.60986"
         style="font-style:normal;font-variant:normal;font-weight:normal;font-stretch:normal;fill:#000080;font-family:Monospace;-inkscape-font-specification:Monospace"
         id="path3714" />
      <path
         d="m 108.24411,972.28612 0,5.94278 -1.58417,0 0,-5.94278 c -1e-5,-0.86201 -0.15129,-1.49568 -0.45384,-1.901 -0.30257,-0.40531 -0.77639,-0.60797 -1.42147,-0.60798 -0.73643,10e-6 -1.30445,0.26261 -1.70406,0.7878 -0.3939,0.5195 -0.59085,1.26734 -0.59085,2.24353 l 0,5.42043 -1.57561,0 0,-9.59065 1.57561,0 0,1.4386 c 0.27972,-0.54803 0.65935,-0.96192 1.13889,-1.24165 0.47953,-0.28543 1.04755,-0.42815 1.70405,-0.42816 0.97619,10e-6 1.70405,0.32256 2.18359,0.96763 0.48523,0.63939 0.72785,1.60987 0.72786,2.91145"
         style="font-style:normal;font-variant:normal;font-weight:normal;font-stretch:normal;fill:#000080;font-family:Monospace;-inkscape-font-specification:Monospace"
         id="path3716" />
      <path
         d="m 122.58729,970.1111 c -0.17698,-0.10275 -0.37108,-0.17696 -0.58229,-0.22264 -0.20552,-0.0514 -0.43387,-0.0771 -0.68505,-0.0771 -0.89057,1e-5 -1.57561,0.29115 -2.05514,0.87343 -0.47383,0.57659 -0.71074,1.40721 -0.71074,2.49186 l 0,5.05222 -1.58417,0 0,-9.59065 1.58417,0 0,1.48997 c 0.33111,-0.58228 0.76211,-1.01329 1.29303,-1.29302 0.53091,-0.28543 1.17599,-0.42815 1.93526,-0.42816 0.10846,10e-6 0.22834,0.009 0.35965,0.0257 0.13129,0.0114 0.27686,0.0314 0.43671,0.0599 l 0.009,1.61843"
         style="fill:#000000"
         id="path3718" />
      <path
         d="m 132.08374,973.03967 0,0.77068 -7.24437,0 c 0.0685,1.08466 0.3939,1.91243 0.97619,2.4833 0.588,0.56516 1.40435,0.84774 2.44905,0.84774 0.60512,0 1.19026,-0.0742 1.75543,-0.22264 0.57086,-0.14842 1.13603,-0.37106 1.69549,-0.66792 l 0,1.48998 c -0.56517,0.23976 -1.14461,0.42244 -1.73831,0.54803 -0.59371,0.1256 -1.19598,0.18839 -1.80681,0.18839 -1.52994,0 -2.74304,-0.44528 -3.63931,-1.33584 -0.89056,-0.89056 -1.33584,-2.0951 -1.33584,-3.61362 0,-1.56989 0.42244,-2.81439 1.26734,-3.73351 0.85059,-0.9248 1.99519,-1.38721 3.43379,-1.38722 1.29017,10e-6 2.30918,0.41675 3.05703,1.25021 0.75354,0.82778 1.13031,1.95525 1.13032,3.38242 m -1.5756,-0.4624 c -0.0114,-0.86201 -0.25405,-1.54991 -0.72787,-2.06371 -0.46812,-0.51377 -1.09037,-0.77067 -1.86675,-0.77067 -0.87915,0 -1.58417,0.24833 -2.11508,0.74498 -0.52521,0.49667 -0.82777,1.19599 -0.90769,2.09796 l 5.61739,-0.009"
         style="fill:#000000"
         id="path3720" />
      <path
         d="m 136.22828,965.91519 0,2.72306 3.24541,0 0,1.22452 -3.24541,0 0,5.20635 c 0,0.7821 0.10561,1.28447 0.31683,1.50711 0.21693,0.22264 0.65365,0.33396 1.31016,0.33396 l 1.61842,0 0,1.31871 -1.61842,0 c -1.21597,0 -2.05515,-0.22549 -2.51755,-0.67648 -0.46241,-0.4567 -0.69361,-1.28446 -0.69361,-2.4833 l 0,-5.20635 -1.15602,0 0,-1.22452 1.15602,0 0,-2.72306 1.58417,0"
         style="fill:#000000"
         id="path3722" />
      <path
         d="m 141.39182,974.44402 0,-5.80577 1.57561,0 0,5.74583 c -1e-5,0.90769 0.17696,1.58988 0.53091,2.04657 0.35393,0.451 0.88485,0.67649 1.59273,0.67649 0.8506,0 1.52137,-0.27116 2.01233,-0.81349 0.49665,-0.54233 0.74498,-1.28161 0.74498,-2.21784 l 0,-5.43756 1.57561,0 0,9.59065 -1.57561,0 0,-1.47285 c -0.38249,0.58229 -0.82777,1.01616 -1.33584,1.30159 -0.50237,0.27973 -1.08751,0.41959 -1.75543,0.41959 -1.10179,0 -1.93811,-0.34252 -2.50898,-1.02757 -0.57088,-0.68504 -0.85631,-1.68692 -0.85631,-3.00564 m 3.96471,-6.03698 0,0"
         style="fill:#000000"
         id="path3724" />
      <path
         d="m 158.24396,970.1111 c -0.17697,-0.10275 -0.37107,-0.17696 -0.58229,-0.22264 -0.20552,-0.0514 -0.43387,-0.0771 -0.68504,-0.0771 -0.89057,1e-5 -1.57562,0.29115 -2.05514,0.87343 -0.47383,0.57659 -0.71074,1.40721 -0.71074,2.49186 l 0,5.05222 -1.58417,0 0,-9.59065 1.58417,0 0,1.48997 c 0.3311,-0.58228 0.76211,-1.01329 1.29303,-1.29302 0.5309,-0.28543 1.17599,-0.42815 1.93525,-0.42816 0.10846,10e-6 0.22835,0.009 0.35965,0.0257 0.1313,0.0114 0.27687,0.0314 0.43672,0.0599 l 0.009,1.61843"
         style="fill:#000000"
         id="path3726" />
      <path
         d="m 167.57773,972.44026 0,5.78864 -1.57561,0 0,-5.73726 c -1e-5,-0.90768 -0.17698,-1.58702 -0.53091,-2.03802 -0.35395,-0.45098 -0.88486,-0.67647 -1.59273,-0.67648 -0.85061,10e-6 -1.52138,0.27117 -2.01233,0.81349 -0.49095,0.54234 -0.73643,1.28162 -0.73642,2.21784 l 0,5.42043 -1.58417,0 0,-9.59065 1.58417,0 0,1.48997 c 0.37677,-0.57657 0.81919,-1.00758 1.32727,-1.29302 0.51378,-0.28543 1.10464,-0.42815 1.77256,-0.42816 1.10178,10e-6 1.93525,0.34254 2.50042,1.02757 0.56516,0.67935 0.84774,1.68123 0.84775,3.00565"
         style="fill:#000000"
         id="path3728" />
      <path
         d="m 174.10281,978.2289 -4.88096,-12.78468 1.80681,0 4.05034,10.76379 4.0589,-10.76379 1.79825,0 -4.8724,12.78468 -1.96094,0"
         style="fill:#000000"
         id="path3730" />
      <path
         d="m 185.71435,973.40789 c -1.27305,0 -2.15505,0.14557 -2.64599,0.43671 -0.49096,0.29115 -0.73643,0.78781 -0.73643,1.48998 0,0.55946 0.18268,1.00474 0.54804,1.33584 0.37106,0.3254 0.87343,0.4881 1.5071,0.4881 0.87343,0 1.57275,-0.30827 2.09796,-0.92482 0.5309,-0.62224 0.79636,-1.44715 0.79637,-2.47473 l 0,-0.35108 -1.56705,0 m 3.14265,-0.6508 0,5.47181 -1.5756,0 0,-1.45572 c -0.35966,0.58229 -0.8078,1.0133 -1.34441,1.29302 -0.53662,0.27402 -1.19313,0.41103 -1.96951,0.41103 -0.9819,0 -1.764,-0.27402 -2.34628,-0.82205 -0.57659,-0.55375 -0.86488,-1.29303 -0.86488,-2.21784 0,-1.07895 0.35965,-1.89244 1.07895,-2.44048 0.72501,-0.54803 1.80396,-0.82205 3.23685,-0.82206 l 2.20928,0 0,-0.15413 c -1e-5,-0.72501 -0.23978,-1.28446 -0.7193,-1.67837 -0.47383,-0.3996 -1.14175,-0.59941 -2.00377,-0.59941 -0.54804,0 -1.0818,0.0657 -1.60129,0.19695 -0.5195,0.1313 -1.01901,0.32826 -1.49854,0.59085 l 0,-1.45573 c 0.57658,-0.22263 1.13603,-0.38818 1.67836,-0.49665 0.54233,-0.11417 1.07038,-0.17126 1.58417,-0.17127 1.38722,10e-6 2.42335,0.35966 3.1084,1.07895 0.68504,0.71931 1.02756,1.80967 1.02757,3.2711"
         style="fill:#000000"
         id="path3732" />
      <path
         d="m 192.11097,964.90474 1.57561,0 0,13.32416 -1.57561,0 0,-13.32416"
         style="fill:#000000"
         id="path3734" />
      <path
         d="m 196.81211,974.44402 0,-5.80577 1.5756,0 0,5.74583 c 0,0.90769 0.17697,1.58988 0.53092,2.04657 0.35393,0.451 0.88484,0.67649 1.59273,0.67649 0.85059,0 1.52137,-0.27116 2.01232,-0.81349 0.49666,-0.54233 0.74499,-1.28161 0.74499,-2.21784 l 0,-5.43756 1.57561,0 0,9.59065 -1.57561,0 0,-1.47285 c -0.38249,0.58229 -0.82777,1.01616 -1.33584,1.30159 -0.50237,0.27973 -1.08752,0.41959 -1.75543,0.41959 -1.10179,0 -1.93812,-0.34252 -2.50898,-1.02757 -0.57088,-0.68504 -0.85631,-1.68692 -0.85631,-3.00564 m 3.96471,-6.03698 0,0"
         style="fill:#000000"
         id="path3736" />
      <path
         d="m 216.31026,973.03967 0,0.77068 -7.24437,0 c 0.0685,1.08466 0.3939,1.91243 0.97619,2.4833 0.588,0.56516 1.40434,0.84774 2.44904,0.84774 0.60512,0 1.19027,-0.0742 1.75544,-0.22264 0.57086,-0.14842 1.13602,-0.37106 1.69549,-0.66792 l 0,1.48998 c -0.56518,0.23976 -1.14461,0.42244 -1.73831,0.54803 -0.59371,0.1256 -1.19598,0.18839 -1.80681,0.18839 -1.52994,0 -2.74304,-0.44528 -3.63931,-1.33584 -0.89056,-0.89056 -1.33584,-2.0951 -1.33584,-3.61362 0,-1.56989 0.42244,-2.81439 1.26733,-3.73351 0.8506,-0.9248 1.9952,-1.38721 3.4338,-1.38722 1.29017,10e-6 2.30917,0.41675 3.05702,1.25021 0.75354,0.82778 1.13032,1.95525 1.13033,3.38242 m -1.57561,-0.4624 c -0.0114,-0.86201 -0.25404,-1.54991 -0.72786,-2.06371 -0.46812,-0.51377 -1.09037,-0.77067 -1.86675,-0.77067 -0.87915,0 -1.58418,0.24833 -2.11508,0.74498 -0.52521,0.49667 -0.82777,1.19599 -0.90769,2.09796 l 5.61738,-0.009"
         style="fill:#000000"
         id="path3738" />
      <path
         d="m 6.4889653,1001.7774 0.599416,0 c 0.7992177,0 1.318711,-0.1228 1.5584815,-0.3682 0.2454705,-0.2455 0.368208,-0.7764 0.3682127,-1.59276 l 0,-2.12364 c -4.7e-6,-0.89056 0.1284414,-1.5385 0.3853388,-1.94382 0.2568872,-0.40532 0.7021677,-0.68505 1.3358417,-0.83919 -0.633674,-0.14271 -1.0789545,-0.41673 -1.3358417,-0.82205 -0.2568974,-0.40532 -0.3853435,-1.05611 -0.3853388,-1.95239 l 0,-2.12364 c -4.7e-6,-0.81063 -0.1227422,-1.33869 -0.3682127,-1.58417 -0.2397705,-0.25117 -0.7592638,-0.37677 -1.5584815,-0.37678 l -0.599416,0 0,-1.22452 0.5394744,0 c 1.421468,10e-6 2.3691152,0.21124 2.8429443,0.63367 0.479527,0.41675 0.719293,1.25593 0.719299,2.51755 l 0,2.05514 c -6e-6,0.8506 0.154129,1.44146 0.462407,1.77256 0.308264,0.3254 0.867718,0.4881 1.678365,0.48809 l 0.530911,0 0,1.22452 -0.530911,0 c -0.810647,10e-6 -1.370101,0.16556 -1.678365,0.49666 -0.308278,0.33111 -0.462413,0.92767 -0.462407,1.78969 l 0,2.04657 c -6e-6,1.26161 -0.239772,2.10371 -0.719299,2.52611 -0.4738291,0.4224 -1.4214763,0.6337 -2.8429443,0.6337 l -0.5394744,0 0,-1.2331"
         style="fill:#000000"
         id="path3740" />
    </g>
    <rect
       style="fill:#000000;fill-opacity:0;stroke-width:5;stroke-miterlimit:4;stroke-dasharray:none"
       id="rect10453"
       width="167.63164"
       height="76.993622"
       x="7.4091368"
       y="869.16132" />
    <flowRoot
       xml:space="preserve"
       id="flowRoot10535"
       style="font-size:16px;font-style:normal;font-weight:normal;line-height:125%;letter-spacing:0px;word-spacing:0px;fill:#000000;fill-opacity:1;stroke:none;font-family:Sans"><flowRegion
         id="flowRegion10537"><rect
           id="rect10539"
           width="177.30673"
           height="17.955112"
           x="64.339149"
           y="90.773064" /></flowRegion><flowPara
         id="flowPara10541" /></flowRoot>    <rect
       style="fill:none;stroke:#000000;stroke-width:0.90373242;stroke-opacity:1"
       id="rect10545"
       width="309.1218"
       height="27.768545"
       x="454.94232"
       y="800.19336" />
    <text
       xml:space="preserve"
       style="font-size:15.58862114px;font-style:normal;font-weight:normal;line-height:125%;letter-spacing:0px;word-spacing:0px;fill:#000000;fill-opacity:1;stroke:none;font-family:Sans"
       x="461.5376"
       y="820.63763"
       id="text10547"
       sodipodi:linespacing="125%"><tspan
         sodipodi:role="line"
         x="461.5376"
         y="820.63763"
         id="tspan10555">could have none or many parameters</tspan></text>
    <text
       xml:space="preserve"
       style="font-size:15.58862114px;font-style:normal;font-weight:normal;line-height:125%;letter-spacing:0px;word-spacing:0px;fill:#000000;fill-opacity:1;stroke:none;font-family:Sans"
       x="17.557507"
       y="765.33698"
       id="text10597"
       sodipodi:linespacing="125%"><tspan
         sodipodi:role="line"
         id="tspan10599"
         x="17.557507"
         y="765.33698"
         style="font-size:9.76542568px">          any</tspan><tspan
         sodipodi:role="line"
         x="17.557507"
         y="783.34796"
         id="tspan3224">    class</tspan><tspan
         sodipodi:role="line"
         x="17.557507"
         y="802.83374"
         id="tspan3220">     -or-</tspan><tspan
         sodipodi:role="line"
         x="17.557507"
         y="822.31958"
         id="tspan3222"> primative</tspan><tspan
         sodipodi:role="line"
         x="17.557507"
         y="835.33173"
         id="tspan4698"
         style="font-size:9.09394073px">or <tspan
   style="font-style:normal;font-variant:normal;font-weight:normal;font-stretch:normal;fill:#000080;font-family:Monospace;-inkscape-font-specification:Monospace"
   id="tspan4700">void</tspan> if no return</tspan></text>
    <rect
       style="fill:none;stroke:#000000;stroke-width:0.86537433;stroke-opacity:1"
       id="rect10545-6"
       width="93.590775"
       height="84.096565"
       x="13.185632"
       y="755.20972" />
    <path
       style="fill:none;stroke:#000000;stroke-width:0.97428882px;stroke-linecap:butt;stroke-linejoin:miter;stroke-opacity:1;marker-end:url(#Arrow1Lend)"
       d="m 57.667964,839.30628 -1.526523,27.75018"
       id="path10619"
       inkscape:connector-type="polyline"
       inkscape:connector-curvature="0"
       inkscape:connection-start="#rect10545-6"
       inkscape:connection-start-point="d4"
       inkscape:connection-end="#rect10455"
       inkscape:connection-end-point="d4" />
    <path
       style="fill:none;stroke:#000000;stroke-width:0.97428882px;stroke-linecap:butt;stroke-linejoin:miter;stroke-opacity:1;marker-end:url(#Arrow1Lend)"
       d="m 584.94557,827.9619 -68.42929,38.68819"
       id="path10991"
       inkscape:connector-type="polyline"
       inkscape:connector-curvature="0"
       inkscape:connection-start="#rect10545"
       inkscape:connection-start-point="d4"
       inkscape:connection-end="#rect10533"
       inkscape:connection-end-point="d4" />
    <path
       style="fill:none;stroke:#000000;stroke-width:0.97428882px;stroke-linecap:butt;stroke-linejoin:miter;stroke-opacity:1;marker-end:url(#Arrow1Lend)"
       d="m 646.81232,827.9619 104.53474,38.90175"
       id="path10993"
       inkscape:connector-type="polyline"
       inkscape:connector-curvature="0"
       inkscape:connection-start="#rect10545"
       inkscape:connection-start-point="d4"
       inkscape:connection-end="#rect10533-9"
       inkscape:connection-end-point="d4" />
    <text
       xml:space="preserve"
       style="font-size:15.15656853px;font-style:normal;font-weight:normal;line-height:125%;letter-spacing:0px;word-spacing:0px;fill:#000000;fill-opacity:1;stroke:none;font-family:Sans"
       x="65.283066"
       y="1037.6827"
       id="text4042"
       sodipodi:linespacing="125%"><tspan
         sodipodi:role="line"
         id="tspan4044"
         x="65.283066"
         y="1037.6827">must be of the ReturnType</tspan></text>
    <rect
       style="fill:none;stroke:#000000;stroke-width:0.73196566;stroke-opacity:1"
       id="rect10545-6-8"
       width="209.98431"
       height="26.816235"
       x="60.515152"
       y="1018.6621" />
    <path
       style="fill:none;stroke:#000000;stroke-width:1.51565683px;stroke-linecap:butt;stroke-linejoin:miter;stroke-opacity:1;marker-end:url(#Arrow1Mend)"
       d="m 165.73626,1018.6621 0.56512,-33.09587"
       id="path4064"
       inkscape:connector-type="polyline"
       inkscape:connector-curvature="0"
       inkscape:connection-start="#rect10545-6-8"
       inkscape:connection-start-point="d4"
       inkscape:connection-end="#rect3258"
       inkscape:connection-end-point="d4" />
  </g>
</svg>
