<?xml version="1.0" encoding="UTF-8" standalone="no"?>
<!-- Created with Inkscape (http://www.inkscape.org/) -->

<svg
   xmlns:dc="http://purl.org/dc/elements/1.1/"
   xmlns:cc="http://creativecommons.org/ns#"
   xmlns:rdf="http://www.w3.org/1999/02/22-rdf-syntax-ns#"
   xmlns:svg="http://www.w3.org/2000/svg"
   xmlns="http://www.w3.org/2000/svg"
   xmlns:sodipodi="http://sodipodi.sourceforge.net/DTD/sodipodi-0.dtd"
   xmlns:inkscape="http://www.inkscape.org/namespaces/inkscape"
   width="200"
   height="200"
   id="svg2"
   version="1.1"
   inkscape:version="0.48.4 r9939"
   sodipodi:docname="hint-y.svg">
  <defs
     id="defs4" />
  <sodipodi:namedview
     id="base"
     pagecolor="#ffffff"
     bordercolor="#666666"
     borderopacity="1.0"
     inkscape:pageopacity="0.0"
     inkscape:pageshadow="2"
     inkscape:zoom="3.165"
     inkscape:cx="72.217087"
     inkscape:cy="57.62518"
     inkscape:document-units="px"
     inkscape:current-layer="layer1"
     showgrid="false"
     inkscape:window-width="1319"
     inkscape:window-height="744"
     inkscape:window-x="47"
     inkscape:window-y="24"
     inkscape:window-maximized="1"
     inkscape:snap-bbox="true"
     inkscape:bbox-paths="true"
     inkscape:snap-page="false"
     inkscape:snap-global="false">
    <inkscape:grid
       type="xygrid"
       id="grid4611"
       empspacing="5"
       visible="true"
       enabled="true"
       snapvisiblegridlinesonly="true" />
  </sodipodi:namedview>
  <metadata
     id="metadata7">
    <rdf:RDF>
      <cc:Work
         rdf:about="">
        <dc:format>image/svg+xml</dc:format>
        <dc:type
           rdf:resource="http://purl.org/dc/dcmitype/StillImage" />
        <dc:title></dc:title>
      </cc:Work>
    </rdf:RDF>
  </metadata>
  <g
     inkscape:groupmode="layer"
     id="layer3"
     inkscape:label="common"
     style="display:inline">
    <rect
       style="color:#000000;fill:#c9cfff;fill-opacity:1;stroke:none;stroke-width:0.69878088999999999;marker:none;visibility:visible;display:inline;overflow:visible;enable-background:accumulate"
       id="rect4679"
       width="200"
       height="88.473328"
       x="1.7041923e-14"
       y="67.840797" />
    <path
       style="fill:none;stroke:#000000;stroke-width:0.30000001;stroke-linecap:butt;stroke-linejoin:miter;stroke-miterlimit:4;stroke-opacity:1;stroke-dasharray:0.3, 0.3;stroke-dashoffset:0;display:inline"
       d="M 34.368308,126.43303 C 101.11982,56.328589 134.23273,75.278932 169.83541,103.52592"
       id="path4598"
       inkscape:connector-curvature="0"
       sodipodi:nodetypes="cc" />
    <g
       style="display:inline"
       id="g3055"
       transform="matrix(0.23738394,0,0,0.23738394,-71.451093,49.366611)">
      <path
         sodipodi:nodetypes="cccc"
         inkscape:connector-curvature="0"
         id="path3956-2-8-6-6"
         d="m 384.8354,384.87367 c -6.35625,-0.78023 -6.0865,3.12539 -12.09868,7.30989 4.06536,-1.22041 5.4975,-4.00858 7.13548,-2.30987 z"
         style="fill:#aa4400;fill-opacity:1;stroke:none" />
      <rect
         transform="matrix(0.70830168,0.70590986,-0.70590986,0.70830168,0,0)"
         y="-72.363503"
         x="544.10223"
         height="80.433395"
         width="3.0052035"
         id="rect3948"
         style="fill:#784421;fill-opacity:1;stroke:none" />
      <path
         sodipodi:nodetypes="ccccc"
         inkscape:connector-curvature="0"
         id="path4015"
         d="m 436.01593,333.3245 -9.84648,9.81493 c -7.45319,8.59343 -10.36333,11.56778 -11.31745,15.59917 l 23.29782,-23.31855 z"
         style="fill:#a05a2c;stroke:none" />
      <path
         sodipodi:nodetypes="cccc"
         inkscape:connector-curvature="0"
         id="path3956-2-8-6"
         d="m 386.89083,386.9612 c 0.80168,6.3534 -3.10535,6.09682 -7.26942,12.1228 1.20657,-4.06885 3.9905,-5.51065 2.2858,-7.14296 z"
         style="fill:#d06620;fill-opacity:1;stroke:none" />
      <path
         sodipodi:nodetypes="ccccc"
         inkscape:connector-curvature="0"
         id="path4017"
         d="m 409.79569,359.60778 c -4.9062,6.71919 -12.39607,12.75789 -13.8861,18.11999 l -15.67485,16.1301 c 1.04024,-3.162 0.89112,-3.29802 -2.25189,-2.23636 z"
         style="fill:#5d341a;fill-opacity:1;stroke:none" />
      <path
         sodipodi:nodetypes="cccc"
         inkscape:connector-curvature="0"
         id="path3956-2-8"
         d="m 386.13196,386.29779 c 0.80153,6.35401 -3.1055,6.09742 -7.26967,12.12371 1.20671,-4.06947 5.11372,-6.65346 3.40906,-8.28576 z"
         style="fill:#ff8c40;fill-opacity:1;stroke:none" />
      <path
         sodipodi:nodetypes="cccc"
         inkscape:connector-curvature="0"
         id="path3950"
         d="m 430.36663,331.38194 c 6.13473,1.48376 8.12125,3.73086 9.7667,9.73328 l 4.2654,-14.04629 z"
         style="fill:#808080;stroke:none" />
      <path
         sodipodi:nodetypes="cccc"
         inkscape:connector-curvature="0"
         id="path3952"
         d="m 444.40614,327.07708 -14.03168,4.2968 c 2.37504,0.62601 3.28696,1.10051 4.93192,1.8975 -2.6908,-2.25548 0.81531,-2.84525 9.09976,-6.1943 z"
         style="fill:#666666;stroke:none" />
      <path
         sodipodi:nodetypes="cccc"
         inkscape:connector-curvature="0"
         id="path3954"
         d="m 444.39497,327.069 c -3.0568,6.11598 -6.07793,7.82877 -4.36921,13.65462 l 0.11106,0.40362 c 1.62954,-5.26993 3.03618,-9.68956 4.25791,-14.0583 z"
         style="fill:#999999;stroke:none" />
      <path
         sodipodi:nodetypes="cccc"
         inkscape:connector-curvature="0"
         id="path3956-2-8-1"
         d="m 385.09498,387.33885 c 0.48911,3.98888 -3.4641,5.96715 -6.23269,11.08265 0.57666,-3.43671 4.96518,-6.46413 3.26855,-8.10445 z"
         style="fill:#e07229;fill-opacity:1;stroke:none" />
      <path
         sodipodi:nodetypes="cccc"
         inkscape:connector-curvature="0"
         id="path3956-2-8-1-2"
         d="m 383.46259,388.97641 c 0.3245,3.46066 -2.96142,4.92149 -4.6003,9.44509 0.19802,-3.05689 3.78511,-5.8186 2.99887,-7.8875 z"
         style="fill:#c06c35;fill-opacity:1;stroke:none" />
      <path
         sodipodi:nodetypes="cccc"
         inkscape:connector-curvature="0"
         id="path3956-2-8-9"
         d="m 385.50105,385.62981 c -6.35617,-0.77989 -6.08665,3.12601 -12.09868,7.31085 4.06519,-1.22076 6.37326,-5.09035 7.80814,-3.05149 z"
         style="fill:#ff9955;fill-opacity:1;stroke:none" />
      <path
         sodipodi:nodetypes="cccc"
         inkscape:connector-curvature="0"
         id="path3956-2-8-1-8"
         d="m 384.46414,386.67057 c -3.99117,-0.47572 -5.95585,3.48408 -11.0618,6.27009 3.43479,-0.58842 6.20473,-4.76345 7.85084,-3.07209 z"
         style="fill:#ff7f2a;fill-opacity:1;stroke:none" />
      <path
         sodipodi:nodetypes="cccc"
         inkscape:connector-curvature="0"
         id="path3956-2-8-1-2-8"
         d="m 382.83166,388.30843 c -3.4617,-0.31301 -4.91141,2.97817 -9.42932,4.63223 3.05628,-0.20888 5.60625,-3.56522 7.82421,-3.02372 z"
         style="fill:#ff6600;fill-opacity:1;stroke:none" />
    </g>
    <path
       style="fill:none;stroke:#969696;stroke-width:0.48558608;stroke-linecap:butt;stroke-linejoin:miter;stroke-miterlimit:4;stroke-opacity:1;stroke-dasharray:none;display:inline"
       d="M 170.33181,136.57902 24.915245,136.4711"
       id="path2987-4"
       inkscape:connector-curvature="0"
       sodipodi:nodetypes="cc" />
    <path
       style="fill:none;stroke:#969696;stroke-width:0.5;stroke-linecap:butt;stroke-linejoin:miter;stroke-miterlimit:4;stroke-opacity:1;stroke-dasharray:none;display:inline"
       d="m 170.07993,103.6572 0,32.70984"
       id="path4215"
       inkscape:connector-curvature="0" />
  </g>
  <g
     inkscape:label="height"
     inkscape:groupmode="layer"
     id="layer1"
     transform="translate(0,-852.36218)"
     style="display:inline">
    <path
       inkscape:connector-curvature="0"
       id="path3838"
       style="font-size:16px;font-style:normal;font-weight:normal;line-height:125%;letter-spacing:0px;word-spacing:0px;fill:#000000;fill-opacity:1;stroke:none;font-family:Sans;-inkscape-font-specification:Sans Bold"
       d="m 44.452007,1035.9353 c -0.40625,1.0417 -0.80208,1.7213 -1.1875,2.0391 -0.38542,0.3177 -0.90104,0.4765 -1.54687,0.4765 l -1.14844,0 0,-1.2031 0.84375,0 c 0.39583,0 0.70312,-0.094 0.92188,-0.2813 0.21874,-0.1875 0.46093,-0.6302 0.72656,-1.3281 l 0.25781,-0.6562 -3.53906,-8.6094 1.52344,0 2.73437,6.8437 2.73438,-6.8437 1.52343,0 -3.84375,9.5625" />
    <path
       inkscape:connector-curvature="0"
       id="path3840"
       style="font-size:16px;font-style:normal;font-weight:normal;line-height:125%;letter-spacing:0px;word-spacing:0px;fill:#000000;fill-opacity:1;stroke:none;font-family:Sans;-inkscape-font-specification:Sans Bold"
       d="m 55.561386,1027.8572 10.01562,0 0,1.3125 -10.01562,0 0,-1.3125 m 0,3.1875 10.01562,0 0,1.3281 -10.01562,0 0,-1.3281" />
    <path
       inkscape:connector-curvature="0"
       id="path3848"
       style="font-size:16px;font-style:normal;font-weight:normal;line-height:125%;letter-spacing:0px;word-spacing:0px;fill:#000000;fill-opacity:1;stroke:none;font-family:Sans;-inkscape-font-specification:Sans Bold"
       d="m 74.998884,1026.3728 1.52344,0 2.73437,7.3437 2.734376,-7.3437 1.52343,0 -3.28125,8.75 -1.953116,0 -3.28125,-8.75" />
    <path
       inkscape:connector-curvature="0"
       id="path3850"
       style="font-size:8px;font-style:normal;font-weight:bold;line-height:125%;letter-spacing:0px;word-spacing:0px;fill:#000000;fill-opacity:1;stroke:none;font-family:Sans;-inkscape-font-specification:Sans Bold"
       d="m 87.290419,1037.529 c -0.20313,0.5209 -0.40106,0.8607 -0.59376,1.0196 -0.19271,0.1588 -0.45053,0.2383 -0.77344,0.2383 l -0.57422,0 0,-0.6016 0.42187,0 c 0.19792,0 0.35157,-0.047 0.46094,-0.1406 0.10938,-0.094 0.23047,-0.3151 0.36328,-0.6641 l 0.12891,-0.3281 -1.76953,-4.3047 0.76172,0 1.36719,3.4219 1.36719,-3.4219 0.76172,0 -1.92187,4.7812" />
    <path
       inkscape:connector-curvature="0"
       id="path3852"
       style="font-size:16px;font-style:normal;font-weight:normal;line-height:125%;letter-spacing:0px;word-spacing:0px;fill:#000000;fill-opacity:1;stroke:none;font-family:Sans;-inkscape-font-specification:Sans Bold"
       d="m 97.65514,1023.8884 0,2.4844 2.96094,0 0,1.1172 -2.96094,0 0,4.75 c 0,0.7135 0.0964,1.1719 0.28906,1.375 0.19792,0.2031 0.59635,0.3047 1.19531,0.3047 l 1.47657,0 0,1.2031 -1.47657,0 c -1.10937,0 -1.875,-0.2057 -2.29687,-0.6172 -0.42188,-0.4167 -0.63281,-1.1719 -0.63281,-2.2656 l 0,-4.75 -1.05469,0 0,-1.1172 1.05469,0 0,-2.4844 1.44531,0" />
    <path
       inkscape:connector-curvature="0"
       id="path3854"
       style="font-size:16px;font-style:normal;font-weight:normal;line-height:125%;letter-spacing:0px;word-spacing:0px;fill:#000000;fill-opacity:1;stroke:none;font-family:Sans;-inkscape-font-specification:Sans Bold"
       d="m 113.45981,1025.0915 0,4.3516 4.35156,0 0,1.3281 -4.35156,0 0,4.3516 -1.31249,0 0,-4.3516 -4.35157,0 0,-1.3281 4.35157,0 0,-4.3516 1.31249,0" />
    <path
       inkscape:connector-curvature="0"
       id="path3856"
       style="font-size:16px;font-style:normal;font-weight:normal;line-height:125%;letter-spacing:0px;word-spacing:0px;fill:#000000;fill-opacity:1;stroke:none;font-family:Sans;-inkscape-font-specification:Sans Bold"
       d="m 147.17857,1030.7244 c -1.16147,0 -1.96615,0.1328 -2.41407,0.3984 -0.44791,0.2656 -0.67187,0.7187 -0.67187,1.3594 0,0.5104 0.16666,0.9166 0.5,1.2187 0.33854,0.2969 0.79687,0.4453 1.375,0.4453 0.79687,0 1.43489,-0.2812 1.91406,-0.8437 0.48437,-0.5677 0.72656,-1.3203 0.72656,-2.2578 l 0,-0.3203 -1.42968,0 m 2.86718,-0.5938 0,4.9922 -1.4375,0 0,-1.3281 c -0.32813,0.5312 -0.73698,0.9245 -1.22656,1.1797 -0.48959,0.25 -1.08854,0.375 -1.79687,0.375 -0.89584,0 -1.60938,-0.25 -2.14063,-0.75 -0.52604,-0.5052 -0.78906,-1.1797 -0.78906,-2.0235 0,-0.9844 0.32812,-1.7265 0.98437,-2.2265 0.66146,-0.5 1.64583,-0.75 2.95313,-0.75 l 2.01562,0 0,-0.1407 c 0,-0.6614 -0.21875,-1.1718 -0.65625,-1.5312 -0.43229,-0.3646 -1.04167,-0.5469 -1.82812,-0.5469 -0.5,0 -0.98698,0.06 -1.46094,0.1797 -0.47396,0.1198 -0.92969,0.2995 -1.36719,0.5391 l 0,-1.3282 c 0.52604,-0.2031 1.03646,-0.3541 1.53125,-0.4531 0.49479,-0.1041 0.97656,-0.1562 1.44532,-0.1562 1.26562,0 2.21093,0.3281 2.83593,0.9843 0.625,0.6563 0.9375,1.6511 0.9375,2.9844" />
    <path
       inkscape:connector-curvature="0"
       id="path3858"
       style="font-size:16px;font-style:normal;font-weight:normal;line-height:125%;letter-spacing:0px;word-spacing:0px;fill:#000000;fill-opacity:1;stroke:none;font-family:Sans;-inkscape-font-specification:Sans Bold"
       d="m 158.43638,1023.8884 0,2.4844 2.96094,0 0,1.1172 -2.96094,0 0,4.75 c 0,0.7135 0.0964,1.1719 0.28906,1.375 0.19792,0.2031 0.59635,0.3047 1.19531,0.3047 l 1.47657,0 0,1.2031 -1.47657,0 c -1.10937,0 -1.875,-0.2057 -2.29687,-0.6172 -0.42188,-0.4167 -0.63281,-1.1719 -0.63281,-2.2656 l 0,-4.75 -1.05469,0 0,-1.1172 1.05469,0 0,-2.4844 1.44531,0" />
    <path
       inkscape:connector-curvature="0"
       id="path3860"
       style="font-size:8px;font-style:normal;font-weight:bold;line-height:125%;letter-spacing:0px;word-spacing:0px;fill:#000000;fill-opacity:1;stroke:none;font-family:Sans;-inkscape-font-specification:Sans Bold"
       d="m 163.3231,1026.4587 2.7539,0 0,0.6641 -3.70312,0 0,-0.6641 c 0.29948,-0.3099 0.70703,-0.7252 1.22266,-1.2461 0.51822,-0.5234 0.84374,-0.8606 0.97656,-1.0117 0.2526,-0.2838 0.42838,-0.5234 0.52734,-0.7187 0.10156,-0.1979 0.15234,-0.392 0.15235,-0.5821 -1e-5,-0.3099 -0.10938,-0.5625 -0.32813,-0.7578 -0.21615,-0.1953 -0.4987,-0.2929 -0.84766,-0.2929 -0.24739,0 -0.50911,0.043 -0.78515,0.1289 -0.27344,0.086 -0.56641,0.2161 -0.87891,0.3906 l 0,-0.7969 c 0.31771,-0.1276 0.61458,-0.2239 0.89063,-0.289 0.27604,-0.065 0.52864,-0.098 0.75781,-0.098 0.60416,1e-4 1.08593,0.1511 1.44531,0.4532 0.35937,0.3021 0.53906,0.7057 0.53906,1.2109 0,0.2396 -0.0456,0.4675 -0.13671,0.6836 -0.0885,0.2135 -0.25131,0.4662 -0.48829,0.7578 -0.0651,0.076 -0.27213,0.2943 -0.62109,0.6563 -0.34896,0.3593 -0.84115,0.8632 -1.47656,1.5117" />
    <path
       d="m 126.93079,1024.509 2.57813,0 0,-8.8985 -2.80469,0.5625 0,-1.4375 2.78906,-0.5625 1.57813,0 0,10.336 2.57812,0 0,1.3281 -6.71875,0 0,-1.3281"
       style="font-size:16px;font-style:normal;font-weight:normal;line-height:125%;letter-spacing:0px;word-spacing:0px;fill:#000000;fill-opacity:1;stroke:none;font-family:Sans;-inkscape-font-specification:Sans Bold"
       id="path6116"
       inkscape:connector-curvature="0" />
    <path
       d="m 128.01673,1044.509 5.50781,0 0,1.3281 -7.40625,0 0,-1.3281 c 0.59896,-0.6198 1.41406,-1.4506 2.44532,-2.4922 1.03645,-1.0469 1.68749,-1.7214 1.95312,-2.0235 0.5052,-0.5677 0.85677,-1.0469 1.05469,-1.4375 0.20312,-0.3958 0.30468,-0.7838 0.30469,-1.164 -1e-5,-0.6198 -0.21876,-1.125 -0.65625,-1.5157 -0.4323,-0.3906 -0.9974,-0.5859 -1.69532,-0.5859 -0.49479,0 -1.01823,0.086 -1.57031,0.2578 -0.54687,0.1719 -1.13281,0.4323 -1.75781,0.7813 l 0,-1.5938 c 0.63541,-0.2552 1.22916,-0.4479 1.78125,-0.5781 0.55208,-0.1302 1.05729,-0.1953 1.51562,-0.1953 1.20833,0 2.17187,0.3021 2.89063,0.9062 0.71874,0.6042 1.07812,1.4115 1.07812,2.4219 0,0.4792 -0.0912,0.9349 -0.27343,1.3672 -0.17709,0.4271 -0.50261,0.9323 -0.97657,1.5156 -0.13021,0.1511 -0.54427,0.5886 -1.24218,1.3125 -0.69792,0.7188 -1.6823,1.7266 -2.95313,3.0235"
       style="font-size:16px;font-style:normal;font-weight:normal;line-height:125%;letter-spacing:0px;word-spacing:0px;fill:#000000;fill-opacity:1;stroke:none;font-family:Sans;-inkscape-font-specification:Sans Bold"
       id="path6118"
       inkscape:connector-curvature="0" />
    <path
       style="fill:none;stroke:#000000;stroke-width:0.96963376;stroke-linecap:butt;stroke-linejoin:miter;stroke-miterlimit:4;stroke-opacity:1;stroke-dasharray:none"
       d="m 122.70289,1030.1663 12.81782,0.054"
       id="path3050-8"
       inkscape:connector-curvature="0" />
    <path
       id="path6128-3"
       d="m 92.93086,1029.8071 c 0,0.863 -0.69956,1.5625 -1.5625,1.5625 -0.86294,0 -1.5625,-0.6995 -1.5625,-1.5625 0,-0.8629 0.69956,-1.5625 1.5625,-1.5625 0.86294,0 1.5625,0.6996 1.5625,1.5625 z"
       style="font-size:16px;font-style:normal;font-weight:bold;line-height:125%;letter-spacing:0px;word-spacing:0px;fill:#000000;fill-opacity:0.99086758;stroke:none;font-family:Sans;-inkscape-font-specification:Sans Bold"
       inkscape:connector-curvature="0" />
    <path
       id="path6128-3-0"
       d="m 140.32577,1030.2101 c 0,0.863 -0.69956,1.5625 -1.5625,1.5625 -0.86294,0 -1.5625,-0.6995 -1.5625,-1.5625 0,-0.8629 0.69956,-1.5625 1.5625,-1.5625 0.86294,0 1.5625,0.6996 1.5625,1.5625 z"
       style="font-size:16px;font-style:normal;font-weight:bold;line-height:125%;letter-spacing:0px;word-spacing:0px;fill:#000000;fill-opacity:0.99086758;stroke:none;font-family:Sans;-inkscape-font-specification:Sans Bold"
       inkscape:connector-curvature="0" />
    <path
       id="path6128-3-8"
       d="m 155.16092,1030.1887 c 0,0.8629 -0.69956,1.5625 -1.5625,1.5625 -0.86294,0 -1.5625,-0.6996 -1.5625,-1.5625 0,-0.863 0.69956,-1.5625 1.5625,-1.5625 0.86294,0 1.5625,0.6995 1.5625,1.5625 z"
       style="font-size:16px;font-style:normal;font-weight:bold;line-height:125%;letter-spacing:0px;word-spacing:0px;fill:#000000;fill-opacity:0.99086758;stroke:none;font-family:Sans;-inkscape-font-specification:Sans Bold"
       inkscape:connector-curvature="0" />
    <text
       xml:space="preserve"
       style="font-size:16px;font-style:normal;font-weight:bold;line-height:125%;letter-spacing:0px;word-spacing:0px;fill:#000000;fill-opacity:1;stroke:none;font-family:Sans;-inkscape-font-specification:Sans Bold"
       x="76.35714"
       y="870.93359"
       id="text5513"
       sodipodi:linespacing="125%"><tspan
         sodipodi:role="line"
         id="tspan5515"
         x="76.35714"
         y="870.93359">Height</tspan></text>
    <text
       xml:space="preserve"
       style="font-size:6.5px;font-style:normal;font-weight:normal;line-height:125%;letter-spacing:0px;word-spacing:0px;fill:#000000;fill-opacity:1;stroke:none;display:inline;font-family:Sans;-inkscape-font-specification:Sans"
       x="80.99659"
       y="1037.1354"
       id="text3335-5"
       sodipodi:linespacing="125%"><tspan
         sodipodi:role="line"
         id="tspan3337-8"
         x="80.99659"
         y="1037.1354">0</tspan></text>
    <text
       xml:space="preserve"
       style="font-size:16px;font-style:normal;font-weight:normal;line-height:125%;letter-spacing:0px;word-spacing:0px;fill:#000000;fill-opacity:1;stroke:none;font-family:Sans;-inkscape-font-specification:Sans"
       x="29.099733"
       y="1034.5449"
       id="text3378"
       sodipodi:linespacing="125%"><tspan
         sodipodi:role="line"
         id="tspan3380"
         x="29.099733"
         y="1034.5449">Δ</tspan></text>
    <rect
       style="color:#000000;fill:#ffffff;fill-opacity:1;fill-rule:nonzero;stroke:#000000;stroke-width:0.5;stroke-linecap:butt;stroke-linejoin:miter;stroke-miterlimit:4;stroke-opacity:1;stroke-dasharray:none;stroke-dashoffset:0;marker:none;visibility:visible;display:inline;overflow:visible;enable-background:accumulate"
       id="rect3206-2-7-22"
       width="24.645893"
       height="18.418827"
       x="159.81865"
       y="964.24927" />
    <path
       inkscape:connector-curvature="0"
       id="path3838-2"
       style="font-size:16px;font-style:normal;font-weight:normal;line-height:125%;letter-spacing:0px;word-spacing:0px;fill:#000000;fill-opacity:1;stroke:none;display:inline;font-family:Sans;-inkscape-font-specification:Sans Bold"
       d="m 177.42547,978.25423 c -0.36563,0.93753 -0.72187,1.54917 -1.06875,1.83519 -0.34688,0.28593 -0.81093,0.42885 -1.39219,0.42885 l -1.0336,0 0,-1.08279 0.75939,0 c 0.35624,0 0.63281,-0.0846 0.82969,-0.25317 0.19687,-0.16866 0.41483,-0.56718 0.6539,-1.19529 l 0.23202,-0.59058 -3.18515,-7.74846 1.3711,0 2.46094,6.15933 2.46094,-6.15933 1.37108,0 -3.45937,8.60625" />
    <text
       xml:space="preserve"
       style="font-size:14.39999962px;font-style:normal;font-weight:normal;line-height:125%;letter-spacing:0px;word-spacing:0px;fill:#000000;fill-opacity:1;stroke:none;display:inline;font-family:Sans;-inkscape-font-specification:Sans"
       x="163.6084"
       y="977.00287"
       id="text3378-2"
       sodipodi:linespacing="125%"><tspan
         sodipodi:role="line"
         id="tspan3380-7"
         x="163.6084"
         y="977.00287">Δ</tspan></text>
    <rect
       style="color:#000000;fill:#ffffff;fill-opacity:1;stroke:#000000;stroke-width:0.5;stroke-linecap:butt;stroke-linejoin:miter;stroke-miterlimit:4;stroke-opacity:1;stroke-dasharray:none;stroke-dashoffset:0;marker:none;visibility:visible;display:inline;overflow:visible;enable-background:accumulate"
       id="rect3206-2-7-2-1"
       width="20.636864"
       height="15.357666"
       x="4.0485787"
       y="973.46936" />
    <path
       inkscape:connector-curvature="0"
       id="path3848-2"
       style="font-size:16px;font-style:normal;font-weight:normal;line-height:125%;letter-spacing:0px;word-spacing:0px;fill:#000000;fill-opacity:1;stroke:none;display:inline;font-family:Sans;-inkscape-font-specification:Sans Bold"
       d="m 8.0343188,976.04897 1.371096,0 2.4609332,6.60924 2.460938,-6.60924 1.371087,0 -2.953125,7.875 -1.757804,0 -2.9531252,-7.875" />
    <path
       inkscape:connector-curvature="0"
       id="path3850-9"
       style="font-size:8px;font-style:normal;font-weight:bold;line-height:125%;letter-spacing:0px;word-spacing:0px;fill:#000000;fill-opacity:1;stroke:none;display:inline;font-family:Sans;-inkscape-font-specification:Sans Bold"
       d="m 18.987343,986.04988 c -0.182817,0.4689 -0.360954,0.77472 -0.534384,0.91764 -0.173448,0.1422 -0.405477,0.21456 -0.696096,0.21456 l -0.516798,0 0,-0.54144 0.379683,0 c 0.178128,0 0.316413,-0.0432 0.414846,-0.126 0.09844,-0.0846 0.207423,-0.28368 0.326952,-0.59778 l 0.116028,-0.2952 -1.592577,-3.87414 0.685548,0 1.230471,3.07962 1.230471,-3.07962 0.685548,0 -1.729683,4.3029" />
    <text
       xml:space="preserve"
       style="font-size:5.8499999px;font-style:normal;font-weight:normal;line-height:125%;letter-spacing:0px;word-spacing:0px;fill:#000000;fill-opacity:1;stroke:none;display:inline;font-family:Sans;-inkscape-font-specification:Sans"
       x="13.551525"
       y="985.73511"
       id="text3335-5-8"
       sodipodi:linespacing="125%"><tspan
         sodipodi:role="line"
         id="tspan3337-8-0"
         x="13.551525"
         y="985.73511">0</tspan></text>
    <path
       style="fill:none;stroke:#000000;stroke-width:1;stroke-linecap:butt;stroke-linejoin:miter;stroke-miterlimit:4;stroke-opacity:1;stroke-dasharray:none;display:inline"
       d="m 24.770899,963.78481 0.108302,25.29422"
       id="path2987-12-2-9"
       inkscape:connector-curvature="0"
       sodipodi:nodetypes="cc" />
    <path
       style="fill:none;stroke:#000000;stroke-width:1;stroke-linecap:butt;stroke-linejoin:miter;stroke-miterlimit:4;stroke-opacity:1;stroke-dasharray:none;display:inline"
       d="m 16.525465,971.56262 8.274085,-8.34528 8.569031,9.47594"
       id="path3246-32-1-71"
       inkscape:connector-curvature="0" />
    <path
       style="fill:none;stroke:#000000;stroke-width:0.5;stroke-linecap:butt;stroke-linejoin:miter;stroke-miterlimit:4;stroke-opacity:1;stroke-dasharray:none;display:inline"
       d="m 157.07028,959.22058 -0.0541,-12.64711"
       id="path2987-12-2-9-1-7"
       inkscape:connector-curvature="0"
       sodipodi:nodetypes="cc" />
    <path
       style="fill:none;stroke:#000000;stroke-width:0.5;stroke-linecap:butt;stroke-linejoin:miter;stroke-miterlimit:4;stroke-opacity:1;stroke-dasharray:none;display:inline"
       d="m 161.193,955.33168 -4.13704,4.17264 -4.28452,-4.73797"
       id="path3246-32-1-71-7-4"
       inkscape:connector-curvature="0" />
    <path
       style="fill:none;stroke:#000000;stroke-width:0.25;stroke-linecap:butt;stroke-linejoin:miter;stroke-miterlimit:4;stroke-opacity:1;stroke-dasharray:none;display:inline"
       d="m 142.09698,943.78164 -0.0271,-6.32355"
       id="path2987-12-2-9-1-7-3"
       inkscape:connector-curvature="0"
       sodipodi:nodetypes="cc" />
    <path
       style="fill:none;stroke:#000000;stroke-width:0.25;stroke-linecap:butt;stroke-linejoin:miter;stroke-miterlimit:4;stroke-opacity:1;stroke-dasharray:none;display:inline"
       d="m 144.15834,941.83719 -2.06852,2.08632 -2.14226,-2.36898"
       id="path3246-32-1-71-7-4-8"
       inkscape:connector-curvature="0" />
    <path
       style="fill:none;stroke:#000000;stroke-width:0.125;stroke-linecap:butt;stroke-linejoin:miter;stroke-miterlimit:4;stroke-opacity:1;stroke-dasharray:none;display:inline"
       d="m 127.02228,935.112 -0.0136,-3.16177"
       id="path2987-12-2-9-1-7-3-5"
       inkscape:connector-curvature="0"
       sodipodi:nodetypes="cc" />
    <path
       style="fill:none;stroke:#000000;stroke-width:0.125;stroke-linecap:butt;stroke-linejoin:miter;stroke-miterlimit:4;stroke-opacity:1;stroke-dasharray:none;display:inline"
       d="m 128.05296,934.13977 -1.03426,1.04317 -1.07113,-1.18449"
       id="path3246-32-1-71-7-4-8-8"
       inkscape:connector-curvature="0" />
    <path
       style="fill:none;stroke:#000000;stroke-width:0.45295075;stroke-linecap:butt;stroke-linejoin:miter;stroke-miterlimit:4;stroke-opacity:1;stroke-dasharray:none;display:inline"
       d="m 66.683149,937.73572 0.04901,11.45703"
       id="path2987-12-2-9-1-7-0"
       inkscape:connector-curvature="0"
       sodipodi:nodetypes="cc" />
    <path
       style="fill:none;stroke:#000000;stroke-width:0.45295075;stroke-linecap:butt;stroke-linejoin:miter;stroke-miterlimit:4;stroke-opacity:1;stroke-dasharray:none;display:inline"
       d="m 62.94837,941.25868 3.747751,-3.78 3.881353,4.29213"
       id="path3246-32-1-71-7-4-83"
       inkscape:connector-curvature="0" />
    <path
       style="fill:none;stroke:#000000;stroke-width:0.25;stroke-linecap:butt;stroke-linejoin:miter;stroke-miterlimit:4;stroke-opacity:1;stroke-dasharray:none;display:inline"
       d="m 81.956208,933.32644 0.0271,6.32355"
       id="path2987-12-2-9-1-7-3-1"
       inkscape:connector-curvature="0"
       sodipodi:nodetypes="cc" />
    <path
       style="fill:none;stroke:#000000;stroke-width:0.25;stroke-linecap:butt;stroke-linejoin:miter;stroke-miterlimit:4;stroke-opacity:1;stroke-dasharray:none;display:inline"
       d="m 79.894848,935.27089 2.06852,-2.08632 2.14226,2.36898"
       id="path3246-32-1-71-7-4-8-0"
       inkscape:connector-curvature="0" />
    <path
       style="fill:none;stroke:#000000;stroke-width:0.125;stroke-linecap:butt;stroke-linejoin:miter;stroke-miterlimit:4;stroke-opacity:1;stroke-dasharray:none;display:inline"
       d="m 96.951919,930.14774 0.0136,3.16177"
       id="path2987-12-2-9-1-7-3-5-7"
       inkscape:connector-curvature="0"
       sodipodi:nodetypes="cc" />
    <path
       style="fill:none;stroke:#000000;stroke-width:0.125;stroke-linecap:butt;stroke-linejoin:miter;stroke-miterlimit:4;stroke-opacity:1;stroke-dasharray:none;display:inline"
       d="m 95.921239,931.11997 1.03426,-1.04317 1.07113,1.18449"
       id="path3246-32-1-71-7-4-8-8-9"
       inkscape:connector-curvature="0" />
    <path
       style="fill:none;stroke:#000000;stroke-width:0.70896137;stroke-linecap:butt;stroke-linejoin:miter;stroke-miterlimit:4;stroke-opacity:1;stroke-dasharray:none;display:inline"
       d="m 46.99827,947.71641 0.07671,17.93261"
       id="path2987-12-2-9-1-7-0-2"
       inkscape:connector-curvature="0"
       sodipodi:nodetypes="cc" />
    <path
       style="fill:none;stroke:#000000;stroke-width:0.70896137;stroke-linecap:butt;stroke-linejoin:miter;stroke-miterlimit:4;stroke-opacity:1;stroke-dasharray:none;display:inline"
       d="m 41.152571,953.23057 5.866004,-5.91648 6.075117,6.71806"
       id="path3246-32-1-71-7-4-83-9"
       inkscape:connector-curvature="0" />
    <text
       xml:space="preserve"
       style="font-size:8px;font-style:normal;font-variant:normal;font-weight:normal;font-stretch:normal;line-height:125%;letter-spacing:0px;word-spacing:0px;fill:#000000;fill-opacity:1;stroke:none;font-family:Serif;-inkscape-font-specification:Serif"
       x="26.362906"
       y="890.61005"
       id="text4667"
       sodipodi:linespacing="125%"><tspan
         sodipodi:role="line"
         id="tspan4669"
         x="26.362906"
         y="890.61005">Vertical movement of the arrow is</tspan><tspan
         sodipodi:role="line"
         x="26.362906"
         y="900.61005"
         id="tspan4673">affected by gravitaty, giving the arrow</tspan><tspan
         sodipodi:role="line"
         x="26.362906"
         y="910.61005"
         id="tspan4677">a downward acceleration</tspan></text>
  </g>
  <g
     inkscape:groupmode="layer"
     id="layer2"
     inkscape:label="distance"
     style="display:none">
    <text
       xml:space="preserve"
       style="font-size:16px;font-style:normal;font-weight:bold;line-height:125%;letter-spacing:0px;word-spacing:0px;fill:#000000;fill-opacity:1;stroke:none;font-family:Sans;-inkscape-font-specification:Sans Bold"
       x="69.462646"
       y="18.149374"
       id="text4052"
       sodipodi:linespacing="125%"><tspan
         sodipodi:role="line"
         x="69.462646"
         y="18.149374"
         id="tspan4056">Distance</tspan></text>
    <path
       inkscape:connector-curvature="0"
       id="path5625"
       style="font-size:8px;font-style:normal;font-weight:bold;line-height:125%;letter-spacing:0px;word-spacing:0px;fill:#000000;fill-opacity:1;stroke:none;font-family:Sans;-inkscape-font-specification:Sans Bold"
       d="m 121.50699,182.66584 -1.69889,2.28616 1.78699,2.41202 -0.91027,0 -1.36751,-1.84566 -1.36751,1.84566 -0.91026,0 1.82474,-2.45809 -1.66954,-2.24009 0.91028,0 1.24585,1.67374 1.24586,-1.67374 0.91026,0" />
    <path
       inkscape:connector-curvature="0"
       id="path5627-4"
       style="font-size:16px;font-style:normal;font-weight:normal;line-height:125%;letter-spacing:0px;word-spacing:0px;fill:#000000;fill-opacity:1;stroke:none;font-family:Sans;-inkscape-font-specification:Sans Bold"
       d="m 91.422741,175.88844 10.755459,0 0,1.40946 -10.755459,0 0,-1.40946 m 0,3.42296 10.755459,0 0,1.42621 -10.755459,0 0,-1.42621" />
    <text
       xml:space="preserve"
       style="font-size:17.18190002px;font-style:normal;font-weight:normal;line-height:125%;letter-spacing:0px;word-spacing:0px;fill:#000000;fill-opacity:1;stroke:none;font-family:Sans;-inkscape-font-specification:Sans"
       x="109.81131"
       y="184.36255"
       id="text3010-9"
       sodipodi:linespacing="125%"><tspan
         sodipodi:role="line"
         id="tspan3012-1"
         x="109.81131"
         y="184.36255">v · t</tspan></text>
    <text
       xml:space="preserve"
       style="font-size:17.18190002px;font-style:normal;font-weight:normal;line-height:125%;letter-spacing:0px;word-spacing:0px;fill:#000000;fill-opacity:1;stroke:none;font-family:Sans;-inkscape-font-specification:Sans"
       x="61.765736"
       y="184.50978"
       id="text3010-1-3"
       sodipodi:linespacing="125%"><tspan
         sodipodi:role="line"
         id="tspan3012-2-0"
         x="61.765736"
         y="184.50978">Δx</tspan></text>
    <path
       style="fill:none;stroke:#000000;stroke-width:1;stroke-linecap:butt;stroke-linejoin:miter;stroke-miterlimit:4;stroke-opacity:1;stroke-dasharray:none"
       d="m 139.6526,78.072331 -25.29445,0"
       id="path2987-12"
       inkscape:connector-curvature="0"
       sodipodi:nodetypes="cc" />
    <path
       style="fill:none;stroke:#000000;stroke-width:1;stroke-linecap:butt;stroke-linejoin:miter;stroke-miterlimit:4;stroke-opacity:1;stroke-dasharray:none"
       d="m 131.91016,69.793671 8.30978,8.30974 -9.51254,8.52838"
       id="path3246-32"
       inkscape:connector-curvature="0" />
    <rect
       style="color:#000000;fill:#ffffff;fill-opacity:1;fill-rule:nonzero;stroke:#000000;stroke-width:0.5;stroke-linecap:butt;stroke-linejoin:miter;stroke-miterlimit:4;stroke-opacity:1;stroke-dasharray:none;stroke-dashoffset:0;marker:none;visibility:visible;display:inline;overflow:visible;enable-background:accumulate"
       id="rect3206-2-7"
       width="20.636864"
       height="15.357666"
       x="113.8679"
       y="128.46753" />
    <text
       xml:space="preserve"
       style="font-size:12.12382317px;font-style:normal;font-weight:normal;line-height:125%;letter-spacing:0px;word-spacing:0px;fill:#000000;fill-opacity:1;stroke:none;display:inline;font-family:Sans;-inkscape-font-specification:Sans"
       x="116.33059"
       y="140.25874"
       id="text3010-1-3-6"
       sodipodi:linespacing="125%"><tspan
         sodipodi:role="line"
         id="tspan3012-2-0-2"
         x="116.33059"
         y="140.25874">Δx</tspan></text>
    <text
       xml:space="preserve"
       style="font-size:6.5px;font-style:normal;font-weight:normal;line-height:125%;letter-spacing:0px;word-spacing:0px;fill:#000000;fill-opacity:1;stroke:none;font-family:Sans;-inkscape-font-specification:Sans"
       x="121.4108"
       y="187.37053"
       id="text3335"
       sodipodi:linespacing="125%"><tspan
         sodipodi:role="line"
         id="tspan3337"
         x="121.4108"
         y="187.37053">0</tspan></text>
    <path
       id="path6128-3-8-8"
       d="m 129.80241,178.35672 c 0,0.8629 -0.69956,1.5625 -1.5625,1.5625 -0.86294,0 -1.5625,-0.6996 -1.5625,-1.5625 0,-0.863 0.69956,-1.5625 1.5625,-1.5625 0.86294,0 1.5625,0.6995 1.5625,1.5625 z"
       style="font-size:16px;font-style:normal;font-weight:bold;line-height:125%;letter-spacing:0px;word-spacing:0px;fill:#000000;fill-opacity:0.99086758;stroke:none;display:inline;font-family:Sans;-inkscape-font-specification:Sans Bold"
       inkscape:connector-curvature="0" />
    <path
       style="fill:none;stroke:#000000;stroke-width:1.00827467;stroke-linecap:butt;stroke-linejoin:miter;stroke-miterlimit:4;stroke-opacity:1;stroke-dasharray:none;display:inline"
       d="m 55.458612,136.53122 -30.578654,0"
       id="path2987-1-4-0"
       inkscape:connector-curvature="0"
       sodipodi:nodetypes="cc" />
    <path
       style="fill:none;stroke:#000000;stroke-width:1;stroke-linecap:butt;stroke-linejoin:miter;stroke-miterlimit:4;stroke-opacity:1;stroke-dasharray:none;display:inline"
       d="m 47.552404,128.25256 8.3098,8.30974 -9.512534,8.52838"
       id="path3246-3-2-0"
       inkscape:connector-curvature="0" />
    <rect
       style="color:#000000;fill:#ffffff;fill-opacity:1;stroke:#000000;stroke-width:0.5;stroke-linecap:butt;stroke-linejoin:miter;stroke-miterlimit:4;stroke-opacity:1;stroke-dasharray:none;stroke-dashoffset:0;marker:none;visibility:visible;display:inline;overflow:visible;enable-background:accumulate"
       id="rect3206-2-7-2"
       width="20.636864"
       height="15.357666"
       x="25.13644"
       y="136.78041" />
    <path
       inkscape:connector-curvature="0"
       id="path5625-3"
       style="font-size:8px;font-style:normal;font-weight:bold;line-height:125%;letter-spacing:0px;word-spacing:0px;fill:#000000;fill-opacity:1;stroke:none;display:inline;font-family:Sans;-inkscape-font-specification:Sans Bold"
       d="m 38.594663,145.83571 -1.529001,2.05755 1.608291,2.17081 -0.819243,0 -1.230759,-1.66109 -1.230759,1.66109 -0.819234,0 1.642266,-2.21229 -1.502586,-2.01607 0.819252,0 1.121265,1.50637 1.121274,-1.50637 0.819234,0" />
    <text
       xml:space="preserve"
       style="font-size:15.46370983px;font-style:normal;font-weight:normal;line-height:125%;letter-spacing:0px;word-spacing:0px;fill:#000000;fill-opacity:1;stroke:none;display:inline;font-family:Sans;-inkscape-font-specification:Sans"
       x="28.068546"
       y="147.36272"
       id="text3010-9-2"
       sodipodi:linespacing="125%"><tspan
         sodipodi:role="line"
         id="tspan3012-1-2"
         x="28.068546"
         y="147.36272">v</tspan></text>
    <text
       xml:space="preserve"
       style="font-size:5.8499999px;font-style:normal;font-weight:normal;line-height:125%;letter-spacing:0px;word-spacing:0px;fill:#000000;fill-opacity:1;stroke:none;display:inline;font-family:Sans;-inkscape-font-specification:Sans"
       x="38.508087"
       y="150.06992"
       id="text3335-9"
       sodipodi:linespacing="125%"><tspan
         sodipodi:role="line"
         id="tspan3337-3"
         x="38.508087"
         y="150.06992">0</tspan></text>
    <path
       style="fill:none;stroke:#000000;stroke-width:1;stroke-linecap:butt;stroke-linejoin:miter;stroke-miterlimit:4;stroke-opacity:1;stroke-dasharray:none;display:inline"
       d="m 195.05866,103.80905 -25.29445,0"
       id="path2987-12-2"
       inkscape:connector-curvature="0"
       sodipodi:nodetypes="cc" />
    <path
       style="fill:none;stroke:#000000;stroke-width:1;stroke-linecap:butt;stroke-linejoin:miter;stroke-miterlimit:4;stroke-opacity:1;stroke-dasharray:none;display:inline"
       d="m 187.31622,95.530387 8.30978,8.309743 -9.51254,8.52838"
       id="path3246-32-1"
       inkscape:connector-curvature="0" />
    <path
       style="fill:none;stroke:#000000;stroke-width:1;stroke-linecap:butt;stroke-linejoin:miter;stroke-miterlimit:4;stroke-opacity:1;stroke-dasharray:none;display:inline"
       d="m 83.568929,103.80905 -25.29445,0"
       id="path2987-12-2-3"
       inkscape:connector-curvature="0"
       sodipodi:nodetypes="cc" />
    <path
       style="fill:none;stroke:#000000;stroke-width:1;stroke-linecap:butt;stroke-linejoin:miter;stroke-miterlimit:4;stroke-opacity:1;stroke-dasharray:none;display:inline"
       d="m 75.826489,95.53039 8.30978,8.30974 -9.51254,8.52838"
       id="path3246-32-1-7"
       inkscape:connector-curvature="0" />
    <text
       xml:space="preserve"
       style="font-size:8px;font-style:normal;font-variant:normal;font-weight:normal;font-stretch:normal;line-height:125%;letter-spacing:0px;word-spacing:0px;fill:#000000;fill-opacity:1;stroke:none;display:inline;font-family:Serif;-inkscape-font-specification:Serif"
       x="26.362906"
       y="38.247864"
       id="text4667-0"
       sodipodi:linespacing="125%"><tspan
         sodipodi:role="line"
         x="26.362906"
         y="38.247864"
         id="tspan4677-1">Horizontal movement of the arrow has </tspan><tspan
         sodipodi:role="line"
         x="26.362906"
         y="48.247864"
         id="tspan4733">constant velocity since no horizontal </tspan><tspan
         sodipodi:role="line"
         x="26.362906"
         y="58.247864"
         id="tspan4737">force is present.</tspan></text>
  </g>
</svg>
