<?xml version="1.0" encoding="UTF-8" standalone="no"?>
<!-- Created with Inkscape (http://www.inkscape.org/) -->

<svg
   xmlns:dc="http://purl.org/dc/elements/1.1/"
   xmlns:cc="http://creativecommons.org/ns#"
   xmlns:rdf="http://www.w3.org/1999/02/22-rdf-syntax-ns#"
   xmlns:svg="http://www.w3.org/2000/svg"
   xmlns="http://www.w3.org/2000/svg"
   xmlns:sodipodi="http://sodipodi.sourceforge.net/DTD/sodipodi-0.dtd"
   xmlns:inkscape="http://www.inkscape.org/namespaces/inkscape"
   width="200"
   height="200"
   id="svg2"
   version="1.1"
   inkscape:version="0.48.4 r9939"
   sodipodi:docname="hint-v0.svg">
  <defs
     id="defs4" />
  <sodipodi:namedview
     id="base"
     pagecolor="#ffffff"
     bordercolor="#666666"
     borderopacity="1.0"
     inkscape:pageopacity="0.0"
     inkscape:pageshadow="2"
     inkscape:zoom="2.8"
     inkscape:cx="70.490178"
     inkscape:cy="163.0951"
     inkscape:document-units="px"
     inkscape:current-layer="layer1"
     showgrid="false"
     inkscape:window-width="1319"
     inkscape:window-height="744"
     inkscape:window-x="47"
     inkscape:window-y="24"
     inkscape:window-maximized="1"
     inkscape:snap-bbox="true"
     inkscape:bbox-paths="true"
     inkscape:bbox-nodes="true"
     inkscape:snap-global="false" />
  <metadata
     id="metadata7">
    <rdf:RDF>
      <cc:Work
         rdf:about="">
        <dc:format>image/svg+xml</dc:format>
        <dc:type
           rdf:resource="http://purl.org/dc/dcmitype/StillImage" />
        <dc:title />
      </cc:Work>
    </rdf:RDF>
  </metadata>
  <g
     inkscape:label="Layer 1"
     inkscape:groupmode="layer"
     id="layer1"
     transform="translate(0,-852.36218)">
    <path
       style="fill:none;stroke:#000000;stroke-width:0.44529155;stroke-linecap:butt;stroke-linejoin:miter;stroke-miterlimit:4;stroke-opacity:1;stroke-dasharray:none"
       d="m 37.810897,992.8196 129.340573,-130.87638 0.004,130.94488 z"
       id="path2987"
       inkscape:connector-curvature="0"
       sodipodi:nodetypes="cccc" />
    <path
       inkscape:connector-curvature="0"
       id="path5623"
       style="font-size:16px;font-style:normal;font-weight:normal;line-height:125%;letter-spacing:0px;word-spacing:0px;fill:#000000;fill-opacity:1;stroke:none;font-family:Sans;-inkscape-font-specification:Sans Bold"
       d="m 57.23366,1012.7062 1.52344,0 2.73437,7.3438 2.73438,-7.3438 1.52344,0 -3.28125,8.75 -1.95313,0 -3.28125,-8.75" />
    <path
       inkscape:connector-curvature="0"
       id="path5625"
       style="font-size:8px;font-style:normal;font-weight:bold;line-height:125%;letter-spacing:0px;word-spacing:0px;fill:#000000;fill-opacity:1;stroke:none;font-family:Sans;-inkscape-font-specification:Sans Bold"
       d="m 70.051282,1019.0987 -1.354741,2.0521 1.424995,2.1651 -0.725878,0 -1.090486,-1.6567 -1.090486,1.6567 -0.725869,0 1.455095,-2.2064 -1.331329,-2.0108 0.725877,0 0.993472,1.5024 0.993481,-1.5024 0.725869,0" />
    <path
       inkscape:connector-curvature="0"
       id="path5627"
       style="font-size:16px;font-style:normal;font-weight:normal;line-height:125%;letter-spacing:0px;word-spacing:0px;fill:#000000;fill-opacity:1;stroke:none;font-family:Sans;-inkscape-font-specification:Sans Bold"
       d="m 73.74929,1014.1906 10.01562,0 0,1.3125 -10.01562,0 0,-1.3125 m 0,3.1875 10.01562,0 0,1.3281 -10.01562,0 0,-1.3281" />
    <path
       inkscape:connector-curvature="0"
       id="path5629"
       style="font-size:16px;font-style:normal;font-weight:normal;line-height:125%;letter-spacing:0px;word-spacing:0px;fill:#000000;fill-opacity:1;stroke:none;font-family:Sans;-inkscape-font-specification:Sans Bold"
       d="m 57.73612,1036.9498 1.52343,0 2.73438,7.3438 2.73437,-7.3438 1.52344,0 -3.28125,8.75 -1.95312,0 -3.28125,-8.75" />
    <path
       inkscape:connector-curvature="0"
       id="path5631"
       style="font-size:8px;font-style:normal;font-weight:bold;line-height:125%;letter-spacing:0px;word-spacing:0px;fill:#000000;fill-opacity:1;stroke:none;font-family:Sans;-inkscape-font-specification:Sans Bold"
       d="m 68.990635,1047.6137 c -0.181823,0.4662 -0.358991,0.7704 -0.531495,0.9126 -0.172505,0.1422 -0.403284,0.2133 -0.692337,0.2133 l -0.514013,0 0,-0.5385 0.377637,0 c 0.177168,0 0.314699,-0.042 0.412611,-0.1259 0.0979,-0.084 0.206305,-0.282 0.32519,-0.5944 l 0.115394,-0.2937 -1.583996,-3.8534 0.681845,0 1.223841,3.0631 1.223841,-3.0631 0.681854,0 -1.720372,4.28" />
    <path
       inkscape:connector-curvature="0"
       id="path6735"
       style="font-size:16px;font-style:normal;font-weight:normal;line-height:125%;letter-spacing:0px;word-spacing:0px;fill:#000000;fill-opacity:1;stroke:none;font-family:Sans;-inkscape-font-specification:Sans Bold"
       d="m 74.65648,1038.8797 10.01562,0 0,1.3125 -10.01562,0 0,-1.3125 m 0,3.1875 10.01562,0 0,1.3281 -10.01562,0 0,-1.3281" />
    <text
       xml:space="preserve"
       style="font-size:16px;font-style:normal;font-weight:normal;line-height:125%;letter-spacing:0px;word-spacing:0px;fill:#000000;fill-opacity:1;stroke:none;font-family:Sans;-inkscape-font-specification:Sans"
       x="86.872971"
       y="1022.0818"
       id="text3010"
       sodipodi:linespacing="125%"><tspan
         sodipodi:role="line"
         id="tspan3012"
         x="86.872971"
         y="1022.0818">v·cos(θ)</tspan></text>
    <text
       xml:space="preserve"
       style="font-size:14.24932957px;font-style:normal;font-weight:normal;line-height:125%;letter-spacing:0px;word-spacing:0px;fill:#000000;fill-opacity:1;stroke:none;font-family:Sans;-inkscape-font-specification:Sans"
       x="65.477783"
       y="983.91388"
       id="text3014"
       sodipodi:linespacing="125%"><tspan
         sodipodi:role="line"
         id="tspan3016"
         x="65.477783"
         y="983.91388">θ</tspan></text>
    <text
       xml:space="preserve"
       style="font-size:16px;font-style:normal;font-weight:normal;line-height:125%;letter-spacing:0px;word-spacing:0px;fill:#000000;fill-opacity:1;stroke:none;font-family:Sans;-inkscape-font-specification:Sans"
       x="87.630585"
       y="1046.3254"
       id="text3018"
       sodipodi:linespacing="125%"><tspan
         sodipodi:role="line"
         id="tspan3020"
         x="87.630585"
         y="1046.3254">v·sin(θ)</tspan></text>
    <g
       id="g3055"
       transform="matrix(0.90279671,0,0,0.90279671,-306.38696,639.88906)">
      <path
         sodipodi:nodetypes="cccc"
         inkscape:connector-curvature="0"
         id="path3956-2-8-6-6"
         d="m 384.8354,384.87367 c -6.35625,-0.78023 -6.0865,3.12539 -12.09868,7.30989 4.06536,-1.22041 5.4975,-4.00858 7.13548,-2.30987 z"
         style="fill:#aa4400;fill-opacity:1;stroke:none" />
      <rect
         transform="matrix(0.70830168,0.70590986,-0.70590986,0.70830168,0,0)"
         y="-72.363503"
         x="544.10223"
         height="80.433395"
         width="3.0052035"
         id="rect3948"
         style="fill:#784421;fill-opacity:1;stroke:none" />
      <path
         sodipodi:nodetypes="ccccc"
         inkscape:connector-curvature="0"
         id="path4015"
         d="m 436.01593,333.3245 -9.84648,9.81493 c -7.45319,8.59343 -10.36333,11.56778 -11.31745,15.59917 l 23.29782,-23.31855 z"
         style="fill:#a05a2c;stroke:none" />
      <path
         sodipodi:nodetypes="cccc"
         inkscape:connector-curvature="0"
         id="path3956-2-8-6"
         d="m 386.89083,386.9612 c 0.80168,6.3534 -3.10535,6.09682 -7.26942,12.1228 1.20657,-4.06885 3.9905,-5.51065 2.2858,-7.14296 z"
         style="fill:#d06620;fill-opacity:1;stroke:none" />
      <path
         sodipodi:nodetypes="ccccc"
         inkscape:connector-curvature="0"
         id="path4017"
         d="m 409.79569,359.60778 c -4.9062,6.71919 -12.39607,12.75789 -13.8861,18.11999 l -15.67485,16.1301 c 1.04024,-3.162 0.89112,-3.29802 -2.25189,-2.23636 z"
         style="fill:#5d341a;fill-opacity:1;stroke:none" />
      <path
         sodipodi:nodetypes="cccc"
         inkscape:connector-curvature="0"
         id="path3956-2-8"
         d="m 386.13196,386.29779 c 0.80153,6.35401 -3.1055,6.09742 -7.26967,12.12371 1.20671,-4.06947 5.11372,-6.65346 3.40906,-8.28576 z"
         style="fill:#ff8c40;fill-opacity:1;stroke:none" />
      <path
         sodipodi:nodetypes="cccc"
         inkscape:connector-curvature="0"
         id="path3950"
         d="m 430.36663,331.38194 c 6.13473,1.48376 8.12125,3.73086 9.7667,9.73328 l 4.2654,-14.04629 z"
         style="fill:#808080;stroke:none" />
      <path
         sodipodi:nodetypes="cccc"
         inkscape:connector-curvature="0"
         id="path3952"
         d="m 444.40614,327.07708 -14.03168,4.2968 c 2.37504,0.62601 3.28696,1.10051 4.93192,1.8975 -2.6908,-2.25548 0.81531,-2.84525 9.09976,-6.1943 z"
         style="fill:#666666;stroke:none" />
      <path
         sodipodi:nodetypes="cccc"
         inkscape:connector-curvature="0"
         id="path3954"
         d="m 444.39497,327.069 c -3.0568,6.11598 -6.07793,7.82877 -4.36921,13.65462 l 0.11106,0.40362 c 1.62954,-5.26993 3.03618,-9.68956 4.25791,-14.0583 z"
         style="fill:#999999;stroke:none" />
      <path
         sodipodi:nodetypes="cccc"
         inkscape:connector-curvature="0"
         id="path3956-2-8-1"
         d="m 385.09498,387.33885 c 0.48911,3.98888 -3.4641,5.96715 -6.23269,11.08265 0.57666,-3.43671 4.96518,-6.46413 3.26855,-8.10445 z"
         style="fill:#e07229;fill-opacity:1;stroke:none" />
      <path
         sodipodi:nodetypes="cccc"
         inkscape:connector-curvature="0"
         id="path3956-2-8-1-2"
         d="m 383.46259,388.97641 c 0.3245,3.46066 -2.96142,4.92149 -4.6003,9.44509 0.19802,-3.05689 3.78511,-5.8186 2.99887,-7.8875 z"
         style="fill:#c06c35;fill-opacity:1;stroke:none" />
      <path
         sodipodi:nodetypes="cccc"
         inkscape:connector-curvature="0"
         id="path3956-2-8-9"
         d="m 385.50105,385.62981 c -6.35617,-0.77989 -6.08665,3.12601 -12.09868,7.31085 4.06519,-1.22076 6.37326,-5.09035 7.80814,-3.05149 z"
         style="fill:#ff9955;fill-opacity:1;stroke:none" />
      <path
         sodipodi:nodetypes="cccc"
         inkscape:connector-curvature="0"
         id="path3956-2-8-1-8"
         d="m 384.46414,386.67057 c -3.99117,-0.47572 -5.95585,3.48408 -11.0618,6.27009 3.43479,-0.58842 6.20473,-4.76345 7.85084,-3.07209 z"
         style="fill:#ff7f2a;fill-opacity:1;stroke:none" />
      <path
         sodipodi:nodetypes="cccc"
         inkscape:connector-curvature="0"
         id="path3956-2-8-1-2-8"
         d="m 382.83166,388.30843 c -3.4617,-0.31301 -4.91141,2.97817 -9.42932,4.63223 3.05628,-0.20888 5.60625,-3.56522 7.82421,-3.02372 z"
         style="fill:#ff6600;fill-opacity:1;stroke:none" />
    </g>
    <rect
       style="color:#000000;fill:#ffffff;fill-opacity:1;fill-rule:nonzero;stroke:#000000;stroke-width:0.71246648;stroke-linecap:butt;stroke-linejoin:miter;stroke-miterlimit:4;stroke-opacity:1;stroke-dasharray:none;stroke-dashoffset:0;marker:none;visibility:visible;display:inline;overflow:visible;enable-background:accumulate"
       id="rect3206-2"
       width="19.341932"
       height="14.393996"
       x="105.72047"
       y="986.74414" />
    <rect
       style="color:#000000;fill:#ffffff;fill-opacity:1;fill-rule:nonzero;stroke:#000000;stroke-width:0.62549269;stroke-linecap:butt;stroke-linejoin:miter;stroke-miterlimit:4;stroke-opacity:1;stroke-dasharray:none;stroke-dashoffset:0;marker:none;visibility:visible;display:inline;overflow:visible;enable-background:accumulate"
       id="rect3206-2-4"
       width="14.818329"
       height="14.480971"
       x="105.00228"
       y="910.26874" />
    <rect
       style="color:#000000;fill:#ffffff;fill-opacity:1;fill-rule:nonzero;stroke:#000000;stroke-width:0.71246648;stroke-linecap:butt;stroke-linejoin:miter;stroke-miterlimit:4;stroke-opacity:1;stroke-dasharray:none;stroke-dashoffset:0;marker:none;visibility:visible;display:inline;overflow:visible;enable-background:accumulate"
       id="rect3206"
       width="19.341932"
       height="14.393996"
       x="158.57344"
       y="929.65417" />
    <path
       style="fill:none;stroke:#000000;stroke-width:0.44529155;stroke-linecap:butt;stroke-linejoin:miter;stroke-miterlimit:4;stroke-opacity:1;stroke-dasharray:none"
       d="m 127.82131,989.85141 3.02162,3.02159 -3.45896,3.1011"
       id="path3246"
       inkscape:connector-curvature="0" />
    <path
       style="fill:none;stroke:#000000;stroke-width:0.44529155;stroke-linecap:butt;stroke-linejoin:miter;stroke-miterlimit:4;stroke-opacity:1;stroke-dasharray:none"
       d="m 120.30416,905.03098 4.27309,0.0338 -0.28964,4.63654"
       id="path3246-1"
       inkscape:connector-curvature="0" />
    <path
       style="fill:none;stroke:#000000;stroke-width:0.44529155;stroke-linecap:butt;stroke-linejoin:miter;stroke-miterlimit:4;stroke-opacity:1;stroke-dasharray:none"
       d="m 164.09242,924.9218 3.07378,-2.96855 3.04043,3.51244"
       id="path3246-1-8"
       inkscape:connector-curvature="0" />
    <text
       xml:space="preserve"
       style="font-size:16px;font-style:normal;font-weight:bold;line-height:125%;letter-spacing:0px;word-spacing:0px;fill:#000000;fill-opacity:1;stroke:none;font-family:Sans;-inkscape-font-specification:Sans Bold"
       x="7.5761437"
       y="871.54486"
       id="text4052"
       sodipodi:linespacing="125%"><tspan
         sodipodi:role="line"
         id="tspan4054"
         x="7.5761437"
         y="871.54486">Components of</tspan><tspan
         sodipodi:role="line"
         x="7.5761437"
         y="891.54486"
         id="tspan4056">initial velocity</tspan></text>
    <text
       xml:space="preserve"
       style="font-size:6px;font-style:normal;font-weight:normal;line-height:125%;letter-spacing:0px;word-spacing:0px;fill:#000000;fill-opacity:1;stroke:none;font-family:Sans;-inkscape-font-specification:Sans"
       x="63.214283"
       y="1023.255"
       id="text5926"
       sodipodi:linespacing="125%"><tspan
         sodipodi:role="line"
         id="tspan5928"
         x="63.214283"
         y="1023.255">0</tspan></text>
    <text
       xml:space="preserve"
       style="font-size:6px;font-style:normal;font-weight:normal;line-height:125%;letter-spacing:0px;word-spacing:0px;fill:#000000;fill-opacity:1;stroke:none;font-family:Sans;-inkscape-font-specification:Sans"
       x="63.699635"
       y="1047.5049"
       id="text5926-0"
       sodipodi:linespacing="125%"><tspan
         sodipodi:role="line"
         id="tspan5928-0"
         x="63.699635"
         y="1047.5049">0</tspan></text>
    <text
       xml:space="preserve"
       style="font-size:6px;font-style:normal;font-weight:normal;line-height:125%;letter-spacing:0px;word-spacing:0px;fill:#000000;fill-opacity:1;stroke:none;font-family:Sans;-inkscape-font-specification:Sans"
       x="94.040146"
       y="1048.0436"
       id="text5926-0-8"
       sodipodi:linespacing="125%"><tspan
         sodipodi:role="line"
         id="tspan5928-0-6"
         x="94.040146"
         y="1048.0436">0</tspan></text>
    <text
       xml:space="preserve"
       style="font-size:6px;font-style:normal;font-weight:normal;line-height:125%;letter-spacing:0px;word-spacing:0px;fill:#000000;fill-opacity:1;stroke:none;font-family:Sans;-inkscape-font-specification:Sans"
       x="93.325851"
       y="1023.8473"
       id="text5926-0-4"
       sodipodi:linespacing="125%"><tspan
         sodipodi:role="line"
         id="tspan5928-0-4"
         x="93.325851"
         y="1023.8473">0</tspan></text>
    <path
       inkscape:connector-curvature="0"
       id="path5623-7"
       style="font-size:16px;font-style:normal;font-weight:normal;line-height:125%;letter-spacing:0px;word-spacing:0px;fill:#000000;fill-opacity:1;stroke:none;font-family:Sans;-inkscape-font-specification:Sans Bold"
       d="m 108.97561,988.6312 1.52344,0 2.73437,7.3438 2.73438,-7.3438 1.52344,0 -3.28125,8.75 -1.95313,0 -3.28125,-8.75" />
    <path
       inkscape:connector-curvature="0"
       id="path5625-5"
       style="font-size:8px;font-style:normal;font-weight:bold;line-height:125%;letter-spacing:0px;word-spacing:0px;fill:#000000;fill-opacity:1;stroke:none;font-family:Sans;-inkscape-font-specification:Sans Bold"
       d="m 121.79324,995.0237 -1.35474,2.0521 1.42499,2.1651 -0.72588,0 -1.09048,-1.6567 -1.09049,1.6567 -0.72587,0 1.4551,-2.2064 -1.33133,-2.0108 0.72587,0 0.99348,1.5024 0.99348,-1.5024 0.72587,0" />
    <path
       inkscape:connector-curvature="0"
       id="path5629-1"
       style="font-size:16px;font-style:normal;font-weight:normal;line-height:125%;letter-spacing:0px;word-spacing:0px;fill:#000000;fill-opacity:1;stroke:none;font-family:Sans;-inkscape-font-specification:Sans Bold"
       d="m 107.69236,912.16051 1.52343,0 2.73438,7.3438 2.73437,-7.3438 1.52344,0 -3.28125,8.75 -1.95312,0 -3.28125,-8.75" />
    <text
       xml:space="preserve"
       style="font-size:6px;font-style:normal;font-weight:normal;line-height:125%;letter-spacing:0px;word-spacing:0px;fill:#000000;fill-opacity:1;stroke:none;font-family:Sans;-inkscape-font-specification:Sans"
       x="114.95623"
       y="999.18005"
       id="text5926-5"
       sodipodi:linespacing="125%"><tspan
         sodipodi:role="line"
         id="tspan5928-1"
         x="114.95623"
         y="999.18005">0</tspan></text>
    <text
       xml:space="preserve"
       style="font-size:6px;font-style:normal;font-weight:normal;line-height:125%;letter-spacing:0px;word-spacing:0px;fill:#000000;fill-opacity:1;stroke:none;font-family:Sans;-inkscape-font-specification:Sans"
       x="113.65586"
       y="922.71558"
       id="text5926-0-9"
       sodipodi:linespacing="125%"><tspan
         sodipodi:role="line"
         id="tspan5928-0-7"
         x="113.65586"
         y="922.71558">0</tspan></text>
    <path
       inkscape:connector-curvature="0"
       id="path5629-1-3"
       style="font-size:16px;font-style:normal;font-weight:normal;line-height:125%;letter-spacing:0px;word-spacing:0px;fill:#000000;fill-opacity:1;stroke:none;font-family:Sans;-inkscape-font-specification:Sans Bold"
       d="m 161.3697,930.84228 1.52343,0 2.73438,7.3438 2.73437,-7.3438 1.52344,0 -3.28125,8.75 -1.95312,0 -3.28125,-8.75" />
    <path
       inkscape:connector-curvature="0"
       id="path5631-6-9"
       style="font-size:8px;font-style:normal;font-weight:bold;line-height:125%;letter-spacing:0px;word-spacing:0px;fill:#000000;fill-opacity:1;stroke:none;font-family:Sans;-inkscape-font-specification:Sans Bold"
       d="m 172.62422,941.50618 c -0.18182,0.4662 -0.35899,0.7704 -0.5315,0.9126 -0.1725,0.1422 -0.40328,0.2133 -0.69233,0.2133 l -0.51402,0 0,-0.5385 0.37764,0 c 0.17717,0 0.3147,-0.042 0.41261,-0.1259 0.0979,-0.084 0.20631,-0.282 0.32519,-0.5944 l 0.1154,-0.2937 -1.584,-3.8534 0.68185,0 1.22384,3.0631 1.22384,-3.0631 0.68185,0 -1.72037,4.28" />
    <text
       xml:space="preserve"
       style="font-size:6px;font-style:normal;font-weight:normal;line-height:125%;letter-spacing:0px;word-spacing:0px;fill:#000000;fill-opacity:1;stroke:none;font-family:Sans;-inkscape-font-specification:Sans"
       x="167.33321"
       y="941.3974"
       id="text5926-0-9-8"
       sodipodi:linespacing="125%"><tspan
         sodipodi:role="line"
         id="tspan5928-0-7-7"
         x="167.33321"
         y="941.3974">0</tspan></text>
    <rect
       style="color:#000000;fill:none;stroke:#000000;stroke-width:0.5;stroke-linecap:butt;stroke-linejoin:miter;stroke-miterlimit:4;stroke-opacity:1;stroke-dasharray:none;stroke-dashoffset:0;marker:none;visibility:visible;display:inline;overflow:visible;enable-background:accumulate"
       id="rect6591"
       width="8.5714283"
       height="8.5714283"
       x="158.55669"
       y="984.28931" />
    <path
       id="path6128-3-8-8-8"
       d="m 100.95982,1040.7886 c 0,0.7458 -0.60461,1.3504 -1.350444,1.3504 -0.745826,0 -1.350446,-0.6046 -1.350446,-1.3504 0,-0.7459 0.60462,-1.3505 1.350446,-1.3505 0.745834,0 1.350444,0.6046 1.350444,1.3505 z"
       style="font-size:16px;font-style:normal;font-weight:bold;line-height:125%;letter-spacing:0px;word-spacing:0px;opacity:1;fill:#000000;fill-opacity:0.99086757999999997;stroke:none;display:inline;font-family:Sans;-inkscape-font-specification:Sans Bold"
       inkscape:connector-curvature="0" />
    <path
       id="path6128-3-8-8-8-2"
       d="m 100.23437,1016.514 c 0,0.7458 -0.604607,1.3504 -1.350441,1.3504 -0.745826,0 -1.350446,-0.6046 -1.350446,-1.3504 0,-0.7459 0.60462,-1.3505 1.350446,-1.3505 0.745834,0 1.350441,0.6046 1.350441,1.3505 z"
       style="font-size:16px;font-style:normal;font-weight:bold;line-height:125%;letter-spacing:0px;word-spacing:0px;fill:#000000;fill-opacity:0.99086758;stroke:none;display:inline;font-family:Sans;-inkscape-font-specification:Sans Bold"
       inkscape:connector-curvature="0" />
  </g>
</svg>
