<?xml version="1.0" encoding="UTF-8" standalone="no"?>
<!-- Created with Inkscape (http://www.inkscape.org/) -->

<svg
   xmlns:dc="http://purl.org/dc/elements/1.1/"
   xmlns:cc="http://creativecommons.org/ns#"
   xmlns:rdf="http://www.w3.org/1999/02/22-rdf-syntax-ns#"
   xmlns:svg="http://www.w3.org/2000/svg"
   xmlns="http://www.w3.org/2000/svg"
   xmlns:sodipodi="http://sodipodi.sourceforge.net/DTD/sodipodi-0.dtd"
   xmlns:inkscape="http://www.inkscape.org/namespaces/inkscape"
   width="200"
   height="200"
   id="svg7320"
   version="1.1"
   inkscape:version="0.48.4 r9939"
   sodipodi:docname="New document 56">
  <defs
     id="defs7322" />
  <sodipodi:namedview
     id="base"
     pagecolor="#ffffff"
     bordercolor="#666666"
     borderopacity="1.0"
     inkscape:pageopacity="0.0"
     inkscape:pageshadow="2"
     inkscape:zoom="2.8"
     inkscape:cx="102.11524"
     inkscape:cy="107.42754"
     inkscape:document-units="px"
     inkscape:current-layer="layer1"
     showgrid="false"
     inkscape:snap-grids="true"
     inkscape:snap-bbox="true"
     inkscape:window-width="1319"
     inkscape:window-height="744"
     inkscape:window-x="47"
     inkscape:window-y="24"
     inkscape:window-maximized="1">
    <inkscape:grid
       type="xygrid"
       id="grid8042"
       empspacing="5"
       visible="true"
       enabled="true"
       snapvisiblegridlinesonly="true" />
  </sodipodi:namedview>
  <metadata
     id="metadata7325">
    <rdf:RDF>
      <cc:Work
         rdf:about="">
        <dc:format>image/svg+xml</dc:format>
        <dc:type
           rdf:resource="http://purl.org/dc/dcmitype/StillImage" />
        <dc:title></dc:title>
      </cc:Work>
    </rdf:RDF>
  </metadata>
  <g
     inkscape:groupmode="layer"
     id="layer5"
     inkscape:label="Layer">
    <rect
       style="color:#000000;fill:#c9cfff;fill-opacity:1;fill-rule:nonzero;stroke:none;stroke-width:0.5;marker:none;visibility:visible;display:inline;overflow:visible;enable-background:accumulate"
       id="rect7532"
       width="180"
       height="150"
       x="10"
       y="40" />
  </g>
  <g
     inkscape:label="Layer 1"
     inkscape:groupmode="layer"
     id="layer1"
     transform="translate(0,-852.36218)">
    <path
       inkscape:connector-curvature="0"
       id="path5623"
       style="font-size:16px;font-style:normal;font-weight:normal;line-height:125%;letter-spacing:0px;word-spacing:0px;fill:#000000;fill-opacity:1;stroke:none;font-family:Sans;-inkscape-font-specification:Sans Bold"
       d="m 52.91789,908.16263 1.518569,0 2.725626,7.54469 2.725638,-7.54469 1.518569,0 -3.270759,8.98936 -1.946885,0 -3.270758,-8.98936" />
    <path
       inkscape:connector-curvature="0"
       id="path5625"
       style="font-size:8px;font-style:normal;font-weight:bold;line-height:125%;letter-spacing:0px;word-spacing:0px;fill:#000000;fill-opacity:1;stroke:none;font-family:Sans;-inkscape-font-specification:Sans Bold"
       d="m 65.694538,914.73 -1.350409,2.10824 1.420433,2.22432 -0.723558,0 -1.086994,-1.70203 -1.087003,1.70203 -0.72355,0 1.450448,-2.26676 -1.327074,-2.0658 0.72355,0 0.990304,1.5435 0.990303,-1.5435 0.72355,0" />
    <path
       inkscape:connector-curvature="0"
       id="path5627"
       style="font-size:16px;font-style:normal;font-weight:normal;line-height:125%;letter-spacing:0px;word-spacing:0px;fill:#000000;fill-opacity:1;stroke:none;font-family:Sans;-inkscape-font-specification:Sans Bold"
       d="m 69.380713,909.68763 9.983598,0 0,1.34841 -9.983598,0 0,-1.34841 m 0,3.2747 9.983598,0 0,1.36443 -9.983598,0 0,-1.36443" />
    <path
       inkscape:connector-curvature="0"
       id="path5629"
       style="font-size:16px;font-style:normal;font-weight:normal;line-height:125%;letter-spacing:0px;word-spacing:0px;fill:#000000;fill-opacity:1;stroke:none;font-family:Sans;-inkscape-font-specification:Sans Bold"
       d="m 53.418742,937.06942 1.51856,0 2.725637,7.5447 2.725628,-7.5447 1.518569,0 -3.270759,8.98936 -1.946875,0 -3.27076,-8.98936" />
    <path
       inkscape:connector-curvature="0"
       id="path5631"
       style="font-size:8px;font-style:normal;font-weight:bold;line-height:125%;letter-spacing:0px;word-spacing:0px;fill:#000000;fill-opacity:1;stroke:none;font-family:Sans;-inkscape-font-specification:Sans Bold"
       d="m 64.637279,948.02504 c -0.18124,0.47895 -0.357843,0.79148 -0.529801,0.93756 -0.171949,0.1461 -0.40199,0.21913 -0.690117,0.21913 l -0.512376,0 0,-0.55323 0.376432,0 c 0.176604,0 0.313694,-0.0432 0.411291,-0.12933 0.09759,-0.0863 0.20565,-0.28972 0.32415,-0.61067 l 0.115031,-0.30173 -1.578935,-3.95882 0.679671,0 1.219926,3.1469 1.219927,-3.1469 0.67967,0 -1.714869,4.39709" />
    <path
       inkscape:connector-curvature="0"
       id="path6735"
       style="font-size:16px;font-style:normal;font-weight:normal;line-height:125%;letter-spacing:0px;word-spacing:0px;fill:#000000;fill-opacity:1;stroke:none;font-family:Sans;-inkscape-font-specification:Sans Bold"
       d="m 70.285003,939.05211 9.983597,0 0,1.34841 -9.983597,0 0,-1.34841 m 0,3.2747 9.983597,0 0,1.36444 -9.983597,0 0,-1.36444" />
    <text
       xml:space="preserve"
       style="font-size:16.1914196px;font-style:normal;font-weight:normal;line-height:125%;letter-spacing:0px;word-spacing:0px;fill:#000000;fill-opacity:1;stroke:none;font-family:Sans;-inkscape-font-specification:Sans"
       x="83.716675"
       y="904.04431"
       id="text3010"
       sodipodi:linespacing="125%"
       transform="scale(0.98501817,1.0152097)"><tspan
         sodipodi:role="line"
         id="tspan3012"
         x="83.716675"
         y="904.04431">v·cos(θ)</tspan></text>
    <text
       xml:space="preserve"
       style="font-size:16.1914196px;font-style:normal;font-weight:normal;line-height:125%;letter-spacing:0px;word-spacing:0px;fill:#000000;fill-opacity:1;stroke:none;font-family:Sans;-inkscape-font-specification:Sans"
       x="84.483353"
       y="932.51813"
       id="text3018"
       sodipodi:linespacing="125%"
       transform="scale(0.98501817,1.0152097)"><tspan
         sodipodi:role="line"
         id="tspan3020"
         x="84.483353"
         y="932.51813">v·sin(θ)</tspan></text>
    <text
       xml:space="preserve"
       style="font-size:6.07178259px;font-style:normal;font-weight:normal;line-height:125%;letter-spacing:0px;word-spacing:0px;fill:#000000;fill-opacity:1;stroke:none;font-family:Sans;-inkscape-font-specification:Sans"
       x="59.774933"
       y="905.23163"
       id="text5926"
       sodipodi:linespacing="125%"
       transform="scale(0.98501817,1.0152097)"><tspan
         sodipodi:role="line"
         id="tspan5928"
         x="59.774933"
         y="905.23163">0</tspan></text>
    <text
       xml:space="preserve"
       style="font-size:6.07178259px;font-style:normal;font-weight:normal;line-height:125%;letter-spacing:0px;word-spacing:0px;fill:#000000;fill-opacity:1;stroke:none;font-family:Sans;-inkscape-font-specification:Sans"
       x="60.266087"
       y="933.71167"
       id="text5926-0"
       sodipodi:linespacing="125%"
       transform="scale(0.98501817,1.0152097)"><tspan
         sodipodi:role="line"
         id="tspan5928-0"
         x="60.266087"
         y="933.71167">0</tspan></text>
    <text
       xml:space="preserve"
       style="font-size:6.07178259px;font-style:normal;font-weight:normal;line-height:125%;letter-spacing:0px;word-spacing:0px;fill:#000000;fill-opacity:1;stroke:none;font-family:Sans;-inkscape-font-specification:Sans"
       x="90.969597"
       y="934.25684"
       id="text5926-0-8"
       sodipodi:linespacing="125%"
       transform="scale(0.98501817,1.0152097)"><tspan
         sodipodi:role="line"
         id="tspan5928-0-6"
         x="90.969597"
         y="934.25684">0</tspan></text>
    <text
       xml:space="preserve"
       style="font-size:6.07178259px;font-style:normal;font-weight:normal;line-height:125%;letter-spacing:0px;word-spacing:0px;fill:#000000;fill-opacity:1;stroke:none;font-family:Sans;-inkscape-font-specification:Sans"
       x="90.246758"
       y="905.83099"
       id="text5926-0-4"
       sodipodi:linespacing="125%"
       transform="scale(0.98501817,1.0152097)"><tspan
         sodipodi:role="line"
         id="tspan5928-0-4"
         x="90.246758"
         y="905.83099">0</tspan></text>
    <path
       id="path6128-3-8-8-8"
       d="m 96.504247,941.01323 c 0,0.7662 -0.602676,1.38735 -1.346123,1.38735 -0.743445,0 -1.346132,-0.62115 -1.346132,-1.38735 0,-0.76631 0.602687,-1.38744 1.346132,-1.38744 0.743447,0 1.346123,0.62113 1.346123,1.38744 z"
       style="font-size:16px;font-style:normal;font-weight:bold;line-height:125%;letter-spacing:0px;word-spacing:0px;fill:#000000;fill-opacity:0.99086758;stroke:none;display:inline;font-family:Sans;-inkscape-font-specification:Sans Bold"
       inkscape:connector-curvature="0" />
    <path
       id="path6128-3-8-8-8-2"
       d="m 95.781116,912.07459 c 0,0.7662 -0.602666,1.38734 -1.346122,1.38734 -0.743435,0 -1.346125,-0.62114 -1.346125,-1.38734 0,-0.76631 0.60269,-1.38745 1.346125,-1.38745 0.743456,0 1.346122,0.62114 1.346122,1.38745 z"
       style="font-size:16px;font-style:normal;font-weight:bold;line-height:125%;letter-spacing:0px;word-spacing:0px;fill:#000000;fill-opacity:0.99086758;stroke:none;display:inline;font-family:Sans;-inkscape-font-specification:Sans Bold"
       inkscape:connector-curvature="0" />
    <path
       inkscape:connector-curvature="0"
       id="path5625-9"
       style="font-size:8px;font-style:normal;font-weight:bold;line-height:125%;letter-spacing:0px;word-spacing:0px;fill:#000000;fill-opacity:1;stroke:none;display:inline;font-family:Sans;-inkscape-font-specification:Sans Bold"
       d="m 115.93387,976.96597 -1.69345,2.34869 1.78127,2.47801 -0.90736,0 -1.36314,-1.89616 -1.36314,1.89616 -0.90735,0 1.81891,-2.52534 -1.6642,-2.30136 0.90737,0 1.24187,1.71951 1.24186,-1.71951 0.90736,0" />
    <path
       inkscape:connector-curvature="0"
       id="path5627-4"
       style="font-size:16px;font-style:normal;font-weight:normal;line-height:125%;letter-spacing:0px;word-spacing:0px;fill:#000000;fill-opacity:1;stroke:none;display:inline;font-family:Sans;-inkscape-font-specification:Sans Bold"
       d="m 82.599514,970.00316 10.72107,0 0,1.44803 -10.72107,0 0,-1.44803 m 0,3.5166 10.72107,0 0,1.46523 -10.72107,0 0,-1.46523" />
    <text
       xml:space="preserve"
       style="font-size:17.38746071px;font-style:normal;font-weight:normal;line-height:125%;letter-spacing:0px;word-spacing:0px;fill:#000000;fill-opacity:1;stroke:none;display:inline;font-family:Sans;-inkscape-font-specification:Sans"
       x="102.46441"
       y="964.0462"
       id="text3010-9"
       sodipodi:linespacing="125%"
       transform="scale(0.98501817,1.0152097)"><tspan
         sodipodi:role="line"
         id="tspan3012-1"
         x="102.46441"
         y="964.0462">v · t</tspan></text>
    <text
       xml:space="preserve"
       style="font-size:17.38746071px;font-style:normal;font-weight:normal;line-height:125%;letter-spacing:0px;word-spacing:0px;fill:#000000;fill-opacity:1;stroke:none;display:inline;font-family:Sans;-inkscape-font-specification:Sans"
       x="53.843994"
       y="964.19519"
       id="text3010-1-3"
       sodipodi:linespacing="125%"
       transform="scale(0.98501817,1.0152097)"><tspan
         sodipodi:role="line"
         id="tspan3012-2-0"
         x="53.843994"
         y="964.19519">Δx</tspan></text>
    <text
       xml:space="preserve"
       style="font-size:6.57776403px;font-style:normal;font-weight:normal;line-height:125%;letter-spacing:0px;word-spacing:0px;fill:#000000;fill-opacity:1;stroke:none;display:inline;font-family:Sans;-inkscape-font-specification:Sans"
       x="109.12685"
       y="967.09015"
       id="text3335"
       sodipodi:linespacing="125%"
       transform="scale(0.98501817,1.0152097)"><tspan
         sodipodi:role="line"
         id="tspan3337"
         x="109.12685"
         y="967.09015">0</tspan></text>
    <path
       id="path6128-3-8-8"
       d="m 120.85647,972.53896 c 0,0.88652 -0.69732,1.60525 -1.5575,1.60525 -0.86019,0 -1.55751,-0.71873 -1.55751,-1.60525 0,-0.8866 0.69732,-1.60523 1.55751,-1.60523 0.86018,0 1.5575,0.71863 1.5575,1.60523 z"
       style="font-size:16px;font-style:normal;font-weight:bold;line-height:125%;letter-spacing:0px;word-spacing:0px;fill:#000000;fill-opacity:0.99086758;stroke:none;display:inline;font-family:Sans;-inkscape-font-specification:Sans Bold"
       inkscape:connector-curvature="0" />
    <path
       inkscape:connector-curvature="0"
       id="path3838"
       style="font-size:16px;font-style:normal;font-weight:normal;line-height:125%;letter-spacing:0px;word-spacing:0px;fill:#000000;fill-opacity:1;stroke:none;display:inline;font-family:Sans;-inkscape-font-specification:Sans Bold"
       d="m 48.964867,1018.1944 c -0.404951,1.07 -0.799515,1.7682 -1.183703,2.0948 -0.384188,0.3264 -0.898159,0.4895 -1.541924,0.4895 l -1.144768,0 0,-1.2359 0.841052,0 c 0.394564,0 0.700872,-0.097 0.918932,-0.2892 0.218041,-0.1925 0.459457,-0.6473 0.724238,-1.3643 l 0.256985,-0.6742 -3.527745,-8.8448 1.518569,0 2.725629,7.0308 2.725636,-7.0308 1.518559,0 -3.83146,9.8241" />
    <path
       inkscape:connector-curvature="0"
       id="path3840"
       style="font-size:16px;font-style:normal;font-weight:normal;line-height:125%;letter-spacing:0px;word-spacing:0px;fill:#000000;fill-opacity:1;stroke:none;display:inline;font-family:Sans;-inkscape-font-specification:Sans Bold"
       d="m 60.038728,1009.8953 9.983597,0 0,1.3484 -9.983597,0 0,-1.3484 m 0,3.2746 9.983597,0 0,1.3644 -9.983597,0 0,-1.3644" />
    <path
       inkscape:connector-curvature="0"
       id="path3848"
       style="font-size:16px;font-style:normal;font-weight:normal;line-height:125%;letter-spacing:0px;word-spacing:0px;fill:#000000;fill-opacity:1;stroke:none;display:inline;font-family:Sans;-inkscape-font-specification:Sans Bold"
       d="m 79.41408,1008.3703 1.51857,0 2.725627,7.5445 2.725637,-7.5445 1.518559,0 -3.270758,8.9893 -1.946875,0 -3.27076,-8.9893" />
    <path
       inkscape:connector-curvature="0"
       id="path3850"
       style="font-size:8px;font-style:normal;font-weight:bold;line-height:125%;letter-spacing:0px;word-spacing:0px;fill:#000000;fill-opacity:1;stroke:none;display:inline;font-family:Sans;-inkscape-font-specification:Sans Bold"
       d="m 91.666321,1019.8316 c -0.202481,0.5352 -0.399778,0.8843 -0.591861,1.0474 -0.192094,0.1632 -0.449089,0.2449 -0.770968,0.2449 l -0.572384,0 0,-0.618 0.420521,0 c 0.197287,0 0.350446,-0.048 0.459466,-0.1445 0.10903,-0.097 0.229734,-0.3237 0.362119,-0.6823 l 0.128498,-0.337 -1.763873,-4.4225 0.759284,0 1.36282,3.5156 1.362819,-3.5156 0.759281,0 -1.915722,4.912" />
    <path
       inkscape:connector-curvature="0"
       id="path3852"
       style="font-size:16px;font-style:normal;font-weight:normal;line-height:125%;letter-spacing:0px;word-spacing:0px;fill:#000000;fill-opacity:1;stroke:none;display:inline;font-family:Sans;-inkscape-font-specification:Sans Bold"
       d="m 101.9979,1005.8179 0,2.5524 2.95147,0 0,1.1477 -2.95147,0 0,4.8799 c 0,0.733 0.0961,1.2039 0.28813,1.4126 0.1973,0.2088 0.59446,0.3131 1.1915,0.3131 l 1.47184,0 0,1.236 -1.47184,0 c -1.10583,0 -1.86901,-0.2113 -2.28953,-0.6342 -0.42053,-0.428 -0.63079,-1.2039 -0.63079,-2.3275 l 0,-4.8799 -1.051312,0 0,-1.1477 1.051312,0 0,-2.5524 1.44069,0" />
    <path
       inkscape:connector-curvature="0"
       id="path3854"
       style="font-size:16px;font-style:normal;font-weight:normal;line-height:125%;letter-spacing:0px;word-spacing:0px;fill:#000000;fill-opacity:1;stroke:none;display:inline;font-family:Sans;-inkscape-font-specification:Sans Bold"
       d="m 117.75204,1007.0538 0,4.4707 4.33764,0 0,1.3645 -4.33764,0 0,4.4706 -1.3083,0 0,-4.4706 -4.33765,0 0,-1.3645 4.33765,0 0,-4.4707 1.3083,0" />
    <path
       inkscape:connector-curvature="0"
       id="path3856"
       style="font-size:16px;font-style:normal;font-weight:normal;line-height:125%;letter-spacing:0px;word-spacing:0px;fill:#000000;fill-opacity:1;stroke:none;display:inline;font-family:Sans;-inkscape-font-specification:Sans Bold"
       d="m 151.363,1012.8409 c -1.15777,0 -1.95988,0.1364 -2.40636,0.4093 -0.44647,0.2728 -0.66972,0.7383 -0.66972,1.3964 0,0.5245 0.16613,0.9417 0.4984,1.2522 0.33745,0.305 0.79432,0.4575 1.3706,0.4575 0.79433,0 1.4303,-0.2889 1.90794,-0.8668 0.48282,-0.5832 0.72424,-1.3564 0.72424,-2.3196 l 0,-0.329 -1.4251,0 m 2.858,-0.6101 0,5.1288 -1.4329,0 0,-1.3644 c -0.32708,0.5457 -0.73462,0.9497 -1.22264,1.2119 -0.48803,0.2569 -1.08506,0.3853 -1.79112,0.3853 -0.89298,0 -1.60424,-0.2569 -2.13379,-0.7705 -0.52436,-0.5191 -0.78654,-1.212 -0.78654,-2.0788 0,-1.0115 0.32707,-1.7738 0.98122,-2.2876 0.65936,-0.5135 1.64057,-0.7704 2.9437,-0.7704 l 2.00917,0 0,-0.1446 c 0,-0.6795 -0.21805,-1.2038 -0.65415,-1.573 -0.43092,-0.3747 -1.03834,-0.5619 -1.82228,-0.5619 -0.4984,0 -0.98382,0.061 -1.45627,0.1846 -0.47244,0.1231 -0.92672,0.3077 -1.36281,0.5538 l 0,-1.3645 c 0.52436,-0.2086 1.03314,-0.3638 1.52634,-0.4655 0.49322,-0.107 0.97345,-0.1605 1.4407,-0.1605 1.26158,0 2.20387,0.3372 2.82687,1.0113 0.62299,0.6742 0.9345,1.6962 0.9345,3.066" />
    <path
       inkscape:connector-curvature="0"
       id="path3858"
       style="font-size:16px;font-style:normal;font-weight:normal;line-height:125%;letter-spacing:0px;word-spacing:0px;fill:#000000;fill-opacity:1;stroke:none;display:inline;font-family:Sans;-inkscape-font-specification:Sans Bold"
       d="m 162.58481,1005.8179 0,2.5524 2.95146,0 0,1.1477 -2.95146,0 0,4.8799 c 0,0.733 0.0961,1.2039 0.28813,1.4126 0.19729,0.2088 0.59444,0.3131 1.19149,0.3131 l 1.47184,0 0,1.236 -1.47184,0 c -1.10582,0 -1.869,-0.2113 -2.28953,-0.6342 -0.42053,-0.428 -0.63079,-1.2039 -0.63079,-2.3275 l 0,-4.8799 -1.05131,0 0,-1.1477 1.05131,0 0,-2.5524 1.4407,0" />
    <path
       inkscape:connector-curvature="0"
       id="path3860"
       style="font-size:8px;font-style:normal;font-weight:bold;line-height:125%;letter-spacing:0px;word-spacing:0px;fill:#000000;fill-opacity:1;stroke:none;display:inline;font-family:Sans;-inkscape-font-specification:Sans Bold"
       d="m 167.4559,1008.4584 2.74509,0 0,0.6823 -3.69127,0 0,-0.6823 c 0.29852,-0.3183 0.70477,-0.745 1.21875,-1.2802 0.51656,-0.5376 0.84103,-0.8841 0.97343,-1.0393 0.2518,-0.2915 0.42702,-0.5377 0.52566,-0.7384 0.10124,-0.2033 0.15185,-0.4027 0.15186,-0.598 -1e-5,-0.3183 -0.10903,-0.5779 -0.32708,-0.7785 -0.21546,-0.2007 -0.49711,-0.3009 -0.84495,-0.3009 -0.2466,0 -0.50748,0.044 -0.78263,0.1324 -0.27257,0.089 -0.56461,0.222 -0.8761,0.4013 l 0,-0.8187 c 0.31668,-0.1311 0.61261,-0.23 0.88778,-0.2969 0.27515,-0.066 0.52695,-0.1007 0.75538,-0.1007 0.60223,1e-4 1.08247,0.1552 1.44069,0.4656 0.35822,0.3103 0.53734,0.725 0.53734,1.244 0,0.2462 -0.0455,0.4803 -0.13628,0.7023 -0.0882,0.2193 -0.25051,0.4789 -0.48672,0.7785 -0.065,0.079 -0.27126,0.3024 -0.61911,0.6743 -0.34784,0.3691 -0.83846,0.8869 -1.47184,1.553" />
    <path
       d="m 131.17995,1006.4554 2.56988,0 0,-9.14189 -2.79572,0.57789 0,-1.47682 2.78015,-0.57789 1.57308,0 0,10.61871 2.56988,0 0,1.3644 -6.69727,0 0,-1.3644"
       style="font-size:16px;font-style:normal;font-weight:normal;line-height:125%;letter-spacing:0px;word-spacing:0px;fill:#000000;fill-opacity:1;stroke:none;display:inline;font-family:Sans;-inkscape-font-specification:Sans Bold"
       id="path6116"
       inkscape:connector-curvature="0" />
    <path
       d="m 132.26242,1027.0025 5.4902,0 0,1.3644 -7.38257,0 0,-1.3644 c 0.59704,-0.6367 1.40954,-1.4903 2.4375,-2.5604 1.03313,-1.0755 1.68209,-1.7685 1.94688,-2.0788 0.50359,-0.5831 0.85402,-1.0755 1.05131,-1.4768 0.20247,-0.4066 0.30371,-0.8053 0.30372,-1.1959 -1e-5,-0.6368 -0.21807,-1.1557 -0.65416,-1.5571 -0.43091,-0.4013 -0.9942,-0.602 -1.6899,-0.602 -0.49321,0 -1.01497,0.089 -1.56528,0.2649 -0.54512,0.1766 -1.12919,0.4441 -1.7522,0.8026 l 0,-1.6373 c 0.63338,-0.2622 1.22523,-0.4603 1.77556,-0.5939 0.55031,-0.1338 1.05391,-0.2008 1.51078,-0.2008 1.20446,0 2.16492,0.3105 2.88138,0.9311 0.71644,0.6208 1.07468,1.4502 1.07468,2.4882 0,0.4923 -0.0909,0.9605 -0.27256,1.4045 -0.17653,0.4389 -0.501,0.9579 -0.97345,1.5571 -0.12978,0.1553 -0.54253,0.6048 -1.23821,1.3484 -0.69569,0.7385 -1.67691,1.7739 -2.94368,3.1062"
       style="font-size:16px;font-style:normal;font-weight:normal;line-height:125%;letter-spacing:0px;word-spacing:0px;fill:#000000;fill-opacity:1;stroke:none;display:inline;font-family:Sans;-inkscape-font-specification:Sans Bold"
       id="path6118"
       inkscape:connector-curvature="0" />
    <path
       style="fill:none;stroke:#000000;stroke-width:0.98123419;stroke-linecap:butt;stroke-linejoin:miter;stroke-miterlimit:4;stroke-opacity:1;stroke-dasharray:none;display:inline"
       d="m 126.96556,1012.2675 12.77684,0.055"
       id="path3050-8"
       inkscape:connector-curvature="0" />
    <path
       id="path6128-3"
       d="m 97.288724,1011.8985 c 0,0.8866 -0.697324,1.6051 -1.557504,1.6051 -0.860181,0 -1.557505,-0.7185 -1.557505,-1.6051 0,-0.8866 0.697324,-1.6053 1.557505,-1.6053 0.86018,0 1.557504,0.7187 1.557504,1.6053 z"
       style="font-size:16px;font-style:normal;font-weight:bold;line-height:125%;letter-spacing:0px;word-spacing:0px;fill:#000000;fill-opacity:0.99086758;stroke:none;display:inline;font-family:Sans;-inkscape-font-specification:Sans Bold"
       inkscape:connector-curvature="0" />
    <path
       id="path6128-3-0"
       d="m 144.5321,1012.3125 c 0,0.8866 -0.69732,1.6053 -1.5575,1.6053 -0.86018,0 -1.5575,-0.7187 -1.5575,-1.6053 0,-0.8865 0.69732,-1.6053 1.5575,-1.6053 0.86018,0 1.5575,0.7188 1.5575,1.6053 z"
       style="font-size:16px;font-style:normal;font-weight:bold;line-height:125%;letter-spacing:0px;word-spacing:0px;fill:#000000;fill-opacity:0.99086758;stroke:none;display:inline;font-family:Sans;-inkscape-font-specification:Sans Bold"
       inkscape:connector-curvature="0" />
    <path
       id="path6128-3-8"
       d="m 159.31981,1012.2906 c 0,0.8864 -0.69731,1.6051 -1.5575,1.6051 -0.86018,0 -1.55751,-0.7187 -1.55751,-1.6051 0,-0.8867 0.69733,-1.6053 1.55751,-1.6053 0.86019,0 1.5575,0.7186 1.5575,1.6053 z"
       style="font-size:16px;font-style:normal;font-weight:bold;line-height:125%;letter-spacing:0px;word-spacing:0px;fill:#000000;fill-opacity:0.99086758;stroke:none;display:inline;font-family:Sans;-inkscape-font-specification:Sans Bold"
       inkscape:connector-curvature="0" />
    <text
       xml:space="preserve"
       style="font-size:6.57776403px;font-style:normal;font-weight:normal;line-height:125%;letter-spacing:0px;word-spacing:0px;fill:#000000;fill-opacity:1;stroke:none;display:inline;font-family:Sans;-inkscape-font-specification:Sans"
       x="86.691399"
       y="1004.1545"
       id="text3335-5"
       sodipodi:linespacing="125%"
       transform="scale(0.98501817,1.0152097)"><tspan
         sodipodi:role="line"
         id="tspan3337-8"
         x="86.691399"
         y="1004.1545">0</tspan></text>
    <text
       xml:space="preserve"
       style="font-size:16.1914196px;font-style:normal;font-weight:normal;line-height:125%;letter-spacing:0px;word-spacing:0px;fill:#000000;fill-opacity:1;stroke:none;display:inline;font-family:Sans;-inkscape-font-specification:Sans"
       x="34.173664"
       y="1001.5328"
       id="text3378"
       sodipodi:linespacing="125%"
       transform="scale(0.98501817,1.0152097)"><tspan
         sodipodi:role="line"
         id="tspan3380"
         x="34.173664"
         y="1001.5328">Δ</tspan></text>
    <text
       xml:space="preserve"
       style="font-size:16px;font-style:normal;font-weight:bold;line-height:125%;letter-spacing:0px;word-spacing:0px;fill:#000000;fill-opacity:1;stroke:none;font-family:Sans;-inkscape-font-specification:Sans Bold"
       x="47.071426"
       y="878.07648"
       id="text7487"
       sodipodi:linespacing="125%"><tspan
         sodipodi:role="line"
         id="tspan7489"
         x="47.071426"
         y="878.07648">Solve for </tspan></text>
    <path
       inkscape:connector-curvature="0"
       id="path3848-1"
       style="font-size:16px;font-style:normal;font-weight:normal;line-height:125%;letter-spacing:0px;word-spacing:0px;fill:#000000;fill-opacity:1;stroke:none;display:inline;font-family:Sans;-inkscape-font-specification:Sans Bold"
       d="m 136.8933,868.29799 1.52344,0 2.73437,7.3437 2.73438,-7.3437 1.52343,0 -3.28125,8.75 -1.95312,0 -3.28125,-8.75" />
    <text
       xml:space="preserve"
       style="font-size:6.50000000000000000px;font-style:normal;font-weight:normal;line-height:125%;letter-spacing:0px;word-spacing:0px;fill:#000000;fill-opacity:1;stroke:none;display:inline;font-family:Sans;-inkscape-font-specification:Sans"
       x="142.89099"
       y="879.06061"
       id="text3335-5-8"
       sodipodi:linespacing="125%"><tspan
         sodipodi:role="line"
         id="tspan3337-8-5"
         x="142.89099"
         y="879.06061">0</tspan></text>
  </g>
</svg>
