<?xml version="1.0" encoding="UTF-8" standalone="no"?>
<!-- Created with Inkscape (http://www.inkscape.org/) -->

<svg
   xmlns:dc="http://purl.org/dc/elements/1.1/"
   xmlns:cc="http://creativecommons.org/ns#"
   xmlns:rdf="http://www.w3.org/1999/02/22-rdf-syntax-ns#"
   xmlns:svg="http://www.w3.org/2000/svg"
   xmlns="http://www.w3.org/2000/svg"
   xmlns:sodipodi="http://sodipodi.sourceforge.net/DTD/sodipodi-0.dtd"
   xmlns:inkscape="http://www.inkscape.org/namespaces/inkscape"
   width="149.76485"
   height="69.095306"
   id="svg4560"
   version="1.1"
   inkscape:version="0.48.4 r9939"
   sodipodi:docname="last_arrow_alert.svg">
  <defs
     id="defs4562" />
  <sodipodi:namedview
     id="base"
     pagecolor="#ffffff"
     bordercolor="#666666"
     borderopacity="1.0"
     inkscape:pageopacity="0.0"
     inkscape:pageshadow="2"
     inkscape:zoom="7.9195959"
     inkscape:cx="106.26928"
     inkscape:cy="26.285974"
     inkscape:document-units="px"
     inkscape:current-layer="layer1"
     showgrid="false"
     fit-margin-top="0"
     fit-margin-left="0"
     fit-margin-right="0"
     fit-margin-bottom="0"
     inkscape:window-width="1319"
     inkscape:window-height="744"
     inkscape:window-x="47"
     inkscape:window-y="24"
     inkscape:window-maximized="1" />
  <metadata
     id="metadata4565">
    <rdf:RDF>
      <cc:Work
         rdf:about="">
        <dc:format>image/svg+xml</dc:format>
        <dc:type
           rdf:resource="http://purl.org/dc/dcmitype/StillImage" />
        <dc:title />
      </cc:Work>
    </rdf:RDF>
  </metadata>
  <g
     inkscape:groupmode="layer"
     id="layer4"
     inkscape:label="Layer"
     style="display:none">
    <rect
       style="color:#000000;fill:#000000;fill-opacity:1;stroke:#000000;stroke-width:0.5;stroke-linecap:butt;stroke-linejoin:miter;stroke-miterlimit:4;stroke-opacity:1;stroke-dasharray:none;stroke-dashoffset:0;marker:none;visibility:visible;display:inline;overflow:visible;enable-background:accumulate"
       id="rect6780"
       width="206.78572"
       height="101.07143"
       x="-13.214286"
       y="-9.4761219" />
  </g>
  <g
     inkscape:label="Layer 1"
     inkscape:groupmode="layer"
     id="layer1"
     transform="translate(-17.627434,-928.11267)">
    <g
       transform="translate(-142.71325,570.86323)"
       style="font-size:16px;font-style:normal;font-variant:normal;font-weight:bold;font-stretch:normal;line-height:125%;letter-spacing:0px;word-spacing:0px;fill:#ffffff;fill-opacity:1;stroke:none;display:inline;font-family:Bitstream Charter;-inkscape-font-specification:Bitstream Charter Bold"
       id="flowRoot3711">
      <path
         d="m 164.93725,368.46975 c 0,3.408 2.192,5.68 5.504,5.68 1.344,0 2.624,-0.496 3.6,-1.408 1.12,-1.04 1.712,-2.48 1.712,-4.176 0,-1.808 -0.672,-3.344 -1.904,-4.4 -0.976,-0.832 -2.144,-1.248 -3.52,-1.248 -1.488,0 -2.736,0.464 -3.744,1.392 -1.088,1.008 -1.648,2.416 -1.648,4.16 m 5.424,-4.528 c 1.744,0 2.992,1.712 2.992,4.672 0,2.832 -1.264,4.56 -3.024,4.56 -1.712,0 -3.008,-1.728 -3.008,-4.672 0,-2.864 1.264,-4.56 3.04,-4.56"
         style="fill:#ffffff;font-family:Bitstream Charter;-inkscape-font-specification:Bitstream Charter Bold"
         id="path4647"
         inkscape:connector-curvature="0" />
      <path
         d="m 176.8085,373.89375 3.952,0 0,-0.72 -0.704,-0.064 -0.224,-0.24 0,-5.28 c 0.608,-0.176 1.12,-0.272 1.52,-0.272 1.008,0 1.44,0.544 1.44,1.728 l 0,3.824 -0.224,0.24 -0.688,0.064 0,0.72 3.92,0 0,-0.72 -0.848,-0.064 -0.208,-0.24 0,-4.288 c 0,-1.776 -0.704,-2.656 -2.176,-2.656 -0.704,0 -1.6,0.352 -2.736,0.976 l 0,-0.944 -0.768,0 -2.304,0.752 0,0.64 1.088,0 0,5.52 -0.224,0.24 -0.816,0.064 0,0.72"
         style="fill:#ffffff;font-family:Bitstream Charter;-inkscape-font-specification:Bitstream Charter Bold"
         id="path4649"
         inkscape:connector-curvature="0" />
      <path
         d="m 186.368,373.89375 4.288,0 0,-0.704 -0.928,-0.096 -0.24,-0.256 0,-10.768 -0.704,0 -2.416,0.768 0,0.624 1.152,0 0,9.408 -0.224,0.224 -0.928,0.096 0,0.704"
         style="fill:#ffffff;font-family:Bitstream Charter;-inkscape-font-specification:Bitstream Charter Bold"
         id="path4651"
         inkscape:connector-curvature="0" />
      <path
         d="m 190.811,366.11775 0,0.688 0.96,0.144 2.848,7.136 c -0.4,0.96 -0.832,1.616 -1.248,1.952 l -1.392,-0.96 c -0.528,0.272 -0.832,0.672 -0.832,1.136 0,0.608 0.592,1.184 1.376,1.184 1.056,0 2.192,-1.056 2.976,-2.944 l 3.088,-7.504 0.864,-0.144 0,-0.688 -3.072,0 0,0.688 0.848,0.096 0.144,0.24 -1.744,4.512 -1.728,-4.528 0.16,-0.224 0.816,-0.096 0,-0.688 -4.064,0"
         style="fill:#ffffff;font-family:Bitstream Charter;-inkscape-font-specification:Bitstream Charter Bold"
         id="path4653"
         inkscape:connector-curvature="0" />
      <path
         d="m 208.51725,365.90975 c -2.512,0 -4.144,1.632 -4.144,4.096 0,2.416 1.616,4.016 4.016,4.016 2.528,0 4.144,-1.616 4.144,-3.984 0,-2.544 -1.568,-4.128 -4.016,-4.128 m -0.064,0.848 c 1.136,0 1.872,1.136 1.872,3.232 0,2.08 -0.704,3.184 -1.888,3.184 -1.12,0 -1.84,-1.136 -1.84,-3.232 0,-2.064 0.72,-3.184 1.856,-3.184"
         style="fill:#ffffff;font-family:Bitstream Charter;-inkscape-font-specification:Bitstream Charter Bold"
         id="path4655"
         inkscape:connector-curvature="0" />
      <path
         d="m 213.496,373.89375 3.952,0 0,-0.72 -0.704,-0.064 -0.224,-0.24 0,-5.28 c 0.608,-0.176 1.12,-0.272 1.52,-0.272 1.008,0 1.44,0.544 1.44,1.728 l 0,3.824 -0.224,0.24 -0.688,0.064 0,0.72 3.92,0 0,-0.72 -0.848,-0.064 -0.208,-0.24 0,-4.288 c 0,-1.776 -0.704,-2.656 -2.176,-2.656 -0.704,0 -1.6,0.352 -2.736,0.976 l 0,-0.944 -0.768,0 -2.304,0.752 0,0.64 1.088,0 0,5.52 -0.224,0.24 -0.816,0.064 0,0.72"
         style="fill:#ffffff;font-family:Bitstream Charter;-inkscape-font-specification:Bitstream Charter Bold"
         id="path4657"
         inkscape:connector-curvature="0" />
      <path
         d="m 230.5435,371.90975 c -0.928,0.592 -1.792,0.88 -2.64,0.88 -1.584,0 -2.576,-1.088 -2.576,-2.928 0,-0.016 0,-0.032 0,-0.048 l 5.232,0 c 0,-0.096 0,-0.208 0,-0.304 0,-2.304 -1.232,-3.616 -3.328,-3.616 -2.304,0 -3.952,1.68 -3.952,4.128 0,2.416 1.568,4.016 3.952,4.016 1.12,0 2.24,-0.32 3.312,-0.944 l 0,-1.184 m -2.08,-2.944 -3.056,0 c 0.048,-1.392 0.704,-2.192 1.664,-2.192 0.88,0 1.392,0.688 1.392,2.016 0,0.064 0,0.112 0,0.176"
         style="fill:#ffffff;font-family:Bitstream Charter;-inkscape-font-specification:Bitstream Charter Bold"
         id="path4659"
         inkscape:connector-curvature="0" />
      <path
         d="m 242.03875,366.29375 c -0.816,-0.272 -1.616,-0.4 -2.416,-0.4 -1.968,0 -3.136,1.008 -3.136,2.384 0,0.96 0.608,1.52 1.792,2.112 1.248,0.624 2.112,0.784 2.112,1.648 0,0.704 -0.496,1.152 -1.36,1.152 -0.48,0 -0.928,-0.112 -1.344,-0.336 l -0.16,-0.176 -0.176,-1.376 -0.976,0 0,2.368 c 0.992,0.272 1.872,0.4 2.64,0.4 2.064,0 3.264,-1.024 3.264,-2.64 0,-1.152 -0.912,-1.584 -2.336,-2.272 -0.944,-0.464 -1.488,-0.736 -1.488,-1.408 0,-0.592 0.432,-0.96 1.216,-0.96 0.368,0 0.72,0.096 1.056,0.256 l 0.192,0.176 0.16,1.2 0.96,0 0,-2.128"
         style="fill:#ffffff;font-family:Bitstream Charter;-inkscape-font-specification:Bitstream Charter Bold"
         id="path4661"
         inkscape:connector-curvature="0" />
      <path
         d="m 245.499,362.06975 -2.368,0.752 0,0.624 1.168,0 0,9.424 -0.224,0.24 -0.816,0.064 0,0.72 3.952,0 0,-0.72 -0.704,-0.064 -0.24,-0.24 0,-5.28 c 0.608,-0.176 1.12,-0.272 1.536,-0.272 0.992,0 1.44,0.544 1.44,1.728 l 0,3.824 -0.224,0.24 -0.688,0.064 0,0.72 3.92,0 0,-0.72 -0.848,-0.064 -0.208,-0.24 0,-4.288 c 0,-1.776 -0.72,-2.656 -2.192,-2.656 -0.72,0 -1.584,0.352 -2.736,0.976 l 0,-4.832 -0.768,0"
         style="fill:#ffffff;font-family:Bitstream Charter;-inkscape-font-specification:Bitstream Charter Bold"
         id="path4663"
         inkscape:connector-curvature="0" />
      <path
         d="m 257.1735,365.90975 c -2.512,0 -4.144,1.632 -4.144,4.096 0,2.416 1.616,4.016 4.016,4.016 2.528,0 4.144,-1.616 4.144,-3.984 0,-2.544 -1.568,-4.128 -4.016,-4.128 m -0.064,0.848 c 1.136,0 1.872,1.136 1.872,3.232 0,2.08 -0.704,3.184 -1.888,3.184 -1.12,0 -1.84,-1.136 -1.84,-3.232 0,-2.064 0.72,-3.184 1.856,-3.184"
         style="fill:#ffffff;font-family:Bitstream Charter;-inkscape-font-specification:Bitstream Charter Bold"
         id="path4665"
         inkscape:connector-curvature="0" />
      <path
         d="m 263.00025,367.26975 0,4.656 c 0,0.816 0.016,1.328 0.576,1.696 0.368,0.256 0.8,0.352 1.328,0.352 0.656,0 1.488,-0.16 2.448,-0.512 l 0,-0.768 c -0.32,0.08 -0.656,0.112 -1.04,0.112 -1.056,0 -1.328,-0.416 -1.328,-1.552 l 0,-3.984 2.368,0 0,-0.96 -2.368,0 0,-1.984 -1.008,0 -0.832,1.664 -1.184,0.672 0,0.608 1.04,0"
         style="fill:#ffffff;font-family:Bitstream Charter;-inkscape-font-specification:Bitstream Charter Bold"
         id="path4667"
         inkscape:connector-curvature="0" />
      <path
         d="m 272.39925,373.89375 4.288,0 0,-0.704 -0.928,-0.096 -0.24,-0.256 0,-10.768 -0.704,0 -2.416,0.768 0,0.624 1.152,0 0,9.408 -0.224,0.224 -0.928,0.096 0,0.704"
         style="fill:#ffffff;font-family:Bitstream Charter;-inkscape-font-specification:Bitstream Charter Bold"
         id="path4669"
         inkscape:connector-curvature="0" />
      <path
         d="m 284.76225,371.90975 c -0.928,0.592 -1.792,0.88 -2.64,0.88 -1.584,0 -2.576,-1.088 -2.576,-2.928 0,-0.016 0,-0.032 0,-0.048 l 5.232,0 c 0,-0.096 0,-0.208 0,-0.304 0,-2.304 -1.232,-3.616 -3.328,-3.616 -2.304,0 -3.952,1.68 -3.952,4.128 0,2.416 1.568,4.016 3.952,4.016 1.12,0 2.24,-0.32 3.312,-0.944 l 0,-1.184 m -2.08,-2.944 -3.056,0 c 0.048,-1.392 0.704,-2.192 1.664,-2.192 0.88,0 1.392,0.688 1.392,2.016 0,0.064 0,0.112 0,0.176"
         style="fill:#ffffff;font-family:Bitstream Charter;-inkscape-font-specification:Bitstream Charter Bold"
         id="path4671"
         inkscape:connector-curvature="0" />
      <path
         d="m 285.77725,373.89375 4.32,0 0,-0.736 -1.072,-0.08 -0.256,-0.24 0,-5.568 2.144,0 0,-0.96 -2.144,0 0,-0.96 c 0,-0.048 0,-0.096 0,-0.128 0,-1.184 0.208,-2 0.624,-2.432 l 1.552,1.376 c 0.608,-0.208 0.928,-0.56 0.928,-0.992 0,-0.688 -0.576,-1.168 -1.504,-1.168 -0.656,0 -1.344,0.224 -1.936,0.672 -1.104,0.816 -1.632,1.968 -1.632,3.504 l -1.04,0.48 0,0.608 1.04,0 0,5.552 -0.224,0.256 -0.8,0.08 0,0.736"
         style="fill:#ffffff;font-family:Bitstream Charter;-inkscape-font-specification:Bitstream Charter Bold"
         id="path4673"
         inkscape:connector-curvature="0" />
      <path
         d="m 292.094,367.26975 0,4.656 c 0,0.816 0.016,1.328 0.576,1.696 0.368,0.256 0.8,0.352 1.328,0.352 0.656,0 1.488,-0.16 2.448,-0.512 l 0,-0.768 c -0.32,0.08 -0.656,0.112 -1.04,0.112 -1.056,0 -1.328,-0.416 -1.328,-1.552 l 0,-3.984 2.368,0 0,-0.96 -2.368,0 0,-1.984 -1.008,0 -0.832,1.664 -1.184,0.672 0,0.608 1.04,0"
         style="fill:#ffffff;font-family:Bitstream Charter;-inkscape-font-specification:Bitstream Charter Bold"
         id="path4675"
         inkscape:connector-curvature="0" />
      <path
         d="m 172.29725,387.01375 c -0.432,-0.736 -1.072,-1.12 -1.872,-1.12 -0.704,0 -1.536,0.368 -2.624,1.008 l 0,-0.944 -0.768,0 -2.256,0.752 0,0.64 1.04,0 0,5.52 -0.224,0.24 -0.816,0.064 0,0.72 3.92,0 0,-0.72 -0.672,-0.064 -0.224,-0.24 0,-5.28 c 0.512,-0.192 0.96,-0.288 1.344,-0.288 1.024,0 1.44,0.528 1.44,1.648 l 0,3.888 -0.224,0.272 -0.656,0.064 0,0.72 3.776,0 0,-0.704 -0.72,-0.08 -0.224,-0.24 0,-5.248 c 0.528,-0.192 0.976,-0.304 1.376,-0.304 1.056,0 1.472,0.528 1.472,1.728 l 0,3.824 -0.224,0.24 -0.688,0.064 0,0.72 3.936,0 0,-0.72 -0.848,-0.064 -0.208,-0.24 0,-4.288 c 0,-1.776 -0.736,-2.656 -2.224,-2.656 -0.592,0 -1.552,0.352 -2.832,1.088"
         style="fill:#ffffff;font-family:Bitstream Charter;-inkscape-font-specification:Bitstream Charter Bold"
         id="path4677"
         inkscape:connector-curvature="0" />
      <path
         d="m 181.1865,385.90975 -2.256,0.768 0,0.624 1.04,0 0,4 c 0,1.84 0.704,2.736 2.192,2.736 0.848,0 1.68,-0.368 2.688,-1.024 l 0,0.88 3.024,0 0,-0.72 -0.832,-0.064 -0.224,-0.24 0,-6.96 -0.736,0 -2.272,0.768 0,0.624 1.04,0 0,5.104 c -0.528,0.16 -0.976,0.256 -1.376,0.256 -1.104,0 -1.52,-0.544 -1.52,-1.792 l 0,-4.96 -0.768,0"
         style="fill:#ffffff;font-family:Bitstream Charter;-inkscape-font-specification:Bitstream Charter Bold"
         id="path4679"
         inkscape:connector-curvature="0" />
      <path
         d="m 194.47625,386.29375 c -0.816,-0.272 -1.616,-0.4 -2.416,-0.4 -1.968,0 -3.136,1.008 -3.136,2.384 0,0.96 0.608,1.52 1.792,2.112 1.248,0.624 2.112,0.784 2.112,1.648 0,0.704 -0.496,1.152 -1.36,1.152 -0.48,0 -0.928,-0.112 -1.344,-0.336 l -0.16,-0.176 -0.176,-1.376 -0.976,0 0,2.368 c 0.992,0.272 1.872,0.4 2.64,0.4 2.064,0 3.264,-1.024 3.264,-2.64 0,-1.152 -0.912,-1.584 -2.336,-2.272 -0.944,-0.464 -1.488,-0.736 -1.488,-1.408 0,-0.592 0.432,-0.96 1.216,-0.96 0.368,0 0.72,0.096 1.056,0.256 l 0.192,0.176 0.16,1.2 0.96,0 0,-2.128"
         style="fill:#ffffff;font-family:Bitstream Charter;-inkscape-font-specification:Bitstream Charter Bold"
         id="path4681"
         inkscape:connector-curvature="0" />
      <path
         d="m 196.6565,387.26975 0,4.656 c 0,0.816 0.016,1.328 0.576,1.696 0.368,0.256 0.8,0.352 1.328,0.352 0.656,0 1.488,-0.16 2.448,-0.512 l 0,-0.768 c -0.32,0.08 -0.656,0.112 -1.04,0.112 -1.056,0 -1.328,-0.416 -1.328,-1.552 l 0,-3.984 2.368,0 0,-0.96 -2.368,0 0,-1.984 -1.008,0 -0.832,1.664 -1.184,0.672 0,0.608 1.04,0"
         style="fill:#ffffff;font-family:Bitstream Charter;-inkscape-font-specification:Bitstream Charter Bold"
         id="path4683"
         inkscape:connector-curvature="0" />
      <path
         d="m 208.2795,382.30975 c -0.656,0 -1.152,0.512 -1.152,1.2 0,0.704 0.528,1.184 1.168,1.184 0.672,0 1.184,-0.496 1.184,-1.216 0,-0.656 -0.48,-1.168 -1.2,-1.168 m 0.176,3.648 -2.256,0.752 0,0.64 1.056,0 0,5.52 -0.224,0.24 -0.864,0.064 0,0.72 4.192,0 0,-0.72 -0.896,-0.064 -0.24,-0.24 0,-6.912 -0.768,0"
         style="fill:#ffffff;font-family:Bitstream Charter;-inkscape-font-specification:Bitstream Charter Bold"
         id="path4685"
         inkscape:connector-curvature="0" />
      <path
         d="m 211.0585,393.89375 3.952,0 0,-0.72 -0.704,-0.064 -0.224,-0.24 0,-5.28 c 0.608,-0.176 1.12,-0.272 1.52,-0.272 1.008,0 1.44,0.544 1.44,1.728 l 0,3.824 -0.224,0.24 -0.688,0.064 0,0.72 3.92,0 0,-0.72 -0.848,-0.064 -0.208,-0.24 0,-4.288 c 0,-1.776 -0.704,-2.656 -2.176,-2.656 -0.704,0 -1.6,0.352 -2.736,0.976 l 0,-0.944 -0.768,0 -2.304,0.752 0,0.64 1.088,0 0,5.52 -0.224,0.24 -0.816,0.064 0,0.72"
         style="fill:#ffffff;font-family:Bitstream Charter;-inkscape-font-specification:Bitstream Charter Bold"
         id="path4687"
         inkscape:connector-curvature="0" />
      <path
         d="m 220.618,397.39775 4.272,0 0.016,-0.736 -1.008,-0.064 -0.24,-0.224 0,-2.56 c 0.528,0.064 0.96,0.096 1.312,0.096 2.592,0 4.24,-1.664 4.24,-4.224 0,-2.24 -1.328,-3.776 -3.024,-3.776 -0.784,0 -1.584,0.352 -2.528,1.008 l 0,-0.96 -0.72,0 -2.336,0.752 0,0.64 1.104,0 0,8.992 -0.224,0.24 -0.864,0.08 0,0.736 m 3.04,-4.464 0,-5.344 c 0.48,-0.192 0.896,-0.304 1.264,-0.304 1.296,0 2.112,0.96 2.112,2.672 0,1.92 -0.944,3.088 -2.352,3.088 -0.32,0 -0.656,-0.032 -1.024,-0.112"
         style="fill:#ffffff;font-family:Bitstream Charter;-inkscape-font-specification:Bitstream Charter Bold"
         id="path4689"
         inkscape:connector-curvature="0" />
      <path
         d="m 232.34275,385.90975 -2.256,0.768 0,0.624 1.04,0 0,4 c 0,1.84 0.704,2.736 2.192,2.736 0.848,0 1.68,-0.368 2.688,-1.024 l 0,0.88 3.024,0 0,-0.72 -0.832,-0.064 -0.224,-0.24 0,-6.96 -0.736,0 -2.272,0.768 0,0.624 1.04,0 0,5.104 c -0.528,0.16 -0.976,0.256 -1.376,0.256 -1.104,0 -1.52,-0.544 -1.52,-1.792 l 0,-4.96 -0.768,0"
         style="fill:#ffffff;font-family:Bitstream Charter;-inkscape-font-specification:Bitstream Charter Bold"
         id="path4691"
         inkscape:connector-curvature="0" />
      <path
         d="m 240.6565,387.26975 0,4.656 c 0,0.816 0.016,1.328 0.576,1.696 0.368,0.256 0.8,0.352 1.328,0.352 0.656,0 1.488,-0.16 2.448,-0.512 l 0,-0.768 c -0.32,0.08 -0.656,0.112 -1.04,0.112 -1.056,0 -1.328,-0.416 -1.328,-1.552 l 0,-3.984 2.368,0 0,-0.96 -2.368,0 0,-1.984 -1.008,0 -0.832,1.664 -1.184,0.672 0,0.608 1.04,0"
         style="fill:#ffffff;font-family:Bitstream Charter;-inkscape-font-specification:Bitstream Charter Bold"
         id="path4693"
         inkscape:connector-curvature="0" />
      <path
         d="m 249.5915,386.10175 0,0.736 0.96,0.096 2.56,6.96 1.44,0 2.752,-6.944 0.928,-0.112 0,-0.736 -3.04,0 0,0.736 0.816,0.08 0.128,0.224 -1.824,4.656 -1.664,-4.672 0.176,-0.208 0.832,-0.08 0,-0.736 -4.064,0"
         style="fill:#ffffff;font-family:Bitstream Charter;-inkscape-font-specification:Bitstream Charter Bold"
         id="path4695"
         inkscape:connector-curvature="0" />
      <path
         d="m 265.76225,391.90975 c -0.928,0.592 -1.792,0.88 -2.64,0.88 -1.584,0 -2.576,-1.088 -2.576,-2.928 0,-0.016 0,-0.032 0,-0.048 l 5.232,0 c 0,-0.096 0,-0.208 0,-0.304 0,-2.304 -1.232,-3.616 -3.328,-3.616 -2.304,0 -3.952,1.68 -3.952,4.128 0,2.416 1.568,4.016 3.952,4.016 1.12,0 2.24,-0.32 3.312,-0.944 l 0,-1.184 m -2.08,-2.944 -3.056,0 c 0.048,-1.392 0.704,-2.192 1.664,-2.192 0.88,0 1.392,0.688 1.392,2.016 0,0.064 0,0.112 0,0.176"
         style="fill:#ffffff;font-family:Bitstream Charter;-inkscape-font-specification:Bitstream Charter Bold"
         id="path4697"
         inkscape:connector-curvature="0" />
      <path
         d="m 266.64925,393.89375 4.288,0 0,-0.704 -0.928,-0.096 -0.24,-0.256 0,-10.768 -0.704,0 -2.416,0.768 0,0.624 1.152,0 0,9.408 -0.224,0.224 -0.928,0.096 0,0.704"
         style="fill:#ffffff;font-family:Bitstream Charter;-inkscape-font-specification:Bitstream Charter Bold"
         id="path4699"
         inkscape:connector-curvature="0" />
      <path
         d="m 275.89225,385.90975 c -2.512,0 -4.144,1.632 -4.144,4.096 0,2.416 1.616,4.016 4.016,4.016 2.528,0 4.144,-1.616 4.144,-3.984 0,-2.544 -1.568,-4.128 -4.016,-4.128 m -0.064,0.848 c 1.136,0 1.872,1.136 1.872,3.232 0,2.08 -0.704,3.184 -1.888,3.184 -1.12,0 -1.84,-1.136 -1.84,-3.232 0,-2.064 0.72,-3.184 1.856,-3.184"
         style="fill:#ffffff;font-family:Bitstream Charter;-inkscape-font-specification:Bitstream Charter Bold"
         id="path4701"
         inkscape:connector-curvature="0" />
      <path
         d="m 287.799,393.17375 0,-1.136 c -0.784,0.48 -1.536,0.72 -2.224,0.72 -1.488,0 -2.464,-1.136 -2.464,-3.056 0,-1.824 0.976,-2.976 2.096,-2.976 0.112,0 0.24,0.016 0.4,0.048 l 0,1.696 c 0.288,0.208 0.592,0.304 0.944,0.304 0.688,0 1.152,-0.464 1.152,-1.088 0,-0.976 -0.992,-1.744 -2.64,-1.744 -2.4,0 -4.128,1.712 -4.128,4.144 0,2.32 1.52,3.936 3.84,3.936 1.024,0 2,-0.288 3.024,-0.848"
         style="fill:#ffffff;font-family:Bitstream Charter;-inkscape-font-specification:Bitstream Charter Bold"
         id="path4703"
         inkscape:connector-curvature="0" />
      <path
         d="m 290.592,382.30975 c -0.656,0 -1.152,0.512 -1.152,1.2 0,0.704 0.528,1.184 1.168,1.184 0.672,0 1.184,-0.496 1.184,-1.216 0,-0.656 -0.48,-1.168 -1.2,-1.168 m 0.176,3.648 -2.256,0.752 0,0.64 1.056,0 0,5.52 -0.224,0.24 -0.864,0.064 0,0.72 4.192,0 0,-0.72 -0.896,-0.064 -0.24,-0.24 0,-6.912 -0.768,0"
         style="fill:#ffffff;font-family:Bitstream Charter;-inkscape-font-specification:Bitstream Charter Bold"
         id="path4705"
         inkscape:connector-curvature="0" />
      <path
         d="m 294.219,387.26975 0,4.656 c 0,0.816 0.016,1.328 0.576,1.696 0.368,0.256 0.8,0.352 1.328,0.352 0.656,0 1.488,-0.16 2.448,-0.512 l 0,-0.768 c -0.32,0.08 -0.656,0.112 -1.04,0.112 -1.056,0 -1.328,-0.416 -1.328,-1.552 l 0,-3.984 2.368,0 0,-0.96 -2.368,0 0,-1.984 -1.008,0 -0.832,1.664 -1.184,0.672 0,0.608 1.04,0"
         style="fill:#ffffff;font-family:Bitstream Charter;-inkscape-font-specification:Bitstream Charter Bold"
         id="path4707"
         inkscape:connector-curvature="0" />
      <path
         d="m 298.52975,386.11775 0,0.688 0.96,0.144 2.848,7.136 c -0.4,0.96 -0.832,1.616 -1.248,1.952 l -1.392,-0.96 c -0.528,0.272 -0.832,0.672 -0.832,1.136 0,0.608 0.592,1.184 1.376,1.184 1.056,0 2.192,-1.056 2.976,-2.944 l 3.088,-7.504 0.864,-0.144 0,-0.688 -3.072,0 0,0.688 0.848,0.096 0.144,0.24 -1.744,4.512 -1.728,-4.528 0.16,-0.224 0.816,-0.096 0,-0.688 -4.064,0"
         style="fill:#ffffff;font-family:Bitstream Charter;-inkscape-font-specification:Bitstream Charter Bold"
         id="path4709"
         inkscape:connector-curvature="0" />
    </g>
    <path
       style="fill:none;stroke:#ffffff;stroke-width:1.70712292px;stroke-linecap:butt;stroke-linejoin:miter;stroke-opacity:1;display:inline"
       d="m 136.10061,968.73599 -0.0875,18.37147"
       id="path3721"
       inkscape:connector-curvature="0"
       sodipodi:nodetypes="cc" />
    <path
       style="fill:#ffffff;fill-opacity:1;stroke:none;display:inline"
       d="m 135.91226,994.85345 -4.18735,-17.24307 4.19029,6.99422 4.46064,-5.33009 z"
       id="path3723"
       inkscape:connector-curvature="0"
       sodipodi:nodetypes="ccccc" />
  </g>
</svg>
