<?xml version="1.0" encoding="UTF-8" standalone="no"?>
<!-- Created with Inkscape (http://www.inkscape.org/) -->

<svg
   xmlns:dc="http://purl.org/dc/elements/1.1/"
   xmlns:cc="http://creativecommons.org/ns#"
   xmlns:rdf="http://www.w3.org/1999/02/22-rdf-syntax-ns#"
   xmlns:svg="http://www.w3.org/2000/svg"
   xmlns="http://www.w3.org/2000/svg"
   xmlns:sodipodi="http://sodipodi.sourceforge.net/DTD/sodipodi-0.dtd"
   xmlns:inkscape="http://www.inkscape.org/namespaces/inkscape"
   width="42.220188"
   height="51.808811"
   id="svg3396"
   version="1.1"
   inkscape:version="0.48.4 r9939"
   sodipodi:docname="pom.svg">
  <defs
     id="defs3398">
    <filter
       color-interpolation-filters="sRGB"
       inkscape:collect="always"
       id="filter4730"
       x="-0.1511635"
       width="1.302327"
       y="-0.10848364"
       height="1.2169673">
      <feGaussianBlur
         inkscape:collect="always"
         stdDeviation="9.2982805"
         id="feGaussianBlur4732" />
    </filter>
    <filter
       color-interpolation-filters="sRGB"
       inkscape:collect="always"
       id="filter4714"
       x="-0.30372989"
       width="1.6074598"
       y="-0.15362899"
       height="1.307258">
      <feGaussianBlur
         inkscape:collect="always"
         stdDeviation="11.151112"
         id="feGaussianBlur4716" />
    </filter>
    <filter
       color-interpolation-filters="sRGB"
       inkscape:collect="always"
       id="filter4754"
       x="-0.27854609"
       width="1.5570922"
       y="-0.12746786"
       height="1.2549357">
      <feGaussianBlur
         inkscape:collect="always"
         stdDeviation="5.7548499"
         id="feGaussianBlur4756" />
    </filter>
    <filter
       color-interpolation-filters="sRGB"
       inkscape:collect="always"
       id="filter4738"
       x="-0.42674878"
       width="1.8534976"
       y="-0.10241133"
       height="1.2048227">
      <feGaussianBlur
         inkscape:collect="always"
         stdDeviation="5.5651041"
         id="feGaussianBlur4740" />
    </filter>
  </defs>
  <sodipodi:namedview
     id="base"
     pagecolor="#ffffff"
     bordercolor="#666666"
     borderopacity="1.0"
     inkscape:pageopacity="0.0"
     inkscape:pageshadow="2"
     inkscape:zoom="7.9195959"
     inkscape:cx="12.051663"
     inkscape:cy="22.807964"
     inkscape:document-units="px"
     inkscape:current-layer="g4090"
     showgrid="false"
     inkscape:object-nodes="true"
     fit-margin-top="0"
     fit-margin-left="0"
     fit-margin-right="0"
     fit-margin-bottom="0"
     inkscape:window-width="1319"
     inkscape:window-height="744"
     inkscape:window-x="47"
     inkscape:window-y="24"
     inkscape:window-maximized="1" />
  <metadata
     id="metadata3401">
    <rdf:RDF>
      <cc:Work
         rdf:about="">
        <dc:format>image/svg+xml</dc:format>
        <dc:type
           rdf:resource="http://purl.org/dc/dcmitype/StillImage" />
        <dc:title></dc:title>
      </cc:Work>
    </rdf:RDF>
  </metadata>
  <g
     inkscape:label="Layer 1"
     inkscape:groupmode="layer"
     id="layer1"
     transform="translate(-456.03276,-480.7766)">
    <g
       style="display:inline"
       id="g4090"
       transform="matrix(-0.14219603,0.05644346,-0.05644346,-0.14219603,625.79093,568.45726)">
      <path
         sodipodi:nodetypes="ccccccccc"
         inkscape:connector-curvature="0"
         id="path4040"
         d="m 724.78445,565.08985 c -1.91358,-8.80265 0.79267,-4.86246 -0.37881,-11.36422 9.81393,3.09469 9.04382,21.77949 8.20749,27.90547 3.20428,-25.94636 5.70562,-16.2408 13.63706,-30.55712 10.83562,4.87657 3.9571,23.79549 4.67195,28.66308 7.28084,0.95325 12.96451,-18.9145 22.85471,-19.31917 -8.29255,9.19178 -3.70648,16.41013 -8.96511,23.86486 -5.25863,7.45473 -11.65524,23.05486 -23.61231,20.20305 -11.95707,-2.85181 -14.5014,-30.5933 -16.41498,-39.39595 z"
         style="fill:#fe0000;fill-opacity:1;stroke:none;stroke-width:1px;stroke-linecap:butt;stroke-linejoin:miter;stroke-opacity:1" />
      <path
         sodipodi:nodetypes="cccccccccccccccccccc"
         transform="translate(0,652.36218)"
         inkscape:connector-curvature="0"
         id="path4062"
         d="m 724.36493,-88.275108 7.30349,-1.828405 -3.27031,8.618925 4.45083,4.919237 2.43052,-10.864397 1.57759,7.797407 5.05864,-8.445159 0.34971,26.983507 1.57123,-30.102162 3.71193,4.920776 9.23713,-1.224618 -2.58929,7.142857 4.375,-3.035714 -1.07143,11.517857 3.39286,-3.125 1.87501,6.964285 1.69642,-11.785714 0.44643,23.571429 -26.51786,3.928571 z"
         style="fill:#ffff00;fill-opacity:0.99086758;stroke:none" />
      <path
         sodipodi:nodetypes="cccccccccccccccccccc"
         inkscape:connector-curvature="0"
         id="path4062-9"
         d="m 727.97597,566.76085 7.30349,-1.82842 -3.27031,8.61894 4.45083,4.91923 2.43052,-10.8644 1.57759,7.79741 5.05864,-8.44516 0.34971,26.98351 1.57123,-30.10217 3.71193,4.92078 9.23713,-1.22462 -2.58929,7.14286 4.375,-3.03572 -1.07143,11.51787 3.39286,-3.12501 1.87501,6.96429 1.69642,-11.78572 0.44643,23.57144 -26.51786,3.92858 z"
         style="fill:#ff921d;fill-opacity:0.99086756;stroke:none;display:inline" />
      <path
         sodipodi:nodetypes="zzzzzzzzzzccccczz"
         transform="translate(0,652.36218)"
         inkscape:connector-curvature="0"
         id="path3252"
         d="m 786.40375,-41.941735 c 10.06641,7.456421 32.01706,11.796615 43.94164,31.819805 11.92458,20.0231897 17.03069,61.180784 11.11167,84.852813 -5.91902,23.672029 -19.42165,36.870637 -35.35533,49.497477 -15.93368,12.62684 -33.59978,23.50724 -56.56855,23.23351 -22.96877,-0.27373 -51.85915,-13.20353 -70.2056,-30.80966 -18.34645,-17.606131 -31.31375,-43.580618 -33.33503,-68.185293 -2.02128,-24.604675 7.56305,-53.2067254 20.70813,-69.195449 13.14508,-15.988724 37.37261,-16.68762 45.96194,-24.243661 8.58933,-7.556041 7.10615,-5.770991 9.59644,-13.637059 2.49029,-7.866068 2.78326,-17.254072 0,-32.829958 17.21674,7.995543 11.09538,21.432835 18.18275,29.294424 -0.76977,-6.424125 0.76115,-21.074648 8.5863,-28.789348 11.39658,6.928157 5.66272,17.48649 12.12183,22.728433 5.38768,-3.686628 5.73309,-18.270123 14.14213,-19.192899 -7.30525,10.505795 -8.8852,24.431266 -5.55584,32.829958 3.32936,8.398692 6.60111,5.170486 16.66752,12.626907 z"
         style="fill:#9b0000;fill-opacity:0.99086758;stroke:none" />
      <path
         sodipodi:nodetypes="czzzzcsssc"
         inkscape:connector-curvature="0"
         id="path3252-8"
         d="m 768.221,591.73263 c 1.48012,17.81048 42.37113,17.85752 62.12439,50.50762 19.75326,32.6501 17.03069,61.18078 11.11167,84.85281 -5.91902,23.67203 -19.42165,36.87064 -35.35533,49.49748 -15.93368,12.62684 -33.59978,23.50724 -56.56855,23.23351 -22.96877,-0.27373 -51.85915,-13.20353 -70.2056,-30.80966 8.68163,-17.75192 -2.10421,-40.87593 10.03642,-52.63953 11.98417,-11.612 21.87798,-25.18207 24.69097,-41.29534 2.70224,-15.47894 12.7541,-41.28867 32.32854,-45.59313 14.48625,-3.18556 9.03333,-27.74013 21.83749,-37.75376 z"
         style="fill:#c50000;fill-opacity:0.99086758;stroke:none;filter:url(#filter4730)" />
      <path
         sodipodi:nodetypes="zzczzzzcz"
         transform="translate(0,652.36218)"
         inkscape:connector-curvature="0"
         id="path4066"
         d="m 758.11948,76.246112 c 8.78756,-17.174628 4.66531,-37.363842 10.10152,-53.033009 5.43621,-15.6691662 25.8395,-42.760212 12.12183,-56.568542 16.58692,-0.17127 22.62299,17.296882 36.36549,26.7690423 13.7425,9.47216 12.95124,26.7132977 15.65737,47.4771687 2.70614,20.763871 -9.94572,39.486551 -15.65737,57.578693 -5.71165,18.092145 -28.3228,28.291055 -46.97209,32.324875 -18.64928,4.03383 -46.60656,6.29877 -56.56854,-10.10152 18.3223,-19.43074 36.16423,-27.272081 44.95179,-44.446708 z"
         style="fill:#ff0000;fill-opacity:0.99086758;stroke:none;filter:url(#filter4714)" />
      <path
         sodipodi:nodetypes="zzczzcz"
         transform="translate(0,652.36218)"
         inkscape:connector-curvature="0"
         id="path4064"
         d="m 774.28192,88.873019 c 5.0846,-10.34051 7.05618,-28.229707 15.15229,-33.84011 8.09611,-5.610403 2.59775,-23.896307 8.08122,-39.901025 8.51393,6.723713 22.29477,37.715917 17.1726,58.588846 -5.12217,20.872929 -15.36019,33.18307 -26.76905,38.38579 -11.40886,5.20272 -32.7653,7.83782 -39.90102,-2.52537 12.05717,-2.28197 21.17937,-10.367621 26.26396,-20.708131 z"
         style="fill:#ff2d2d;fill-opacity:0.99086758;stroke:none;filter:url(#filter4754)" />
      <path
         sodipodi:nodetypes="cccsc"
         inkscape:connector-curvature="0"
         id="path4068"
         d="m 703.64611,612.54426 c -36.08585,7.23484 -47.12192,32.29445 -53.79063,54.04316 -6.66871,21.74871 -3.31513,52.77464 6.31346,67.42768 9.62859,-32.31905 -7.06123,-28.11339 8.08122,-61.11423 11.42318,-24.89521 -14.42178,-32.23612 39.39595,-60.35661 z"
         style="fill:#6d0100;fill-opacity:0.99086758;stroke:none;filter:url(#filter4738)" />
    </g>
    <path
       style="fill:#008000;fill-opacity:0.99086758;stroke:none;display:inline"
       d="m 474.8601,496.66945 c 16.88569,-0.18983 17.39904,-7.04577 23.39285,-15.89285 -16.42406,14.18419 -17.40257,6.46889 -23.39285,15.89285 z"
       id="path4099"
       inkscape:connector-curvature="0"
       sodipodi:nodetypes="ccc" />
    <path
       style="fill:#00bd00;fill-opacity:1;stroke:none;display:inline"
       d="m 474.94939,496.58017 c 1.38428,-9.81967 9.32418,-6.2073 22.94642,-15.44643 -15.67989,13.73074 -16.89785,6.55823 -22.94642,15.44643 z"
       id="path4101"
       inkscape:connector-curvature="0"
       sodipodi:nodetypes="ccc" />
    <path
       style="fill:#00a500;fill-opacity:0.99086758;stroke:none;display:inline"
       d="m 475.08512,496.24903 c -10.96651,1.72056 -10.50164,2.01107 -19.05236,12.61313 15.99503,-14.6663 13.34495,-3.01522 19.05236,-12.61313 z"
       id="path4099-5"
       inkscape:connector-curvature="0"
       sodipodi:nodetypes="ccc" />
    <path
       style="fill:#008000;fill-opacity:1;stroke:none;display:inline;"
       d="m 474.99852,496.34093 c -2.22855,10.6803 -18.71754,12.25238 -18.61939,12.15363 15.26466,-14.19092 12.83779,-3.08952 18.61939,-12.15363 z"
       id="path4101-7"
       inkscape:connector-curvature="0"
       sodipodi:nodetypes="ccc" />
    <path
       style="fill:#008000;fill-opacity:0.99086758;stroke:none;display:inline"
       d="m 474.96288,496.839 c 1.23802,-8.19405 -2.70375,-8.89937 -7.36461,-12.39267 6.92846,8.90238 2.36834,8.86266 7.36461,12.39267 z"
       id="path4099-56"
       inkscape:connector-curvature="0"
       sodipodi:nodetypes="ccc" />
    <path
       style="fill:#00bd00;fill-opacity:1;stroke:none;display:inline"
       d="m 474.91814,496.78978 c -5.59392,-1.32467 -2.86143,-4.93111 -7.14092,-12.14663 6.72446,8.51162 2.46055,8.62408 7.14092,12.14663 z"
       id="path4101-79"
       inkscape:connector-curvature="0"
       sodipodi:nodetypes="ccc" />
  </g>
</svg>
